<?xml version="1.0" encoding="utf-8"?>
<!-- Generator: Adobe Illustrator 27.8.1, SVG Export Plug-In . SVG Version: 6.00 Build 0)  -->
<svg version="1.1" id="分離模式" xmlns="http://www.w3.org/2000/svg" xmlns:xlink="http://www.w3.org/1999/xlink" x="0px"
	 y="0px" viewBox="0 0 4799.8 4171.6" style="enable-background:new 0 0 4799.8 4171.6;" xml:space="preserve">
<style type="text/css">
	.st0{opacity:0.5;}
	.st1{fill-rule:evenodd;clip-rule:evenodd;}
</style>
<g class="st0">
	<path class="st1" d="M0.2,0c44.7,15.3,104.3,27.4,141.5,42.8c38.1,15.7,20.9,55.2,72.6,58.3c13.4,0.8,14.1,9.2,53.7,9.2
		c44,0,66.2,10.7,104.6,8.9c16.5-0.8,113.4,59,126,73.8c4.1,4.8,43.9,10.9,43.9,49.2c0,55.6,3.3,45.9-26.3,94.6
		c-34.3,56.4-40.2,40.1-70.1,83.2c-4.1,5.9-39.5,67.2-40.7,75.8c-2.5,17.8-6.7,1.2-8.7,29.5c-1.9,26.5-63.4,143.1-62.9,161.2
		c0.5,15.1-15,41.5,2.5,79.7c2.6,5.6,0.5,22.4,17.6,50.7c8.9,14.8,4.2,26.5,15.7,53.4c8.6,20.2,19.3,78.6,44.7,77.5
		c3.3-0.1,102,21.9,109.5,23.1c71.4,11,136.9-25.6,208.5-10.4c60.6,12.9,64.7,26.1,138.6,26.1c37.7,0,64.4-2.4,102,5.2
		c114.7,23,158.1,61.8,276-1.7c15.6-8.4,34.1-6.5,56.6-27.6c25.5-23.8,158.8,6.2,200.7,6.2c36.5,0,51.9,2.2,88.4-5.2
		c44.6-9.1,109.8-28.3,125.7,25c17.6,59.3,56.5,92.6,120.9,77.8c44.7-10.3,162.5-98.6,209.4-61.8c26.5,20.8,98.6,18.1,113,34.7
		c31.9,36.8,90.3,59.4,138.1,63.4c18.9,1.5,32,2.2,46.9,0.3c132.3-74.7,172.5-7.5,249.2-61.6c45.7-32.2,14.1-42.9,90.6-70.1
		c35-12.4,15.8-17.4,73.3-17.4c36.9,0,59.2-31,82.4,14.4c11.9,23.3,111.5,25.4,131.2,12.7c15.1-9.8,132.3-25.3,145.3-15.2
		c34.4,27,60.2-6,89.4-6c67.8,0,46.7-55.9,98.4-53.7c11.9,0.5,63-13.4,89.9-3.8c39.3,14.1,130.8-23.7,145.6-23.1
		c87.3,3.7,72-12.8,109.5-62.3c29-38.2,135.1-6.2,173.6-6.2c20.9,0,41.7,0,62.6,0c47.4-13.5,101.6,27.3,140.9-29.5
		c4.3-6.2,27.7-44.5,29-47.9c12.5-23.9,33.7-37.9,59.6-41.5c16.6-2.3,103.8-20.8,107.3-36c27.6-3.2-8.6-115.6,58.8-155.3
		c69.6-40.9,39.7-67.7,62.9-113c0.1-0.3,2.4-19.7,3.5-23.8c29.2-21.3,13.4-16.5,35-37.6c18.1-17.6,18-35.1,49.9-49.1
		c15.3-6.7,24.7-17.2,52.2-25.8c108.6-33.9,88.5-62.7,175.9-102.1c16.1-7.3,51.3-11.9,71.3-11.9c24.6,0,45.6,0.3,63.9,1.9v4032.7H0
		L0.2,0L0.2,0z"/>
	<path class="st1" d="M3340.9,890c0.8,7.5-1.8,2.9,6.1,8.5c15.2,10.7,15.7-0.7,33.5,3.9c-4.7,12.7-7.1,1.4-16.2,7
		c5.2,6.1,7.5,5.6,18.9,4.7c5.5-7.2,4.4-9.9,14.5-9c-0.7,13.5-2.4,1-4.8,12.9c14.2-2.6,8.5-8.7,15.1-11.6c7.2-3.2,8.2,2.8,12.6,6.3
		c-7.2,1.4-7.9-1.3-12.8,1.1c4,13.4,4.1,3.4,15.8,8.8c-1.2,5.3,3.4,3.4-8.9,1.6c3,8-4.6,3.5,7.1,6.3c3,0.7,2.1-0.9,7.2,0.2
		c8.1,14.1-0.1,19,2,30.7c20.9-0.1,16.4,0.9,13.7-13.1c-3.6-18.9,3.4-13,14.8-12.5l-2.9-8.8c-0.3-2.5,0.6-7.2,0.6-11.2
		c-6.1,1.8-1.8,0.5-5.4,3.7c-0.1,0.1-1.5,2.5-3.5,4.2c-2.8-8.4,4.1-11.8,12.9-11.7c-2,18.2,0.9,12.1,5.8,24.2c6-3,1.6-0.4,4.2-3.7
		l7.3,2.5c2.3-12.4-7.6-7.5-9.3-15.7c7.4,2.6,12.4,13.7,22.5,7.7c-3.4-6.2-2.8-3.4-9.8-7.4c10.7-2.1,4.7-1,4.8-4.8
		c-13.5-12.9-9.2-2.1-18.2-8.4l17.1-2.2c1.5,1.9,1.4,1.5,3,4.4c0.3,0.6,1.2,2.4,1.5,3c4.5,10,3.6,11.9,15.8,12.1l-6.7-7.8l18.4-0.7
		c-4.8-5.3-14.2-6.6-20.4-10.3c13.3-1,6.2,1.6,16.9,1.7l15.8-6c-11.2-6.2-8.2,4.5-17.6,0c8.7-5.6,17.8-3.6,22.8-13.2l-4.8-1
		c-0.4,0-1.1,0.1-1.5,0.1c-4.9,0.7,0.5-0.4-5.2,2.6c5.2-6,5.9-3.4,9.1-12.7c-0.4-0.2-1.2-0.2-1.5-0.2l-2.8-0.2c-8,0,0,4.5-4.9,0.4
		c2.7-4.6,4.9-11.1,1.6-16.6c-0.4,0.5-0.7,1.3-0.9,1.8c-0.2,0.4-0.7,1.2-0.9,1.7c-4.9,10.2-9.3,20.6-23.3,18.1
		c5.6-4.8,5.5-1.7,9.7-5.1c5.9-4.8,5.3-10.7,14.1-16.4c7.8-5,4.5-0.7,7.8-7.7c-7.8-4.1-17.9,2.6-21.6,9.1
		c-10.3,18.3-7,4.7-16.5,16.4c-2.4-8.2-10.2-2.5,3.1-6.7c9.5-3,9.5-3.7,9.3-15.5c-10.9,4.3-1.2-1.7-9.3,8.5c-4.1-0.7-2.8-4-7.8-6.2
		c-2.9,8.9-4.5,7.6-8.2,16c-4,9.1-1,12.4-9.2,12.6c3.1-7.8,6.4-18.2,10.9-24.2c7.8-10.2,16.7-5,29.6-7c4.9-4,4.4-5.6,6.7-7.3
		c12.4-8.8,11.1-2.6,12.7-23.1c-6.2,5.3-3.1,7.9-8.4,15.1c-8.7-6.8,3.3-12.5-2.2-22.6c-4.7,4.9-5.1,8.9-6.8,17.6
		c-2,10,0.4,12.5-7.7,13.8c2.7-8.5,9.3-18.1,10.1-28c1-12.7-0.3-7.4-3.2-10.2c-2.7,6-3.7,14-6.3,21.3c-1.8,5.1-5.6,12.9-7.7,18.2
		l-1.6-3c-0.1-0.4-0.4-1.1-0.4-1.5l17.8-43.8l-7.9-2.7c1.9-1.5,4.1-1.4,4.9-6.6c2.4-16.3,1.6-4.3-3.5-9c-2.2,9.4-6.1,13-9.8,18.8
		c-1.3-3.4-0.8-3.5-2.1-6.9l-12.8,17.9c-7.3,15,3.6,17.1-7.1,23.6c-2.6-3.3-2.9,5.2-2-8.4c0.9-13.2,24.2-41.9,6.4-52.1
		c-2,4.5-0.5,25.3-8.5,41.1c-5.1,10.1-4.9,11.2-4.8,23.9c0.1,12.4-1,11.6-9.1,17.5c6.3,19.2,0.6,9.2-6.8,32.1
		c-3.3-6.7,4.4-24,4.8-31.8c0.6-14.3-1.4-2.5,3.2-12l11.6-39.5l-3.6-30c-14.3,13.8,5.7,24.3-10.4,43.9c-1.6-14.6,4.6-26.6-0.8-39.7
		c-0.2-0.4-0.8-0.7-1-1.7c-0.2-1-0.7-1.2-1.1-1.7c-7.2,14.8,5.3,39.3-8.7,50.1c3.7-12.6,5.6-22.4-2.3-32.2c-0.3,0.5-0.5,1.3-0.6,1.7
		l0.3,13.4l-7.6,1.2c3.3,6.8,3,2.4,4.4,6l-0.9,7c-14.2-14.7-2.5-19.8-5-34.4c-6.7,3.4-0.9,0.8-6,7.4c-5.3-7.8,1.1-4.2-6.1-7.5
		l8.6,34.4c5.2,9.5,17.2,7.6,18,20.9c-5.8-2.6-1.8-2.9-9.4-5.1c1.2,13.5,4.5,7.7,9.6,18.8c-0.8-0.5-3.7-2.3-4.2-2.4l-6.2,1.2
		c2.6,10,6.6,6.5,5.2,17.7c-1.6,11.7-1.8,2.4-8.2,4.6c0,9.6,5.6,13.3,5.6,28.1c-6.6-8.8-0.1-9.4-13.4-11.9c2.6,6.8,12,17.8,9.3,25.6
		c-8.3-5.9-1.8-0.6-4.6-6.7l-11-20c5.6-10.6,14.8-19.4,15.7-35.6c0.9-16.4,2.5-28.5-14.7-33.8c4.9,16.3,8.1,3.9,6.6,25
		c-0.6,7.9,0,18.6-5.2,24.6l-0.4-13c0.1-21.8-7.6-14.2,0.8-41.9c-3.3-6-4-10.5-9.9-13.6l-1.1,15.6l-10.7-20.6
		c-0.1-0.9-0.4-1.1-0.7-1.7c-2.4,3.1-1.7-0.2-2.2,5.1c-1.1,11.9-2.1-6,0.3,3.3c0.9,3.6,1.3,2.5,4.2,5.3l-2.2,0.1
		c-5.7,0-2-1.9-7.2-0.1c2.1,11.2,1,4,12.3,10.4c0.4,7.7,1.9,7.7,2.8,11.6c1.1,5.1-1,5.2,1,12.4l3.8,14c-0.1,0-0.2-0.1-0.2-0.1
		l-5.8,12.7l-5.2,1.2c-9.6-10.6,14.5-41-10.5-53.3c0.2,14.2,12.8,25.1-6.1,30.7c3.6,4.6,6.4,2.9,7.9,8.8c-4.9,2.7-6.6-0.1-11.6-2.7
		c-0.3-10.1,5-13.8,6.5-23.8c1.6-11-2.7-15.5-4.2-25.4c-7.5,3.7-1.3,0.5-4.5,5.4c-5.9,9.2,3.2-2.1-7.3,4.6c3.7,10.8,2.6,0.4,9.7,11
		l-9.4,1.8c-0.3-0.5-1.2,0.1-1.7,0.4c4.1,7.6,5.8,2.9,8.2,11c-2.4,4.3-2.7,6-7.1,8.1c-9-8.1,1.2-22-11.1-28.8
		c-0.3,0.5-0.4,1.2-0.5,1.6l0.3,12.5c0.3,7.7-1.4,6.4,0.2,15.4c5.5,11.2,21.6,8.9,30.1,24.8c5,9.2,12,9.6,14,14.4
		c2.4,5.6-3.3,6.4-7.7-4.4c-0.7,0.2-1.6,0.8-2,1c-6.9,2.9-1.8,3.9-6.2,1.3c-2-7.7-0.4-11.7-6.4-17c-2-1.8-4.3-3.1-6.7-4.4
		c-6.9-3.7,2.7-1.5-9.5-3.8c2.1,10.8,0.8,10.6,11.5,13.6c-4.4,2-2.6,0.8-4.7,5.4c10.8,6.8,8.8-3.1,9.4,11.6
		c-11.1-7.6-14.2-11.9-17.9-24.1c-1.7-5.8-4.7-11-6.5-15.6c-4.3-11.3,0.1-8.5-8.5-12.2c-0.3,0.4-0.4,1.1-0.4,1.4l-0.3,4.3
		c0.1,0.7,1.7,3.8,2.3,6c-7.6,3.4-3-9-8.5,3.4c11.7,9,7.7-3.6,16.7,17c-19.6-2.1-0.2-5.3-16.8-9.1c2.9,26.8,16,3.5,22.2,26.1
		c-8.6-2.3-3.7-3.4-12.6-4.6c1.7,5.7,0.1,3.6,5.1,8.2C3349.3,898.7,3352.8,893.3,3340.9,890L3340.9,890z"/>
	<path class="st1" d="M2502.4,960.8c-13.7,2.6-1.9,5-12.7,5l1.4-14.4c-9.4,2.5-7.4,3-5.8,11.7c-8.9-4.1-7.1-8.2-9.2,5.5
		c8.2,4.4-2-3.8,6.9,0.5c1.4,7.3,3.3,7.6-2.7,13c-6.5,5.8-5.4-2-8.5,7.2c12.5,8.8-1.7-5,9.2,2.1c-0.9,7.6-2.2,7.7-6.8,10.9
		c-0.7-12.9-2.9-6.1-6.5-15c5.5-7.6,0.7-5.2,9.2-10.2c-3.9-7.4-3.4-1.9-5.3-3.9c-2.7-2.8,0.8,3.5-1.1-2.2c-0.1-0.2-0.1-0.8-0.1-1
		c-1.7-5.7,3.5-1.4-3.7-5.8c-4.8-3-0.1-2.9-5.5-1c-3.6,7.8-0.1-2,2.6,9.5c1.9,8.1-0.4,7-4.6,7.9c-8.1-21.5-5.7-15.5-8.6-14.3
		l-4.3,1.1c-0.4,0-1.2-0.1-1.5-0.1c-0.3,0-1.4,0.4-1.7-0.2c-0.3-0.6-1.2-0.3-1.8-0.3c3.3,8.8,1,7.5,3.1,14.8l6.7-1.3
		c0.2-0.5,0.8-0.5,1.2-0.6c3.7,10.1,5.7,5.8,12.5,11.6c3.2,16.4-1,24-0.1,38.3c-7-4.7-16-12.1-19.8-19.9c2.9-1.8,5.5-0.6,9.9,0.2
		c-1.2-11-1.8-4.9,1.5-14c-1.7-1-1.6-0.9-3.5-2.5l-2-1.9c-10-9.6,4.2,1.3-3.3-3.5c-4.8,9.4,2.9,7.2-4.6,14.4
		c-8.6-6.5-3.1-3.8-3.9-11.9l-0.7-8.9c-3.1,0.7-1.9,0.7-3.6,1.4c-11.4,5.1,6.7-1.7-3.2,1.6c0.2-9,5.4-7.8-2.8-11.3l-2.3,11.4
		c-4-2.6-2.8-2.9-8-2.2c0.8,10.5-2,3.5,4.6,8.8c6.9,5.5,12,6.6,12.5,16.3l-0.6,2.7c-8.3,1-6.6-12.3-18.4-13.1
		c3,9.2,2.4-0.1,5.1,10.5c-8.5,4.5-4.7-5.8-6.7,8.1l3.8,0.1c0,0,3-1.3,3.3-1.4c0.2,1.3,1,6.4,1.2,6.9c2.2,6-0.8,1.9,4.1,5l1.5-10.3
		c17.3-1,14.5,2.7,22.3,11.7c7.2,8.3,12.9,6.2,8,22.6c-5.9,0.1-20.2-6.4-20.1-14.7c0.1-5.6-0.4-3.1,4.1-5.8
		c-0.3-0.3-0.9-0.7-1.1-0.9l-1.9-1.7c-3.7-3.9,2.4-4-6.5-6.8c-2.3,10.4,0.6,10.8-1.7,18.7c-6.9-3.1-9.2-10.5-14.4-14.8l-4.5,6.8
		c-4.2-8.5,4.6-4.6-5.8-8.8l2.3,11.7c-7.4,4.2-4.2-8.3-9.3,4.1c15,5.3,14.7-1.4,20.8-0.6c0.2,0.4,0.2,1,0.2,1.2
		c-0.5,5.5-5,8.1-8.7,11.9c-6.4-2.4-3.4-3.2-9.5-3.9c-1.2,10.3-1,4,6.8,9.7c-6.3,6.4-9.9,1.8-4.9,11.9c4.3-2.2,8.3-5.8,10.5-8.6
		c1.7,14.2-8.3,2.2-1,15.4c6.2-7.6,4.9-19.7,9.3-24c8.3-8.1,16-0.9,19.8,5.2c-6.2,12.8-6.4,12.2-16.7,9.5c2,7.3,1.5,11.2,10.1,8.5
		c-2.4,5.9-4,4.1,0,10.2c0.4-0.3,0.8-0.8,1-1l2.7-3.2c2.3-3-1.4,0.7,2.6-3.7c-0.4,13.9-4.3,10.2,5.9,10c3.4-4.7,1.2,2.4,0.9-3.5
		c-0.3-5.2-2.5-3.5-3.3-10.8c-0.9-8.5,1.1-9.5,6.5-12.9c22.9,9.1-2.6,39.5,1.2,50.5c7.6,2.5,26.8,2.5,34-0.1c2-8.4-4.1-8.7-5.5-15.7
		c-0.5-2.4,0.2-6.4,1.1-8.7c8.7-21.8,24.7,3.5,31.6,10.8c4.8-8.8,0.1-12.5-0.6-16.6c6.6,1,10.1,8.1,10.2,7.8c0.1-0.3,0.6,0.7,1,0.9
		l3.9-3.7l-11-11.6c4-4.1,9.7-6.2,15.1-0.4c5.7,6.2,0.6,12.1,11.9,11.1l-3.5-10.7c8.5,2.9,4.1,5.8,10.5,3.6c3.9-8.4,0.3-5.7-9.5-8.8
		c8.1-5.3,6.1,1.3,6.4-6.9c-12.7-6.4-4.7,15.2-21.9,1.5c1.7-5.4,3.3-3.3,8-6.7c5.4-3.9,2.6-0.3,5.2-6.9c8.4,5.6-6,6.9,8.5,4.5
		c-1.1-5.2-3.2-4.3-1.1-8.2l4.6,2.3c5.5,2-1,2.9,4,0.5c2.3-7,0.1-4.2-4.3-8.1l-8.4-8.7l-2.1,4.8c-3.3,6.9-7.3,12.9-15.3,11.6
		c3.6-17.4,9.1-15.7,14.5-20.4l-2.6-3.8c-1.7-3.5-0.5-5,5.5-8.1c7.1,3.6,3.1,2.2,8.2,7.9l5.7-3.7l-5.7-7.7c9-6.9,6,1.4,9.1-5.7
		c-4.5-9.4-4.8-0.4-12.6-7.2c-3.9-3.4-0.2-2-5.8-4.6c-5.5,13-3.2,1.6,3.5,11.3l-13.3,8.8l-1.3-13.2c-9.6,10.3,2.2,14.9-6.3,30.7
		c-9.4,17.5-7.6,13.3-7.9,28.5c-4.3,1.4-7,3.7-9.9,4.7c-3.2,1.1-0.6,0.9-4.5,0.9c-5.1,0-1.3,0.7-4.7-1.5c6.7-9.5,3,1,8.6-6.5
		c4.4-5.9,0.2-3.2,0.1-6.4c-0.2-6.7,4.5-7.8,0.4-15c-3.4,7.1-0.4,6.5-7,4.7c-0.6,2.9-0.4,5.5-0.4,5.7c-0.5,3.8,0.7,0.5-0.8,3.6
		c-7.2-3.8-5-5-1.9-12.1c9.2-20.8,13.2-2.1,19,0.3c3.2-14.1,6.7-6.8,8.8-19c-6.6,0.8-4.8,1.6-5.5,1.7c-12.6,2.6-10.4,6.1-11.2,0.3
		c-1-7.4,2.3-0.5,2.6-14l2,2.4c2.9,2.7,0.3,2.3,4.3,2.6c8.6,0.6,5.4-2.5,5.9-3c-5.2-10-2.6,2.3-7.3-8.1c0.1-0.1,2.8-1.8,3.3-2.3
		c14.8-12.2,4.6-5.7,15.8-4.7l0.2-7.7c1-5.1,3.9,4.2,0.9-5.4l-9.6,0.7c-0.2,0.4-0.6,1-0.8,1.3l-3.6,5.3l-1.9-13.2
		c5-2.9,5.9-1,10.5-4.4c-5.9-11.2-0.5-1.1-9.3-6.1c3.2-7.8,4.6-3.6,1-11.1c-11.2,5.4-0.8,6-10,10.2l-3.7,1c3.4,7.6,16.3,23-3.1,26.1
		c3,10.1,6.4,3.1,0.6,15.2c-7.2,15.1-18.5,25.6-18.2,43.3c-0.5-0.4-1-1-1.4-1.3l-4-3.4c-3.9-2.7,1.2-1.4-5.1-2.4
		c-0.1,9.9,6.2,7.1,7.3,18.6l-10.4,2.8c-0.6-36.7-1.6-18.3,9.2-32.7l4.2-6.4c3.1-4.2-0.4,3.2,3.8-4.9c-4.7-11.2-1.1,6.7-4.2-6.2
		c3.5-4,5.9-3.6,7.8-7.9c-9.6-3.8-7,0.7-12.4,5.9c-4.7,4.5-4.4-2.3-4.2,5.6l2,5.2c0.1-0.3,0.6,0.9,0.7,1.5
		c-10.4,4.8,1.1,1.8-8.3,6.1c-3.8-8.4-1.9-14.4,3.2-19.2c13-12.1,3.9-7.6,11.1-15.7c8.2,1.9,6.3,8.2,13.2,3c0.5-8.1,0.7-0.4-2-5.7
		c-8.9-17.1,1.4,8.7-3-5.2c3.5-1.9,4.4,1.5,9.1-1.1l6.3-2.9l-5.3-11.5c-7.3,2.1-3.1,3.4-3.5,3.9l-9,6.9c-2.9,1.4-1.7,1.5-4.3,1.3
		C2487,974.9,2497,970.5,2502.4,960.8L2502.4,960.8z"/>
	<path class="st1" d="M4118.5,324.9c25.1,15,29.3,27.8,45,51.6c-18.3,6.1-0.6-9.8-14.1-1.2c15.7,20.2,21.7,1.1,22.7,42.5l-15.7-6.4
		c6.9,16,10.6,5.1,20.2,35.8c7.5,23.8,18.7,18.4,8.8,43.1l-16-20.3c-0.4-0.6-1.1-1.7-1.8-2.4c1.8,16.2,18.8,47.6-5,59.2
		c-17.3-16,1.7-53.4-2.9-77.4l-1.6-5.4c-7.5,15.3-2.4,45.7-10.4,61.1c-11.2-24.3,5.2-99,0-108.1l-8.5,22.4c-8.7-2.4-4.2-3.4-8.4-2.4
		c3.2,18.6,7.3,26.5,7,50.3c-12.1-8.1-27.2-27.6-23.8-45.7c3.9-20.5,18.6-15.9,17.2-56.4l-7.8,21c-2.4,9.5-0.4,9.6-9,16.1
		c2.3-11.1,8.2-27.5,2.1-38.7l-4.7,24.7l-11.5-13.9c0.7,11.5,6.6,19.7,7.6,29.1c1.4,13-4,18.6,0.4,35.7c6,23.5,22.8,24.1,27.5,52.5
		c-19.2-2.4-19-2.6-29.4-12.2c4.5,31.2,35.4-6.1,39,56.2c-11.5-5.8-6.1-5.9-17.1-7.6c13.7,30.3,58.1,33.2,59.4,72.5
		c0.5,14.1-1.5,31.4-1.9,46.1c-42-28-5.6-25.5-15.2-65.2c-7.2,3.7,3.7-1.4-3.9,3.8c-7,4.8,2.7,2.8-8.8,4.6
		c-9.7-10-3.3-8.3-10.1-18.2c-7.5,13.8,7.7,21.8,14.2,29.2l-7.4,23l-13.4-15.8c-1.7,27.7,24.1,25.1,35.1,47.4
		c5.4,11,2.3,17.4,11.2,30.9c14.4,21.8,3.5,6.6,6.2,31.3c51.8,2.9-8.5-11.9,67.5-65.8c17.3-12.3,17.2-2,24.7-23.7
		c-11.4,8.6-2.5,7.2-16.6,11.1l-4.6-17.1c-5.7,26.5-5.7,28.5-27.2,37.1c20-66.3,52.3-42.7,54.9-60.3l-26.5,4.2
		c10.8-19,10.7-11.6,22.7-21.2c14.3-11.4,6.8-19.1,7-34.2c-11.7,16.5,5.9,18.9-12.4,29.1l-5.9-24.7c-11.8,27.8,8.5,21.9-14.1,40.3
		c-13.1-29.2-3.5-31.9,6.7-57.1c4.1-10.1,3.7-9.6,8.8-17.8l-8.2-0.8c-3.9-1.5-4.6-8.7-6.7,1.5c-3.7,18.3,5.4,12.5-8.6,30.3
		l-10.4-10.2c-2.6-4-4.4-8.6-6.5-13.9c11.1-18,10.2-15.4,28.8-26.3c10.4-6.1,26.6-9.7,28.4-24.1c-7,7.9-6.6,8.5-19.2,9.6
		c0.5-11.8,5.6-24-0.5-33.6c-1.9,12.4-4.3,33.3-13.6,41.2c-15.7-28.9-0.4-33.2,1.5-61.1l-10.4,16.6c-3.1,8.3-2.7,11.7-5,19.2
		c-0.8-0.3-1.9-1.9-2.2-1.3s-1.7-1.1-2.1-1.4s-1.5-1.1-2-1.5l-11.9-10.5c10.3,30.7,39.8,27.7,8.8,59.4c-7.5-4.8-15.2-10.5-21.6-16.6
		c0.2-22.6,3.7-8.6,10-25.1h-14.9c-1.3,7.9,0.1,23.8-8.6,25.8l-8.1,1.9c16.3,14,22.6,1.9,30.3,18.8c14.9,32.5,40.3,80.4,15.4,112.1
		c-0.4-0.7-14.1-37.7-15.9-43c-5.8-17.3-15.2-22.7,4.7-40.2l-10.9-9.2c-0.4-0.4-1.4-1.1-2-1.7c-0.1,7.4,1.1,7.1-1.3,14.2
		c-4.6,13.8-0.2,4-5.8,8.1c-12.7-25.3,4.8-18.9,2.4-40.1l-10.2,14.1c-4.2-4.9-3.6-4.4-11.7-7.4l10.8,31.7
		c5.7,21.1,12,16.4,17.8,33.4l-20.5-14.7c8.5,31,46.9,26.5,28,83c-3.6,10.8-8.8,19-18.2,25.2c3.1-35,16.5-19.6,15.1-59
		c-5.1,10-1.3,18.2-11.6,22.7l7.8-33.5c0.2,0-0.6,0-0.7,0.5s-1.1,0.3-1.3,0.3c-9.3,1.1,4.9,4.1-6.1,0l-10.4-7.4
		c-0.6-0.5-1.5-1.5-2.5-2c3.9,12.6,6.6,13.1,10,22.6l-8.8-1.4c8.2,24.3,7.1,22.8,0.7,50.6c-15.1-19.5-1.3-66.2-5.6-90.1
		c-6.2-35.1-30.6-35.7-13.2-70.7c10.7-21.5,37.4-77,58.3-87.5c19.9-10,24,4.4,30-20.4c-0.8,0.5-1.9,0.5-2.3,1.7
		c-2.3,7.1-16.7,9-23.2,10.2c6.1-18.3,13.9-39.5,14.9-63c-12.6,13.5-6.6,48.5-24,57.7c-15.4-26.4,12.1-41,10.4-69.7
		c-7.1,9.7-7.4,13.4-11.6,25.8c-9.5-16.4-6.6-28.4-6.6-49.7c-16.6,21-0.5,44.6-3.1,70.5c-7.3-8.4-7.9-13.6-10.9-25.3
		c-11.9,22.6,22.9,42.9,11,64.4c-12.5-0.7-18-30.6-21.8-38.9c-9.7,15,8.7,33.7,13.9,48.3c-5.6,11.8-12.4,24.7-22.2,31.4
		c-8-18.4-6.5-22.8,11.4-31.9c-0.5-0.5-1.5-2-1.7-1.5l-13.3-20.3c-0.2,15.7,3.2,17.6-5.4,28.8c-21-30.8,19.9-73.4,13.6-122.3
		l-5.3,23.7c-12.5-2.3,0-7.6-11.2-5.1c3.6,10.8,8.6,12.3,5.7,26.5l-13.2,21.7c-6-14.7-10.9-22.1-8.6-35.5c3.1-17.5,14.5-23.3,8.6-35
		l-8.7,13.8c-8.2-14.7,0.7-9.4-12.3-16.8c2.2,12.8,9.2,27.7,3.6,37.7c-12.6-10.6-25.1-25.5-29.7-42.6l-2.3,4.9
		C4121.1,324.5,4119.5,318.9,4118.5,324.9L4118.5,324.9z"/>
	<path class="st1" d="M472.4,721c18.7,11.2,21.8,20.7,33.5,38.4c-13.6,4.5-0.4-7.3-10.5-0.9c11.7,15,16.2,0.8,16.9,31.7l-11.7-4.8
		c5.2,11.9,7.9,3.8,15.1,26.7c5.6,17.7,13.9,13.7,6.6,32.1l-11.9-15.1c-0.3-0.4-0.8-1.2-1.3-1.8c1.4,12.1,14,35.4-3.7,44.1
		c-12.8-11.9,1.3-39.8-2.1-57.6l-1.2-4c-5.6,11.4-1.8,34-7.8,45.5c-8.4-18.1,3.9-73.7,0-80.5l-6.4,16.7c-6.5-1.8-3.2-2.5-6.2-1.8
		c2.4,13.9,5.4,19.8,5.2,37.4c-9-6-20.2-20.6-17.7-34c2.9-15.3,13.8-11.9,12.8-42l-5.8,15.7c-1.8,7.1-0.3,7.2-6.7,12
		c1.7-8.3,6.1-20.5,1.5-28.8l-3.5,18.4l-8.6-10.3c0.5,8.6,4.9,14.7,5.6,21.7c1,9.7-3,13.9,0.3,26.6c4.5,17.5,17,17.9,20.5,39.1
		c-14.3-1.8-14.1-2-21.9-9.1c3.3,23.2,26.4-4.5,29,41.8c-8.6-4.3-4.5-4.4-12.7-5.7c10.2,22.6,43.3,24.7,44.2,54
		c0.3,10.5-1.1,23.4-1.4,34.3c-31.2-20.8-4.2-19-11.3-48.6c-5.4,2.8,2.8-1.1-2.9,2.9c-5.2,3.6,2,2.1-6.6,3.4
		c-7.2-7.4-2.4-6.2-7.5-13.6c-5.6,10.3,5.7,16.2,10.6,21.7l-5.5,17.1l-10-11.7c-1.3,20.6,18,18.7,26.1,35.3c4,8.2,1.7,13,8.3,23
		c10.7,16.3,2.6,4.9,4.6,23.3c38.6,2.2-6.3-8.9,50.2-49c12.9-9.1,12.8-1.5,18.4-17.7c-8.5,6.4-1.9,5.4-12.4,8.3l-3.4-12.7
		c-4.3,19.7-4.3,21.2-20.3,27.6c14.9-49.4,38.9-31.8,40.9-44.9l-19.8,3.1c8-14.1,8-8.7,16.9-15.8c10.6-8.5,5-14.2,5.2-25.5
		c-8.7,12.3,4.4,14.1-9.2,21.6l-4.4-18.4c-8.8,20.7,6.3,16.3-10.5,30c-9.7-21.7-2.6-23.7,5-42.5c3.1-7.5,2.8-7.2,6.6-13.2l-6.1-0.6
		c-2.9-1.1-3.4-6.5-5,1.1c-2.8,13.6,4,9.3-6.4,22.6l-7.8-7.6c-1.9-3-3.3-6.4-4.8-10.4c8.3-13.4,7.6-11.4,21.4-19.6
		c7.7-4.6,19.8-7.3,21.1-18c-5.2,5.9-4.9,6.4-14.3,7.1c0.4-8.8,4.2-17.9-0.4-25c-1.4,9.2-3.2,24.8-10.1,30.7
		c-11.7-21.5-0.3-24.7,1.1-45.5l-7.7,12.3c-2.3,6.1-2,8.7-3.7,14.3c-0.6-0.2-1.4-1.4-1.6-1c-0.2,0.5-1.3-0.8-1.6-1
		c-0.3-0.2-1.1-0.8-1.5-1.1l-8.9-7.8c7.7,22.8,29.7,20.6,6.6,44.3c-5.6-3.6-11.3-7.8-16.1-12.3c0.2-16.8,2.7-6.4,7.4-18.7H542
		c-1,5.9,0.1,17.7-6.4,19.2l-6,1.4c12.2,10.4,16.8,1.4,22.6,14c11.1,24.2,30,59.8,11.4,83.5c-0.3-0.5-10.5-28-11.8-32
		c-4.3-12.9-11.3-16.9,3.5-29.9l-8.1-6.9c-0.3-0.3-1-0.9-1.5-1.3c-0.1,5.5,0.8,5.3-0.9,10.6c-3.4,10.3-0.2,3-4.3,6
		c-9.4-18.9,3.6-14.1,1.8-29.8l-7.6,10.5c-3.2-3.6-2.7-3.2-8.7-5.5l8,23.6c4.2,15.7,8.9,12.2,13.3,24.9L532,905.7
		c6.3,23.1,34.9,19.7,20.9,61.8c-2.7,8-6.6,14.2-13.5,18.8c2.3-26,12.3-14.6,11.2-43.9c-3.8,7.5-1,13.6-8.6,16.9l5.8-25
		c0.1,0-0.4,0-0.5,0.4c-0.1,0.3-0.9,0.2-1,0.2c-6.9,0.8,3.6,3-4.6,0l-7.8-5.5c-0.4-0.4-1.1-1.1-1.8-1.5c2.9,9.4,4.9,9.7,7.5,16.9
		l-6.6-1c6.1,18.1,5.3,17,0.5,37.7c-11.2-14.5-1-49.3-4.2-67.1c-4.6-26.2-22.7-26.6-9.8-52.6c8-16,27.8-57.4,43.4-65.2
		c14.8-7.4,17.8,3.3,22.3-15.2c-0.6,0.4-1.4,0.4-1.7,1.3c-1.7,5.3-12.4,6.7-17.3,7.6c4.5-13.6,10.3-29.4,11.1-46.9
		c-9.4,10.1-4.9,36.1-17.8,43c-11.5-19.7,9-30.5,7.8-51.9c-5.3,7.3-5.5,10-8.6,19.2c-7-12.2-4.9-21.1-4.9-37
		c-12.3,15.6-0.4,33.2-2.3,52.5c-5.4-6.3-5.9-10.1-8.1-18.9c-8.9,16.8,17,31.9,8.2,47.9c-9.3-0.6-13.4-22.8-16.2-29
		c-7.2,11.2,6.4,25.1,10.4,35.9c-4.2,8.8-9.3,18.4-16.6,23.4c-6-13.7-4.8-17,8.5-23.8c-0.4-0.4-1.1-1.5-1.3-1.1l-9.9-15.1
		c-0.1,11.7,2.4,13.1-4,21.4c-15.6-22.9,14.8-54.6,10.1-91.1l-4,17.6c-9.3-1.7,0-5.7-8.3-3.8c2.7,8,6.4,9.2,4.2,19.7l-9.8,16.1
		c-4.4-10.9-8.1-16.5-6.4-26.4c2.3-13,10.8-17.3,6.4-26.1l-6.5,10.3c-6.1-11,0.5-7-9.2-12.5c1.7,9.5,6.9,20.6,2.7,28.1
		c-9.4-7.9-18.7-19-22.1-31.7l-1.7,3.7C474.3,720.6,473.1,716.5,472.4,721L472.4,721z"/>
	<path class="st1" d="M994,727.8c18.7,11.2,21.8,20.7,33.5,38.4c-13.6,4.5-0.4-7.3-10.5-0.9c11.7,15,16.2,0.8,16.9,31.7l-11.7-4.8
		c5.2,11.9,7.9,3.8,15.1,26.6c5.6,17.7,13.9,13.7,6.6,32.1l-11.9-15.1c-0.3-0.4-0.8-1.2-1.3-1.8c1.4,12.1,14,35.4-3.7,44.1
		c-12.8-11.9,1.3-39.8-2.1-57.6l-1.2-4c-5.6,11.4-1.8,34-7.8,45.5c-8.4-18.1,3.9-73.7,0-80.5l-6.4,16.7c-6.5-1.8-3.2-2.5-6.2-1.8
		c2.4,13.9,5.4,19.7,5.2,37.4c-9-6-20.2-20.6-17.7-34c2.9-15.3,13.8-11.9,12.8-42l-5.8,15.7c-1.8,7.1-0.3,7.2-6.7,12
		c1.7-8.3,6.1-20.5,1.5-28.8l-3.5,18.4l-8.6-10.3c0.5,8.6,4.9,14.7,5.6,21.7c1,9.7-3,13.9,0.3,26.6c4.5,17.5,17,17.9,20.5,39.1
		c-14.3-1.8-14.1-2-21.9-9.1c3.3,23.2,26.4-4.5,29,41.8c-8.6-4.3-4.5-4.4-12.7-5.7c10.2,22.6,43.3,24.7,44.2,54
		c0.3,10.5-1.1,23.4-1.4,34.3c-31.2-20.8-4.2-19-11.3-48.6c-5.4,2.8,2.8-1.1-2.9,2.9c-5.2,3.6,2,2.1-6.6,3.4
		c-7.2-7.4-2.4-6.2-7.5-13.6c-5.6,10.3,5.7,16.2,10.6,21.7l-5.5,17.1l-10-11.7c-1.3,20.6,18,18.7,26.1,35.3c4,8.2,1.7,13,8.3,23
		c10.7,16.3,2.6,4.9,4.6,23.3c38.6,2.2-6.3-8.9,50.2-49c12.9-9.1,12.8-1.5,18.4-17.7c-8.5,6.4-1.9,5.4-12.4,8.3l-3.4-12.7
		c-4.2,19.7-4.3,21.2-20.3,27.6c14.9-49.4,38.9-31.8,40.9-44.9l-19.8,3.1c8-14.1,8-8.7,16.9-15.8c10.6-8.5,5-14.2,5.2-25.5
		c-8.7,12.3,4.4,14.1-9.2,21.6l-4.4-18.4c-8.8,20.7,6.3,16.3-10.5,30c-9.7-21.7-2.6-23.7,5-42.5c3.1-7.5,2.8-7.2,6.6-13.2l-6.1-0.6
		c-2.9-1.1-3.4-6.5-5,1.1c-2.8,13.6,4,9.3-6.4,22.6l-7.8-7.6c-1.9-3-3.3-6.4-4.8-10.4c8.3-13.4,7.6-11.4,21.5-19.6
		c7.7-4.6,19.8-7.3,21.1-18c-5.2,5.9-4.9,6.4-14.3,7.1c0.4-8.8,4.2-17.9-0.4-25c-1.4,9.2-3.2,24.8-10.1,30.7
		c-11.7-21.5-0.3-24.7,1.1-45.5l-7.7,12.3c-2.3,6.1-2,8.7-3.7,14.3c-0.6-0.2-1.4-1.4-1.6-1c-0.2,0.5-1.3-0.8-1.6-1
		c-0.3-0.2-1.1-0.8-1.5-1.1l-8.9-7.8c7.7,22.8,29.7,20.6,6.6,44.3c-5.6-3.6-11.3-7.8-16.1-12.3c0.2-16.8,2.7-6.4,7.4-18.7h-11.1
		c-1,5.9,0.1,17.7-6.4,19.2l-6,1.4c12.2,10.4,16.8,1.4,22.6,14c11.1,24.2,30,59.8,11.4,83.5c-0.3-0.5-10.5-28-11.8-32
		c-4.3-12.9-11.3-16.9,3.5-29.9l-8.1-6.9c-0.3-0.3-1-0.9-1.5-1.3c-0.1,5.5,0.8,5.3-0.9,10.6c-3.4,10.3-0.2,3-4.3,6
		c-9.4-18.9,3.6-14.1,1.8-29.8l-7.6,10.5c-3.2-3.6-2.7-3.2-8.7-5.5l8,23.6c4.2,15.7,8.9,12.2,13.2,24.9l-15.3-10.9
		c6.3,23.1,34.9,19.7,20.9,61.8c-2.7,8-6.6,14.1-13.5,18.8c2.3-26,12.3-14.6,11.2-43.9c-3.8,7.5-1,13.6-8.6,16.9l5.8-25
		c0.1,0-0.4,0-0.5,0.4c-0.1,0.3-0.9,0.2-1,0.2c-6.9,0.8,3.6,3-4.6,0l-7.8-5.5c-0.4-0.4-1.1-1.1-1.8-1.5c2.9,9.4,4.9,9.7,7.5,16.9
		l-6.6-1c6.1,18.1,5.3,17,0.5,37.7c-11.2-14.5-1-49.3-4.2-67.1c-4.6-26.1-22.8-26.6-9.8-52.6c8-16,27.8-57.4,43.4-65.2
		c14.8-7.4,17.8,3.3,22.3-15.2c-0.6,0.4-1.4,0.4-1.7,1.3c-1.7,5.3-12.4,6.7-17.3,7.6c4.5-13.6,10.3-29.4,11.1-46.9
		c-9.4,10.1-4.9,36.1-17.8,43c-11.5-19.7,9-30.5,7.8-51.9c-5.3,7.3-5.5,10-8.6,19.2c-7-12.2-4.9-21.1-4.9-37
		c-12.3,15.6-0.4,33.2-2.3,52.5c-5.4-6.3-5.9-10.2-8.1-18.9c-8.9,16.8,17,31.9,8.2,47.9c-9.3-0.6-13.4-22.8-16.2-29
		c-7.2,11.2,6.4,25.1,10.4,35.9c-4.2,8.8-9.3,18.4-16.6,23.4c-6-13.7-4.8-17,8.5-23.8c-0.4-0.4-1.1-1.5-1.3-1.1l-9.9-15.1
		c-0.1,11.7,2.4,13.1-4,21.4c-15.6-22.9,14.8-54.6,10.1-91.1l-4,17.6c-9.3-1.7,0-5.7-8.3-3.8c2.7,8,6.4,9.2,4.2,19.7l-9.8,16.1
		c-4.4-10.9-8.1-16.5-6.4-26.4c2.3-13,10.8-17.3,6.4-26.1l-6.5,10.3c-6.1-11,0.5-7-9.1-12.5c1.7,9.5,6.9,20.6,2.7,28.1
		c-9.4-7.9-18.7-19-22.1-31.7l-1.7,3.7C995.9,727.4,994.7,723.3,994,727.8L994,727.8z"/>
	<path class="st1" d="M370.3,577.7l11.9,11c25.9-3.2,52-22.3,66.9-46.2c2.3-3.6,12.6-21.3,13.1-24.1c-19.8,5.3-29.2,20.7-45.5,35.1
		C388.3,578.5,376,572.7,370.3,577.7L370.3,577.7z M348.9,547.6c8.8,0.5,15.4,9.1,33.6-4c23.8-17.1,7.3-30.2,51.6-68.3
		c12.1-10.4,14.7-22.2,30-31c29.5-17,12.5-24.9,53.6-66.1c14.5-14.5,51.9-35.2,67.2-24.8c-3.4,3.6-14.2,4.8-31.4,18
		c-11,8.4-21.1,18.7-31.2,28.5c-13,12.6-16.6,20.3-23.7,35.2c-16.4,34.3-27.3,22.2-43.2,37.9c-5.5,5.4-9.2,12.7-15.3,16.9
		c-36.5,24.8-21,36.7-59.1,58.9C374.8,552.4,351,559.3,348.9,547.6L348.9,547.6z M394.3,617.7c17.6,6.2,34.6,4.8,53,11.6
		c13,4.8,45.1,21.6,54.8,33.3c-5.7,2.6-14.9-2.1-22.2-4.2c-7.7-2.2-14.5-3.7-22.2-5.1c-14.1-2.4-29.4-4.7-44.6-10.7
		c-17.3-6.9-86.9-60.8-89.7-69.3c5.2-0.3,10.8,8,14.7,11.2c30.8,25.4,40.6,26.7,76,22.3c10-1.3,17.9-3.7,28.9-7.2
		c10.3-3.2,18.7-6,29-6.8c11-0.9,20.5,2.3,29.5,0.5c30.8-6.2,69.6-35.4,86.2-30.2c9,2.8-4.2,6.8-18.7,20.6
		c-21.9,20.8-33.4,29.5-56.4,29.8c-19.2,0.3-42.7-5.7-58.9-0.4c-11.2,3.7-18.8,4.2-29.2,4.1C414.6,617.2,404.1,617.6,394.3,617.7
		L394.3,617.7z M327.9,566.6c5.6,0.8,9,4.9,12.8,8.8c9,9.2,24.5,15.1,34.3,12.6c-14.3-21.2-32-10.1-40.1-26.1
		c3.5-0.7-2.2-2.5,4.6,0.9c4,2,10.1,8.2,17.3,7.3c-2.6-5.8-10.8-10.3-13.4-16.7c10.2-2.6,10.5,24.1,36.7,18
		c22.5-5.3,25.2-44.8,67-67.6c14.7-8,23.5-9.7,37.8-14.8c17.6-6.2,22-19.4,34.1-34c11.4-13.9,24.5-21.4,36.5-37.6
		c11.5-15.6,18.2-26.8,34-38.5c6.5-4.9,29.1-20.9,37.7-18c-5.8,9-14.2,13.8-21.3,26.1c-26.7,45.7-35.9,35.4-60,69.3
		c-0.2,0.3-1.7,2.7-1.8,2.8l-1.3,4.2c11.9-8.1,18.1-11,30.5-22.5c21.7-20,39.1-44.5,77.6-42.7c5.7,0.3,12.2-2.9,17.2,0.9
		c-5.6,2.9-10.6,3.5-17.5,7.6l-53.1,37.2c-37.5,30.6-19.8,25.9-70.5,47c-66.9,27.9-71.6,87.9-119.9,96.8c-5.6,1-14.1,1.8-18.8,4.1
		c11,5.6,24.3,6.2,35.5,4.1c51.5-9.4,32.8-21.2,66.6-48.6c50.9-41.4,67.4-30.6,104.6-48.4c39.2-18.8,43.4-56.1,51.8-66.9
		c9.8,10.6,5.8,31.7-4.9,46.3c-23.4,31.9-51.7,46.3-88,53.9c-20.9,4.4-25,3.7-45.3,16.6c-15.8,10.1-29.1,18.4-43.3,32.7
		c-16.9,17.1-55.9,23.5-79.6,13c-11.6-5.2-18.2,0.8-35.8-7.4c-11.4-5.3-20.7-17.7-20.9-18.1L327.9,566.6L327.9,566.6z"/>
</g>
<g>
	<path class="st1" d="M2488.8,1525.4c86.6-54,123.3,57.8,234-83.5c22.7-29,227.9-22.4,248.9-6c10.4,8.2,92.9,55.7,113.3,53.7
		c34.2-3.5,119.5-139.3,243.9-91.5c242.5,93.2,173.8-77.1,352.2-69.5c39.1,1.7,63.3-64.7,185.3-7.5c70,32.8,219.4,36.2,282.6-15.8
		c84.1-69.2,47.7-32.6,146.7-76c95-41.6,94-140.6,129.6-216.7c23.5-50,8.9-130.6,96.9-192.3c104-72.9,8.8-215.3,234-286.7
		c15.3-4.8,28.7-12.9,43.6-16.5v3654.5H0V452.3c184.7,0,139.2,19.6,145.8,172.9c1.6,38.6-42,139.2,18.4,196.2
		c98.2,92.7,88.9,63.9,88.9,221.1c0,110.2-45.8,162.6,77.5,225.5c22.5,11.5,46.4,3.8,113.3,47.2c90.2,58.5,146.2,125.9,257.9,82.9
		c33.3-12.8,191.7-16.3,232.5,3.6c109.8,53.6,149,63.8,272.7,58.6c11.2-0.5,25-50.3,83-76c57.3-25.3,3.3-35.2,89.9-83
		c44.6-24.6,100.9-155,164.9-78c26,31.2,142.6,26.3,139.2,134.6c-0.8,23.8,21.2,107.8,71,107.8c87.2,0,93.4,24.7,161-16.4
		c16.1-9.8,139.7-56.6,161.5-37.8c90.4,78.1,74.4,104.3,215.1,125.2c50,7.4,112.2,29.6,154.5-5.5
		C2458.7,1521.8,2472.2,1525.4,2488.8,1525.4L2488.8,1525.4z"/>
	<path class="st1" d="M2112.3,1319.2c-2.1,14.6-1.1,27.2-2.8,41.5c-1.4,11.1-8.8,23.4-9.1,27.7l0.2-50.3
		c-17.6,17.4,8.3,49.7-22.4,57.2c3.3-6.4,5.2-12,6.8-20.2c5.7-30-2-25.3-3.5-26.9c-3.3,23.2,1.8,29.2-13.7,44.9l-0.8-12.8
		c0.1-11.2,3.5-4.7-2.1-12.4c-5.8,7.6-5.9,23.6-8.5,31.7c-3-5.5-2.1-12.4-1.8-17.1c0.6-10.7,3.8-7.2-3-14.9l-10.7,19.5
		c-0.2,0-1.3,0.6-1.5,0.1c-0.2-0.5-1.1,0-1.8,0.3l9.3,24.7c-8.9,8-14.5,12.3-23.2,23.1c2.1-19.6,8.6-22.3,13.4-35.3
		c-4.4,0.3-6.3-4.1-14.4,14.3c-2.5,5.6-5.6,14.2-7,19.6c0.2-14.3,8.4-23.6,12.1-38.8c5.2-21.3,6.5-21.9,21.2-32.4
		c10.2-7.3,17.4-14.7,31.3-22.2C2103.4,1328.1,2102.7,1324.1,2112.3,1319.2L2112.3,1319.2z M2112.3,1319.2
		c7.9-19,50.8-17.6,64.2-34.4c14.2-17.7,4.3-18.2,3.9-18.7c-4.8,7.3-3.2,8.9-11.5,17.4c-1.7-3.4-1.3-2.2,2.3-14.8
		c-16.4,6.6-4,22.4-44.7,32.1c7.8-13,27-12.8,32.5-28.7c-11.3,1.1-9.9,4.4-19.1,11c19.4-30.2,42.2-37.9,46.6-57.6
		c-9.2,4.5-1.6,0.7-9.1,6.9c-3.2,2.6-3.7,3.5-7.4,5.9c0.2-0.6,3.8-9.6,3.8-9.6c0.3-10.4,4-1.2-2.2-8.1l-19.4,40.1
		c-3.2-4.6-1.5-0.1-3-7.5c-6.5-33.9,35.2-43.6,36.9-64.2c-9.4,4.7-7.3,10-18.9,16.2c1.7-4.7,3.4-9.8,4.2-15.2
		c1.3-8.5,0.4-12.7-3.2-16.4l-11.3,31.5c-0.5,0,0.1-1.4-4,0.4c-27.7,12.1-12.2,76.8-33.7,86.6c2.7-12.2,7.5-17.3,5.4-32.2
		c-3.9,4.4-0.5-0.7-3.4,5.8c-5.9,13.1-5.9,29.6-14.6,40.4c-11.5-21.8,23.7-65.8,30.3-90.7c10-37.6,7.5-27.4,0.9-34.1
		c-8.8,53.2-17.7,47.1-26.4,74c2-8.9,5.5-17.2,9.1-26.6c1.9-4.9,4.6-11.5,5.3-15.7l-1.3-13.4c-15.4,22.6-17.6,63.1-26.4,86.3
		c-0.3-13.2,3.7-22.5,5.4-36.3c1.1-8.5,4.6-27.3,0.2-35.7c-5.3,7.6-5,19.3-5.9,28.4c-1.1,11.9-1.2,14.5-5,24.3
		c1.7-11.8,3.4-28.3,5.3-40.4l4.1-32.8c0-0.7-0.3-1.8-0.4-2.4l-1.2-4.7c-0.5,0.8-1,1.8-1.3,2.5l-7.5,35.7
		c-2.2,12.2-3.1,27.7-6.7,37.2c-5.2-20.4,6.4-42.1,9.6-62.9l-0.8-15c-0.2-0.5-1-0.9-1.2-2c-0.1-1.1-0.8-1.4-1.3-2
		c-3.9,10.7-6.9,38.8-10.5,54.3c-4.8,20-5,35.9,4.6,52.4c22.3,38.4-2.6,36.2-27.6,52.3c-7.2,4.7-11.6,8.6-19.1,13.3
		c5.9-24.6,35.3-23.9,42.1-61.7c-10.8,4.6-4.2-0.7-12.7,9.8l3.9-35.2c-6.8,5.3-0.1-2-4.9,5.5l-5.4,13.5c0.8-13.4,10.4-55.7,9.1-59.4
		c-14.4,10.8-9.9,41.3-17.8,57.1l-0.4-33.3c-11,16.4,2.4,50.9-8.6,71.6c-8.7-20.1,9.8-85.9,0-97.9c-5.5,7.7-10.1,101.9-11.1,98.6
		c-0.1-0.4-0.5,1.6-0.9,2.4c-1.2-21.6,8.2-40.4-0.9-48.4c-12.4,35.6,5.3,68.9-8,91.5c-18.3-30.7,11.2-108.7,0-134.2l-2.4,4.6
		c-7.1,18.2,3-13.6-1.7,4.8l-3.2,29.6c-2.6-8.4-2-20.1-7.6-26.6c-5.6,13,4.8,39.3,3.7,69.6l-7.4-20.5c-1.3-10.4,0-13.9-3.8-23.6
		c-3,2.1-3.5,10.8-7.4,13.5l-5-25c-9.2,11.4,0.1,23.1,6.5,32.2c13.3,19,15,64.5,16.4,72.5c5.3,30,8.7,21-7.3,34.1l-4.5-23.4
		c-12.8,14.9,5.6,29.1,4.4,41.3c-7.4-6.3-7.8-7.7-10.3-18.8c-4.4-19.4,4.2-55.4,0-64.5c-5.4,5-11.1,48.3-11.3,47.6
		c-0.1-0.4-0.5,1.5-1,2.1c-11.5-16-0.2-17.1-0.6-34.5c-5.5,4.1-6.5,5.9-9.3,12.6c-1.4-35.1,5.3-39.4,9.6-67
		c-10.2,3.2-6.9,5.2-13.2,16.8c-6.4-19.5-7.1-19.4-5.4-41c-10.8-6.5,0.4-3.9-10.4,3.4l-3.1-23.9c-6.4,6.2-5,18.7-0.8,27
		c12,23.7,16.6,52.8,13.7,80.9c-21.6-7.8-13.9-45.8-21.8-62c-8.2,13.3-2.2,1.5-3.4,10.3c-3,21.1,8.9,38.4,17.1,55.9
		c-33.8-20.3-14.3-44.4-29.5-60.5c-12.2,54.2,29.5,60.9,44.7,85.7c5.2,8.4,7.7,16,12.4,23.4c21.8,34.1,33,32.1,30,65l23.9,0.2
		l6.5-11.7c21.8-45.4,56.9-12.7,84.2-26.5c7.3-3.7,2.4-0.9,7.2-5.2l-27.1,1.9c13.6-7.4,38.3-0.4,52.9-12.2c-7.8-5.7-62.9,8.3-80,8.7
		c17.9-9.9,41.4-8.9,62.8-15c15.8-4.5,17.1-12.1,23.5-15.1c26.7-12.6,23.9,13.5,54.4-41.1c7-12.6,17.5-16.7,25.4-31.2
		c15.8-29.1,5-24.5,4.3-25.4c-19.8,34.3-4.7,15.3-15.5,17.4c-6.3,1.2,0.7-7.2-7.6,9.8l-7.7,11.6c0.2-16,5.9-26.6,11.5-35.8
		c-12.3-11-1.4,3.8-10.3,0c10.3-15,19.6-9,24.5-31l-26.6,21.7c-0.4-0.6-1.5,1-2.3,1.4c1.4-11.1,4.2-11.9,8.5-17.7
		c2.3-3.1,2.4-3.8,4.7-7.1c6.2-8.6,10.8-8.7,18.1-17.8c6.6-8.2,3.4-2.1,7.1-10.9c-10.7,0-6.3,7.7-18.3,13.5
		c6.3-12.8,14.8-17.9,18.5-30.8c-20.9,8.9-23.2,34.2-36.4,50.6c-4.6-21.5,2.8-19.2,7.5-34.9c-21.3,9.5-10.6,30.5-17.5,46.5
		c-15.7-19,4.8-50.2,10.3-64.7c-14.4,6.7-18.3,19.9-20.5,38.4c-4.5,37.7,7.2,23.9,10.8,42.9c4.6,24.4,4.7,70.2-24.8,79.9
		c6.9-14.1,9.8-18.6,10.3-38.2c0.5-18,6.4-27.3,8.2-38.1c-28.7,7.7,0.2,51.4-30.1,76.8c6.3-18.4,11.7-38.5,13.1-59.6
		c0.1-1.8,0.3-10.1,0-11.6l-13.9,56.7c-2.6-10.1,2-19.1,0.4-29.7c-0.9-6.1-0.9-4.8-2.5-7.5l-8.5-22.9c-5.4,4.9-5.4,9.2-5.3,17.9
		c0.2,15.5,2.6,33.4-2.5,47.2c-1.2-12.4,0-31.8-7.7-40.6c-6.3,13.6,4.1,25.3-1.7,37.2c-6.6-11.6-2.1-25.3-2.2-39
		c0-7.4,0.2-4.6-1.8-7.9c-12.1,19.2-3.3,30.4-6.2,49.5c-0.1,0.4-0.4,1.2-0.5,1.6c-1.1,6.3-3.9,3.8,1.5,10.2
		c6.2,7.4,11.7,4.7,14.8,13.2c-14.7,12.8-46.2,10.8-67.9,16.2c-19.1,4.7-43.1,21.1-46.9,32.4c1.7-9,9.5-17.5,15.5-22.2
		c5.7-4.5,16.3-15.3,20.8-17.7c18.6-9.9,33.7-5.2,51.3-6.7c14.4-1.2,8-1,11.7-6.5l-23.1-4.3c8.7-37.8,5.6-20.5,21.2-44.7
		c-3.8-7-3.6,3.5-6-7.4c-0.9-4.1,0.2-9.7,0.6-14.3l-7.2,10.8c-0.5,1.2-1.5,5.7-2,7.1C2116.5,1331.2,2121.9,1321.6,2112.3,1319.2
		L2112.3,1319.2z"/>
	<path class="st1" d="M3789.3,1204.2c2.1,14.6,1.1,27.2,2.8,41.5c1.4,11.1,8.8,23.4,9.1,27.7l-0.2-50.3
		c17.6,17.4-8.3,49.7,22.4,57.2c-3.3-6.4-5.2-12-6.8-20.2c-5.7-30,2-25.3,3.5-26.9c3.3,23.2-1.8,29.2,13.7,44.9l0.8-12.8
		c-0.1-11.2-3.5-4.7,2.1-12.4c5.8,7.6,5.9,23.6,8.5,31.7c3-5.5,2.1-12.4,1.8-17.1c-0.6-10.7-3.8-7.2,3-14.9l10.7,19.5
		c0.2,0,1.3,0.6,1.5,0.1s1.1,0,1.8,0.3l-9.3,24.7c8.9,8,14.5,12.3,23.2,23.1c-2.1-19.6-8.6-22.3-13.4-35.3
		c4.4,0.3,6.3-4.1,14.4,14.3c2.5,5.6,5.6,14.2,7,19.5c-0.2-14.3-8.4-23.6-12.1-38.8c-5.2-21.3-6.5-21.9-21.2-32.4
		c-10.2-7.3-17.4-14.7-31.3-22.2C3798.2,1213.1,3798.9,1209.1,3789.3,1204.2L3789.3,1204.2z M3789.3,1204.2
		c-7.9-19-50.8-17.6-64.2-34.4c-14.2-17.7-4.3-18.2-3.9-18.7c4.8,7.3,3.2,8.9,11.5,17.4c1.7-3.4,1.3-2.2-2.3-14.8
		c16.4,6.6,4,22.4,44.7,32.1c-7.8-13-27-12.8-32.5-28.7c11.3,1.1,9.9,4.4,19.1,11c-19.4-30.2-42.2-37.9-46.6-57.6
		c9.2,4.5,1.6,0.7,9.1,6.9c3.2,2.6,3.7,3.5,7.4,5.9c-0.2-0.6-3.8-9.6-3.8-9.6c-0.3-10.4-4-1.2,2.2-8.1l19.4,40.1
		c3.2-4.6,1.5-0.1,3-7.5c6.5-33.9-35.2-43.6-36.9-64.2c9.4,4.7,7.3,10,18.9,16.2c-1.7-4.7-3.4-9.8-4.2-15.2
		c-1.3-8.5-0.5-12.8,3.2-16.4l11.3,31.5c0.5,0-0.1-1.4,4,0.4c27.7,12.1,12.2,76.8,33.7,86.6c-2.7-12.2-7.5-17.3-5.4-32.2
		c3.9,4.4,0.5-0.7,3.4,5.8c5.9,13.1,5.9,29.6,14.6,40.4c11.6-21.8-23.7-65.8-30.3-90.7c-10-37.6-7.5-27.4-0.9-34.1
		c8.8,53.2,17.7,47.1,26.4,74c-2-8.9-5.5-17.2-9.1-26.6c-1.9-4.9-4.6-11.5-5.3-15.7l1.3-13.4c15.4,22.6,17.6,63.1,26.4,86.3
		c0.3-13.2-3.7-22.5-5.4-36.3c-1.1-8.5-4.6-27.3-0.2-35.7c5.3,7.6,5,19.3,5.9,28.4c1.1,11.9,1.2,14.5,5,24.3
		c-1.7-11.8-3.4-28.3-5.3-40.4l-4.1-32.8c0-0.7,0.3-1.8,0.4-2.4l1.2-4.7c0.5,0.8,1,1.8,1.3,2.5l7.5,35.7c2.2,12.2,3.1,27.7,6.7,37.2
		c5.2-20.4-6.4-42.1-9.6-62.9l0.8-15c0.2-0.5,1-0.9,1.2-2c0.1-1.1,0.8-1.4,1.3-2c3.9,10.7,6.9,38.8,10.5,54.3
		c4.8,20,5,35.9-4.6,52.4c-22.3,38.4,2.6,36.2,27.6,52.3c7.2,4.7,11.6,8.6,19.1,13.3c-5.9-24.6-35.3-23.9-42.1-61.7
		c10.8,4.6,4.2-0.7,12.7,9.8l-3.9-35.2c6.8,5.3,0.1-2,4.9,5.5l5.4,13.5c-0.8-13.4-10.4-55.7-9.1-59.4c14.4,10.8,9.9,41.3,17.8,57.1
		l0.4-33.3c11,16.4-2.4,50.9,8.6,71.6c8.7-20.1-9.8-85.9,0-97.9c5.5,7.8,10.1,101.9,11.1,98.6c0.1-0.4,0.5,1.6,0.9,2.4
		c1.2-21.6-8.2-40.4,0.9-48.4c12.4,35.6-5.3,68.9,8,91.5c18.3-30.7-11.2-108.7,0-134.2l2.4,4.6c7.1,18.2-3-13.6,1.7,4.8l3.2,29.6
		c2.6-8.4,2-20.1,7.6-26.6c5.6,13-4.8,39.3-3.7,69.6l7.4-20.5c1.3-10.4,0-13.9,3.8-23.6c3,2.1,3.5,10.8,7.4,13.5l5-25
		c9.2,11.4-0.1,23.1-6.5,32.2c-13.3,19-15,64.5-16.4,72.5c-5.3,30-8.7,21,7.3,34.1l4.5-23.4c12.8,14.9-5.6,29.1-4.4,41.3
		c7.4-6.3,7.8-7.7,10.3-18.8c4.4-19.4-4.2-55.4,0-64.5c5.4,5,11.1,48.3,11.3,47.6c0.1-0.4,0.5,1.5,1,2.1c11.5-16,0.2-17.1,0.6-34.5
		c5.5,4.1,6.5,5.9,9.3,12.6c1.4-35.1-5.3-39.4-9.6-67c10.2,3.2,6.9,5.2,13.2,16.8c6.4-19.5,7.1-19.4,5.4-41
		c10.8-6.5-0.4-3.9,10.4,3.4l3.1-23.9c6.4,6.2,5,18.7,0.8,27c-12,23.7-16.6,52.8-13.7,80.9c21.6-7.8,13.9-45.8,21.8-62
		c8.2,13.3,2.2,1.5,3.4,10.3c3,21.1-8.9,38.4-17.1,55.9c33.8-20.3,14.3-44.4,29.5-60.5c12.2,54.2-29.5,60.9-44.7,85.7
		c-5.2,8.4-7.7,16-12.4,23.4c-21.8,34.1-33,32.1-30,65l-23.9,0.2l-6.5-11.7c-21.8-45.4-56.9-12.7-84.2-26.5
		c-7.3-3.7-2.4-0.9-7.2-5.2l27.1,1.9c-13.6-7.4-38.3-0.4-52.9-12.2c7.8-5.7,62.9,8.3,80,8.7c-17.9-9.9-41.4-8.9-62.8-15
		c-15.8-4.5-17.1-12.1-23.5-15.1c-26.7-12.6-23.9,13.5-54.4-41.1c-7-12.6-17.5-16.7-25.4-31.2c-15.8-29.1-5-24.5-4.3-25.4
		c19.8,34.3,4.7,15.3,15.5,17.4c6.3,1.2-0.7-7.3,7.6,9.8l7.7,11.6c-0.2-16-5.9-26.6-11.5-35.8c12.3-11,1.4,3.8,10.3,0
		c-10.3-15-19.6-9-24.5-31l26.6,21.7c0.4-0.6,1.5,1,2.3,1.4c-1.4-11.1-4.2-11.9-8.5-17.7c-2.3-3.1-2.4-3.8-4.7-7.1
		c-6.2-8.6-10.8-8.7-18.1-17.8c-6.6-8.2-3.4-2.1-7.1-10.9c10.7,0,6.3,7.7,18.3,13.5c-6.3-12.8-14.8-17.9-18.5-30.8
		c20.9,8.9,23.2,34.2,36.4,50.5c4.6-21.5-2.8-19.2-7.5-34.9c21.3,9.5,10.6,30.5,17.5,46.5c15.7-19-4.8-50.2-10.3-64.7
		c14.4,6.7,18.3,19.9,20.5,38.4c4.5,37.7-7.2,23.9-10.8,42.9c-4.6,24.4-4.7,70.2,24.8,79.9c-6.9-14.1-9.8-18.6-10.3-38.2
		c-0.5-18-6.4-27.3-8.2-38.1c28.7,7.7-0.2,51.4,30.1,76.8c-6.3-18.4-11.7-38.5-13.1-59.6c-0.1-1.8-0.3-10.1,0-11.6l13.9,56.7
		c2.6-10.1-2-19.1-0.4-29.7c0.9-6.1,0.9-4.8,2.5-7.5l8.5-22.9c5.4,4.9,5.4,9.2,5.3,17.9c-0.2,15.5-2.6,33.4,2.5,47.2
		c1.2-12.4,0-31.8,7.7-40.6c6.3,13.6-4.1,25.3,1.7,37.2c6.6-11.6,2.1-25.3,2.2-39c0-7.4-0.2-4.6,1.8-7.9
		c12.1,19.2,3.3,30.4,6.2,49.5c0.1,0.4,0.4,1.2,0.5,1.6c1.1,6.3,3.9,3.8-1.5,10.2c-6.2,7.4-11.7,4.7-14.8,13.2
		c14.7,12.8,46.2,10.8,67.9,16.2c19.1,4.7,43.1,21.1,46.9,32.4c-1.7-9-9.5-17.5-15.5-22.3c-5.7-4.5-16.3-15.3-20.8-17.7
		c-18.6-9.9-33.7-5.2-51.3-6.7c-14.4-1.2-8-1-11.7-6.5l23.1-4.3c-8.7-37.8-5.6-20.5-21.2-44.7c3.8-7,3.6,3.5,6-7.4
		c0.9-4.1-0.2-9.7-0.6-14.3l7.2,10.8c0.5,1.2,1.5,5.7,2,7.1C3785.1,1216.2,3779.7,1206.6,3789.3,1204.2L3789.3,1204.2z"/>
	<path class="st1" d="M862.4,1292.7c-2.1,14.6-1.1,27.2-2.8,41.5c-1.4,11.1-8.8,23.4-9.1,27.7l0.2-50.3
		c-17.6,17.4,8.3,49.7-22.4,57.2c3.3-6.4,5.2-12,6.8-20.2c5.7-30-2-25.3-3.5-26.9c-3.3,23.2,1.8,29.2-13.7,44.9l-0.8-12.8
		c0.1-11.2,3.5-4.7-2.1-12.4c-5.8,7.6-5.9,23.6-8.5,31.7c-3-5.5-2.1-12.4-1.8-17.1c0.6-10.7,3.8-7.2-3-14.9l-10.7,19.5
		c-0.2,0-1.3,0.6-1.5,0.1s-1.1,0-1.8,0.3l9.3,24.7c-8.9,8-14.5,12.3-23.2,23.1c2.1-19.6,8.6-22.3,13.4-35.3
		c-4.4,0.3-6.3-4.1-14.4,14.3c-2.5,5.6-5.6,14.2-7,19.6c0.2-14.3,8.4-23.6,12.1-38.8c5.2-21.3,6.5-21.9,21.2-32.4
		c10.2-7.3,17.4-14.7,31.3-22.2C853.5,1301.6,852.8,1297.7,862.4,1292.7L862.4,1292.7z M862.4,1292.7c7.9-19,50.8-17.6,64.2-34.4
		c14.2-17.7,4.3-18.2,3.9-18.7c-4.8,7.3-3.2,8.9-11.5,17.4c-1.7-3.4-1.3-2.2,2.3-14.8c-16.4,6.6-4,22.4-44.7,32.1
		c7.8-13,27-12.8,32.5-28.7c-11.3,1.1-9.9,4.4-19.1,11c19.4-30.2,42.2-37.9,46.6-57.6c-9.2,4.5-1.6,0.7-9.1,6.9
		c-3.2,2.6-3.7,3.5-7.4,5.9c0.2-0.6,3.8-9.6,3.8-9.6c0.3-10.4,4-1.2-2.2-8.1l-19.4,40.1c-3.2-4.6-1.5-0.1-3-7.5
		c-6.5-33.9,35.2-43.6,36.9-64.2c-9.4,4.7-7.3,10-18.9,16.2c1.7-4.7,3.4-9.8,4.2-15.2c1.3-8.5,0.4-12.8-3.2-16.4l-11.3,31.5
		c-0.5,0,0.1-1.4-4,0.4c-27.7,12.1-12.2,76.8-33.7,86.6c2.7-12.2,7.5-17.3,5.4-32.2c-3.9,4.4-0.5-0.7-3.4,5.8
		c-5.9,13.1-5.9,29.6-14.6,40.4c-11.5-21.8,23.7-65.8,30.3-90.7c10-37.6,7.5-27.4,0.9-34.1c-8.8,53.2-17.7,47.1-26.4,74
		c2-8.9,5.5-17.2,9.1-26.6c1.9-4.9,4.6-11.5,5.3-15.7l-1.3-13.4c-15.4,22.6-17.6,63.1-26.4,86.3c-0.3-13.2,3.7-22.5,5.4-36.3
		c1.1-8.5,4.6-27.3,0.2-35.7c-5.3,7.6-5,19.3-5.9,28.4c-1.1,11.9-1.2,14.5-5,24.3c1.7-11.8,3.4-28.3,5.3-40.4l4.1-32.8
		c0-0.7-0.3-1.8-0.3-2.4l-1.2-4.7c-0.5,0.8-1,1.8-1.3,2.5L842,1198c-2.2,12.2-3.1,27.7-6.7,37.2c-5.2-20.4,6.4-42.1,9.6-62.9
		l-0.8-15c-0.2-0.5-1-0.9-1.2-2c-0.1-1.1-0.8-1.4-1.3-2c-3.9,10.7-6.9,38.8-10.5,54.3c-4.8,20-5,35.9,4.6,52.4
		c22.3,38.4-2.6,36.2-27.6,52.3c-7.2,4.7-11.6,8.6-19.1,13.3c5.9-24.6,35.3-23.9,42.1-61.7c-10.8,4.6-4.2-0.7-12.7,9.8l3.9-35.2
		c-6.8,5.3-0.1-2-4.9,5.5l-5.4,13.5c0.8-13.4,10.4-55.7,9.1-59.4c-14.4,10.8-9.9,41.3-17.8,57.1l-0.4-33.3
		c-11,16.4,2.4,50.9-8.6,71.6c-8.7-20.1,9.8-85.9,0-97.9c-5.5,7.7-10.1,101.9-11.1,98.6c-0.1-0.4-0.5,1.6-0.9,2.4
		c-1.2-21.6,8.2-40.4-0.9-48.4c-12.4,35.6,5.3,68.9-8,91.5c-18.3-30.7,11.2-108.7,0-134.2l-2.4,4.6c-7.1,18.2,3-13.6-1.7,4.8
		l-3.2,29.6c-2.6-8.4-2-20.1-7.6-26.6c-5.6,13,4.8,39.3,3.7,69.6l-7.4-20.5c-1.3-10.4,0-13.9-3.8-23.6c-3,2.1-3.5,10.8-7.4,13.5
		l-5-25c-9.2,11.4,0.1,23.1,6.5,32.2c13.3,19,15,64.5,16.4,72.5c5.3,30,8.7,21-7.3,34.1l-4.5-23.4c-12.8,14.9,5.6,29.1,4.4,41.3
		c-7.4-6.3-7.8-7.7-10.3-18.8c-4.4-19.4,4.2-55.4,0-64.5c-5.4,5-11.1,48.3-11.3,47.6c-0.1-0.4-0.5,1.5-1,2.1
		c-11.5-16-0.2-17.1-0.6-34.5c-5.5,4.1-6.5,5.9-9.3,12.6c-1.4-35.1,5.3-39.4,9.6-67c-10.2,3.2-6.9,5.2-13.2,16.8
		c-6.4-19.5-7.1-19.4-5.4-41c-10.8-6.5,0.4-3.9-10.4,3.4l-3.1-23.9c-6.4,6.2-5,18.7-0.8,27c12,23.7,16.6,52.8,13.7,80.9
		c-21.6-7.8-13.9-45.8-21.8-62c-8.2,13.3-2.2,1.5-3.4,10.3c-3,21.1,8.9,38.4,17.1,55.9c-33.8-20.3-14.3-44.4-29.5-60.5
		c-12.2,54.2,29.5,60.9,44.7,85.7c5.2,8.4,7.7,16,12.4,23.4c21.8,34.1,33,32.1,30,65l23.9,0.2l6.5-11.7
		c21.8-45.4,56.9-12.7,84.2-26.5c7.3-3.7,2.4-0.9,7.2-5.2l-27.1,1.9c13.6-7.4,38.3-0.4,52.9-12.2c-7.8-5.7-62.9,8.3-80,8.7
		c17.9-9.9,41.4-8.9,62.8-15c15.8-4.5,17.1-12.1,23.5-15.1c26.7-12.6,23.9,13.5,54.4-41.1c7-12.6,17.5-16.7,25.4-31.2
		c15.8-29.1,5-24.5,4.3-25.4c-19.8,34.3-4.7,15.3-15.5,17.4c-6.3,1.2,0.7-7.3-7.6,9.8l-7.7,11.6c0.3-16,5.9-26.6,11.5-35.8
		c-12.3-11-1.4,3.8-10.3,0c10.3-15,19.6-9,24.5-31l-26.6,21.7c-0.4-0.6-1.5,1-2.3,1.4c1.4-11.1,4.2-11.9,8.5-17.7
		c2.3-3.1,2.4-3.8,4.7-7.1c6.2-8.6,10.8-8.7,18.1-17.8c6.6-8.2,3.4-2.1,7.1-10.9c-10.7,0-6.3,7.7-18.3,13.5
		c6.3-12.8,14.8-17.9,18.5-30.8c-20.9,8.9-23.2,34.2-36.4,50.5c-4.6-21.5,2.8-19.2,7.5-34.9c-21.3,9.5-10.6,30.5-17.5,46.5
		c-15.7-19,4.8-50.2,10.3-64.7c-14.4,6.7-18.3,19.9-20.5,38.4c-4.5,37.7,7.2,23.9,10.8,42.9c4.6,24.4,4.7,70.2-24.8,79.9
		c6.9-14.1,9.8-18.6,10.3-38.2c0.5-18,6.4-27.3,8.2-38.1c-28.7,7.7,0.2,51.4-30.1,76.8c6.3-18.4,11.7-38.5,13.1-59.6
		c0.1-1.8,0.3-10.1,0-11.6l-13.9,56.7c-2.6-10.1,2-19.1,0.4-29.7c-0.9-6.1-0.9-4.8-2.5-7.5l-8.5-22.9c-5.4,4.9-5.4,9.2-5.3,17.9
		c0.2,15.5,2.5,33.4-2.5,47.2c-1.2-12.4,0-31.8-7.7-40.6c-6.3,13.6,4.1,25.4-1.7,37.2c-6.6-11.6-2.1-25.3-2.2-39
		c0-7.4,0.2-4.6-1.8-7.9c-12.1,19.2-3.3,30.4-6.2,49.5c-0.1,0.4-0.4,1.2-0.5,1.6c-1.1,6.3-3.9,3.8,1.5,10.2
		c6.2,7.4,11.7,4.7,14.8,13.2c-14.7,12.8-46.2,10.8-67.9,16.2c-19.1,4.7-43.1,21.1-46.9,32.4c1.7-9,9.5-17.5,15.5-22.3
		c5.7-4.5,16.3-15.3,20.8-17.7c18.6-9.9,33.7-5.2,51.3-6.7c14.4-1.2,8-1,11.7-6.5l-23.1-4.3c8.7-37.8,5.6-20.5,21.2-44.7
		c-3.8-7-3.6,3.5-6-7.4c-0.9-4.1,0.2-9.7,0.6-14.3l-7.2,10.8c-0.5,1.2-1.5,5.7-2,7.1C866.6,1304.8,872,1295.2,862.4,1292.7
		L862.4,1292.7z"/>
	<path class="st1" d="M3226.6,1404.6c6.1,1,12.5,3.5,15.8,4c8.2,1.2,6.5-1.2,16.2-0.9c1.3,1.8,3.4-2.2,1.6,6.4
		c-0.1,0.6-1.6,3.6-2,4.3l10.3-3.2c4.1,2.6,1-0.8,2.7,5.5c17.4-11.9,37.5-6.2,53.7-0.1c-1.9-13.9-0.6-2.7-9.1-12.9
		c10.6,0.3,34.2,12.8,39.7,9.6c-4.6-3.6-12.1-6.8-16.8-9.7l21.3-9.9l-7.9-2.6c-1.7-0.5-5.2-0.9-7.1-1.4c3.1-0.7,11.2-2.1,14.1-3
		c7.1-2.2,0.9,0.4,5.9-2.4c5.7-3.1,1.2,0.1,5.4-4.5l-28.8,3.9c10.5-8.5,24.6-11.7,36.2-22.3c-7.3-2.4-5.3,5-9.3-2.9
		c-6.2-12.3,5.3,2.6,0.4-8.9l-19.1,9.9c4-9.4,3.5-13,9.9-21.6c5.3-7,11.8-13.2,11-21.7c-9.1,3.5-15.2,18.3-21.6,23.2l-6.7,2.2
		c-8.9,3.4-4.2,6.1-15.6,15.8c2.8-9.7,6.3-17.7,11.6-26.2c3-4.9,10.1-15.2,9.4-20.9l-4.2-0.2c-9,3.1-1.2-0.2-4.8,4
		c-6.4,7.5-15.3,19.1-19.1,28.7c-0.2-0.5-0.4-1.3-0.4-1.6c-0.1-0.3-0.3-1.2-0.4-1.6l-0.5-3.2c-1.3-11.7,2.3-14.3,3.7-22
		c2.2-11.7-0.5-7.6-0.4-16c0.1-4.5,1.7-9.4,2.1-14.3c-7-0.2-4.3-3.7-7.5,10.3c-2.7,11.8-6,32.7-10.7,42.3
		c-10.2-40.7-0.8-10.1-12.6-38.9c-2.6-6.4-0.4-2.3-2.4-4.9c-8.6,22.1,4.2,38,4.8,64.2c-4.8-9.4-2.6-14.7-8.9-25.3l-3-4.5
		c-2.1-3-1.7-2.3-3-4c-0.2-0.2-0.9-0.5-1-1.2s-0.6-0.8-1-1.1c-4.2,9.4,3.2,22.2,3.7,31.9l-11.5-17.6c-17-15.2-8.1-17-21.7-29.4
		c-4.9,11.4,4.2,19.6,7.9,32.7c-5.6-3.3-1-0.1-5-3.9c-0.8-0.8-3.7-4.2-3.7-4.2c-7.1-7.3,1.1-4.1-8.3-5.1c4.4,14,9.7,16.1,14.7,27.5
		c-0.6-0.4-1.4-0.9-1.8-1.2l-5-3.4c-9.4-6.9-20.1-23.8-29.8-25.3c2.6,7.2,10.5,16.2,14.5,23.5c12.1,22.2,5.2,8,16.7,22.3
		c-15.8-7.7-30.4-20.7-40-25.4c2.1,11.2,6.8,14.7,16,18.4l-11.8,4.2c5.3,3.1,12.5,3.8,16.7,7.8c4.9,4.6-0.6,8.1,10.1,9.6l-26.8-1.3
		l4.6,5.3c4.3,3.5,11.7,4.3,17.7,5.1c8.6,1.2,16.4,0.2,23.2,2.9C3245,1400.5,3237.1,1398.2,3226.6,1404.6L3226.6,1404.6z"/>
	<path class="st1" d="M2865.5,1425.7c4.3,0.7,8.8,2.5,11.1,2.8c5.8,0.8,4.6-0.8,11.4-0.6c0.9,1.3,2.4-1.6,1.1,4.5
		c-0.1,0.4-1.1,2.5-1.4,3l7.2-2.3c2.9,1.9,0.7-0.6,1.9,3.9c12.2-8.3,26.3-4.4,37.7,0c-1.3-9.8-0.5-1.9-6.4-9.1
		c7.5,0.2,24,9,27.9,6.7c-3.2-2.5-8.5-4.8-11.8-6.8l14.9-7l-5.6-1.9c-1.2-0.3-3.7-0.6-5-1c2.2-0.5,7.9-1.5,9.9-2.1
		c5-1.5,0.6,0.2,4.2-1.7c4-2.2,0.8,0.1,3.8-3.2l-20.2,2.7c7.4-6,17.3-8.2,25.5-15.7c-5.1-1.7-3.7,3.5-6.5-2
		c-4.4-8.7,3.7,1.8,0.3-6.3l-13.4,7c2.8-6.6,2.4-9.1,7-15.2c3.7-5,8.3-9.2,7.7-15.3c-6.4,2.5-10.6,12.9-15.2,16.3l-4.7,1.6
		c-6.3,2.4-2.9,4.3-11,11.1c2-6.8,4.4-12.4,8.1-18.4c2.1-3.4,7.1-10.7,6.6-14.7l-3-0.1c-6.3,2.2-0.8-0.1-3.3,2.8
		c-4.5,5.3-10.7,13.4-13.4,20.1c-0.2-0.3-0.3-0.9-0.3-1.1s-0.2-0.8-0.3-1.1l-0.4-2.2c-0.9-8.2,1.6-10.1,2.6-15.4
		c1.6-8.2-0.3-5.3-0.3-11.2c0-3.2,1.2-6.6,1.5-10.1c-4.9-0.1-3-2.6-5.2,7.2c-1.9,8.3-4.2,23-7.5,29.7c-7.2-28.6-0.6-7.1-8.9-27.3
		c-1.9-4.5-0.3-1.6-1.7-3.5c-6.1,15.5,2.9,26.7,3.3,45.1c-3.4-6.6-1.8-10.3-6.3-17.8l-2.1-3.1c-1.5-2.1-1.2-1.6-2.1-2.8
		c-0.1-0.2-0.6-0.3-0.7-0.8c-0.1-0.5-0.4-0.6-0.7-0.8c-3,6.6,2.3,15.6,2.6,22.4l-8.1-12.4c-11.9-10.7-5.7-12-15.2-20.6
		c-3.4,8,3,13.8,5.6,23c-3.9-2.3-0.7-0.1-3.5-2.8c-0.6-0.6-2.6-3-2.6-3c-5-5.1,0.8-2.9-5.8-3.6c3.1,9.9,6.8,11.3,10.3,19.3
		c-0.4-0.3-0.9-0.6-1.2-0.8l-3.5-2.4c-6.6-4.9-14.1-16.7-20.9-17.8c1.8,5.1,7.4,11.4,10.2,16.5c8.5,15.6,3.6,5.6,11.7,15.6
		c-11.1-5.4-21.3-14.5-28.1-17.9c1.5,7.9,4.8,10.3,11.3,12.9l-8.3,2.9c3.7,2.2,8.8,2.7,11.7,5.5c3.4,3.3-0.4,5.7,7.1,6.7l-18.8-0.9
		l3.2,3.7c3,2.4,8.2,3,12.4,3.6c6,0.8,11.5,0.1,16.3,2C2878.4,1422.9,2872.8,1421.3,2865.5,1425.7L2865.5,1425.7z"/>
	<path class="st1" d="M4232,1120.6c-7.4-3.4-0.7,0.4-5.4-5.4c-4.3-5.5,1.3-1.3-5.3-6.4c-3.7,2.6-2.4,1.1-5.4,4
		c0.8,14.5,26.8,9.5,18,61.3c-15.1-4.4-1.5-15.6-6.2-26.6l-7.4-0.8c-0.3,10.3,4.3,7.3-1.4,15.8c-14.5-5.4-3.3-14.4-13.8-25.8
		c-2.6-2.8-0.8-0.9-3-3.4l-12.3-1.8c3.9,9.1,10.3,5.2,13.2,23.7c-11.6-4.1-12.6-11.8-16,4.2l22.9,5.9c-8.5,4.1-7.2-2.9-15.8,3.6
		c3.5,8.1-1,4.3,10.2,2.2l1.1,7.7c5.6-2.5,3.1-1.3,5.1-3c0.4-0.4,1.9-1.7,2.3-2.1c0.3-0.3,0.9-0.9,1.1-1.1c0.2-0.2,0.7-0.7,1.1-1.1
		c13,9.2,14.3,8.6,17.8,29.9l-2.6,0.4c-0.5,0.1-4.5,0-6.6,3.9c5.7,12.4,7.5-4,9.1,12.5c-4.9-2.2-13-5.4-16.8-8.5
		c-1.3-18.5-0.6-11.1,3.9-23.5c-6.7-2-14-0.7-20,1.6c3.4,17.3,8.6-3.6,10,18.4c-28.9-13.7-7.8-20.7-22.3-32.6
		c-5.8,10.2,2,5.7-2.1,14.2c-5.3-5.4-2.5-6.9-9.5-8.7c-6,7.9,7.6,14.6,10.9,21.6c-8.3-1.9-5.2-5.6-12.1-3.6c2,8.3,2.5,8,15.2,10
		c14,2.2,10.7,2.5,19.1,9.1c13.7,10.6,24.4,6.7,28.5,28.9c-21-5.9-4.6-14.9-18-18.1c-3.8,8.3,1.2,2.9-0.2,14.2
		c-4.5-0.8-8.5-1.3-11.3,2.8c5.5,3.6,14.8,3.2,20.6,6c10.4,5.1,1.8,9.7,5.1,18.5c7.3,1.8,17.4,2.2,24.8,0c0.2-0.5,0.4-2,0.4-1.7
		l0.2-6.8c-0.6-6.5-1.8-3.2-1.1-12.2c28.8-23.6,38.6,6.3,44.5,10.2c0.4-0.6,0.6-2.2,0.8-1.9l3.5-9.5c4.3,3,5.5,5.1,9.4,4.2
		c1.7-10.5-1-3.2-7.3-13c-10.5,1.8-8,4.2-19.3,0c-1-23,20-7.1,27.8-6.7c8.8-14.3-9.3-1.1,0.4-10.6c3.7-3.6,11.9-0.1,17.6,1
		c-0.2-8.8-2-2.6,1.9-9.5c-3.9-2.1-7.4-0.5-11.1-4.3l7.3-8.4l-7.7-4.2c-8.2,9.7-5.1,15.8-20.5,20.4c-0.9-12.9,3.8-3.6,5.4-16
		c-13.1-0.1-7-3.7-12.8,8c-3.4,6.9-3,7.4-10.4,11.1c-4.2-7.4-1.3-5.5,1.8-13.4l-10.1,0.9l-1.4,20.7c-10.6-2.1-4.3-9.8-11-16
		c-4.4,6.1-2.5,3.1-0.7,12c-7.8,3.4-3.5-4.2-6,3.7c-0.9,2.9,6.3,4.1-5.8,4c-5.4-16.4,16.7-32.3,26.9-38c11-2.2,8.4,9.8,42.5-8
		c-4.4-9-7.6-4.9-13.7-1.1c-3.4-1.4-1.5-4-7.5-5.1c-1.6,4,1.4,14.5-9.6,6.2c11.3-13.7,9.7-12.5,33.1-12c1.4-3.6,3-8.8,3.8-13.1
		c-16.9-1,2.4,3.7-13.9,3.5c-0.9-8,1.7-7.4,5.6-13.1l-8.4-4.8c-1.6,6.3-2.5,25.2-11.4,20.8c-7.7-3.8,5.6-17.4,8.8-20.3
		c-3.2-8.6,0.8,2.6-3.5-4.8c-0.1-0.2-0.4-0.8-0.6-1l-10.4-2.1c3.2,12.3,9.1,3.2,2.1,16.8c-4.7-0.9-1.7-0.9-5.3-2.7
		c-5.4-2.6,2.5-1.8-6.5-2.5c-0.3,7.5,3.8,11.2,3.5,18.4c-0.5,12.4-4,7.2-11.5,7.4c-0.6,4.1,3.5,10.8-13.7,17.4
		c1-7.9,3-11.2,7.2-17.5c3.8-5.7,8.7-12.7,5.2-19c-12.5,1.6-6.1-0.1-9.9,11.7l-4.5-0.2c-3.1,0,2.3-2.4-6.3,0.8
		c1.7,7.8,4.6,7.4,0.8,17.5c-4.5,11.8-1.5,12.5-10,18.3c-2.1-4.1-4.1-16.4-3.8-21.8c0.9-16,24.2-33.7,40-36.6l3.3-6.9
		c5.8-5.1,5.1,2.3,6.3-6.7c-6.3-5.1-3-2-12.1,1.2c1.6-16,7.8-7.2,12.5-19.2l-7.9-3.4c-14.4,12-8.3,22.9-17,29.1
		c-6.1-8.5,4.5-20.4,0-29.7l-6.4-0.8c-2.8,7.2,2.3,5.8-2.4,10.8c-0.9,1-1.6-0.8-3.3,2.6c5.9,14.2,2.9,27-11.2,37.6
		c-0.1-28,18.6-48.4,1.2-53c-3,12.9,2.6,18.1-7,19.2c0.7-9.3,1.5-14.8-0.9-24.3c-2-8,3.8-5.8-4.1-9.7c-4.9,3.2-1.9-2-3.6,5.1
		C4228.5,1106.3,4234.9,1111.3,4232,1120.6L4232,1120.6z"/>
	<path class="st1" d="M310.2,1070.2c-9.5,1.5-22.4-2.6-23.9-15.9c-1.6-13.4,6.5-12.7,7.4-22.9c0.6-7.1,1.4-1.1-1.7-5.9
		c-10.6,2.3-4.8,0.9-9.6,8l-1.9,4.3c-7.7-11.1,3.4-9.1-8.7-20c-11.8,14.8,4.8,34,10.3,57.9c38.5,7.8,32.4,50.4,25.1,80.1
		c-14.6-10.2-6.5-15.5-9.5-34.5c-2-12.3-3.7-6.6-5-17.6c-0.6-5.4,0.9-8-0.1-15.4c-11.5,3.4-13.1,11.4-18.4,21.2
		c3.7,5.8,7.6,5.2,12.3,9.9l-7.4,3.2c-0.3-0.6-1.1,0.9-1.7,1.4c11.9,10,5.3-1.8,12,8.7c-14.9,12.8-3.8-6-20.8,1.7
		c-0.1,18.8,4.2,7.7,18.2,12.2c10.4,17.5,13.3,21.3,27.1,33.5c15.4,13.7,20.9,10.7,25.8,36.4c-0.6,0.3-1.5,0.2-1.8,0.3l-12,2.6
		c15.5,25.4,17.6-20.1,23,62.8c-10.9-2.7-11-5.4-8.5-16.8c-6.6-2.1-6-1.1-12.6,1.8l3.8-15.8c-10.6,0.9-4.1-2.1-9.4,4.3l-0.4-17.4
		c-26.9,10.9,17.2-11.8-5.8,4.8c-1.7,1.2-1.8,7.5-8.8-3.6c-11.9-18.9-5-27.5-6.7-36.9c-1.4-7.8-4.8-12.3-12.4-15.5
		c-0.4,40.5,15.2,66.4,39.6,92.1l21.3,18c5.3,12.4-11.2,45.2-11.3,61.8c-0.1,12,21.5,8.4,29.5,5c3.3-10-5.7-9.2-6-25.9
		c-0.1-7.2,2.1-24.3,2.8-32.8c2.2-1.3,19.7-12.9,23.2-13.8c16.3-4.5,8.6,15.3,19.6-3.2c-7.7-9.7-11-8-23.7-6.4
		c-3.9-24.5,3.6-2.1,3.2-21.7c-29.5,3.1-0.2,11.6-19,31.5c-8.6-11.7-5.6-36.6,1.8-47.4c11.8-17.2,31.1-14.6,31.9-27.9
		c-6.5-4.8-8.6-0.4-15.6,2.1c3.7-25.8,8.6-19.2,24-31.1c-6.1-13.3-4.7-2.4-12.3-5.5c6.7-6.5,6.5-4.7,15.9-8.6c-5.1-12.6-0.2-3-9.9-9
		c4.3-3.9,10.4-3.8,11.6-8.4c0.3-1,1.1-1,1.6-1.6c-3.2-4.7-7.6-5.5-11.2-7.4c4-32.7,9.4-27.2,32-37.6c-1.5-15,2.2-3.7-8.8-8.7
		c4.1-8.6,7.8-8.1,5.7-14.9c-10-3.5-7.9,1.9-13.3,13.2c-5.9,12.4-7.8,9.1-11.3,14.3l-0.4-39.6l12.9-4.8c-4.7-14.3-4.1,1.5-8.2-15.5
		c10.2-8.5,7.3-0.6,8.9-14.1l-8.9-4c-3.8,8.3-7.3,17.4-6.7,27.6c-8.7-3.9-1.5-3.7-9.3-6.1c-0.4-0.1-1.4-0.1-1.7-0.2l-3.6,0.3
		c-4.5,15,0.7,1.5,7.4,15c-2.1,5.5-3.4,4.1-10.1,8.7l11.1,8.7l-10.4,8.7c6.7,4.9,9.6,5.5,9.5,17.2l-12.2,63.3
		c-4.5-12.5-7.7-31.8-7.6-45.7c11.2-10.3,6.6,2.9,12.5-8.7c-3.1-9.5,1.6-6.6-14.7-3.8c0.5-0.8,1.3-1.7,1.7-2.3
		c0.3-0.6,1.1-1.5,1.5-2.2c4.7-9.5,1.1-9.1-2-12.2c-18.6,8.1-9.2,22.3-7.9,44.2c-10.3-6-3.8-11.8-16.3-15.3
		c-2.8,12.6,4.9,17.7,12.1,23.9c21.6,18.5,15.3,62.7-8,78.5l-14.4-43.5c6.9-9.6,8.5-2.7,10.9-13.2l-10.2-2c6.3-6.6,6.9-2.4,9.4-10.4
		c-5.8-3.6-9.1-1.4-14.1-4.1c2.4-13.7,8.2-20.2,9.8-34.8c1.7-15.4-3.5-26.3-2.2-37.2c1.4-11.8,9.5-15.6,16.4-23.5
		c14.7-17,5.7-5.9,25.1-15.5c-5.1-18.2-9.6-7.7-19.1-8c-5.5-0.2,0.7-4.5-8.7,0.2c-2.9,10.1,2.2-11.7,0.9,6.9c-0.3,4.2,3,1.2-1.9,4.2
		c-8.7,5.3,2.5-9.3-7.9,3.2c-6.5,7.9-2.3,0.6-9.4,5.5c-6.3,4.3-1.4,5.4-1.8,8.7c-3.2,24.3-1.5,20.5-1.1,44.2
		c0.5,28.6-4.7,17.6-12.9,25.8c1.9,14.8,3.3,3.5,4.8,37.2c-35-18,6.2-26.9-19.5-97.9c5.1-5.8,4-4.4,8.2-11.9
		c4.3-7.7,3.9-5.2,3.7-12.3c-0.5-14,5.2-17.4-12.5-16.9L310.2,1070.2L310.2,1070.2z"/>
	<path class="st1" d="M2538.5,1442.3c-5.8-2.7-0.6,0.3-4.2-4.2c-3.4-4.3,1-1-4.1-5c-2.9,2-1.9,0.8-4.2,3.1
		c0.6,11.3,20.9,7.4,14,47.7c-11.8-3.4-1.2-12.1-4.9-20.7l-5.8-0.7c-0.2,8,3.4,5.7-1.1,12.3c-11.3-4.2-2.6-11.2-10.7-20.1
		c-2-2.2-0.6-0.7-2.3-2.6l-9.6-1.4c3,7.1,8,4,10.2,18.5c-9-3.2-9.8-9.2-12.5,3.3l17.8,4.6c-6.6,3.2-5.6-2.2-12.3,2.8
		c2.7,6.3-0.8,3.3,7.9,1.7l0.8,6c4.4-2,2.4-1,4-2.3c0.3-0.3,1.5-1.4,1.8-1.6c0.2-0.2,0.7-0.7,0.9-0.8c0.2-0.2,0.5-0.6,0.8-0.8
		c10.1,7.2,11.1,6.7,13.8,23.3l-2.1,0.3c-0.4,0.1-3.5,0-5.1,3c4.4,9.7,5.8-3.1,7.1,9.7c-3.8-1.7-10.1-4.2-13.1-6.6
		c-1-14.4-0.5-8.6,3-18.3c-5.2-1.6-10.9-0.6-15.6,1.3c2.6,13.4,6.7-2.8,7.7,14.3c-22.5-10.7-6-16.1-17.3-25.3
		c-4.5,7.9,1.6,4.4-1.7,11.1c-4.1-4.2-1.9-5.3-7.4-6.8c-4.6,6.2,5.9,11.4,8.5,16.8c-6.5-1.5-4-4.4-9.4-2.8c1.5,6.5,1.9,6.2,11.8,7.7
		c10.9,1.7,8.3,1.9,14.9,7.1c10.6,8.3,19,5.2,22.2,22.5c-16.3-4.6-3.6-11.6-14-14c-3,6.5,1,2.3-0.1,11.1c-3.5-0.6-6.6-1-8.8,2.2
		c4.2,2.8,11.5,2.5,16,4.6c8.1,3.9,1.4,7.5,4,14.4c5.7,1.4,13.6,1.7,19.3,0c0.2-0.4,0.3-1.5,0.3-1.3l0.2-5.3
		c-0.4-5.1-1.4-2.5-0.9-9.5c22.4-18.3,30,4.9,34.6,8c0.3-0.4,0.5-1.7,0.6-1.4l2.7-7.4c3.3,2.4,4.3,4,7.3,3.2
		c1.3-8.2-0.8-2.5-5.6-10.1c-8.1,1.4-6.2,3.3-15,0c-0.8-17.9,15.6-5.5,21.6-5.2c6.8-11.1-7.3-0.9,0.3-8.2c2.9-2.8,9.3-0.1,13.7,0.8
		c-0.1-6.8-1.5-2,1.5-7.4c-3-1.7-5.8-0.4-8.6-3.3l5.7-6.5l-6-3.3c-6.4,7.6-4,12.3-15.9,15.8c-0.7-10,3-2.8,4.2-12.5
		c-10.2,0-5.4-2.9-9.9,6.2c-2.7,5.3-2.4,5.8-8.1,8.6c-3.2-5.7-1-4.3,1.4-10.4l-7.9,0.7l-1.1,16.1c-8.2-1.7-3.4-7.6-8.6-12.5
		c-3.4,4.8-1.9,2.4-0.6,9.3c-6.1,2.7-2.7-3.3-4.7,2.9c-0.7,2.2,4.9,3.2-4.5,3.1c-4.2-12.7,13-25.1,20.9-29.6
		c8.5-1.7,6.5,7.6,33.1-6.2c-3.4-7-5.9-3.8-10.7-0.9c-2.7-1.1-1.1-3.1-5.8-4c-1.2,3.1,1.1,11.3-7.5,4.9c8.8-10.6,7.5-9.7,25.7-9.3
		c1.1-2.8,2.3-6.8,3-10.2c-13.1-0.8,1.8,2.9-10.8,2.7c-0.7-6.3,1.3-5.8,4.4-10.2l-6.6-3.8c-1.3,4.9-2,19.6-8.8,16.2
		c-6-3,4.3-13.6,6.8-15.8c-2.5-6.7,0.6,2-2.7-3.7c-0.1-0.2-0.3-0.6-0.4-0.8l-8.1-1.6c2.5,9.5,7.1,2.5,1.6,13
		c-3.6-0.7-1.4-0.7-4.1-2.1c-4.2-2.1,1.9-1.4-5-1.9c-0.3,5.8,3,8.7,2.7,14.3c-0.4,9.7-3.1,5.6-8.9,5.8c-0.5,3.2,2.7,8.4-10.6,13.5
		c0.8-6.2,2.3-8.7,5.6-13.6c2.9-4.4,6.8-9.9,4.1-14.7c-9.7,1.2-4.7-0.1-7.7,9.1l-3.5-0.2c-2.4,0,1.8-1.8-4.9,0.6
		c1.3,6.1,3.6,5.8,0.6,13.6c-3.5,9.2-1.1,9.7-7.7,14.2c-1.6-3.2-3.2-12.8-3-17c0.7-12.5,18.8-26.2,31.2-28.5l2.6-5.4
		c4.5-4,4,1.8,4.9-5.2c-4.9-3.9-2.3-1.6-9.4,1c1.2-12.5,6.1-5.6,9.7-14.9l-6.2-2.6c-11.2,9.3-6.5,17.8-13.2,22.6
		c-4.7-6.6,3.5-15.8,0-23.1l-5-0.6c-2.2,5.6,1.8,4.5-1.9,8.4c-0.7,0.8-1.2-0.6-2.5,2c4.6,11,2.3,21-8.7,29.3
		c-0.1-21.8,14.4-37.6,1-41.2c-2.3,10,2,14.1-5.4,14.9c0.5-7.2,1.2-11.5-0.7-18.9c-1.6-6.2,2.9-4.5-3.2-7.6c-3.8,2.5-1.5-1.6-2.8,4
		C2535.7,1431.2,2540.8,1435,2538.5,1442.3L2538.5,1442.3z"/>
	<path class="st1" d="M4526.5,602.4c4.3-7.6,4.6-29.1,8.1-40.1c5.1-15.6,3.5-16.2,5.7-30.3c0.2-1.4,0.7-4.7,1.1-5.8
		c0.1-0.4,0.2-0.7,0.3-1l2-3.3c6.1,10.6,1.4,45-1.4,57.4c-9.9,44.1,12.4,83.5,7.2,115.9c-4.1,25.5-5.6,20.3,6.4,53.1
		c5.3-8.4,5-31.5,10.9-46.6c2.2-5.8,6.2-9.6,7.4-12.9c4.6-12.6-16.9-58.2-13.1-102.7c1-12.1,4.9-21.7,5.1-33.4
		c0.1-8.3,4.8-59.1,12.4-67.5c1.5,2.7,1.5,20.2,2.1,26.2c2.1,20.5-5.1,26.6,3,83.2c3.3,23,6.3,24.6,3.7,50.4
		c-0.8,8.4-1.2,18.3-2.8,26.5c-1.7,8.9-5.8,13.4-5.6,23.2c0.6,25.1-2.4,30.2-6.6,51.5c-3.7,18.4-1.6,37-3.2,55.7
		c-3.1,36.4,2,48.4-3.9,83.2c-1.7,10.2-0.3,19.2-1.5,23.8c-1.2,4.7,0.1,1-1.4,3.3c-6.4-7.9,2.5-38.8,1.7-51.4
		c-0.9-14.4-7.6-32.5-9.6-47.4c-4.5,3.8-4.6,12.9-8.1,22.1c-2.4,6.4-8.4,14-9.1,20.2c-1.3,11.9,2.1,50.8-1.9,56.9
		c-3.2-3.7-1.7-51.8-1.6-58.5c0.2-12,4.3-24.7,6.1-37c2.1-14.7-2.7-61.8-6.9-75.3c-13.6,12.2-10.4,63.8-13.9,85.2
		c-2.7,16.5-5.5,24.7-10.4,39.1c-4.7,13.9,1.7,32.6-3.8,45.4c-3.9-3.7-0.9-7.9-0.6-15.8c0.2-5.9-0.7-11.5-0.7-17.4
		c0-16.8,2.5-35.3,3-52.7c0.6-18.8,2-37.1,2.7-55.9c0.8-20.3,7.1-29.2,10.6-46.3c1.9-9.2,1.7-14.5,4.5-23.7
		c10.2-32.8-8.6-27.2-13-65.5c-2.7-23.5,0.1-30.3,2.7-52.1c1.2-10.3-0.3-18.3-0.1-28.2c0.2-8.4,2.2-17.3,4-25.4
		c5.3-24.2,0.3-45.2,5.4-52.5c3.9,2.7,4.8,8.5,6,12.9c4.9,18.2,12.4,30.2,7.6,47.9c-2.6,9.7-6,19.6-8.5,28.9
		C4527.2,571.1,4526.1,595.7,4526.5,602.4L4526.5,602.4z M4495.4,908.2c-0.2-0.3-0.4-1.3-0.5-1.1c-0.1,0.2-0.4-0.8-0.4-1.1
		c-0.7-2.2-1.4-7.2-0.5-42.6c0.2-8.6,1.6-40.4-1.3-46.1c-5.6,5.2-10.9,31.3-12,40.9L4479,897c-0.2,14.1-0.4,9.4-2.4,10.8
		c-4.1-9.4,0.8-26.1-0.8-37.1c-6.8-47.4,5.6-62.7,3-75.3c-0.7-3.2-12-22.3-14.6-26.8c-5.1-8.6-10.4-17.6-13.1-28.5
		c-3.2-12.6,1-24.7-0.1-38.8c-1.7-20.6-10.4-59.4,11.1-64.8c2.1,31.9-3.8,25.6,7.1,68.2c5.9,23.1-0.1,41.2,13.6,61.4
		c4.1-18.1-0.5-50.4,0.3-70.4c0.4-8.5,3.3-27.1,0.8-34c-3.3-9.2-7.6-14.3-10.7-25.5c-5.7-20.3-8.4-36.6-16.8-54.2
		c-5-10.4-20.8-43.9-9.2-54.5c0.6,0.8,5,16.5,6.9,20.6c12.2,26.3,38.3,77.4,36.2,104.8c-1,13.5-1.3,10.4,1.8,23.4
		c3.6,15.1,9.7,59.2,10.1,74.4c0.2,9-0.3,18.2-1.2,26.9c-1.4,13.9-3.2,10.8,0.3,24.8c3.4,13.6-1.9,37.5-2.9,51.5
		c-0.7,9.2-0.9,17.5-1.3,26.8l-0.4,24C4495.7,909.3,4496.4,906.6,4495.4,908.2L4495.4,908.2z"/>
	<path class="st1" d="M1511.9,1094.9c-7-7.2-0.9,3.2-3.5-12.2l-0.7-4.4c-13.2,5.6-3.1,1-11.2,12.5c-6.7-17.2,4-16.3-1-25.1
		c-13.5,3.8-4.1,2.5-12.2,13.1l-8.1-15.6c-12.6,5.3,3.1-3.6-9.9,10.5c-9.2,10-6.6-7.3-8.7,12c11.2,9.5,7.6-1.9,23.7,9
		c38.7,26.3,62.3,23.1,55.8,46.4c-3.6,1.9-0.2,2.2-6.8,1.6c-12.8-1.1-3.8-6.4-32-21.9l-7.9-11.5c-10.3,3.2-2.6,1.5-6.5,3.2
		c-5.9,2.7-0.4,2.3-8.8,3.6c-4.9-10.5-4.7-13.6-15.9-17.9c-8.3,10.5,0.5,13.1,7.5,21.1c-0.7,0.6-1.9,0.3-2.2,1.4l-6.5,3.6
		c-5.8,3.1-2.2-0.7-9,5.3l2.7,10c12.1-4.2,0.9-5.3,17.4-7.4c7.8-1,19.6-0.6,25.6,3.3c-8.6,1.6-15.2,0.6-21.8,5.4l5.8,11.2
		c15.4-5.1,8.1-10.3,31.2-11.7c9.8,18.3,25.2,22.4,14.2,38.3c-9.5-5.7-5.4,3.3-2.1-14.2c-16.8,2.3-8.9,3.2-17.2-4
		c-5.1-4.4,3.9-1.3-5.7-4.3c-20.7,22.3,29.9,27.1,18.9,52.2c-11.1-8.2-6.1-11.6-22.4-20.7c-22.1-12.4-6.6-16.7-19.7-24l-7.7,3.4
		c1.6,23.7,21.1,19.5,28.1,35c-43.8,0.1-30.9-21.4-52.4-25c-5.8,17-3.4,15.5,10.9,21.5c-1.8,9.8-3.5,10.5-2.3,20.3
		c6.8-2,28.5-16.2,49.6-0.8c24.2,17.7-1.6,39.5,7.5,45.9c0,0,36.9,7.8,33.2-7.7c-1.1-4.5-12.4-16.9-0.2-29.7
		c7.6-8,32.4-8.3,21.4-30.5c-13.7,3.3-1.8-1.3-9.5,8.6c-6,7.8,3.5,4.7-11.3,8.5c-11.1-21.7,16.3-20.6,24.8-42.6l-14.1-5.5l-5.3-5.2
		c14.9,0.7,23.1-2.2,35.2,4c12.6,6.4,15.5,18.8,22,1.4c-9.1-10.3-10.2-2.6-19.6-12.2c4.1-7.5,14-14.2,23.2-16.2
		c13.3-3,0.1,3.3,10.9-2.1c-4.7-18.3-4.6-0.2-8.5-15.7c-3.3-13,13.8-11.6-11.2-13.3c-0.5,0.8-0.8,1.2-0.9,2.7
		c-0.1,1.4-0.7,2-0.8,2.7c-0.2,0.7-0.5,1.9-0.7,2.7c-1.7,7.6,1.9,19.2-19.3,21.5c-6.1-25.6,18.7-14.8,20.6-48.2
		c-22.8-4.8,2,2.4-21.9,6.3c-1.7,12.2,1.5,4.7,0.3,11.2c-2.4,12.5,0.5,0.6-6.7,9.7c-9.1,11.6-4.1,16.2-6.2,30.6
		c-6.6-1.8-16.4-3.8-18.5-25.4c7.3-6.4,9-3.8,13.7-12.1l-8.3-5.4c-16.4,4.2-0.5,14.3-20.9,4.6c-2.7-28,32.7-9,35.2-36
		c-6.5-5.1,4.1-2.6-7.2-4.1c-20.2-2.6,10.6,8.8-29.1,14.6c4.9-12.5,8.8-11.4,10.4-25.8c-23.1-1.1-12.2-0.4-16.3,18.3
		c-0.6-0.6-1-2.8-1.1-2.3l-3.5-9.1c-3.1-5.8,5.6-4-7.3-6C1502.8,1069.8,1523.2,1078.1,1511.9,1094.9L1511.9,1094.9z"/>
	<path class="st1" d="M2255.1,1556.4c4.3,0.7,8.8,2.5,11.1,2.8c5.8,0.8,4.6-0.8,11.4-0.6c0.9,1.3,2.4-1.6,1.1,4.5
		c-0.1,0.4-1.1,2.5-1.4,3l7.2-2.3c2.9,1.9,0.7-0.6,1.9,3.9c12.2-8.3,26.3-4.4,37.7,0c-1.3-9.7-0.5-1.9-6.4-9.1
		c7.5,0.2,24,9,27.9,6.7c-3.2-2.5-8.5-4.8-11.8-6.8l14.9-7l-5.6-1.9c-1.2-0.3-3.7-0.6-5-1c2.2-0.5,7.9-1.5,9.9-2.1
		c5-1.5,0.6,0.2,4.2-1.7c4-2.2,0.8,0.1,3.8-3.2l-20.2,2.7c7.4-6,17.3-8.2,25.5-15.7c-5.1-1.7-3.7,3.5-6.5-2
		c-4.4-8.7,3.7,1.8,0.3-6.3l-13.4,7c2.8-6.6,2.4-9.1,7-15.2c3.7-5,8.3-9.2,7.7-15.3c-6.4,2.5-10.6,12.9-15.2,16.3l-4.7,1.6
		c-6.3,2.4-2.9,4.3-11,11.1c2-6.8,4.4-12.4,8.1-18.4c2.1-3.4,7.1-10.7,6.6-14.7l-3-0.1c-6.3,2.2-0.8-0.1-3.3,2.8
		c-4.5,5.3-10.7,13.4-13.4,20.1c-0.2-0.3-0.3-0.9-0.3-1.1c0-0.2-0.2-0.8-0.3-1.1l-0.4-2.2c-0.9-8.2,1.6-10.1,2.6-15.4
		c1.6-8.2-0.3-5.3-0.3-11.2c0-3.2,1.2-6.6,1.5-10.1c-4.9-0.1-3-2.6-5.2,7.2c-1.9,8.3-4.2,23-7.5,29.7c-7.2-28.6-0.6-7.1-8.9-27.3
		c-1.9-4.5-0.3-1.6-1.7-3.4c-6.1,15.5,2.9,26.7,3.3,45.1c-3.4-6.6-1.8-10.3-6.3-17.8l-2.1-3.1c-1.5-2.1-1.2-1.6-2.1-2.8
		c-0.1-0.2-0.6-0.3-0.7-0.8c-0.1-0.5-0.4-0.6-0.7-0.8c-3,6.6,2.3,15.6,2.6,22.4l-8.1-12.4c-11.9-10.7-5.7-12-15.2-20.6
		c-3.4,8,3,13.8,5.6,23c-3.9-2.3-0.7-0.1-3.5-2.7c-0.6-0.6-2.6-3-2.6-3c-5-5.1,0.8-2.9-5.8-3.6c3.1,9.9,6.8,11.3,10.3,19.3
		c-0.4-0.3-0.9-0.6-1.2-0.8l-3.5-2.4c-6.6-4.9-14.1-16.7-20.9-17.8c1.8,5.1,7.4,11.4,10.2,16.5c8.5,15.6,3.6,5.6,11.7,15.6
		c-11.1-5.4-21.3-14.5-28.1-17.9c1.5,7.9,4.8,10.3,11.3,12.9l-8.3,2.9c3.7,2.2,8.8,2.7,11.7,5.5c3.4,3.3-0.4,5.7,7.1,6.7l-18.8-0.9
		l3.2,3.7c3,2.4,8.2,3,12.4,3.6c6,0.8,11.5,0.1,16.3,2C2268,1553.5,2262.5,1551.9,2255.1,1556.4L2255.1,1556.4z"/>
	<path class="st1" d="M4045.6,1262.4c-7.1-6.1-6.2-10.9-8.5-19.7c-3.1,3.6-0.9-1.7-1.8,4.1c-1.8,11.7,9.2,18,9.3,31.1
		c-11.3-7.9-7.9-9.8-15.2-20.9c-6.3,12.7,14.9,19.2,16.5,34.6c-5.7-3.2-5.1-6-10.3-7.3c1.1,4.5,2.7,6.4,5.3,9
		c6.8,6.7,4.9-0.1,7.1,9.6c-3.7,2.4-0.8-1.1-5.6,0c1.9,5.8,13.7,17.7,16.9,24.2c-8.2-5.3-8.3-7.2-14.2-14
		c-1.4,11.1,10.8,17.4,18.3,21.6c1.7,9.3-1-4.1-3.6,5.4l11.2,2.3c2.3,11.2-4.7,11.2,7.5,11.8c0.3-0.4,0.5-1.8,0.6-1.5l3.6-9.9
		c1.9-2.7,5.4-4.3,9.1-7.9c4.1-4.1,11.4-15.5,8.1-21.9c-5.5,5.9-2.2,3.7-5.5,11.4c-3.1,7.2-3.2,4.8-7.6,9.5
		c-0.1-5.7,3.2-8.2,6.2-14.8c4.6-10,2.7-8.1,10.3-14.2c18.5-14.6,24.6-10,27.7-18.9c-5.7,0.9-9.2,3.5-15.8,5.4
		c8-11.5,15.8-8,19.8-23.4c-8.6,3.7-3.6,6-12.9,10.8l3-16.4c-9.6,8.1-2.9,21.8-26.1,39.9c2.9-12.7,15.2-31.1,15.5-40.7
		c-6.5,4.5-16.1,28.8-19.4,38.7c-5,14.9-12.6,26.9-18,40c-0.7-0.8-6.2,1.1-1-9.7c1.8-3.8,3.9-7,5.6-11.8c5.9-17.1,7-36.4,25.5-59.2
		c5.3-6.6,5.5-2.4,9.6-11c-6.8,2-8.4,4.2-12.4,7l3.3-16.2c-10.4,6-3.5,29.2-14.9,34.1c0.5-9.9,3.4-31.3-1-38.8
		c-0.8,1.5-0.7,0.1-1.2,4c-0.2,2-0.1,5.2,0,7.2l-5.7,1.9c12.6,15.2-2.7,59.3-9.8,77.4c-3.3-5-2.5-13.8-1-19.5s4.3-10.3,5.9-16.8
		c3-12.1,2.4-27.7-3.5-37.6c-1.3,2.3-1.3-2.4-0.9,5.1c0,0.4,1,4.8,1.2,5.8c2.4,12.1,1.9,28.7-5.5,38.2c-2.6-14.6-0.6-17.4,1.9-30.5
		c-6,3.5-3.6,4.6-5.8,4.3c-4.1-9.5-8.6-14-10.8-25c-5.1,5.7-1.8,10,3.5,18.8c4.4,7.4,5.7,10.7,3.7,20c-5.8,26.6,7,16.9,4.4,42.3
		c-13.7-18.7-5.3-44.4-10.6-59.7c-1.9,2.3-0.8-0.8-1.9,4c-0.6,2.4-0.5,2.6-0.7,5.1c-0.8,13,2.8,30,1.3,35.7c-9.9-22-5-75.8-12-83.7
		L4045.6,1262.4L4045.6,1262.4z"/>
	<path class="st1" d="M1874,1369.3c-6.3,0.6-0.3,0.6-5.7-1.5c-5.1-2,0.3-1.4-6.1-2.2c-1.5,3.2-1.2,1.7-2,4.8
		c6.3,9.4,21.7-4.2,36.3,33.9c-11.9,3-7.2-9.8-14.7-15.4l-5.3,2.4c3.9,7,5.8,3.2,5.3,11.1c-11.9,2.1-7.9-8.3-19.4-11.8
		c-2.8-0.9-0.9-0.3-3.3-1.1l-9,3.7c6.2,4.5,9-0.6,18.2,10.7c-9.4,1.8-13.1-2.9-9.1,9.1l17.7-5.1c-4.1,6.1-6,0.9-9.2,8.7
		c5.6,4,1,3.3,7.7-2.6l3.8,4.7c2.8-3.9,1.5-2.1,2.2-4c0.1-0.4,0.6-1.9,0.7-2.3c0.1-0.3,0.2-0.9,0.3-1.1c0.1-0.2,0.2-0.8,0.3-1.1
		c12.4,1,13,0.1,23.7,13l-1.6,1.3c-0.3,0.3-3,1.8-2.9,5.2c8.7,6.1,3.4-5.6,11.1,4.8c-4.2,0.5-10.9,1.6-14.7,0.9
		c-8.1-11.9-4.8-7.2-6.7-17.3c-5.3,1.3-9.7,5.1-12.8,9c9.1,10.2,4.3-5.8,14,8.4c-24.8,2.2-13.4-10.8-27.8-13c0.2,9.1,3.6,3,4.2,10.4
		c-5.7-1.5-4.4-3.6-9.8-2.1c-0.9,7.7,10.9,6.8,15.8,10.2c-6.3,2-5.7-1.7-9.5,2.4c4.6,4.8,4.8,4.3,14.1,0.7
		c10.2-4.1,8.1-2.6,16.4-1.5c13.4,1.7,19-5.2,30.5,8.1c-16.4,4.3-9-8.2-19.2-5c0.7,7.1,2,1.5,5.5,9.6c-3.3,1.2-6.2,2.5-6.5,6.4
		c5.1,0.3,11.2-3.7,16.2-4.1c9-0.7,5,5.8,10.8,10.4c5.6-1.7,12.5-5.4,16.6-9.8c-0.1-0.4-0.5-1.5-0.4-1.3l-2.5-4.6
		c-3-4.2-2.4-1.4-5.6-7.7c10-27.2,28.4-11,33.9-10.8c0-0.5-0.4-1.7-0.2-1.5l-1.4-7.7c4.1,0.3,5.7,1.2,7.9-0.9c-3.1-7.7-2-1.8-10-5.9
		c-6.3,5.3-3.7,6-12.9,7.6c-9.8-15,10.6-12.7,16-15.4c0.2-13-6.7,2.9-3.9-7.2c1.1-3.9,8-4.8,12.2-6.3c-3.6-5.8-2.3-1-2.5-7.1
		c-3.5,0.1-5.2,2.6-9.1,1.5l1.6-8.5l-6.9,0.2c-1.7,9.7,2.8,12.6-5.7,21.7c-5.7-8.3,1.1-4-2.7-12.9c-8.8,5.2-6.1,0.3-5.4,10.4
		c0.4,5.9,0.9,6.2-2.5,11.5c-5.7-3.3-3.1-3.2-4.1-9.7l-6.4,4.6l7.3,14.4c-7.9,2.7-6.8-4.9-13.7-6.4c-0.5,5.8-0.4,3,4.2,8.3
		c-3.9,5.4-4-1.5-2.5,4.9c0.5,2.3,5.8,0.3-2.3,4.9c-10.1-8.8-1.6-28.2,3-36.1c6.5-5.8,9.5,3.2,25.3-22.2c-6.5-4.3-7-0.3-9.6,4.7
		c-2.8,0.4-2.6-2.1-7-0.5c0.5,3.3,6.7,9.2-4,8c2.2-13.6,1.5-12.2,17.4-21.1c-0.5-2.9-1.5-7-2.6-10.3c-11.7,6,3.1,1.6-8,7.8
		c-3.8-5-1.8-5.6-1.4-11l-7.6,0.1c1.4,4.9,8.3,17.9,0.6,18.4c-6.7,0.5-3.1-13.9-2.2-17.1c-5.5-4.5,1.6,1.4-4.3-1.8
		c-0.2-0.1-0.6-0.3-0.8-0.4l-7.8,2.7c7,7,7.4-1.4,8,10.4c-3.5,1.2-1.5,0.1-4.6,0.3c-4.6,0.4,0.9-2.2-5.3,0.9c2.7,5.1,7,6,9.6,10.9
		c4.6,8.5,0.2,6.4-4.8,9.5c1.2,3,6.6,5.9-2.3,17c-2.5-5.7-2.4-8.6-2.1-14.5c0.3-5.3,0.8-12-4-14.8c-7.7,6-4.1,2.4-2,11.7l-3.1,1.6
		c-2.1,1.2,0.6-2.5-3.9,3c4.2,4.5,6,3.1,7.4,11.4c1.7,9.7,4,8.9,0.6,16.2c-3-1.9-9.3-9.4-11.2-13.1c-5.7-11.1,2.9-32.1,12.3-40.4
		l-0.5-6c1.9-5.7,4.4-0.5,1.6-6.9c-6.2-0.9-2.8-0.2-7.6,5.6c-5.3-11.4,2.4-7.9,0.8-17.8l-6.7,0.9c-4.9,13.7,3.5,18.6,0.1,26.2
		c-7.4-3.3-5-15.4-11.7-19.9l-4.6,2c1,5.9,3.8,3,2.6,8.2c-0.2,1-1.4,0.1-1.1,3c9.5,7.2,12.6,16.9,7.3,29.6
		c-11.1-18.7-6.7-39.7-20.1-36c3.1,9.8,8.9,11.1,2.9,15.6c-3.2-6.5-4.9-10.5-10.2-15.9c-4.5-4.5,0.2-5.4-6.6-4.9
		c-2,4.1-2.1-0.6-0.4,4.8C1865.9,1361.1,1872.2,1361.9,1874,1369.3L1874,1369.3z"/>
	<path class="st1" d="M3957.2,1236.1c-1.8-12.3,3.2-16.3,8.6-27.1c-6.2,0.9,0.5-2.5-5.4,2.6c-11.9,10.1-6.4,26-17.7,39.2
		c-4.4-17.7,0.7-16.7,2.8-34.1c-17.3,7.2-1.7,32.1-13.4,48.9c-2.9-8.2,0.1-10.4-4.1-16.2c-2.8,5.4-2.9,8.7-2.5,13.5
		c1,12.5,5,4.1-1.2,15.8c-5.8-0.8,0.2-1.8-5.6-4.9c-3.1,7.5-1.7,29.6-4.1,38.9c-3.6-12.4-2-14.4-2.1-26.3c-11,9.9-4.3,26.7-0.4,37.5
		c-6.3,10.8,2.6-4.9-8.3,2.3l9.2,12c-7.4,13.3-14.4,7.1-2.7,18.2c0.7-0.2,2-1.3,1.8-1l12.2-6.8c4.3-1.1,9.1,0.4,15.9,0
		c7.7-0.5,24.9-5.6,27.1-14.9c-10.6,1.2-5.3,1.8-15.4,6.7c-9.3,4.6-7.3,2-15.8,2.8c4.9-5.7,10.3-5.5,19-9.4c13.3-6,9.7-5.8,22.6-5.2
		c31.1,1.4,33.2,11.3,44.1,5.2c-6.5-4.1-12.2-4.5-20.5-8.3c18-4.6,22.7,5.7,40-6.2c-11.8-3.7-8.8,2.9-22.3-0.4l17.2-13.8
		c-16.6-0.2-21.8,19.3-60.7,17.3c13.9-10.1,42.2-17.9,50.8-27.2c-10.4-1.1-41.1,14.9-53,21.9c-17.9,10.6-35.9,15.9-52.7,24.5
		c-0.1-1.4-7.1-4.2,7.4-10.5c5.1-2.2,10-3.6,15.8-6.9c20.7-12,38.5-30.4,76.8-37.2c11.1-2,7.6,2.4,19.1-2.7
		c-8.5-3.9-12.1-3.1-18.5-3.7l17.4-13.4c-15.7-3-28.8,26.1-44.4,21.2c9.1-9.5,30.5-28.4,32.5-39.7c-2.1,0.8-0.9-0.5-4.7,3
		c-1.9,1.8-4.5,5.1-6.3,7.2l-7.3-3c-0.6,26.1-54.1,57-76.8,69c1.1-7.8,9.5-16,15.9-20.3c6.5-4.4,13.3-6.6,20.5-11.7
		c13.6-9.5,26.3-25.6,29.1-40.6c-3.3,1.2,0.7-3.5-5.3,4.3c-0.3,0.4-3.2,5.7-3.9,6.9c-8,14.2-23,30.3-38.6,33.4
		c10.1-16.9,14.4-17.9,28.4-28.8c-9-1.7-7.5,1.5-9.5-0.7c4.2-13,3.5-21.4,10.9-34.4c-10,1.3-10.4,8.4-12.8,21.8
		c-2,11.2-3.6,15.7-13.6,23.2c-28.8,21.6-7.6,23-32.3,46.2c2.5-30.6,33.2-49,41.1-69c-3.9,0.6-0.1-1.4-5.4,2.4
		c-2.7,1.9-2.8,2.2-5.1,4.6c-12.1,12.4-23.2,32.4-29.6,36.8c9.2-30.6,60.6-80.1,60.5-94L3957.2,1236.1L3957.2,1236.1z"/>
	<path class="st1" d="M615.1,1348.9c-11.6-0.8-14.3-6.1-23.1-13.2c-0.4,5.8-2.2-1,1.3,5.4c6.9,12.9,22.5,10.9,32.3,23.9
		c-17,0.6-15.1-3.9-30.6-9.3c3.2,17.3,29,7.9,42,21.9c-8,1-9.5-2.1-15.6,0.5c4.4,3.6,7.4,4.3,11.9,4.9c11.6,1.6,4.7-3.8,14.2,4.2
		c-1.8,5.1-1.6-0.5-5.6,4.2c6.2,4.3,26.7,7.4,34.7,11.4c-12,0.8-13.5-1-24.5-3.2c6.9,12,23.6,9.2,34.1,7.7c8.6,7.9-4-3.3,0.5,8
		l12.8-6c10.7,9.4,3.7,14.6,16.1,6.1c0-0.7-0.8-2.1-0.5-1.9l-3.8-12.4c-0.2-4.1,2.1-8.2,3.1-14.5c1.1-7.1-0.2-23.9-8.3-27.6
		c-1,9.9,0.6,5.2,3.1,15.3c2.3,9.4,0.4,7.1-0.5,15c-4.3-5.6-3-10.5-4.9-19.2c-2.9-13.3-3.4-10-0.3-21.7
		c7.4-28.2,16.9-28.1,13.4-39.3c-5,5.1-6.5,10.2-11.6,17.1c-0.6-17.4,9.7-19.6,2.2-37.8c-5.7,10.1,0.9,8.6-4.8,20.3l-9.2-18.4
		c-3.5,15.2,13.4,23.7,3.8,58.9c-6.5-14.7-8.1-42.1-14.9-51.7c-3.1,9.3,5.5,40.4,9.6,52.7c6.2,18.4,7.5,35.9,12,52.9
		c-1.3-0.2-5.3,5.7-8.1-8.8c-1-5.1-1.3-9.9-3.2-15.8c-6.9-21.3-20.2-41.2-18.8-77.5c0.4-10.5,3.7-6.5,1.3-18c-5.2,7-5.2,10.4-7,16.2
		l-8.8-18.5c-5.8,13.7,18.2,31.5,10.6,44.8c-6.9-10.2-19.9-33.4-29.8-37.5c0.3,2-0.6,0.7,1.8,4.9c1.2,2.1,3.8,5.2,5.4,7.2l-4.2,6.1
		c23.7,5.7,41.4,60.7,47.9,83.8c-6.9-2.5-12.7-11.8-15.4-18.5c-2.7-6.8-3.4-13.4-6.7-21.1c-6-14.3-18.2-29.1-31.3-34.6
		c0.4,3.2-3.1-1.3,2.9,5.7c0.3,0.4,4.6,4,5.5,4.9c11.4,10.1,23.2,27,22.9,41.9c-13.4-12.5-13.5-16.7-20.7-31.6
		c-3.3,7.9-0.1,7.2-2.5,8.6c-11.1-6.4-18.9-7.4-29.2-16.8c-0.8,9.4,5.6,11.2,17.3,16c9.8,4,13.6,6.4,18.5,17
		c14,30.5,19.5,11.5,35.8,38.6c-27.5-8.3-38.2-39.9-54.9-51.1c-0.2,3.6-1.3-0.2,1.1,5.4c1.2,2.9,1.4,3,3.2,5.6
		c8.9,13.5,25,27.5,27.8,34.3c-26.1-14.4-61.2-71.2-74-73.8L615.1,1348.9L615.1,1348.9z"/>
	<path class="st1" d="M1358.1,1327.6c4.1-1.4,8.9-2,11.1-2.9c5.5-2.1,3.6-2.9,9.7-6c1.4,0.7,1.3-2.5,3.1,3.4
		c0.1,0.4,0.2,2.7,0.2,3.3l5.3-5.4c3.4,0.2,0.4-0.9,3.5,2.5c6.7-13.2,21-16.4,33.1-18.1c-5.8-7.9-1.3-1.5-9.9-4.9
		c6.7-3.4,25.4-3.7,27.7-7.5c-4.1-0.6-9.8-0.1-13.6-0.3l9.8-13.3l-5.8,1c-1.2,0.3-3.5,1.2-4.8,1.5c1.7-1.4,6.2-5.1,7.7-6.6
		c3.7-3.8,0.7-0.1,2.8-3.5c2.4-3.8,0.8-0.3,1.8-4.6l-16.5,12.1c3.6-8.8,11.2-15.5,14.8-26c-5.3,1-1.6,4.8-6.7,1.3
		c-8-5.5,4.1-0.2-2.8-5.6l-8.4,12.6c-0.7-7.1-2.2-9.2-1.2-16.6c0.9-6.1,2.8-12.1-0.5-17.1c-4.4,5.2-3.2,16.4-5.5,21.5l-3.4,3.6
		c-4.4,5.1-0.5,5.2-4.3,15c-1.5-7-2.1-13-1.7-20.1c0.2-4,1.1-12.8-1.2-16.1l-2.7,1.3c-4.5,5-0.8,0.3-1.6,4.1
		c-1.4,6.8-3,16.9-2.1,24.1c-0.3-0.2-0.6-0.7-0.8-0.8c-0.1-0.2-0.6-0.6-0.8-0.8l-1.4-1.8c-4.8-6.7-3.4-9.6-5.1-14.8
		c-2.6-8-2.8-4.5-5.6-9.7c-1.5-2.8-2.1-6.3-3.5-9.5c-4.4,2.3-3.9-0.8-1.1,8.8c2.3,8.2,7.3,22.2,7.6,29.7c-20-21.7-3.9-6-20.9-19.7
		c-3.8-3.1-1-1.3-3.2-2.2c2.1,16.5,15.4,22,24.6,37.9c-6.1-4.2-6.5-8.2-14-12.6l-3.4-1.7c-2.3-1.1-1.8-0.9-3.2-1.5
		c-0.2-0.1-0.7,0-1-0.4c-0.3-0.4-0.7-0.3-1-0.3c0.6,7.2,9.5,12.6,13,18.4l-13-7c-15.6-3.7-10.7-7.8-23.3-10.8
		c0.8,8.6,9.2,10.6,15.9,17.5c-4.6-0.1-0.7,0.3-4.4-0.7c-0.8-0.2-3.7-1.4-3.7-1.4c-6.8-2.1-0.7-2.9-6.8-0.3
		c7.4,7.2,11.4,6.7,18.3,12c-0.5,0-1.1-0.1-1.5-0.1l-4.2-0.4c-8.1-1.1-20.4-7.9-26.9-5.6c4,3.6,11.9,6.4,16.8,9.6
		c14.9,9.6,5.9,3.2,17.8,8.1c-12.3,0.5-25.7-2.5-33.2-2.2c5.1,6.2,9.2,6.7,16.1,5.9l-5.8,6.5c4.3,0.1,9-1.9,12.9-0.8
		c4.6,1.2,2.3,5.2,9.5,2.5l-17,8.2l4.6,1.7c3.8,0.7,8.6-1.3,12.6-2.8c5.7-2.2,10.2-5.4,15.3-6
		C1368,1318.9,1362.4,1320.2,1358.1,1327.6L1358.1,1327.6z"/>
</g>
</svg>
