<svg enable-background="new 0 0 99.9 24" viewBox="0 0 99.9 24" xmlns="http://www.w3.org/2000/svg"><path d="m13.1 8.7v6.6h2.2c0-2.2 0-4.4 0-6.6-.8 0-1.5 0-2.2 0z" fill="#ffb132"/><path d="m4.4 6.6c-.7 0-1.5 0-2.2 0v10.9h4.4c0-1.5 0-2.9 0-4.4h2.2c0-3.6 0-7.3 0-10.9-1.5 0-2.9 0-4.4 0zm6.5-4.4v4.4h2.1c0-1.5 0-2.9 0-4.4-.6 0-1.4 0-2.1 0zm2.2 4.4v2.1h2.2c0-.7 0-1.4 0-2.1-.8 0-1.5 0-2.2 0z" fill="#ffe85e"/><path d="m8.7 0v6.6h2.2c0-1.5 0-2.9 0-4.4h2.1c0-.7 0-1.5 0-2.2-1.4 0-2.8 0-4.3 0zm4.4 2.2v4.4h2.2c0-1.5 0-2.9 0-4.4-.8 0-1.5 0-2.2 0z" fill="#c86600"/><path d="m4.4 2.2h4.4c0-.7 0-1.5 0-2.2-1.5 0-3 0-4.4 0zm-2.3 4.4h2.2c0-1.5 0-2.9 0-4.4-.7 0-1.5 0-2.2 0zm-2.1 10.9h2.1c0-3.6 0-7.3 0-10.9-.7 0-1.4 0-2.1 0zm13.1-2.2v2.2h2.2c0-.7 0-1.5 0-2.2-.8 0-1.5 0-2.2 0zm-8.7 6.6c0-1.5 0-2.9 0-4.4-.7 0-1.5 0-2.2 0v4.4zm6.5 0h2.1c0-1.5 0-2.9 0-4.4-.7 0-1.4 0-2.1 0zm-2.2 2.1c0-.7 0-1.4 0-2.1-1.5 0-2.9 0-4.4 0v2.1z" fill="#d88600"/><path d="m13.1 6.6c-.7 0-1.4 0-2.1 0v10.9h2.1c0-3.6 0-7.3 0-10.9zm2.2 0v10.9h2.1c0-3.6 0-7.3 0-10.9-.7 0-1.4 0-2.1 0zm-4.4 10.9c-.7 0-1.5 0-2.2 0v6.5h4.4c0-.7 0-1.4 0-2.1-.7 0-1.4 0-2.1 0-.1-1.5-.1-2.9-.1-4.4zm2.2 4.4h2.2c0-1.5 0-2.9 0-4.4-.7 0-1.5 0-2.2 0z" fill="#9e5100"/><path d="m8.7 6.6v6.6c-.7 0-1.5 0-2.2 0v4.4c-.7 0-1.4 0-2.1 0v4.4h4.4c0-1.5 0-2.9 0-4.4h2.2c0-3.6 0-7.3 0-10.9-.8-.1-1.6-.1-2.3-.1z" fill="#fff"/><path d="m54.3 8.7v6.6h2.2c0-2.2 0-4.4 0-6.6-.7 0-1.4 0-2.2 0z" fill="#ffb132"/><path d="m45.6 6.6c-.7 0-1.5 0-2.2 0v10.9h4.4c0-1.5 0-2.9 0-4.4h2.2c0-3.6 0-7.3 0-10.9-1.5 0-2.9 0-4.4 0zm6.6-4.4v4.4h2.1c0-1.5 0-2.9 0-4.4-.7 0-1.4 0-2.1 0zm2.1 4.4v2.1h2.2c0-.7 0-1.4 0-2.1-.7 0-1.4 0-2.2 0z" fill="#ffe85e"/><path d="m50 0v6.6h2.2c0-1.5 0-2.9 0-4.4h2.1c0-.7 0-1.5 0-2.2-1.4 0-2.9 0-4.3 0zm4.3 2.2v4.4h2.2c0-1.5 0-2.9 0-4.4-.7 0-1.4 0-2.2 0z" fill="#c86600"/><path d="m45.6 2.2h4.4c0-.7 0-1.5 0-2.2-1.5 0-2.9 0-4.4 0zm-2.2 4.4h2.2c0-1.5 0-2.9 0-4.4-.7 0-1.5 0-2.2 0zm-2.1 10.9h2.1c0-3.6 0-7.3 0-10.9-.7 0-1.4 0-2.1 0zm13-2.2v2.2h2.2c0-.7 0-1.5 0-2.2-.7 0-1.4 0-2.2 0zm-8.7 6.6c0-1.5 0-2.9 0-4.4-.7 0-1.5 0-2.2 0v4.4zm6.6 0h2.1c0-1.5 0-2.9 0-4.4-.7 0-1.4 0-2.1 0zm-2.2 2.1c0-.7 0-1.4 0-2.1-1.5 0-2.9 0-4.4 0v2.1z" fill="#d88600"/><path d="m54.3 6.6c-.7 0-1.4 0-2.1 0v10.9h2.1c0-3.6 0-7.3 0-10.9zm2.2 0v10.9h2.1c0-3.6 0-7.3 0-10.9-.6 0-1.4 0-2.1 0zm-4.3 10.9c-.7 0-1.5 0-2.2 0v6.5h4.4c0-.7 0-1.4 0-2.1-.7 0-1.4 0-2.1 0-.1-1.5-.1-2.9-.1-4.4zm2.1 4.4h2.2c0-1.5 0-2.9 0-4.4-.7 0-1.5 0-2.2 0z" fill="#9e5100"/><path d="m50 6.6v6.6c-.7 0-1.5 0-2.2 0v4.4c-.7 0-1.4 0-2.1 0v4.4h4.4c0-1.5 0-2.9 0-4.4h2.2c0-3.6 0-7.3 0-10.9-.9-.1-1.6-.1-2.3-.1z" fill="#fff"/><path d="m95.6 8.7v6.6h2.2c0-2.2 0-4.4 0-6.6-.8 0-1.5 0-2.2 0z" fill="#ffb132"/><path d="m86.9 6.6c-.7 0-1.5 0-2.2 0v10.9h4.4c0-1.5 0-2.9 0-4.4h2.2c0-3.6 0-7.3 0-10.9-1.5 0-2.9 0-4.4 0zm6.5-4.4v4.4h2.1c0-1.5 0-2.9 0-4.4-.6 0-1.4 0-2.1 0zm2.2 4.4v2.1h2.2c0-.7 0-1.4 0-2.1-.8 0-1.5 0-2.2 0z" fill="#ffe85e"/><path d="m91.2 0v6.6h2.2c0-1.5 0-2.9 0-4.4h2.1c0-.7 0-1.5 0-2.2-1.4 0-2.8 0-4.3 0zm4.4 2.2v4.4h2.2c0-1.5 0-2.9 0-4.4-.8 0-1.5 0-2.2 0z" fill="#c86600"/><path d="m86.9 2.2h4.4c0-.7 0-1.5 0-2.2-1.5 0-2.9 0-4.4 0zm-2.3 4.4h2.2c0-1.5 0-2.9 0-4.4-.7 0-1.5 0-2.2 0zm-2.1 10.9h2.1c0-3.6 0-7.3 0-10.9-.7 0-1.4 0-2.1 0zm13.1-2.2v2.2h2.2c0-.7 0-1.5 0-2.2-.8 0-1.5 0-2.2 0zm-8.7 6.6c0-1.5 0-2.9 0-4.4-.7 0-1.5 0-2.2 0v4.4zm6.5 0h2.1c0-1.5 0-2.9 0-4.4-.7 0-1.4 0-2.1 0zm-2.2 2.1c0-.7 0-1.4 0-2.1-1.5 0-2.9 0-4.4 0v2.1z" fill="#d88600"/><path d="m95.6 6.6c-.7 0-1.4 0-2.1 0v10.9h2.1c0-3.6 0-7.3 0-10.9zm2.2 0v10.9h2.1c0-3.6 0-7.3 0-10.9-.7 0-1.4 0-2.1 0zm-4.4 10.9c-.7 0-1.5 0-2.2 0v6.5h4.4c0-.7 0-1.4 0-2.1-.7 0-1.4 0-2.1 0-.1-1.5-.1-2.9-.1-4.4zm2.2 4.4h2.2c0-1.5 0-2.9 0-4.4-.7 0-1.5 0-2.2 0z" fill="#9e5100"/><path d="m91.2 6.6v6.6c-.7 0-1.5 0-2.2 0v4.4c-.7 0-1.4 0-2.1 0v4.4h4.4c0-1.5 0-2.9 0-4.4h2.2c0-3.6 0-7.3 0-10.9-.8-.1-1.5-.1-2.3-.1z" fill="#fff"/></svg>