<?xml version="1.0" encoding="utf-8"?>
<!-- Generator: Adobe Illustrator 27.8.1, SVG Export Plug-In . SVG Version: 6.00 Build 0)  -->
<svg version="1.1" id="分離模式" xmlns="http://www.w3.org/2000/svg" xmlns:xlink="http://www.w3.org/1999/xlink" x="0px"
	 y="0px" viewBox="0 0 396.7 125.7" style="enable-background:new 0 0 396.7 125.7;" xml:space="preserve">
<style type="text/css">
	.st0{fill:#21AD10;}
	.st1{fill:#1F1F1F;}
	.st2{fill:#B5DE31;}
</style>
<rect x="4.7" y="6.4" class="st0" width="391.4" height="113.7"/>
<g id="MeshGrid_34_">
	<g>
		<g>
			<path class="st1" d="M2,6.1c0,0.7,0,1.4,0,2l0,0c0,0.7,0,1.4,0,2c0,0.7,0,1.4,0,2c0,0.7,0,1.4,0,2c0,0.7,0,1.4,0,2
				c0,0.7,0,1.4,0,2c0,0.7,0,1.4,0,2c0,0.7,0,1.4,0,2c0,0.7,0,1.4,0,2c0,0.7,0,1.4,0,2c0,0.7,0,1.4,0,2c0,0.7,0,1.4,0,2
				c0,0.7,0,1.4,0,2c0,0.7,0,1.4,0,2c0,0.7,0,1.4,0,2c0,0.7,0,1.4,0,2c0,0.7,0,1.4,0,2c0,0.7,0,1.4,0,2c0,0.7,0,1.4,0,2
				c0,0.7,0,1.4,0,2c0,0.7,0,1.4,0,2c0,0.7,0,1.4,0,2c0,0.7,0,1.4,0,2c0,0.7,0,1.4,0,2c0,0.7,0,1.4,0,2c0,0.7,0,1.4,0,2
				c0,0.7,0,1.4,0,2c0,0.7,0,1.4,0,2c0,0.7,0,1.4,0,2c0,0.7,0,1.3,0,2s0,1.4,0,2l0,0c0,0.7,0,1.3,0,2s0,1.3,0,2s0,1.4,0,2
				c0,0.7,0,1.4,0,2c0,0.7,0,1.4,0,2c0,0.7,0,1.4,0,2c0,0.7,0,1.4,0,2c0,0.7,0,1.4,0,2c0,0.7,0,1.4,0,2c0,0.7,0,1.4,0,2
				c0,0.7,0,1.4,0,2c0,0.7,0,1.4,0,2c0,0.7,0,1.4,0,2c0,0.7,0,1.4,0,2s0,1.4,0,2c0,0.7,0,1.4,0,2c0,0.7,0,1.4,0,2c0,0.7,0,1.4,0,2
				c0,0.7,0,1.4,0,2c0,0.7,0,1.4,0,2c0,0.7,0,1.4,0,2c0,0.7,0,1.4,0,2c0,0.7,0,1.4,0,2c0,0.7,0,1.4,0,2c0,0.7,0,1.4,0,2
				c0,0.7,0,1.4,0,2c0,0.7,0,1.4,0,2c0,0.7,0,1.4,0,2c0.7,0,1.4,0,2,0c0.7,0,1.4,0,2,0c0.7,0,1.4,0,2,0c0.7,0,1.3,0,2,0s1.3,0,2,0
				s1.3,0,2,0s1.4,0,2,0c0.7,0,1.4,0,2,0c0.7,0,1.3,0,2,0s1.3,0,2,0s1.4,0,2,0c0.7,0,1.4,0,2,0c0.7,0,1.3,0,2,0s1.3,0,2,0s1.4,0,2,0
				c0.7,0,1.4,0,2,0c0.7,0,1.4,0,2,0c0.7,0,1.4,0,2,0c0.7,0,1.3,0,2,0s1.4,0,2,0c0.7,0,1.3,0,2,0s1.4,0,2,0c0.7,0,1.4,0,2,0
				c0.7,0,1.3,0,2,0s1.3,0,2,0s1.4,0,2,0c0.7,0,1.3,0,2,0s1.3,0,2,0s1.3,0,2,0c0-0.7,0-1.4,0-2c0-0.7,0-1.4,0-2c0.7,0,1.4,0,2,0
				c0.7,0,1.4,0,2,0c0.7,0,1.4,0,2,0c0.7,0,1.4,0,2,0c0.7,0,1.3,0,2,0s1.3,0,2,0s1.4,0,2,0c0.7,0,1.4,0,2,0c0.7,0,1.4,0,2,0
				c0.7,0,1.3,0,2,0s1.3,0,2,0s1.4,0,2,0c0.7,0,1.4,0,2,0c0.7,0,1.4,0,2,0c0.7,0,1.4,0,2,0c0.7,0,1.4,0,2,0c0.7,0,1.4,0,2,0
				c0.7,0,1.4,0,2,0c0.7,0,1.4,0,2,0c0.7,0,1.3,0,2,0s1.4,0,2,0c0.7,0,1.4,0,2,0c0.7,0,1.4,0,2,0c0.7,0,1.4,0,2,0c0.7,0,1.4,0,2,0
				c0.7,0,1.3,0,2,0s1.4,0,2,0c0.7,0,1.3,0,2,0s1.3,0,2,0s1.3,0,2,0s1.3,0,2,0s1.4,0,2,0c0.7,0,1.4,0,2,0c0.7,0,1.4,0,2,0
				c0.7,0,1.4,0,2,0c0.7,0,1.4,0,2,0c0.7,0,1.4,0,2,0c0.7,0,1.4,0,2,0c0.7,0,1.4,0,2,0c0.7,0,1.3,0,2,0s1.4,0,2,0c0.7,0,1.4,0,2,0
				c0.7,0,1.4,0,2,0c0.7,0,1.4,0,2,0s1.3,0,2,0s1.4,0,2,0c0.7,0,1.4,0,2,0c0.7,0,1.4,0,2,0c0.7,0,1.4,0,2,0c0.7,0,1.3,0,2,0
				s1.4,0,2,0c0.7,0,1.4,0,2,0c0.7,0,1.4,0,2,0c0.7,0,1.3,0,2,0s1.3,0,2,0s1.3,0,2,0s1.4,0,2,0c0.7,0,1.3,0,2,0s1.4,0,2,0
				c0.7,0,215.2,0,215.8,0c0.7,0,1.3,0,2,0c0-0.7,0-1.4,0-2c0-0.7,0-1.4,0-2c-0.7,0-1.3,0-2,0s-215.2,0-215.8,0c-0.7,0-1.3,0-2,0
				s-1.3,0-2,0s-1.3,0-2,0s-1.4,0-2,0s-1.3,0-2,0s-1.4,0-2,0c-0.7,0-1.4,0-2,0c-0.7,0-1.4,0-2,0c-0.7,0-1.3,0-2,0s-1.4,0-2,0
				c-0.7,0-1.4,0-2,0c-0.7,0-1.4,0-2,0c-0.7,0-1.4,0-2,0c-0.7,0-1.4,0-2,0c-0.7,0-1.3,0-2,0s-1.3,0-2,0s-1.4,0-2,0c-0.7,0-1.4,0-2,0
				c-0.7,0-1.4,0-2,0c-0.7,0-1.3,0-2,0s-1.4,0-2,0c-0.7,0-1.4,0-2,0c-0.7,0-1.3,0-2,0s-1.3,0-2,0s-1.3,0-2,0s-1.3,0-2,0s-1.4,0-2,0
				c-0.7,0-1.4,0-2,0c-0.7,0-1.3,0-2,0s-1.4,0-2,0c-0.7,0-1.3,0-2,0s-1.3,0-2,0s-1.3,0-2,0s-1.4,0-2,0c-0.7,0-1.3,0-2,0s-1.4,0-2,0
				c-0.7,0-1.4,0-2,0c-0.7,0-1.4,0-2,0c-0.7,0-1.3,0-2,0s-1.4,0-2,0c-0.7,0-1.4,0-2,0c-0.7,0-1.4,0-2,0c-0.7,0-1.4,0-2,0
				c-0.7,0-1.4,0-2,0c-0.7,0-1.3,0-2,0s-1.3,0-2,0s-1.3,0-2,0s-1.4,0-2,0c-0.7,0-1.3,0-2,0s-1.4,0-2,0c-0.7,0-1.4,0-2,0
				c-0.7,0-1.4,0-2,0c-0.7,0-1.4,0-2,0c-0.7,0-1.3,0-2,0s-1.4,0-2,0c-0.7,0-1.3,0-2,0s-1.4,0-2,0c-0.7,0-1.4,0-2,0c0-0.7,0-1.4,0-2
				c0-0.7,0-1.4,0-2c0-0.7,0-1.4,0-2c0-0.7,0-1.4,0-2c0-0.7,0-1.4,0-2c0-0.7,0-1.4,0-2c0-0.7,0-1.4,0-2c0-0.7,0-1.4,0-2
				c0-0.7,0-1.4,0-2c0-0.7,0-1.4,0-2s0-1.4,0-2c0-0.7,0-1.4,0-2c0-0.7,0-1.4,0-2c0-0.7,0-1.4,0-2c0-0.7,0-1.4,0-2c0-0.7,0-1.4,0-2
				c0-0.7,0-1.4,0-2c0-0.7,0-1.4,0-2c0-0.7,0-1.4,0-2c0-0.7,0-1.3,0-2s0-1.4,0-2c0-0.7,0-1.4,0-2c0-0.7,0-1.4,0-2c0-0.7,0-1.4,0-2
				c0-0.7,0-1.4,0-2c0-0.7,0-1.3,0-2c0-0.7,0-1.4,0-2c0-0.7,0-1.4,0-2c0-0.7,0-1.4,0-2c0-0.7,0-1.4,0-2c0-0.7,0-1.4,0-2
				c0-0.7,0-1.4,0-2c0-0.7,0-1.4,0-2c0-0.7,0-1.4,0-2c0-0.7,0-1.4,0-2c0-0.7,0-1.4,0-2c0-0.7,0-1.4,0-2c0-0.7,0-1.4,0-2
				c0-0.7,0-1.4,0-2c0-0.7,0-1.4,0-2c0-0.7,0-1.4,0-2c0-0.7,0-1.4,0-2c0-0.7,0-1.4,0-2c0-0.7,0-1.4,0-2c0-0.7,0-1.4,0-2
				c0-0.7,0-1.4,0-2c0-0.7,0-1.4,0-2c0-0.7,0-1.4,0-2c0-0.7,0-1.4,0-2c0-0.7,0-1.3,0-2c0-0.7,0-1.4,0-2c0-0.7,0-1.4,0-2
				c0-0.7,0-1.4,0-2c0-0.7,0-1.3,0-2c0.7,0,1.4,0,2,0c0.7,0,1.4,0,2,0c0.7,0,1.4,0,2,0c0.7,0,1.3,0,2,0s1.3,0,2,0s1.4,0,2,0
				c0.7,0,1.4,0,2,0c0.7,0,1.4,0,2,0c0.7,0,1.3,0,2,0s1.3,0,2,0s1.4,0,2,0c0.7,0,1.4,0,2,0c0.7,0,1.4,0,2,0c0.7,0,1.4,0,2,0
				c0.7,0,1.4,0,2,0c0.7,0,1.4,0,2,0c0.7,0,1.4,0,2,0c0.7,0,1.4,0,2,0c0.7,0,1.3,0,2,0s1.4,0,2,0c0.7,0,1.4,0,2,0c0.7,0,1.4,0,2,0
				c0.7,0,1.4,0,2,0s1.3,0,2,0s1.3,0,2,0s1.4,0,2,0c0.7,0,1.3,0,2,0s1.3,0,2,0s1.3,0,2,0s1.3,0,2,0s1.4,0,2,0c0.7,0,1.4,0,2,0
				c0.7,0,1.4,0,2,0c0.7,0,1.4,0,2,0c0.7,0,1.4,0,2,0c0.7,0,1.4,0,2,0c0.7,0,1.4,0,2,0c0.7,0,1.4,0,2,0c0.7,0,1.3,0,2,0s1.4,0,2,0
				c0.7,0,1.4,0,2,0c0.7,0,1.4,0,2,0c0.7,0,1.4,0,2,0s1.3,0,2,0s1.4,0,2,0c0.7,0,1.4,0,2,0c0.7,0,1.4,0,2,0c0.7,0,1.4,0,2,0
				c0.7,0,1.3,0,2,0s1.4,0,2,0c0.7,0,1.4,0,2,0c0.7,0,1.4,0,2,0c0.7,0,1.4,0,2,0c0.7,0,1.3,0,2,0s1.3,0,2,0s1.4,0,2,0
				c0.7,0,1.3,0,2,0s1.4,0,2,0c0.7,0,215.2,0,215.8,0c0.7,0,1.3,0,2,0c0-0.7,0-1.4,0-2c0-0.7,0-1.3,0-2c-0.7,0-1.3,0-2,0
				s-215.2,0-215.8,0c-0.7,0-1.3,0-2,0s-1.3,0-2,0s-1.4,0-2,0c-0.7,0-1.3,0-2,0s-1.4,0-2,0c-0.7,0-1.3,0-2,0s-1.4,0-2,0
				c-0.7,0-1.4,0-2,0c-0.7,0-1.3,0-2,0s-1.4,0-2,0c-0.7,0-1.4,0-2,0c-0.7,0-1.4,0-2,0c-0.7,0-1.4,0-2,0c-0.7,0-1.4,0-2,0
				c-0.7,0-1.3,0-2,0s-1.3,0-2,0s-1.4,0-2,0c-0.7,0-1.4,0-2,0c-0.7,0-1.4,0-2,0c-0.7,0-1.3,0-2,0s-1.4,0-2,0c-0.7,0-1.4,0-2,0
				c-0.7,0-1.3,0-2,0s-1.3,0-2,0s-1.3,0-2,0s-1.3,0-2,0s-1.4,0-2,0c-0.7,0-1.4,0-2,0c-0.7,0-1.3,0-2,0s-1.4,0-2,0c-0.7,0-1.3,0-2,0
				s-1.3,0-2,0s-1.4,0-2,0c-0.7,0-1.4,0-2,0c-0.7,0-1.4,0-2,0s-1.3,0-2,0s-1.4,0-2,0c-0.7,0-1.3,0-2,0s-1.3,0-2,0s-1.4,0-2,0
				c-0.7,0-1.4,0-2,0c-0.7,0-1.4,0-2,0c-0.7,0-1.4,0-2,0c-0.7,0-1.4,0-2,0c-0.7,0-1.3,0-2,0s-1.3,0-2,0s-1.3,0-2,0s-1.4,0-2,0
				c-0.7,0-1.3,0-2,0s-1.4,0-2,0c-0.7,0-1.4,0-2,0c-0.7,0-1.4,0-2,0c-0.7,0-1.4,0-2,0c-0.7,0-1.3,0-2,0s-1.4,0-2,0c-0.7,0-1.3,0-2,0
				s-1.4,0-2,0c-0.7,0-1.4,0-2,0c-0.7,0-1.3,0-2,0c0-0.7,0-1.4,0-2l0,0c0-0.7,0-1.4,0-2c-0.7,0-1.3,0-2,0s-1.4,0-2,0
				c-0.7,0-1.4,0-2,0c-0.7,0-1.3,0-2,0s-1.4,0-2,0c-0.7,0-1.4,0-2,0c-0.7,0-1.4,0-2,0c-0.7,0-1.4,0-2,0c-0.7,0-1.4,0-2,0
				c-0.7,0-1.3,0-2,0s-1.4,0-2,0c-0.7,0-1.4,0-2,0c-0.7,0-1.4,0-2,0c-0.7,0-1.4,0-2,0c-0.7,0-1.4,0-2,0c-0.7,0-1.4,0-2,0s-1.3,0-2,0
				s-1.4,0-2,0c-0.7,0-1.4,0-2,0c-0.7,0-1.3,0-2,0s-1.4,0-2,0c-0.7,0-1.4,0-2,0c-0.7,0-1.4,0-2,0c-0.7,0-1.4,0-2,0c-0.7,0-1.3,0-2,0
				s-1.3,0-2,0s-1.4,0-2,0c-0.7,0-1.4,0-2,0C3.4,0,2.7,0,2,0c0,0.7,0,1.4,0,2c0,0.7,0,1.4,0,2C2,4.7,2,5.4,2,6.1z M56.7,6.1
				c0,0.7,0,1.4,0,2c0,0.7,0,1.4,0,2c0,0.7,0,1.4,0,2c0,0.7,0,1.4,0,2c0,0.7,0,1.4,0,2c0,0.7,0,1.4,0,2c0,0.7,0,1.4,0,2
				c0,0.7,0,1.4,0,2c0,0.7,0,1.4,0,2c0,0.7,0,1.4,0,2c0,0.7,0,1.4,0,2c0,0.7,0,1.4,0,2c0,0.7,0,1.4,0,2c0,0.7,0,1.4,0,2
				c0,0.7,0,1.4,0,2c0,0.7,0,1.4,0,2c0,0.7,0,1.4,0,2c0,0.7,0,1.4,0,2c0,0.7,0,1.4,0,2c0,0.7,0,1.4,0,2c0,0.7,0,1.4,0,2
				c0,0.7,0,1.4,0,2c0,0.7,0,1.4,0,2c0,0.7,0,1.4,0,2c0,0.7,0,1.4,0,2c0,0.7,0,1.4,0,2c0,0.7,0,1.4,0,2c0,0.7,0,1.4,0,2
				c0,0.7,0,1.3,0,2c0,0.7,0,1.3,0,2s0,1.4,0,2c0,0.7,0,1.4,0,2c0,0.7,0,1.4,0,2c0,0.7,0,1.4,0,2c0,0.7,0,1.4,0,2c0,0.7,0,1.4,0,2
				c0,0.7,0,1.4,0,2c0,0.7,0,1.4,0,2c0,0.7,0,1.4,0,2c0,0.7,0,1.4,0,2c0,0.7,0,1.4,0,2c0,0.7,0,1.4,0,2c0,0.7,0,1.4,0,2
				c0,0.7,0,1.4,0,2c0,0.7,0,1.4,0,2c0,0.7,0,1.4,0,2c0,0.7,0,1.4,0,2c0,0.7,0,1.4,0,2c0,0.7,0,1.4,0,2c0,0.7,0,1.4,0,2
				c0,0.7,0,1.4,0,2c0,0.7,0,1.4,0,2c0,0.7,0,1.4,0,2c0,0.7,0,1.4,0,2c0,0.7,0,1.4,0,2c0,0.7,0,1.4,0,2c0,0.7,0,1.4,0,2
				c-0.7,0-1.3,0-2,0s-1.3,0-2,0s-1.4,0-2,0c-0.7,0-1.3,0-2,0s-1.4,0-2,0c-0.7,0-1.4,0-2,0c-0.7,0-1.4,0-2,0c-0.7,0-1.3,0-2,0
				s-1.3,0-2,0s-1.4,0-2,0c-0.7,0-1.4,0-2,0c-0.7,0-1.4,0-2,0c-0.7,0-1.4,0-2,0c-0.7,0-1.3,0-2,0s-1.3,0-2,0s-1.4,0-2,0
				c-0.7,0-1.4,0-2,0c-0.7,0-1.3,0-2,0s-1.4,0-2,0c-0.7,0-1.4,0-2,0c-0.7,0-1.4,0-2,0c-0.7,0-1.3,0-2,0s-1.3,0-2,0s-1.3,0-2,0
				s-1.3,0-2,0s-1.4,0-2,0c0-0.7,0-1.4,0-2c0-0.7,0-1.4,0-2c0-0.7,0-1.4,0-2c0-0.7,0-1.4,0-2c0-0.7,0-1.4,0-2c0-0.7,0-1.4,0-2
				c0-0.7,0-1.4,0-2c0-0.7,0-1.4,0-2c0-0.7,0-1.4,0-2c0-0.7,0-1.4,0-2c0-0.7,0-1.4,0-2c0-0.7,0-1.4,0-2s0-1.4,0-2c0-0.7,0-1.4,0-2
				c0-0.7,0-1.4,0-2c0-0.7,0-1.4,0-2c0-0.7,0-1.4,0-2c0-0.7,0-1.4,0-2c0-0.7,0-1.4,0-2c0-0.7,0-1.4,0-2c0-0.7,0-1.4,0-2
				c0-0.7,0-1.4,0-2c0-0.7,0-1.4,0-2c0-0.7,0-1.4,0-2c0-0.7,0-1.4,0-2c0-0.7,0-1.3,0-2s0-1.4,0-2c0-0.7,0-1.4,0-2c0-0.7,0-1.4,0-2
				c0-0.7,0-1.4,0-2c0-0.7,0-1.4,0-2c0-0.7,0-1.4,0-2c0-0.7,0-1.4,0-2c0-0.7,0-1.4,0-2c0-0.7,0-1.4,0-2c0-0.7,0-1.4,0-2
				c0-0.7,0-1.4,0-2c0-0.7,0-1.4,0-2c0-0.7,0-1.4,0-2c0-0.7,0-1.4,0-2c0-0.7,0-1.4,0-2c0-0.7,0-1.4,0-2c0-0.7,0-1.4,0-2
				c0-0.7,0-1.4,0-2c0-0.7,0-1.4,0-2c0-0.7,0-1.4,0-2c0-0.7,0-1.4,0-2c0-0.7,0-1.4,0-2c0-0.7,0-1.4,0-2c0-0.7,0-1.4,0-2
				c0-0.7,0-1.4,0-2c0-0.7,0-1.4,0-2c0-0.7,0-1.4,0-2c0-0.7,0-1.4,0-2c0-0.7,0-1.4,0-2c0-0.7,0-1.3,0-2s0-1.4,0-2c0-0.7,0-1.4,0-2
				c0.7,0,1.4,0,2,0c0.7,0,1.4,0,2,0c0.7,0,1.3,0,2,0s1.3,0,2,0s1.3,0,2,0s1.4,0,2,0c0.7,0,1.4,0,2,0c0.7,0,1.3,0,2,0s1.3,0,2,0
				s1.4,0,2,0c0.7,0,1.4,0,2,0c0.7,0,1.3,0,2,0s1.3,0,2,0s1.4,0,2,0c0.7,0,1.4,0,2,0c0.7,0,1.4,0,2,0c0.7,0,1.4,0,2,0
				c0.7,0,1.3,0,2,0s1.4,0,2,0c0.7,0,1.3,0,2,0s1.4,0,2,0c0.7,0,1.4,0,2,0c0.7,0,1.3,0,2,0s1.3,0,2,0s1.4,0,2,0c0.7,0,1.3,0,2,0
				C56.7,4.7,56.7,5.4,56.7,6.1z"/>
			<path class="st1" d="M0,0c0,0.7,0,1.4,0,2c0,0.7,0,1.4,0,2c0,0.7,0,1.3,0,2s0,1.4,0,2c0,0.7,0,1.4,0,2c0,0.7,0,1.4,0,2
				c0,0.7,0,1.4,0,2c0,0.7,0,1.4,0,2c0,0.7,0,1.4,0,2c0,0.7,0,1.4,0,2c0,0.7,0,1.4,0,2c0,0.7,0,1.4,0,2c0,0.7,0,1.4,0,2
				c0,0.7,0,1.4,0,2c0,0.7,0,1.4,0,2c0,0.7,0,1.4,0,2c0,0.7,0,1.4,0,2c0,0.7,0,1.4,0,2c0,0.7,0,1.4,0,2c0,0.7,0,1.4,0,2
				c0,0.7,0,1.4,0,2c0,0.7,0,1.4,0,2c0,0.7,0,1.4,0,2c0,0.7,0,1.4,0,2c0,0.7,0,1.4,0,2c0,0.7,0,1.4,0,2c0,0.7,0,1.4,0,2
				c0,0.7,0,1.4,0,2c0,0.7,0,1.4,0,2c0,0.7,0,1.4,0,2c0,0.7,0,1.4,0,2c0,0.7,0,1.4,0,2c0,0.7,0,1.3,0,2s0,1.4,0,2c0,0.7,0,1.4,0,2
				c0,0.7,0,1.3,0,2s0,1.4,0,2c0,0.7,0,1.4,0,2c0,0.7,0,1.4,0,2c0,0.7,0,1.4,0,2c0,0.7,0,1.4,0,2c0,0.7,0,1.4,0,2c0,0.7,0,1.4,0,2
				c0,0.7,0,1.4,0,2c0,0.7,0,1.4,0,2c0,0.7,0,1.4,0,2c0,0.7,0,1.4,0,2c0,0.7,0,1.4,0,2s0,1.4,0,2c0,0.7,0,1.4,0,2c0,0.7,0,1.4,0,2
				c0,0.7,0,1.4,0,2c0,0.7,0,1.4,0,2c0,0.7,0,1.4,0,2c0,0.7,0,1.4,0,2c0,0.7,0,1.4,0,2c0,0.7,0,1.4,0,2c0,0.7,0,1.4,0,2
				c0,0.7,0,1.4,0,2c0,0.7,0,1.4,0,2c0,0.7,0,1.4,0,2c0,0.7,0,1.4,0,2c0.7,0,1.4,0,2,0c0-0.7,0-1.4,0-2c0-0.7,0-1.4,0-2
				c0-0.7,0-1.4,0-2c0-0.7,0-1.4,0-2c0-0.7,0-1.4,0-2c0-0.7,0-1.4,0-2c0-0.7,0-1.4,0-2c0-0.7,0-1.4,0-2c0-0.7,0-1.4,0-2
				c0-0.7,0-1.4,0-2c0-0.7,0-1.4,0-2c0-0.7,0-1.4,0-2c0-0.7,0-1.4,0-2c0-0.7,0-1.4,0-2s0-1.4,0-2c0-0.7,0-1.4,0-2c0-0.7,0-1.4,0-2
				c0-0.7,0-1.4,0-2c0-0.7,0-1.4,0-2c0-0.7,0-1.4,0-2c0-0.7,0-1.4,0-2c0-0.7,0-1.4,0-2c0-0.7,0-1.4,0-2c0-0.7,0-1.4,0-2
				c0-0.7,0-1.4,0-2c0-0.7,0-1.4,0-2c0-0.7,0-1.4,0-2c0-0.7,0-1.3,0-2s0-1.4,0-2c0-0.7,0-1.4,0-2c0-0.7,0-1.4,0-2c0-0.7,0-1.4,0-2
				c0-0.7,0-1.4,0-2c0-0.7,0-1.4,0-2c0-0.7,0-1.4,0-2c0-0.7,0-1.4,0-2c0-0.7,0-1.4,0-2c0-0.7,0-1.4,0-2c0-0.7,0-1.4,0-2
				c0-0.7,0-1.4,0-2c0-0.7,0-1.4,0-2c0-0.7,0-1.4,0-2c0-0.7,0-1.4,0-2c0-0.7,0-1.4,0-2c0-0.7,0-1.4,0-2c0-0.7,0-1.4,0-2
				c0-0.7,0-1.4,0-2c0-0.7,0-1.4,0-2c0-0.7,0-1.4,0-2c0-0.7,0-1.4,0-2c0-0.7,0-1.4,0-2c0-0.7,0-1.4,0-2c0-0.7,0-1.4,0-2
				c0-0.7,0-1.4,0-2c0-0.7,0-1.4,0-2c0-0.7,0-1.4,0-2c0-0.7,0-1.4,0-2c0-0.7,0-1.3,0-2s0-1.4,0-2c0-0.7,0-1.4,0-2c0-0.7,0-1.4,0-2
				l0,0c0-0.7,0-1.4,0-2C1.4,0,0.7,0,0,0z"/>
		</g>
		<g>
			<path class="st2" d="M4.1,6.1c0,0.7,0,1.4,0,2c0,0.7,0,1.4,0,2c0,0.7,0,1.4,0,2c0,0.7,0,1.4,0,2c0,0.7,0,1.4,0,2c0,0.7,0,1.4,0,2
				c0,0.7,0,1.4,0,2c0,0.7,0,1.4,0,2c0,0.7,0,1.4,0,2c0,0.7,0,1.4,0,2c0,0.7,0,1.4,0,2c0,0.7,0,1.4,0,2c0,0.7,0,1.4,0,2
				c0,0.7,0,1.4,0,2c0,0.7,0,1.4,0,2c0,0.7,0,1.4,0,2c0,0.7,0,1.4,0,2c0,0.7,0,1.4,0,2c0,0.7,0,1.4,0,2c0,0.7,0,1.4,0,2
				c0,0.7,0,1.4,0,2c0,0.7,0,1.4,0,2c0,0.7,0,1.4,0,2c0,0.7,0,1.4,0,2c0,0.7,0,1.4,0,2c0,0.7,0,1.4,0,2c0,0.7,0,1.4,0,2
				c0,0.7,0,1.4,0,2c0,0.7,0,1.4,0,2c0,0.7,0,1.3,0,2s0,1.4,0,2c0,0.7,0,1.3,0,2s0,1.4,0,2c0,0.7,0,1.4,0,2c0,0.7,0,1.4,0,2
				c0,0.7,0,1.4,0,2c0,0.7,0,1.4,0,2c0,0.7,0,1.4,0,2c0,0.7,0,1.4,0,2c0,0.7,0,1.4,0,2c0,0.7,0,1.4,0,2c0,0.7,0,1.4,0,2
				c0,0.7,0,1.4,0,2c0,0.7,0,1.4,0,2c0,0.7,0,1.4,0,2s0,1.4,0,2c0,0.7,0,1.4,0,2c0,0.7,0,1.4,0,2c0,0.7,0,1.4,0,2c0,0.7,0,1.4,0,2
				c0,0.7,0,1.4,0,2c0,0.7,0,1.4,0,2c0,0.7,0,1.4,0,2c0,0.7,0,1.4,0,2c0,0.7,0,1.4,0,2c0,0.7,0,1.4,0,2c0,0.7,0,1.4,0,2
				c0.7,0,1.4,0,2,0c0.7,0,1.4,0,2,0c0-0.7,0-1.4,0-2c0-0.7,0-1.4,0-2c0-0.7,0-1.4,0-2c0-0.7,0-1.4,0-2c0-0.7,0-1.4,0-2
				c0-0.7,0-1.4,0-2c0-0.7,0-1.4,0-2c0-0.7,0-1.4,0-2c0-0.7,0-1.4,0-2c0-0.7,0-1.4,0-2c0.7,0,1.3,0,2,0s1.3,0,2,0s1.3,0,2,0
				s1.4,0,2,0c0.7,0,1.4,0,2,0c0.7,0,1.3,0,2,0s1.3,0,2,0s1.4,0,2,0c0.7,0,1.4,0,2,0c0.7,0,1.3,0,2,0s1.3,0,2,0s1.4,0,2,0
				c0.7,0,1.4,0,2,0c0.7,0,1.4,0,2,0c0.7,0,1.4,0,2,0c0.7,0,1.3,0,2,0s1.4,0,2,0c0.7,0,1.4,0,2,0c0.7,0,1.4,0,2,0c0.7,0,1.3,0,2,0
				s1.4,0,2,0c0.7,0,1.4,0,2,0c0.7,0,1.4,0,2,0c0.7,0,1.3,0,2,0c0-0.7,0-1.4,0-2c0-0.7,0-1.4,0-2c0-0.7,0-1.4,0-2c0-0.7,0-1.4,0-2
				c0-0.7,0-1.4,0-2c0-0.7,0-1.4,0-2c0-0.7,0-1.4,0-2c0-0.7,0-1.4,0-2c0-0.7,0-1.4,0-2c0-0.7,0-1.4,0-2c0-0.7,0-1.4,0-2
				c0-0.7,0-1.4,0-2c-0.7,0-1.3,0-2,0s-1.3,0-2,0s-1.4,0-2,0c-0.7,0-1.3,0-2,0s-1.4,0-2,0c-0.7,0-1.4,0-2,0c-0.7,0-1.4,0-2,0
				c-0.7,0-1.3,0-2,0s-1.3,0-2,0s-1.4,0-2,0c-0.7,0-1.4,0-2,0c-0.7,0-1.4,0-2,0c-0.7,0-1.4,0-2,0c-0.7,0-1.3,0-2,0s-1.3,0-2,0
				s-1.4,0-2,0c-0.7,0-1.4,0-2,0c-0.7,0-1.3,0-2,0s-1.4,0-2,0c-0.7,0-1.4,0-2,0c-0.7,0-1.4,0-2,0c-0.7,0-1.3,0-2,0s-1.3,0-2,0
				s-1.3,0-2,0c0-0.7,0-1.4,0-2c0-0.7,0-1.4,0-2c0-0.7,0-1.4,0-2c0-0.7,0-1.3,0-2s0-1.4,0-2c0-0.7,0-1.4,0-2c0-0.7,0-1.4,0-2
				c0-0.7,0-1.4,0-2c0-0.7,0-1.4,0-2c0-0.7,0-1.4,0-2c0-0.7,0-1.4,0-2c0-0.7,0-1.4,0-2c0-0.7,0-1.4,0-2c0-0.7,0-1.4,0-2
				c0-0.7,0-1.4,0-2c0-0.7,0-1.4,0-2c0-0.7,0-1.4,0-2c0-0.7,0-1.4,0-2c0-0.7,0-1.4,0-2c0-0.7,0-1.4,0-2c0-0.7,0-1.4,0-2
				c0-0.7,0-1.4,0-2c0-0.7,0-1.4,0-2c0-0.7,0-1.4,0-2c0-0.7,0-1.4,0-2c0-0.7,0-1.4,0-2c0-0.7,0-1.4,0-2c0-0.7,0-1.4,0-2
				c0-0.7,0-1.4,0-2c0-0.7,0-1.4,0-2c0-0.7,0-1.4,0-2c0-0.7,0-1.4,0-2c0-0.7,0-1.4,0-2c0-0.7,0-1.3,0-2s0-1.4,0-2c0-0.7,0-1.4,0-2
				c-0.7,0-1.3,0-2,0s-1.4,0-2,0C4.1,4.7,4.1,5.4,4.1,6.1z"/>
			<path class="st2" d="M12.2,8.1c0,0.7,0,1.4,0,2c0,0.7,0,1.4,0,2c0.7,0,1.3,0,2,0s1.4,0,2,0c0,0.7,0,1.4,0,2c0,0.7,0,1.4,0,2
				c0.7,0,1.4,0,2,0c0.7,0,1.3,0,2,0c0-0.7,0-1.4,0-2c0-0.7,0-1.4,0-2c0.7,0,1.3,0,2,0s1.4,0,2,0c0,0.7,0,1.4,0,2c0,0.7,0,1.4,0,2
				c0.7,0,1.4,0,2,0c0.7,0,1.3,0,2,0c0-0.7,0-1.4,0-2c0-0.7,0-1.4,0-2c0.7,0,1.3,0,2,0s1.4,0,2,0c0,0.7,0,1.4,0,2c0,0.7,0,1.4,0,2
				c0.7,0,1.4,0,2,0c0.7,0,1.4,0,2,0c0-0.7,0-1.4,0-2c0-0.7,0-1.4,0-2c0.7,0,1.4,0,2,0c0.7,0,1.3,0,2,0c0,0.7,0,1.4,0,2
				c0,0.7,0,1.4,0,2c0.7,0,1.4,0,2,0c0.7,0,1.4,0,2,0c0-0.7,0-1.4,0-2c0-0.7,0-1.4,0-2c0.7,0,1.4,0,2,0c0.7,0,1.3,0,2,0
				c0,0.7,0,1.4,0,2c0,0.7,0,1.4,0,2c0.7,0,1.4,0,2,0c0.7,0,1.4,0,2,0c0-0.7,0-1.4,0-2c0-0.7,0-1.4,0-2c0.7,0,1.4,0,2,0
				c0.7,0,1.3,0,2,0c0-0.7,0-1.4,0-2c0-0.7,0-1.4,0-2c0-0.7,0-1.4,0-2c0-0.7,0-1.3,0-2c-0.7,0-1.3,0-2,0s-1.4,0-2,0
				c-0.7,0-1.4,0-2,0c-0.7,0-1.4,0-2,0c-0.7,0-1.4,0-2,0c-0.7,0-1.4,0-2,0c-0.7,0-1.3,0-2,0s-1.3,0-2,0s-1.3,0-2,0s-1.4,0-2,0
				c-0.7,0-1.4,0-2,0c-0.7,0-1.4,0-2,0c-0.7,0-1.4,0-2,0c-0.7,0-1.3,0-2,0s-1.3,0-2,0s-1.4,0-2,0c-0.7,0-1.4,0-2,0c-0.7,0-1.3,0-2,0
				s-1.4,0-2,0c-0.7,0-1.4,0-2,0c-0.7,0-1.4,0-2,0c-0.7,0-1.3,0-2,0c0,0.7,0,1.4,0,2C12.2,6.8,12.2,7.4,12.2,8.1z"/>
			<path class="st2" d="M16.2,16.2c-0.7,0-1.4,0-2,0c-0.7,0-1.3,0-2,0c0,0.7,0,1.4,0,2c0,0.7,0,1.4,0,2c0.7,0,1.3,0,2,0s1.4,0,2,0
				c0-0.7,0-1.4,0-2S16.2,16.9,16.2,16.2z"/>
			<path class="st2" d="M16.2,20.3c0,0.7,0,1.4,0,2c0,0.7,0,1.4,0,2c0.7,0,1.4,0,2,0c0.7,0,1.3,0,2,0c0-0.7,0-1.4,0-2
				c0-0.7,0-1.4,0-2c-0.7,0-1.4,0-2,0S16.9,20.3,16.2,20.3z"/>
			<path class="st2" d="M24.3,16.2c-0.7,0-1.4,0-2,0c-0.7,0-1.3,0-2,0c0,0.7,0,1.4,0,2c0,0.7,0,1.4,0,2c0.7,0,1.3,0,2,0s1.4,0,2,0
				c0-0.7,0-1.4,0-2S24.3,16.9,24.3,16.2z"/>
			<path class="st2" d="M24.3,20.3c0,0.7,0,1.4,0,2c0,0.7,0,1.4,0,2c0.7,0,1.4,0,2,0c0.7,0,1.3,0,2,0c0-0.7,0-1.4,0-2
				c0-0.7,0-1.4,0-2c-0.7,0-1.3,0-2,0C25.7,20.3,25,20.3,24.3,20.3z"/>
			<path class="st2" d="M32.4,16.2c-0.7,0-1.4,0-2,0c-0.7,0-1.3,0-2,0c0,0.7,0,1.4,0,2c0,0.7,0,1.4,0,2c0.7,0,1.3,0,2,0s1.4,0,2,0
				c0-0.7,0-1.4,0-2S32.4,16.9,32.4,16.2z"/>
			<path class="st2" d="M32.4,20.3c0,0.7,0,1.4,0,2c0,0.7,0,1.4,0,2c0.7,0,1.4,0,2,0c0.7,0,1.4,0,2,0c0-0.7,0-1.4,0-2
				c0-0.7,0-1.4,0-2c-0.7,0-1.4,0-2,0C33.8,20.3,33.1,20.3,32.4,20.3z"/>
			<path class="st2" d="M40.5,16.2c-0.7,0-1.3,0-2,0s-1.4,0-2,0c0,0.7,0,1.4,0,2s0,1.4,0,2c0.7,0,1.4,0,2,0c0.7,0,1.3,0,2,0
				c0-0.7,0-1.4,0-2S40.5,16.9,40.5,16.2z"/>
			<path class="st2" d="M40.5,20.3c0,0.7,0,1.4,0,2c0,0.7,0,1.4,0,2c0.7,0,1.4,0,2,0c0.7,0,1.4,0,2,0c0-0.7,0-1.4,0-2
				c0-0.7,0-1.4,0-2c-0.7,0-1.4,0-2,0S41.2,20.3,40.5,20.3z"/>
			<path class="st2" d="M48.6,16.2c-0.7,0-1.4,0-2,0c-0.7,0-1.4,0-2,0c0,0.7,0,1.4,0,2s0,1.4,0,2c0.7,0,1.4,0,2,0c0.7,0,1.3,0,2,0
				c0-0.7,0-1.4,0-2S48.6,16.9,48.6,16.2z"/>
			<path class="st2" d="M48.6,20.3c0,0.7,0,1.4,0,2c0,0.7,0,1.4,0,2c0.7,0,1.4,0,2,0c0.7,0,1.4,0,2,0c0-0.7,0-1.4,0-2
				c0-0.7,0-1.4,0-2c-0.7,0-1.4,0-2,0S49.3,20.3,48.6,20.3z"/>
			<path class="st2" d="M52.7,20.3c0.7,0,1.4,0,2,0c0.7,0,1.3,0,2,0c0-0.7,0-1.4,0-2c0-0.7,0-1.4,0-2c-0.7,0-1.3,0-2,0s-1.3,0-2,0
				c0,0.7,0,1.4,0,2S52.7,19.6,52.7,20.3z"/>
			<path class="st2" d="M56.7,66.9c0-0.7,0-1.3,0-2c-0.7,0-1.3,0-2,0s-1.4,0-2,0c-0.7,0-1.4,0-2,0c-0.7,0-1.4,0-2,0
				c-0.7,0-1.4,0-2,0c-0.7,0-1.4,0-2,0c-0.7,0-1.3,0-2,0s-1.3,0-2,0s-1.3,0-2,0s-1.4,0-2,0c-0.7,0-1.4,0-2,0c-0.7,0-1.4,0-2,0
				c-0.7,0-1.4,0-2,0c-0.7,0-1.3,0-2,0s-1.3,0-2,0s-1.4,0-2,0c-0.7,0-1.4,0-2,0c-0.7,0-1.3,0-2,0s-1.4,0-2,0c-0.7,0-1.4,0-2,0
				c-0.7,0-1.4,0-2,0c-0.7,0-1.3,0-2,0c0,0.7,0,1.4,0,2c0,0.7,0,1.4,0,2c0,0.7,0,1.4,0,2c0,0.7,0,1.4,0,2c0.7,0,1.3,0,2,0s1.4,0,2,0
				c0.7,0,1.4,0,2,0c0.7,0,1.3,0,2,0s1.3,0,2,0s1.4,0,2,0c0.7,0,1.4,0,2,0c0.7,0,1.3,0,2,0s1.3,0,2,0s1.4,0,2,0c0.7,0,1.4,0,2,0
				c0.7,0,1.4,0,2,0c0.7,0,1.4,0,2,0c0.7,0,1.3,0,2,0s1.4,0,2,0c0.7,0,1.4,0,2,0c0.7,0,1.4,0,2,0c0.7,0,1.3,0,2,0s1.4,0,2,0
				c0.7,0,1.4,0,2,0c0.7,0,1.4,0,2,0c0.7,0,1.3,0,2,0c0-0.7,0-1.4,0-2c0-0.7,0-1.4,0-2S56.7,67.6,56.7,66.9z"/>
			<path class="st2" d="M56.7,115.6c0-0.7,0-1.4,0-2c0-0.7,0-1.4,0-2c0-0.7,0-1.4,0-2c-0.7,0-1.3,0-2,0s-1.3,0-2,0s-1.4,0-2,0
				c-0.7,0-1.3,0-2,0s-1.4,0-2,0c-0.7,0-1.4,0-2,0c-0.7,0-1.4,0-2,0c-0.7,0-1.3,0-2,0s-1.3,0-2,0s-1.4,0-2,0c-0.7,0-1.4,0-2,0
				c-0.7,0-1.4,0-2,0c-0.7,0-1.4,0-2,0c-0.7,0-1.3,0-2,0s-1.3,0-2,0s-1.4,0-2,0c-0.7,0-1.4,0-2,0c-0.7,0-1.3,0-2,0s-1.4,0-2,0
				c-0.7,0-1.4,0-2,0c-0.7,0-1.4,0-2,0c-0.7,0-1.3,0-2,0c0,0.7,0,1.4,0,2c0,0.7,0,1.4,0,2c0,0.7,0,1.4,0,2c0,0.7,0,1.4,0,2
				c0,0.7,0,1.4,0,2c0,0.7,0,1.4,0,2c0.7,0,1.3,0,2,0s1.4,0,2,0c0.7,0,1.4,0,2,0c0.7,0,1.3,0,2,0s1.3,0,2,0s1.4,0,2,0
				c0.7,0,1.4,0,2,0c0.7,0,1.3,0,2,0s1.3,0,2,0s1.4,0,2,0c0.7,0,1.4,0,2,0c0.7,0,1.4,0,2,0c0.7,0,1.4,0,2,0c0.7,0,1.3,0,2,0
				s1.4,0,2,0c0.7,0,1.4,0,2,0c0.7,0,1.4,0,2,0c0.7,0,1.3,0,2,0s1.4,0,2,0c0.7,0,1.4,0,2,0c0.7,0,1.4,0,2,0c0.7,0,1.3,0,2,0
				c0-0.7,0-1.4,0-2c0-0.7,0-1.4,0-2C56.7,116.9,56.7,116.3,56.7,115.6z"/>
			<path class="st2" d="M62.8,66.9c0,0.7,0,1.4,0,2c0.7,0,1.4,0,2,0c0.7,0,1.4,0,2,0c0.7,0,1.4,0,2,0c0.7,0,1.3,0,2,0s1.3,0,2,0
				s1.4,0,2,0c0.7,0,1.4,0,2,0c0.7,0,1.4,0,2,0c0.7,0,1.3,0,2,0s1.3,0,2,0s1.4,0,2,0c0.7,0,1.4,0,2,0c0.7,0,1.4,0,2,0
				c0.7,0,1.4,0,2,0c0.7,0,1.4,0,2,0c0.7,0,1.4,0,2,0c0.7,0,1.4,0,2,0c0.7,0,1.4,0,2,0c0.7,0,1.3,0,2,0s1.4,0,2,0c0.7,0,1.4,0,2,0
				c0.7,0,1.4,0,2,0c0.7,0,1.4,0,2,0s1.3,0,2,0s1.3,0,2,0s1.4,0,2,0c0.7,0,1.3,0,2,0s1.3,0,2,0s1.3,0,2,0s1.3,0,2,0s1.4,0,2,0
				c0.7,0,1.4,0,2,0c0.7,0,1.4,0,2,0c0.7,0,1.4,0,2,0c0.7,0,1.4,0,2,0c0.7,0,1.4,0,2,0c0.7,0,1.4,0,2,0c0.7,0,1.4,0,2,0
				c0.7,0,1.3,0,2,0s1.4,0,2,0c0.7,0,1.4,0,2,0c0.7,0,1.4,0,2,0c0.7,0,1.4,0,2,0s1.3,0,2,0s1.4,0,2,0c0.7,0,1.4,0,2,0
				c0.7,0,1.4,0,2,0c0.7,0,1.4,0,2,0c0.7,0,1.3,0,2,0s1.4,0,2,0c0.7,0,1.4,0,2,0c0.7,0,1.4,0,2,0c0.7,0,1.4,0,2,0c0.7,0,1.3,0,2,0
				s1.3,0,2,0s1.4,0,2,0c0.7,0,1.3,0,2,0s1.4,0,2,0c0.7,0,215.2,0,215.8,0c0.7,0,1.3,0,2,0c0-0.7,0-1.4,0-2c0-0.7,0-1.3,0-2
				s0-1.4,0-2c-0.7,0-1.3,0-2,0s-215.1,0-215.8,0s-1.3,0-2,0s-1.4,0-2,0c-0.7,0-1.3,0-2,0s-1.4,0-2,0s-1.4,0-2,0c-0.7,0-1.3,0-2,0
				s-1.4,0-2,0c-0.7,0-1.4,0-2,0c-0.7,0-1.3,0-2,0s-1.4,0-2,0c-0.7,0-1.4,0-2,0c-0.7,0-1.4,0-2,0c-0.7,0-1.4,0-2,0c-0.7,0-1.4,0-2,0
				c-0.7,0-1.3,0-2,0s-1.3,0-2,0s-1.4,0-2,0c-0.7,0-1.4,0-2,0c-0.7,0-1.4,0-2,0c-0.7,0-1.4,0-2,0c-0.7,0-1.4,0-2,0c-0.7,0-1.4,0-2,0
				c-0.7,0-1.3,0-2,0s-1.3,0-2,0s-1.3,0-2,0s-1.4,0-2,0c-0.7,0-1.3,0-2,0s-1.3,0-2,0s-1.4,0-2,0c-0.7,0-1.3,0-2,0s-1.3,0-2,0
				s-1.4,0-2,0c-0.7,0-1.3,0-2,0s-1.4,0-2,0c-0.7,0-1.4,0-2,0c-0.7,0-1.3,0-2,0s-1.4,0-2,0c-0.7,0-1.4,0-2,0c-0.7,0-1.3,0-2,0
				s-1.4,0-2,0c-0.7,0-1.4,0-2,0c-0.7,0-1.4,0-2,0c-0.7,0-1.4,0-2,0c-0.7,0-1.4,0-2,0c-0.7,0-1.3,0-2,0s-1.3,0-2,0s-1.3,0-2,0
				s-1.4,0-2,0c-0.7,0-1.3,0-2,0s-1.4,0-2,0c-0.7,0-1.4,0-2,0c-0.7,0-1.4,0-2,0c-0.7,0-1.4,0-2,0c-0.7,0-1.3,0-2,0s-1.4,0-2,0
				c-0.7,0-1.4,0-2,0c-0.7,0-1.3,0-2,0s-1.3,0-2,0c0,0.7,0,1.4,0,2C62.8,65.6,62.8,66.2,62.8,66.9z"/>
			<path class="st2" d="M62.8,77c0,0.7,0,1.4,0,2c0,0.7,0,1.4,0,2c0,0.7,0,1.4,0,2c0,0.7,0,1.4,0,2c0,0.7,0,1.4,0,2c0,0.7,0,1.4,0,2
				c0,0.7,0,1.4,0,2c0,0.7,0,1.4,0,2c0.7,0,1.4,0,2,0c0.7,0,1.4,0,2,0c0.7,0,1.4,0,2,0c0.7,0,1.3,0,2,0s1.3,0,2,0s1.4,0,2,0
				c0.7,0,1.4,0,2,0c0.7,0,1.4,0,2,0c0.7,0,1.3,0,2,0s1.3,0,2,0s1.4,0,2,0c0.7,0,1.4,0,2,0c0.7,0,1.4,0,2,0c0.7,0,1.4,0,2,0
				c0.7,0,1.4,0,2,0c0.7,0,1.4,0,2,0c0.7,0,1.4,0,2,0c0.7,0,1.4,0,2,0c0.7,0,1.3,0,2,0s1.4,0,2,0c0.7,0,1.4,0,2,0c0.7,0,1.4,0,2,0
				c0.7,0,1.4,0,2,0c0.7,0,1.4,0,2,0c0.7,0,1.3,0,2,0s1.4,0,2,0c0.7,0,1.3,0,2,0s1.3,0,2,0s1.3,0,2,0s1.3,0,2,0s1.4,0,2,0
				c0.7,0,1.4,0,2,0c0.7,0,1.4,0,2,0c0.7,0,1.4,0,2,0c0.7,0,1.4,0,2,0c0.7,0,1.4,0,2,0c0.7,0,1.4,0,2,0c0.7,0,1.4,0,2,0
				c0.7,0,1.3,0,2,0s1.4,0,2,0c0.7,0,1.4,0,2,0c0.7,0,1.4,0,2,0c0.7,0,1.4,0,2,0s1.3,0,2,0s1.4,0,2,0c0.7,0,1.4,0,2,0
				c0.7,0,1.4,0,2,0c0.7,0,1.4,0,2,0c0.7,0,1.3,0,2,0s1.4,0,2,0c0.7,0,1.4,0,2,0c0.7,0,1.4,0,2,0c0.7,0,1.3,0,2,0s1.3,0,2,0
				s1.3,0,2,0s1.4,0,2,0c0.7,0,1.3,0,2,0s1.4,0,2,0c0.7,0,215.2,0,215.8,0c0.7,0,1.3,0,2,0c0-0.7,0-1.4,0-2c0-0.7,0-1.4,0-2
				c0-0.7,0-1.4,0-2c0-0.7,0-1.4,0-2c0-0.7,0-1.4,0-2c0-0.7,0-1.4,0-2c0-0.7,0-1.4,0-2c0-0.7,0-1.3,0-2s0-1.4,0-2c0-0.7,0-1.4,0-2
				c-0.7,0-1.3,0-2,0s-215.2,0-215.8,0c-0.7,0-1.3,0-2,0s-1.3,0-2,0s-1.3,0-2,0s-1.4,0-2,0s-1.3,0-2,0s-1.4,0-2,0c-0.7,0-1.4,0-2,0
				c-0.7,0-1.4,0-2,0c-0.7,0-1.3,0-2,0s-1.4,0-2,0c-0.7,0-1.4,0-2,0c-0.7,0-1.4,0-2,0c-0.7,0-1.4,0-2,0c-0.7,0-1.4,0-2,0
				c-0.7,0-1.3,0-2,0s-1.3,0-2,0s-1.4,0-2,0c-0.7,0-1.4,0-2,0c-0.7,0-1.4,0-2,0c-0.7,0-1.3,0-2,0s-1.4,0-2,0c-0.7,0-1.4,0-2,0
				c-0.7,0-1.3,0-2,0s-1.3,0-2,0s-1.3,0-2,0s-1.3,0-2,0s-1.4,0-2,0c-0.7,0-1.4,0-2,0c-0.7,0-1.3,0-2,0s-1.4,0-2,0c-0.7,0-1.3,0-2,0
				s-1.3,0-2,0s-1.3,0-2,0s-1.4,0-2,0c-0.7,0-1.3,0-2,0s-1.4,0-2,0c-0.7,0-1.4,0-2,0c-0.7,0-1.4,0-2,0c-0.7,0-1.3,0-2,0s-1.4,0-2,0
				c-0.7,0-1.4,0-2,0c-0.7,0-1.4,0-2,0c-0.7,0-1.4,0-2,0c-0.7,0-1.4,0-2,0c-0.7,0-1.3,0-2,0s-1.3,0-2,0s-1.3,0-2,0s-1.4,0-2,0
				c-0.7,0-1.3,0-2,0s-1.4,0-2,0c-0.7,0-1.4,0-2,0c-0.7,0-1.4,0-2,0c-0.7,0-1.4,0-2,0c-0.7,0-1.3,0-2,0s-1.4,0-2,0c-0.7,0-1.3,0-2,0
				s-1.4,0-2,0c-0.7,0-1.4,0-2,0c0,0.7,0,1.4,0,2C62.8,75.7,62.8,76.4,62.8,77z"/>
			<path class="st2" d="M62.8,105.4c0,0.7,0,1.4,0,2c0,0.7,0,1.4,0,2c0,0.7,0,1.4,0,2c0,0.7,0,1.4,0,2c0,0.7,0,1.4,0,2
				c0,0.7,0,1.4,0,2c0.7,0,1.4,0,2,0c0.7,0,1.4,0,2,0c0.7,0,1.4,0,2,0c0.7,0,1.3,0,2,0s1.3,0,2,0s1.4,0,2,0c0.7,0,1.4,0,2,0
				c0.7,0,1.4,0,2,0c0.7,0,1.3,0,2,0s1.3,0,2,0s1.4,0,2,0c0.7,0,1.4,0,2,0c0.7,0,1.4,0,2,0c0.7,0,1.4,0,2,0c0.7,0,1.4,0,2,0
				c0.7,0,1.4,0,2,0c0.7,0,1.4,0,2,0c0.7,0,1.4,0,2,0c0.7,0,1.3,0,2,0s1.4,0,2,0c0.7,0,1.4,0,2,0c0.7,0,1.4,0,2,0c0.7,0,1.4,0,2,0
				c0.7,0,1.4,0,2,0c0.7,0,1.3,0,2,0s1.4,0,2,0c0.7,0,1.3,0,2,0s1.3,0,2,0s1.3,0,2,0s1.3,0,2,0s1.4,0,2,0c0.7,0,1.4,0,2,0
				c0.7,0,1.4,0,2,0c0.7,0,1.4,0,2,0c0.7,0,1.4,0,2,0c0.7,0,1.4,0,2,0c0.7,0,1.4,0,2,0c0.7,0,1.4,0,2,0c0.7,0,1.3,0,2,0s1.4,0,2,0
				c0.7,0,1.4,0,2,0c0.7,0,1.4,0,2,0c0.7,0,1.4,0,2,0s1.3,0,2,0s1.4,0,2,0c0.7,0,1.4,0,2,0c0.7,0,1.4,0,2,0c0.7,0,1.4,0,2,0
				c0.7,0,1.3,0,2,0s1.4,0,2,0c0.7,0,1.4,0,2,0c0.7,0,1.4,0,2,0c0.7,0,1.3,0,2,0s1.3,0,2,0s1.3,0,2,0s1.4,0,2,0c0.7,0,1.3,0,2,0
				s1.4,0,2,0c0.7,0,215.2,0,215.8,0c0.7,0,1.3,0,2,0c0-0.7,0-1.4,0-2c0-0.7,0-1.4,0-2c0-0.7,0-1.4,0-2c0-0.7,0-1.4,0-2
				c0-0.7,0-1.4,0-2c0-0.7,0-1.4,0-2c0-0.7,0-1.4,0-2c0-0.7,0-1.4,0-2c-0.7,0-1.3,0-2,0s-215.2,0-215.8,0c-0.7,0-1.3,0-2,0
				s-1.3,0-2,0s-1.3,0-2,0s-1.4,0-2,0s-1.3,0-2,0s-1.4,0-2,0c-0.7,0-1.4,0-2,0c-0.7,0-1.4,0-2,0c-0.7,0-1.3,0-2,0s-1.4,0-2,0
				c-0.7,0-1.4,0-2,0c-0.7,0-1.4,0-2,0c-0.7,0-1.4,0-2,0c-0.7,0-1.4,0-2,0c-0.7,0-1.3,0-2,0s-1.3,0-2,0s-1.4,0-2,0c-0.7,0-1.4,0-2,0
				c-0.7,0-1.4,0-2,0c-0.7,0-1.3,0-2,0s-1.4,0-2,0c-0.7,0-1.4,0-2,0c-0.7,0-1.3,0-2,0s-1.3,0-2,0s-1.3,0-2,0s-1.3,0-2,0s-1.4,0-2,0
				c-0.7,0-1.4,0-2,0c-0.7,0-1.3,0-2,0s-1.4,0-2,0c-0.7,0-1.3,0-2,0s-1.3,0-2,0s-1.3,0-2,0s-1.4,0-2,0c-0.7,0-1.3,0-2,0s-1.4,0-2,0
				c-0.7,0-1.4,0-2,0c-0.7,0-1.4,0-2,0c-0.7,0-1.3,0-2,0s-1.4,0-2,0c-0.7,0-1.4,0-2,0c-0.7,0-1.4,0-2,0c-0.7,0-1.4,0-2,0
				c-0.7,0-1.4,0-2,0c-0.7,0-1.3,0-2,0s-1.3,0-2,0s-1.3,0-2,0s-1.4,0-2,0c-0.7,0-1.3,0-2,0s-1.4,0-2,0c-0.7,0-1.4,0-2,0
				c-0.7,0-1.4,0-2,0c-0.7,0-1.4,0-2,0c-0.7,0-1.3,0-2,0s-1.4,0-2,0c-0.7,0-1.3,0-2,0s-1.4,0-2,0c-0.7,0-1.4,0-2,0c0,0.7,0,1.4,0,2
				C62.8,104.1,62.8,104.8,62.8,105.4z"/>
			<path class="st2" d="M64.8,20.3c-0.7,0-1.4,0-2,0c0,0.7,0,1.4,0,2c0,0.7,0,1.4,0,2c0.7,0,1.4,0,2,0c0-0.7,0-1.4,0-2
				C64.8,21.6,64.8,20.9,64.8,20.3z"/>
			<path class="st2" d="M64.8,8.1c-0.7,0-1.4,0-2,0c0,0.7,0,1.4,0,2c0,0.7,0,1.4,0,2c0,0.7,0,1.4,0,2c0,0.7,0,1.4,0,2
				c0.7,0,1.4,0,2,0c0,0.7,0,1.4,0,2c0,0.7,0,1.4,0,2c0.7,0,1.4,0,2,0c0.7,0,1.4,0,2,0c0-0.7,0-1.4,0-2c0-0.7,0-1.4,0-2
				c0.7,0,1.3,0,2,0s1.3,0,2,0c0,0.7,0,1.4,0,2c0,0.7,0,1.4,0,2c0.7,0,1.4,0,2,0c0.7,0,1.4,0,2,0c0-0.7,0-1.4,0-2s0-1.4,0-2
				c0.7,0,1.4,0,2,0c0.7,0,1.3,0,2,0c0,0.7,0,1.4,0,2c0,0.7,0,1.4,0,2c0.7,0,1.3,0,2,0s1.4,0,2,0c0-0.7,0-1.4,0-2s0-1.4,0-2
				c0.7,0,1.4,0,2,0c0.7,0,1.4,0,2,0c0,0.7,0,1.4,0,2c0,0.7,0,1.4,0,2c0.7,0,1.4,0,2,0c0.7,0,1.4,0,2,0c0-0.7,0-1.4,0-2s0-1.4,0-2
				c0.7,0,1.4,0,2,0c0.7,0,1.4,0,2,0c0,0.7,0,1.4,0,2s0,1.4,0,2c0.7,0,1.4,0,2,0c0.7,0,1.3,0,2,0c0-0.7,0-1.4,0-2c0-0.7,0-1.4,0-2
				c0.7,0,1.4,0,2,0c0.7,0,1.4,0,2,0c0,0.7,0,1.4,0,2s0,1.4,0,2c0.7,0,1.4,0,2,0c0.7,0,1.4,0,2,0c0-0.7,0-1.4,0-2c0-0.7,0-1.4,0-2
				c0.7,0,1.4,0,2,0c0.7,0,1.3,0,2,0c0,0.7,0,1.4,0,2s0,1.4,0,2c0.7,0,1.4,0,2,0c0.7,0,1.3,0,2,0c0-0.7,0-1.4,0-2c0-0.7,0-1.4,0-2
				c0.7,0,1.3,0,2,0s1.3,0,2,0c0,0.7,0,1.4,0,2c0,0.7,0,1.4,0,2c0.7,0,1.3,0,2,0c0-0.7,0-1.4,0-2c0-0.7,0-1.3,0-2c0.7,0,1.4,0,2,0
				c0,0.7,0,1.4,0,2c0,0.7,0,1.4,0,2c0.7,0,1.4,0,2,0c0.7,0,1.4,0,2,0c0-0.7,0-1.4,0-2s0-1.4,0-2c0.7,0,1.4,0,2,0c0.7,0,1.4,0,2,0
				c0,0.7,0,1.4,0,2c0,0.7,0,1.4,0,2c0.7,0,1.4,0,2,0c0.7,0,1.4,0,2,0c0-0.7,0-1.4,0-2s0-1.4,0-2c0.7,0,1.4,0,2,0c0.7,0,1.3,0,2,0
				c0,0.7,0,1.4,0,2c0,0.7,0,1.4,0,2c0.7,0,1.4,0,2,0c0.7,0,1.4,0,2,0c0-0.7,0-1.4,0-2s0-1.4,0-2c0.7,0,1.4,0,2,0c0.7,0,1.4,0,2,0
				c0,0.7,0,1.4,0,2c0,0.7,0,1.4,0,2c0.7,0,1.3,0,2,0s1.4,0,2,0c0-0.7,0-1.4,0-2s0-1.4,0-2c0.7,0,1.4,0,2,0c0.7,0,1.4,0,2,0
				c0,0.7,0,1.4,0,2s0,1.4,0,2c0.7,0,1.4,0,2,0c0.7,0,1.3,0,2,0c0-0.7,0-1.4,0-2c0-0.7,0-1.4,0-2c0.7,0,1.4,0,2,0c0.7,0,1.4,0,2,0
				c0,0.7,0,1.4,0,2s0,1.4,0,2c0.7,0,1.4,0,2,0c0.7,0,1.3,0,2,0c0-0.7,0-1.4,0-2c0-0.7,0-1.4,0-2c0.7,0,1.3,0,2,0s1.3,0,2,0
				c0,0.7,0,1.4,0,2s0,1.4,0,2c0.7,0,1.4,0,2,0c0.7,0,1.3,0,2,0c0-0.7,219.2,1,219.9,1c0-0.7,0-2.4,0-3c0-0.7,0-1.3,0-2
				c0-0.7,0-1.4,0-2c0-0.7,0-1.4,0-2c0-0.7,0-1.4,0-2c0-0.7,0-1.3,0-2c-0.7,0-1.3,0-2,0s-215.2,0-215.8,0c-0.7,0-1.3,0-2,0
				s-1.3,0-2,0s-1.4,0-2,0c-0.7,0-1.3,0-2,0s-1.4,0-2,0c-0.7,0-1.3,0-2,0s-1.4,0-2,0c-0.7,0-1.4,0-2,0c-0.7,0-1.3,0-2,0s-1.4,0-2,0
				c-0.7,0-1.4,0-2,0c-0.7,0-1.4,0-2,0c-0.7,0-1.4,0-2,0c-0.7,0-1.4,0-2,0c-0.7,0-1.3,0-2,0s-1.3,0-2,0s-1.4,0-2,0c-0.7,0-1.4,0-2,0
				c-0.7,0-1.4,0-2,0c-0.7,0-1.3,0-2,0s-1.4,0-2,0c-0.7,0-1.4,0-2,0c-0.7,0-1.3,0-2,0s-1.3,0-2,0s-1.3,0-2,0s-1.3,0-2,0s-1.4,0-2,0
				c-0.7,0-1.4,0-2,0c-0.7,0-1.3,0-2,0s-1.4,0-2,0c-0.7,0-1.3,0-2,0s-1.3,0-2,0s-1.4,0-2,0c-0.7,0-1.4,0-2,0c-0.7,0-1.4,0-2,0
				s-1.3,0-2,0s-1.4,0-2,0c-0.7,0-1.3,0-2,0s-1.3,0-2,0s-1.4,0-2,0c-0.7,0-1.4,0-2,0c-0.7,0-1.4,0-2,0c-0.7,0-1.4,0-2,0
				c-0.7,0-1.4,0-2,0c-0.7,0-1.3,0-2,0s-1.3,0-2,0s-1.3,0-2,0s-1.4,0-2,0c-0.7,0-1.3,0-2,0s-1.4,0-2,0c-0.7,0-1.4,0-2,0
				c-0.7,0-1.4,0-2,0c-0.7,0-1.4,0-2,0c-0.7,0-1.3,0-2,0s-1.4,0-2,0c-0.7,0-1.3,0-2,0C66.2,8.1,65.5,8.1,64.8,8.1z"/>
			<path class="st2" d="M64.8,24.3c0,0.7,0,1.4,0,2c0,0.7,0,1.4,0,2c0.7,0,1.4,0,2,0c0.7,0,1.4,0,2,0c0-0.7,0-1.4,0-2
				c0-0.7,0-1.4,0-2c-0.7,0-1.3,0-2,0C66.2,24.3,65.5,24.3,64.8,24.3z"/>
			<path class="st2" d="M73,20.3c-0.7,0-1.3,0-2,0s-1.4,0-2,0c0,0.7,0,1.4,0,2c0,0.7,0,1.4,0,2c0.7,0,1.3,0,2,0s1.3,0,2,0
				c0-0.7,0-1.4,0-2C73,21.6,73,20.9,73,20.3z"/>
			<path class="st2" d="M73,24.3c0,0.7,0,1.4,0,2c0,0.7,0,1.4,0,2c0.7,0,1.4,0,2,0c0.7,0,1.4,0,2,0c0-0.7,0-1.4,0-2c0-0.7,0-1.4,0-2
				c-0.7,0-1.4,0-2,0C74.3,24.3,73.6,24.3,73,24.3z"/>
			<path class="st2" d="M81.1,20.3c-0.7,0-1.4,0-2,0c-0.7,0-1.4,0-2,0c0,0.7,0,1.4,0,2c0,0.7,0,1.4,0,2c0.7,0,1.4,0,2,0
				c0.7,0,1.3,0,2,0c0-0.7,0-1.4,0-2C81.1,21.6,81.1,20.9,81.1,20.3z"/>
			<path class="st2" d="M81.1,24.3c0,0.7,0,1.4,0,2c0,0.7,0,1.4,0,2c0.7,0,1.3,0,2,0s1.4,0,2,0c0-0.7,0-1.4,0-2c0-0.7,0-1.4,0-2
				c-0.7,0-1.4,0-2,0C82.4,24.3,81.7,24.3,81.1,24.3z"/>
			<path class="st2" d="M89.2,20.3c-0.7,0-1.3,0-2,0s-1.3,0-2,0c0,0.7,0,1.4,0,2c0,0.7,0,1.4,0,2c0.7,0,1.4,0,2,0c0.7,0,1.4,0,2,0
				c0-0.7,0-1.4,0-2C89.2,21.6,89.2,20.9,89.2,20.3z"/>
			<path class="st2" d="M89.2,24.3c0,0.7,0,1.4,0,2c0,0.7,0,1.4,0,2c0.7,0,1.4,0,2,0c0.7,0,1.4,0,2,0c0-0.7,0-1.4,0-2
				c0-0.7,0-1.4,0-2c-0.7,0-1.4,0-2,0C90.5,24.3,89.8,24.3,89.2,24.3z"/>
			<path class="st2" d="M97.3,20.3c-0.7,0-1.4,0-2,0c-0.7,0-1.4,0-2,0c0,0.7,0,1.4,0,2c0,0.7,0,1.4,0,2c0.7,0,1.4,0,2,0
				c0.7,0,1.4,0,2,0c0-0.7,0-1.4,0-2C97.3,21.6,97.3,20.9,97.3,20.3z"/>
			<path class="st2" d="M97.3,24.3c0,0.7,0,1.4,0,2c0,0.7,0,1.4,0,2c0.7,0,1.4,0,2,0c0.7,0,1.3,0,2,0c0-0.7,0-1.4,0-2
				c0-0.7,0-1.4,0-2c-0.7,0-1.4,0-2,0C98.6,24.3,98,24.3,97.3,24.3z"/>
			<path class="st2" d="M105.4,20.3c-0.7,0-1.4,0-2,0c-0.7,0-1.3,0-2,0c0,0.7,0,1.4,0,2c0,0.7,0,1.4,0,2c0.7,0,1.4,0,2,0
				c0.7,0,1.4,0,2,0c0-0.7,0-1.4,0-2C105.4,21.6,105.4,20.9,105.4,20.3z"/>
			<path class="st2" d="M105.4,24.3c0,0.7,0,1.4,0,2c0,0.7,0,1.4,0,2c0.7,0,1.4,0,2,0c0.7,0,1.4,0,2,0c0-0.7,0-1.4,0-2
				c0-0.7,0-1.4,0-2c-0.7,0-1.4,0-2,0C106.7,24.3,106.1,24.3,105.4,24.3z"/>
			<path class="st2" d="M113.5,20.3c-0.7,0-1.4,0-2,0c-0.7,0-1.3,0-2,0c0,0.7,0,1.4,0,2c0,0.7,0,1.4,0,2c0.7,0,1.4,0,2,0
				c0.7,0,1.3,0,2,0c0-0.7,0-1.4,0-2C113.5,21.6,113.5,20.9,113.5,20.3z"/>
			<path class="st2" d="M113.5,24.3c0,0.7,0,1.4,0,2c0,0.7,0,1.4,0,2c0.7,0,1.4,0,2,0c0.7,0,1.3,0,2,0c0-0.7,0-1.4,0-2
				c0-0.7,0-1.4,0-2c-0.7,0-1.3,0-2,0S114.2,24.3,113.5,24.3z"/>
			<path class="st2" d="M121.6,20.3c-0.7,0-1.4,0-2,0c-0.7,0-1.3,0-2,0c0,0.7,0,1.4,0,2c0,0.7,0,1.4,0,2c0.7,0,1.3,0,2,0s1.3,0,2,0
				c0-0.7,0-1.4,0-2C121.6,21.6,121.6,20.9,121.6,20.3z"/>
			<path class="st2" d="M121.6,26.4c0,0.7,0,1.4,0,2c0.7,0,1.3,0,2,0c0-0.7,0-1.4,0-2c0-0.7,0-1.4,0-2c-0.7,0-1.3,0-2,0
				C121.6,25,121.6,25.7,121.6,26.4z"/>
			<path class="st2" d="M125.6,20.3c-0.7,0-1.4,0-2,0c0,0.7,0,1.4,0,2c0,0.7,0,1.4,0,2c0.7,0,1.4,0,2,0c0-0.7,0-1.4,0-2
				C125.6,21.6,125.6,20.9,125.6,20.3z"/>
			<path class="st2" d="M125.6,24.3c0,0.7,0,1.4,0,2c0,0.7,0,1.4,0,2c0.7,0,1.4,0,2,0c0.7,0,1.4,0,2,0c0-0.7,0-1.4,0-2
				c0-0.7,0-1.4,0-2c-0.7,0-1.3,0-2,0C127,24.3,126.3,24.3,125.6,24.3z"/>
			<path class="st2" d="M133.7,20.3c-0.7,0-1.3,0-2,0s-1.3,0-2,0c0,0.7,0,1.4,0,2c0,0.7,0,1.4,0,2c0.7,0,1.4,0,2,0c0.7,0,1.4,0,2,0
				c0-0.7,0-1.4,0-2C133.7,21.6,133.7,20.9,133.7,20.3z"/>
			<path class="st2" d="M133.7,24.3c0,0.7,0,1.4,0,2c0,0.7,0,1.4,0,2c0.7,0,1.4,0,2,0c0.7,0,1.4,0,2,0c0-0.7,0-1.4,0-2
				c0-0.7,0-1.4,0-2c-0.7,0-1.4,0-2,0C135.1,24.3,134.4,24.3,133.7,24.3z"/>
			<path class="st2" d="M141.9,20.3c-0.7,0-1.3,0-2,0s-1.4,0-2,0c0,0.7,0,1.4,0,2c0,0.7,0,1.4,0,2c0.7,0,1.4,0,2,0c0.7,0,1.3,0,2,0
				c0-0.7,0-1.4,0-2C141.9,21.6,141.9,20.9,141.9,20.3z"/>
			<path class="st2" d="M141.9,24.3c0,0.7,0,1.4,0,2c0,0.7,0,1.4,0,2c0.7,0,1.4,0,2,0c0.7,0,1.4,0,2,0c0-0.7,0-1.4,0-2
				c0-0.7,0-1.4,0-2c-0.7,0-1.4,0-2,0C143.2,24.3,142.5,24.3,141.9,24.3z"/>
			<path class="st2" d="M150,20.3c-0.7,0-1.3,0-2,0s-1.4,0-2,0c0,0.7,0,1.4,0,2c0,0.7,0,1.4,0,2c0.7,0,1.4,0,2,0c0.7,0,1.4,0,2,0
				c0-0.7,0-1.4,0-2C150,21.6,150,20.9,150,20.3z"/>
			<path class="st2" d="M150,24.3c0,0.7,0,1.4,0,2c0,0.7,0,1.4,0,2c0.7,0,1.3,0,2,0s1.4,0,2,0c0-0.7,0-1.4,0-2c0-0.7,0-1.4,0-2
				c-0.7,0-1.4,0-2,0C151.3,24.3,150.6,24.3,150,24.3z"/>
			<path class="st2" d="M158.1,20.3c-0.7,0-1.4,0-2,0c-0.7,0-1.4,0-2,0c0,0.7,0,1.4,0,2c0,0.7,0,1.4,0,2c0.7,0,1.4,0,2,0
				c0.7,0,1.4,0,2,0c0-0.7,0-1.4,0-2C158.1,21.6,158.1,20.9,158.1,20.3z"/>
			<path class="st2" d="M158.1,24.3c0,0.7,0,1.4,0,2c0,0.7,0,1.4,0,2c0.7,0,1.4,0,2,0c0.7,0,1.3,0,2,0c0-0.7,0-1.4,0-2
				c0-0.7,0-1.4,0-2c-0.7,0-1.4,0-2,0C159.4,24.3,158.7,24.3,158.1,24.3z"/>
			<path class="st2" d="M166.2,20.3c-0.7,0-1.4,0-2,0c-0.7,0-1.3,0-2,0c0,0.7,0,1.4,0,2c0,0.7,0,1.4,0,2c0.7,0,1.4,0,2,0
				c0.7,0,1.4,0,2,0c0-0.7,0-1.4,0-2C166.2,21.6,166.2,20.9,166.2,20.3z"/>
			<path class="st2" d="M166.2,24.3c0,0.7,0,1.4,0,2c0,0.7,0,1.4,0,2c0.7,0,1.4,0,2,0c0.7,0,1.3,0,2,0c0-0.7,0-1.4,0-2
				c0-0.7,0-1.4,0-2c-0.7,0-1.4,0-2,0C167.5,24.3,166.9,24.3,166.2,24.3z"/>
			<path class="st2" d="M174.3,20.3c-0.7,0-1.4,0-2,0s-1.3,0-2,0c0,0.7,0,1.4,0,2c0,0.7,0,1.4,0,2c0.7,0,1.3,0,2,0s1.3,0,2,0
				c0-0.7,0-1.4,0-2C174.3,21.6,174.3,20.9,174.3,20.3z"/>
			<path class="st2" d="M174.3,24.3c0,0.7,0,1.4,0,2c0,0.7,0,1.4,0,2c0.7,0,1.4,0,2,0c0.7,0,1.3,0,2,0c0-0.7,0-1.4,0-2
				c0-0.7,0-1.4,0-2c-0.7,0-1.3,0-2,0S175,24.3,174.3,24.3z"/>
			<path class="st2" d="M396.2,28.4c0.7,0,1.3,0,2,0c0-0.7,0-1.4,0-2c0-0.7,0-1.4,0-2c-0.7,0-1.3,0-2,0c0,0.7,0,1.4,0,2
				S396.2,27.7,396.2,28.4z"/>
		</g>
	</g>
	<path class="st0" d="M8.1,6.1c0,0.7,0,1.4,0,2c0,0.7,0,1.3,0,2s0,1.4,0,2c0,0.7,0,1.4,0,2c0,0.7,0,1.4,0,2c0,0.7,0,1.4,0,2
		c0,0.7,0,1.4,0,2c0,0.7,0,1.4,0,2c0,0.7,0,1.4,0,2c0,0.7,0,1.4,0,2c0,0.7,0,1.4,0,2c0,0.7,0,1.4,0,2c0,0.7,0,1.4,0,2
		c0,0.7,0,1.4,0,2c0,0.7,0,1.4,0,2c0,0.7,0,1.4,0,2c0,0.7,0,1.4,0,2c0,0.7,0,1.4,0,2c0,0.7,0,1.4,0,2c0,0.7,0,1.4,0,2
		c0,0.7,0,1.4,0,2c0,0.7,0,1.4,0,2c0,0.7,0,1.4,0,2c0,0.7,0,1.4,0,2c0,0.7,0,1.4,0,2c0,0.7,0,1.4,0,2c0,0.7,0,1.4,0,2
		c0,0.7,0,1.4,0,2c0,0.7,0,1.4,0,2c0,0.7,0,1.4,0,2c0,0.7,0,1.4,0,2c0,0.7,0,1.3,0,2s0,1.4,0,2c0,0.7,0,1.4,0,2c0,0.7,0,1.4,0,2
		c0.7,0,1.3,0,2,0s1.3,0,2,0s1.3,0,2,0s1.4,0,2,0c0.7,0,1.4,0,2,0c0.7,0,1.3,0,2,0s1.3,0,2,0s1.4,0,2,0c0.7,0,1.4,0,2,0
		c0.7,0,1.3,0,2,0s1.3,0,2,0s1.4,0,2,0c0.7,0,1.4,0,2,0c0.7,0,1.4,0,2,0c0.7,0,1.4,0,2,0c0.7,0,1.3,0,2,0s1.4,0,2,0c0.7,0,1.4,0,2,0
		c0.7,0,1.4,0,2,0c0.7,0,1.3,0,2,0s1.4,0,2,0c0.7,0,1.4,0,2,0c0.7,0,1.4,0,2,0c0.7,0,1.3,0,2,0c0-0.7,0-1.4,0-2c0-0.7,0-1.4,0-2
		c-0.7,0-1.3,0-2,0s-1.3,0-2,0s-1.4,0-2,0c-0.7,0-1.3,0-2,0s-1.4,0-2,0c-0.7,0-1.4,0-2,0c-0.7,0-1.4,0-2,0c-0.7,0-1.3,0-2,0
		s-1.3,0-2,0s-1.4,0-2,0c-0.7,0-1.4,0-2,0c-0.7,0-1.4,0-2,0c-0.7,0-1.4,0-2,0c-0.7,0-1.3,0-2,0s-1.3,0-2,0s-1.4,0-2,0
		c-0.7,0-1.4,0-2,0c-0.7,0-1.3,0-2,0s-1.4,0-2,0c-0.7,0-1.4,0-2,0c-0.7,0-1.4,0-2,0c-0.7,0-1.3,0-2,0c0-0.7,0-1.4,0-2
		c0-0.7,0-1.4,0-2c0-0.7,0-1.4,0-2c0-0.7,0-1.4,0-2c0.7,0,1.3,0,2,0s1.4,0,2,0c0.7,0,1.4,0,2,0c0.7,0,1.3,0,2,0s1.3,0,2,0s1.4,0,2,0
		c0.7,0,1.4,0,2,0c0.7,0,1.3,0,2,0s1.3,0,2,0s1.4,0,2,0c0.7,0,1.4,0,2,0c0.7,0,1.4,0,2,0c0.7,0,1.4,0,2,0c0.7,0,1.3,0,2,0s1.4,0,2,0
		c0.7,0,1.3,0,2,0s1.4,0,2,0c0.7,0,1.4,0,2,0c0.7,0,1.3,0,2,0s1.3,0,2,0s1.4,0,2,0c0.7,0,1.3,0,2,0c0-0.7,0-1.4,0-2c0-0.7,0-1.4,0-2
		c0-0.7,0-1.4,0-2c0-0.7,0-1.4,0-2c0-0.7,0-1.4,0-2c0-0.7,0-1.4,0-2c0-0.7,0-1.4,0-2c0-0.7,0-1.4,0-2c0-0.7,0-1.4,0-2
		c0-0.7,0-1.4,0-2c0-0.7,0-1.4,0-2c0-0.7,0-1.4,0-2c0-0.7,0-1.4,0-2c0-0.7,0-1.4,0-2c0-0.7,0-1.4,0-2c0-0.7,0-1.4,0-2
		c0-0.7,0-1.4,0-2c0-0.7,0-1.4,0-2c0-0.7,0-1.4,0-2c0-0.7,0-1.4,0-2c0-0.7,0-1.4,0-2c0-0.7,0-1.4,0-2c-0.7,0-1.3,0-2,0s-1.3,0-2,0
		c0,0.7,0,1.4,0,2c0,0.7,0,1.4,0,2c-0.7,0-1.4,0-2,0c-0.7,0-1.3,0-2,0c0-0.7,0-1.4,0-2c0-0.7,0-1.4,0-2c-0.7,0-1.4,0-2,0
		c-0.7,0-1.4,0-2,0c0,0.7,0,1.4,0,2c0,0.7,0,1.4,0,2c-0.7,0-1.4,0-2,0c-0.7,0-1.3,0-2,0c0-0.7,0-1.4,0-2c0-0.7,0-1.4,0-2
		c-0.7,0-1.3,0-2,0s-1.4,0-2,0c0,0.7,0,1.4,0,2c0,0.7,0,1.4,0,2c-0.7,0-1.4,0-2,0c-0.7,0-1.4,0-2,0c0-0.7,0-1.4,0-2c0-0.7,0-1.4,0-2
		c-0.7,0-1.4,0-2,0c-0.7,0-1.3,0-2,0c0,0.7,0,1.4,0,2c0,0.7,0,1.4,0,2c-0.7,0-1.3,0-2,0s-1.4,0-2,0c0-0.7,0-1.4,0-2c0-0.7,0-1.4,0-2
		c-0.7,0-1.4,0-2,0c-0.7,0-1.3,0-2,0c0,0.7,0,1.4,0,2c0,0.7,0,1.4,0,2c-0.7,0-1.4,0-2,0c-0.7,0-1.4,0-2,0c0-0.7,0-1.4,0-2
		c0-0.7,0-1.4,0-2c-0.7,0-1.4,0-2,0c-0.7,0-1.3,0-2,0c0-0.7,0-1.4,0-2c0-0.7,0-1.4,0-2c0.7,0,1.3,0,2,0s1.4,0,2,0c0-0.7,0-1.4,0-2
		c0-0.7,0-1.4,0-2c-0.7,0-1.4,0-2,0c-0.7,0-1.3,0-2,0c0-0.7,0-1.4,0-2c0-0.7,0-1.3,0-2s0-1.4,0-2c0-0.7,0-1.4,0-2c-0.7,0-1.3,0-2,0
		s-1.3,0-2,0C8.1,4.7,8.1,5.4,8.1,6.1z"/>
	<path class="st0" d="M16.2,20.3c0.7,0,1.4,0,2,0c0.7,0,1.3,0,2,0c0-0.7,0-1.4,0-2c0-0.7,0-1.4,0-2c-0.7,0-1.4,0-2,0
		c-0.7,0-1.4,0-2,0c0,0.7,0,1.4,0,2S16.2,19.6,16.2,20.3z"/>
	<path class="st0" d="M24.3,16.2c0-0.7,0-1.4,0-2c0-0.7,0-1.4,0-2c-0.7,0-1.4,0-2,0c-0.7,0-1.3,0-2,0c0,0.7,0,1.4,0,2
		c0,0.7,0,1.4,0,2c0.7,0,1.3,0,2,0S23.6,16.2,24.3,16.2z"/>
	<path class="st0" d="M24.3,20.3c0.7,0,1.4,0,2,0c0.7,0,1.3,0,2,0c0-0.7,0-1.4,0-2c0-0.7,0-1.4,0-2c-0.7,0-1.3,0-2,0s-1.4,0-2,0
		c0,0.7,0,1.4,0,2S24.3,19.6,24.3,20.3z"/>
	<path class="st0" d="M32.4,16.2c0-0.7,0-1.4,0-2c0-0.7,0-1.4,0-2c-0.7,0-1.4,0-2,0c-0.7,0-1.3,0-2,0c0,0.7,0,1.4,0,2
		c0,0.7,0,1.4,0,2c0.7,0,1.3,0,2,0C31.1,16.2,31.8,16.2,32.4,16.2z"/>
	<path class="st0" d="M32.4,20.3c0.7,0,1.4,0,2,0c0.7,0,1.4,0,2,0c0-0.7,0-1.4,0-2s0-1.4,0-2c-0.7,0-1.4,0-2,0c-0.7,0-1.4,0-2,0
		c0,0.7,0,1.4,0,2S32.4,19.6,32.4,20.3z"/>
	<path class="st0" d="M40.5,16.2c0-0.7,0-1.4,0-2c0-0.7,0-1.4,0-2c-0.7,0-1.3,0-2,0s-1.4,0-2,0c0,0.7,0,1.4,0,2c0,0.7,0,1.4,0,2
		c0.7,0,1.4,0,2,0C39.2,16.2,39.9,16.2,40.5,16.2z"/>
	<path class="st0" d="M40.5,20.3c0.7,0,1.4,0,2,0c0.7,0,1.4,0,2,0c0-0.7,0-1.4,0-2s0-1.4,0-2c-0.7,0-1.4,0-2,0c-0.7,0-1.3,0-2,0
		c0,0.7,0,1.4,0,2S40.5,19.6,40.5,20.3z"/>
	<path class="st0" d="M48.6,16.2c0-0.7,0-1.4,0-2c0-0.7,0-1.4,0-2c-0.7,0-1.4,0-2,0c-0.7,0-1.4,0-2,0c0,0.7,0,1.4,0,2
		c0,0.7,0,1.4,0,2c0.7,0,1.4,0,2,0C47.3,16.2,48,16.2,48.6,16.2z"/>
	<path class="st0" d="M48.6,20.3c0.7,0,1.4,0,2,0c0.7,0,1.4,0,2,0c0-0.7,0-1.4,0-2s0-1.4,0-2c-0.7,0-1.4,0-2,0c-0.7,0-1.3,0-2,0
		c0,0.7,0,1.4,0,2S48.6,19.6,48.6,20.3z"/>
	<path class="st0" d="M56.7,16.2c0-0.7,0-1.4,0-2c0-0.7,0-1.4,0-2c-0.7,0-1.3,0-2,0s-1.3,0-2,0c0,0.7,0,1.4,0,2c0,0.7,0,1.4,0,2
		c0.7,0,1.4,0,2,0C55.4,16.2,56.1,16.2,56.7,16.2z"/>
	<path class="st0" d="M54.7,101.4c-0.7,0-1.3,0-2,0s-1.4,0-2,0c-0.7,0-1.3,0-2,0s-1.4,0-2,0c-0.7,0-1.4,0-2,0c-0.7,0-1.4,0-2,0
		c-0.7,0-1.3,0-2,0s-1.3,0-2,0s-1.4,0-2,0c-0.7,0-1.4,0-2,0c-0.7,0-1.4,0-2,0c-0.7,0-1.4,0-2,0c-0.7,0-1.3,0-2,0s-1.3,0-2,0
		s-1.4,0-2,0c-0.7,0-1.4,0-2,0c-0.7,0-1.3,0-2,0s-1.4,0-2,0c-0.7,0-1.4,0-2,0c-0.7,0-1.4,0-2,0c-0.7,0-1.3,0-2,0s-1.3,0-2,0
		s-1.3,0-2,0c0,0.7,0,1.4,0,2c0,0.7,0,1.4,0,2c0,0.7,0,1.4,0,2c0,0.7,0,1.4,0,2c0,0.7,0,1.4,0,2c0,0.7,0,1.4,0,2c0,0.7,0,1.4,0,2
		c0,0.7,0,1.4,0,2c0,0.7,0,1.4,0,2c0,0.7,0,1.4,0,2c0.7,0,1.3,0,2,0s1.3,0,2,0c0-0.7,0-1.4,0-2c0-0.7,0-1.4,0-2c0-0.7,0-1.4,0-2
		c0-0.7,0-1.4,0-2c0-0.7,0-1.4,0-2c0-0.7,0-1.4,0-2c0.7,0,1.3,0,2,0s1.4,0,2,0c0.7,0,1.4,0,2,0c0.7,0,1.3,0,2,0s1.3,0,2,0s1.4,0,2,0
		c0.7,0,1.4,0,2,0c0.7,0,1.3,0,2,0s1.3,0,2,0s1.4,0,2,0c0.7,0,1.4,0,2,0c0.7,0,1.4,0,2,0c0.7,0,1.4,0,2,0c0.7,0,1.3,0,2,0s1.4,0,2,0
		c0.7,0,1.4,0,2,0c0.7,0,1.4,0,2,0c0.7,0,1.3,0,2,0s1.4,0,2,0c0.7,0,1.4,0,2,0c0.7,0,1.4,0,2,0c0.7,0,1.3,0,2,0c0-0.7,0-1.4,0-2
		c0-0.7,0-1.4,0-2c0-0.7,0-1.4,0-2c0-0.7,0-1.4,0-2C56.1,101.4,55.4,101.4,54.7,101.4z"/>
	<path class="st0" d="M62.8,97.3c0,0.7,0,1.4,0,2c0,0.7,0,1.4,0,2c0.7,0,1.4,0,2,0c0.7,0,1.4,0,2,0c0.7,0,1.4,0,2,0c0.7,0,1.3,0,2,0
		s1.3,0,2,0s1.4,0,2,0c0.7,0,1.4,0,2,0c0.7,0,1.4,0,2,0c0.7,0,1.3,0,2,0s1.3,0,2,0s1.4,0,2,0c0.7,0,1.4,0,2,0c0.7,0,1.4,0,2,0
		c0.7,0,1.4,0,2,0c0.7,0,1.4,0,2,0c0.7,0,1.4,0,2,0c0.7,0,1.4,0,2,0c0.7,0,1.4,0,2,0c0.7,0,1.3,0,2,0s1.4,0,2,0c0.7,0,1.4,0,2,0
		c0.7,0,1.4,0,2,0c0.7,0,1.4,0,2,0c0.7,0,1.4,0,2,0c0.7,0,1.3,0,2,0s1.4,0,2,0c0.7,0,1.3,0,2,0s1.3,0,2,0s1.3,0,2,0s1.3,0,2,0
		s1.4,0,2,0c0.7,0,1.4,0,2,0c0.7,0,1.4,0,2,0c0.7,0,1.4,0,2,0c0.7,0,1.4,0,2,0c0.7,0,1.4,0,2,0c0.7,0,1.4,0,2,0c0.7,0,1.4,0,2,0
		c0.7,0,1.3,0,2,0s1.4,0,2,0c0.7,0,1.4,0,2,0c0.7,0,1.4,0,2,0c0.7,0,1.4,0,2,0s1.3,0,2,0s1.4,0,2,0c0.7,0,1.4,0,2,0c0.7,0,1.4,0,2,0
		c0.7,0,1.4,0,2,0c0.7,0,1.3,0,2,0s1.4,0,2,0c0.7,0,1.4,0,2,0c0.7,0,1.4,0,2,0c0.7,0,1.3,0,2,0s1.3,0,2,0s1.3,0,2,0s1.4,0,2,0
		c0.7,0,1.3,0,2,0s1.4,0,2,0c0.7,0,215.2,0,215.8,0c0.7,0,1.3,0,2,0c0-0.7,0-1.4,0-2c0-0.7,0-1.4,0-2s0-1.4,0-2c0-0.7,0-1.4,0-2
		c-0.7,0-1.3,0-2,0s-215.2,0-215.8,0c-0.7,0-1.3,0-2,0s-1.3,0-2,0s-1.3,0-2,0s-1.4,0-2,0s-1.3,0-2,0s-1.4,0-2,0c-0.7,0-1.4,0-2,0
		c-0.7,0-1.4,0-2,0c-0.7,0-1.3,0-2,0s-1.4,0-2,0c-0.7,0-1.4,0-2,0c-0.7,0-1.4,0-2,0c-0.7,0-1.4,0-2,0c-0.7,0-1.4,0-2,0
		c-0.7,0-1.3,0-2,0s-1.3,0-2,0s-1.4,0-2,0c-0.7,0-1.4,0-2,0c-0.7,0-1.4,0-2,0c-0.7,0-1.3,0-2,0s-1.4,0-2,0c-0.7,0-1.4,0-2,0
		c-0.7,0-1.3,0-2,0s-1.3,0-2,0s-1.3,0-2,0s-1.3,0-2,0s-1.4,0-2,0c-0.7,0-1.4,0-2,0c-0.7,0-1.3,0-2,0s-1.4,0-2,0c-0.7,0-1.3,0-2,0
		s-1.3,0-2,0s-1.3,0-2,0s-1.4,0-2,0c-0.7,0-1.3,0-2,0s-1.4,0-2,0c-0.7,0-1.4,0-2,0c-0.7,0-1.4,0-2,0c-0.7,0-1.3,0-2,0s-1.4,0-2,0
		c-0.7,0-1.4,0-2,0c-0.7,0-1.4,0-2,0c-0.7,0-1.4,0-2,0c-0.7,0-1.4,0-2,0c-0.7,0-1.3,0-2,0s-1.3,0-2,0s-1.3,0-2,0s-1.4,0-2,0
		c-0.7,0-1.3,0-2,0s-1.4,0-2,0c-0.7,0-1.4,0-2,0c-0.7,0-1.4,0-2,0c-0.7,0-1.4,0-2,0c-0.7,0-1.3,0-2,0s-1.4,0-2,0c-0.7,0-1.3,0-2,0
		s-1.4,0-2,0c-0.7,0-1.4,0-2,0c0,0.7,0,1.4,0,2C62.8,96,62.8,96.7,62.8,97.3z"/>
	<path class="st0" d="M64.8,68.9c-0.7,0-1.4,0-2,0c0,0.7,0,1.4,0,2c0,0.7,0,1.3,0,2c0.7,0,1.4,0,2,0c0.7,0,1.4,0,2,0
		c0.7,0,1.4,0,2,0c0.7,0,1.3,0,2,0s1.3,0,2,0s1.4,0,2,0c0.7,0,1.4,0,2,0c0.7,0,1.4,0,2,0c0.7,0,1.3,0,2,0s1.3,0,2,0s1.4,0,2,0
		c0.7,0,1.4,0,2,0c0.7,0,1.4,0,2,0c0.7,0,1.4,0,2,0c0.7,0,1.4,0,2,0c0.7,0,1.4,0,2,0c0.7,0,1.4,0,2,0c0.7,0,1.4,0,2,0
		c0.7,0,1.3,0,2,0s1.4,0,2,0c0.7,0,1.4,0,2,0c0.7,0,1.4,0,2,0c0.7,0,1.4,0,2,0c0.7,0,1.4,0,2,0c0.7,0,1.3,0,2,0s1.4,0,2,0
		c0.7,0,1.3,0,2,0s1.3,0,2,0s1.3,0,2,0s1.3,0,2,0s1.4,0,2,0c0.7,0,1.4,0,2,0c0.7,0,1.4,0,2,0c0.7,0,1.4,0,2,0c0.7,0,1.4,0,2,0
		c0.7,0,1.4,0,2,0c0.7,0,1.4,0,2,0c0.7,0,1.4,0,2,0c0.7,0,1.3,0,2,0s1.4,0,2,0c0.7,0,1.4,0,2,0c0.7,0,1.4,0,2,0c0.7,0,1.4,0,2,0
		s1.3,0,2,0s1.4,0,2,0c0.7,0,1.4,0,2,0c0.7,0,1.4,0,2,0c0.7,0,1.4,0,2,0c0.7,0,1.3,0,2,0s1.4,0,2,0c0.7,0,1.4,0,2,0c0.7,0,1.4,0,2,0
		c0.7,0,1.3,0,2,0s1.3,0,2,0s1.3,0,2,0s1.4,0,2,0c0.7,0,1.3,0,2,0s1.4,0,2,0c0.7,0,215.2,0,215.8,0c0.7,0,1.3,0,2,0c0-0.7,0-1.4,0-2
		c0-0.7,0-1.4,0-2c-0.7,0-1.3,0-2,0s-215.2,0-215.8,0c-0.7,0-1.3,0-2,0s-1.3,0-2,0s-1.4,0-2,0c-0.7,0-1.3,0-2,0s-1.4,0-2,0
		c-0.7,0-1.3,0-2,0s-1.4,0-2,0c-0.7,0-1.4,0-2,0c-0.7,0-1.3,0-2,0s-1.4,0-2,0c-0.7,0-1.4,0-2,0c-0.7,0-1.4,0-2,0c-0.7,0-1.4,0-2,0
		c-0.7,0-1.4,0-2,0c-0.7,0-1.3,0-2,0s-1.3,0-2,0s-1.4,0-2,0c-0.7,0-1.4,0-2,0c-0.7,0-1.4,0-2,0c-0.7,0-1.3,0-2,0s-1.4,0-2,0
		c-0.7,0-1.4,0-2,0c-0.7,0-1.3,0-2,0s-1.3,0-2,0s-1.3,0-2,0s-1.3,0-2,0s-1.4,0-2,0c-0.7,0-1.4,0-2,0c-0.7,0-1.3,0-2,0s-1.4,0-2,0
		c-0.7,0-1.3,0-2,0s-1.3,0-2,0s-1.4,0-2,0c-0.7,0-1.4,0-2,0c-0.7,0-1.4,0-2,0s-1.3,0-2,0s-1.4,0-2,0c-0.7,0-1.3,0-2,0s-1.3,0-2,0
		s-1.4,0-2,0c-0.7,0-1.4,0-2,0c-0.7,0-1.4,0-2,0c-0.7,0-1.4,0-2,0c-0.7,0-1.4,0-2,0c-0.7,0-1.3,0-2,0s-1.3,0-2,0s-1.3,0-2,0
		s-1.4,0-2,0c-0.7,0-1.3,0-2,0s-1.4,0-2,0c-0.7,0-1.4,0-2,0c-0.7,0-1.4,0-2,0c-0.7,0-1.4,0-2,0c-0.7,0-1.3,0-2,0s-1.4,0-2,0
		c-0.7,0-1.3,0-2,0C66.2,68.9,65.5,68.9,64.8,68.9z"/>
	<path class="st0" d="M62.8,20.3c0.7,0,1.4,0,2,0c0-0.7,0-1.4,0-2c0-0.7,0-1.4,0-2c-0.7,0-1.4,0-2,0c0,0.7,0,1.4,0,2
		C62.8,18.9,62.8,19.6,62.8,20.3z"/>
	<path class="st0" d="M64.8,24.3c0.7,0,1.4,0,2,0c0.7,0,1.4,0,2,0c0-0.7,0-1.4,0-2c0-0.7,0-1.4,0-2c-0.7,0-1.3,0-2,0s-1.4,0-2,0
		c0,0.7,0,1.4,0,2C64.8,23,64.8,23.7,64.8,24.3z"/>
	<path class="st0" d="M73,20.3c0-0.7,0-1.4,0-2c0-0.7,0-1.4,0-2c-0.7,0-1.3,0-2,0s-1.4,0-2,0c0,0.7,0,1.4,0,2c0,0.7,0,1.4,0,2
		c0.7,0,1.3,0,2,0C71.6,20.3,72.3,20.3,73,20.3z"/>
	<path class="st0" d="M73,24.3c0.7,0,1.4,0,2,0c0.7,0,1.4,0,2,0c0-0.7,0-1.4,0-2c0-0.7,0-1.4,0-2c-0.7,0-1.4,0-2,0c-0.7,0-1.4,0-2,0
		c0,0.7,0,1.4,0,2C73,23,73,23.7,73,24.3z"/>
	<path class="st0" d="M81.1,20.3c0-0.7,0-1.4,0-2c0-0.7,0-1.4,0-2c-0.7,0-1.4,0-2,0c-0.7,0-1.4,0-2,0c0,0.7,0,1.4,0,2s0,1.4,0,2
		c0.7,0,1.4,0,2,0S80.4,20.3,81.1,20.3z"/>
	<path class="st0" d="M81.1,24.3c0.7,0,1.3,0,2,0s1.4,0,2,0c0-0.7,0-1.4,0-2c0-0.7,0-1.4,0-2c-0.7,0-1.4,0-2,0c-0.7,0-1.3,0-2,0
		c0,0.7,0,1.4,0,2C81.1,23,81.1,23.7,81.1,24.3z"/>
	<path class="st0" d="M89.2,20.3c0-0.7,0-1.4,0-2c0-0.7,0-1.4,0-2c-0.7,0-1.3,0-2,0s-1.3,0-2,0c0,0.7,0,1.4,0,2s0,1.4,0,2
		c0.7,0,1.4,0,2,0C87.8,20.3,88.5,20.3,89.2,20.3z"/>
	<path class="st0" d="M89.2,24.3c0.7,0,1.4,0,2,0c0.7,0,1.4,0,2,0c0-0.7,0-1.4,0-2c0-0.7,0-1.4,0-2c-0.7,0-1.4,0-2,0
		c-0.7,0-1.3,0-2,0c0,0.7,0,1.4,0,2C89.2,23,89.2,23.7,89.2,24.3z"/>
	<path class="st0" d="M97.3,20.3c0-0.7,0-1.4,0-2s0-1.4,0-2c-0.7,0-1.4,0-2,0c-0.7,0-1.4,0-2,0c0,0.7,0,1.4,0,2s0,1.4,0,2
		c0.7,0,1.4,0,2,0S96.6,20.3,97.3,20.3z"/>
	<path class="st0" d="M97.3,24.3c0.7,0,1.4,0,2,0c0.7,0,1.3,0,2,0c0-0.7,0-1.4,0-2c0-0.7,0-1.4,0-2c-0.7,0-1.4,0-2,0
		c-0.7,0-1.4,0-2,0c0,0.7,0,1.4,0,2C97.3,23,97.3,23.7,97.3,24.3z"/>
	<path class="st0" d="M105.4,20.3c0-0.7,0-1.4,0-2s0-1.4,0-2c-0.7,0-1.4,0-2,0c-0.7,0-1.3,0-2,0c0,0.7,0,1.4,0,2c0,0.7,0,1.4,0,2
		c0.7,0,1.4,0,2,0S104.7,20.3,105.4,20.3z"/>
	<path class="st0" d="M105.4,24.3c0.7,0,1.4,0,2,0c0.7,0,1.4,0,2,0c0-0.7,0-1.4,0-2c0-0.7,0-1.4,0-2c-0.7,0-1.4,0-2,0
		c-0.7,0-1.4,0-2,0c0,0.7,0,1.4,0,2C105.4,23,105.4,23.7,105.4,24.3z"/>
	<path class="st0" d="M113.5,20.3c0-0.7,0-1.4,0-2s0-1.4,0-2c-0.7,0-1.4,0-2,0c-0.7,0-1.3,0-2,0c0,0.7,0,1.4,0,2c0,0.7,0,1.4,0,2
		c0.7,0,1.4,0,2,0S112.8,20.3,113.5,20.3z"/>
	<path class="st0" d="M113.5,24.3c0.7,0,1.4,0,2,0c0.7,0,1.3,0,2,0c0-0.7,0-1.4,0-2c0-0.7,0-1.4,0-2c-0.7,0-1.3,0-2,0s-1.3,0-2,0
		c0,0.7,0,1.4,0,2C113.5,23,113.5,23.7,113.5,24.3z"/>
	<path class="st0" d="M121.6,20.3c0-0.7,0-1.4,0-2c0-0.7,0-1.4,0-2c-0.7,0-1.4,0-2,0c-0.7,0-1.3,0-2,0c0,0.7,0,1.4,0,2
		c0,0.7,0,1.4,0,2c0.7,0,1.3,0,2,0C120.2,20.3,120.9,20.3,121.6,20.3z"/>
	<path class="st0" d="M121.6,24.3c0.7,0,1.3,0,2,0c0-0.7,0-1.4,0-2c0-0.7,0-1.4,0-2c-0.7,0-1.3,0-2,0c0,0.7,0,1.4,0,2
		C121.6,23,121.6,23.7,121.6,24.3z"/>
	<path class="st0" d="M125.6,18.2c0-0.7,0-1.4,0-2c-0.7,0-1.4,0-2,0c0,0.7,0,1.4,0,2c0,0.7,0,1.4,0,2c0.7,0,1.4,0,2,0
		C125.6,19.6,125.6,18.9,125.6,18.2z"/>
	<path class="st0" d="M125.6,24.3c0.7,0,1.4,0,2,0c0.7,0,1.4,0,2,0c0-0.7,0-1.4,0-2c0-0.7,0-1.4,0-2c-0.7,0-1.3,0-2,0s-1.4,0-2,0
		c0,0.7,0,1.4,0,2C125.6,23,125.6,23.7,125.6,24.3z"/>
	<path class="st0" d="M133.7,20.3c0-0.7,0-1.4,0-2c0-0.7,0-1.4,0-2c-0.7,0-1.3,0-2,0s-1.3,0-2,0c0,0.7,0,1.4,0,2s0,1.4,0,2
		c0.7,0,1.4,0,2,0C132.4,20.3,133.1,20.3,133.7,20.3z"/>
	<path class="st0" d="M133.7,24.3c0.7,0,1.4,0,2,0c0.7,0,1.4,0,2,0c0-0.7,0-1.4,0-2c0-0.7,0-1.4,0-2c-0.7,0-1.4,0-2,0
		c-0.7,0-1.3,0-2,0c0,0.7,0,1.4,0,2C133.7,23,133.7,23.7,133.7,24.3z"/>
	<path class="st0" d="M141.9,20.3c0-0.7,0-1.4,0-2c0-0.7,0-1.4,0-2c-0.7,0-1.3,0-2,0s-1.4,0-2,0c0,0.7,0,1.4,0,2s0,1.4,0,2
		c0.7,0,1.4,0,2,0S141.2,20.3,141.9,20.3z"/>
	<path class="st0" d="M141.9,24.3c0.7,0,1.4,0,2,0c0.7,0,1.4,0,2,0c0-0.7,0-1.4,0-2c0-0.7,0-1.4,0-2c-0.7,0-1.4,0-2,0
		c-0.7,0-1.4,0-2,0c0,0.7,0,1.4,0,2C141.9,23,141.9,23.7,141.9,24.3z"/>
	<path class="st0" d="M150,20.3c0-0.7,0-1.4,0-2c0-0.7,0-1.4,0-2c-0.7,0-1.3,0-2,0s-1.4,0-2,0c0,0.7,0,1.4,0,2s0,1.4,0,2
		c0.7,0,1.4,0,2,0S149.3,20.3,150,20.3z"/>
	<path class="st0" d="M150,24.3c0.7,0,1.3,0,2,0s1.4,0,2,0c0-0.7,0-1.4,0-2c0-0.7,0-1.4,0-2c-0.7,0-1.4,0-2,0c-0.7,0-1.3,0-2,0
		c0,0.7,0,1.4,0,2C150,23,150,23.7,150,24.3z"/>
	<path class="st0" d="M158.1,20.3c0-0.7,0-1.4,0-2s0-1.4,0-2c-0.7,0-1.4,0-2,0c-0.7,0-1.4,0-2,0c0,0.7,0,1.4,0,2s0,1.4,0,2
		c0.7,0,1.4,0,2,0C156.7,20.3,157.4,20.3,158.1,20.3z"/>
	<path class="st0" d="M158.1,24.3c0.7,0,1.4,0,2,0c0.7,0,1.3,0,2,0c0-0.7,0-1.4,0-2c0-0.7,0-1.4,0-2c-0.7,0-1.4,0-2,0
		c-0.7,0-1.4,0-2,0c0,0.7,0,1.4,0,2C158.1,23,158.1,23.7,158.1,24.3z"/>
	<path class="st0" d="M166.2,20.3c0-0.7,0-1.4,0-2s0-1.4,0-2c-0.7,0-1.4,0-2,0c-0.7,0-1.3,0-2,0c0,0.7,0,1.4,0,2c0,0.7,0,1.4,0,2
		c0.7,0,1.4,0,2,0S165.5,20.3,166.2,20.3z"/>
	<path class="st0" d="M166.2,24.3c0.7,0,1.4,0,2,0c0.7,0,1.3,0,2,0c0-0.7,0-1.4,0-2c0-0.7,0-1.4,0-2c-0.7,0-1.4,0-2,0
		c-0.7,0-1.4,0-2,0c0,0.7,0,1.4,0,2C166.2,23,166.2,23.7,166.2,24.3z"/>
	<path class="st0" d="M174.3,20.3c0-0.7,0-1.4,0-2s0-1.4,0-2c-0.7,0-1.4,0-2,0s-1.3,0-2,0c0,0.7,0,1.4,0,2c0,0.7,0,1.4,0,2
		c0.7,0,1.3,0,2,0S173.6,20.3,174.3,20.3z"/>
	<path class="st0" d="M174.3,24.3c0.7,0,1.4,0,2,0c0.7,0,1.3,0,2,0c0-0.7,0-1.4,0-2c0-0.7,0-1.4,0-2c-0.7,0-1.3,0-2,0s-1.3,0-2,0
		c0,0.7,0,1.4,0,2C174.3,23,174.3,23.7,174.3,24.3z"/>
	<path class="st0" d="M178.3,24.3c0,0.7,0,1.4,0,2c0,0.7,0,1.4,0,2c-0.7,0-1.3,0-2,0s-1.3,0-2,0c0-0.7,0-1.4,0-2c0-0.7,0-1.4,0-2
		c-0.7,0-1.4,0-2,0s-1.3,0-2,0c0,0.7,0,1.4,0,2c0,0.7,0,1.4,0,2c-0.7,0-1.4,0-2,0c-0.7,0-1.4,0-2,0c0-0.7,0-1.4,0-2c0-0.7,0-1.4,0-2
		c-0.7,0-1.4,0-2,0c-0.7,0-1.3,0-2,0c0,0.7,0,1.4,0,2c0,0.7,0,1.4,0,2c-0.7,0-1.4,0-2,0c-0.7,0-1.4,0-2,0c0-0.7,0-1.4,0-2
		c0-0.7,0-1.4,0-2c-0.7,0-1.4,0-2,0c-0.7,0-1.4,0-2,0c0,0.7,0,1.4,0,2c0,0.7,0,1.4,0,2c-0.7,0-1.4,0-2,0c-0.7,0-1.3,0-2,0
		c0-0.7,0-1.4,0-2c0-0.7,0-1.4,0-2c-0.7,0-1.3,0-2,0s-1.4,0-2,0c0,0.7,0,1.4,0,2c0,0.7,0,1.4,0,2c-0.7,0-1.4,0-2,0c-0.7,0-1.4,0-2,0
		c0-0.7,0-1.4,0-2c0-0.7,0-1.4,0-2c-0.7,0-1.3,0-2,0s-1.4,0-2,0c0,0.7,0,1.4,0,2c0,0.7,0,1.4,0,2c-0.7,0-1.4,0-2,0c-0.7,0-1.3,0-2,0
		c0-0.7,0-1.4,0-2c0-0.7,0-1.4,0-2c-0.7,0-1.3,0-2,0s-1.3,0-2,0c0,0.7,0,1.4,0,2c0,0.7,0,1.4,0,2c-0.7,0-1.3,0-2,0s-1.4,0-2,0
		c0-0.7,0-1.4,0-2c0-0.7,0-1.4,0-2c-0.7,0-1.4,0-2,0c0,0.7,0,1.4,0,2c0,0.7,0,1.4,0,2c-0.7,0-1.3,0-2,0c0-0.7,0-1.4,0-2
		c0-0.7,0-1.4,0-2c-0.7,0-1.4,0-2,0c-0.7,0-1.3,0-2,0c0,0.7,0,1.4,0,2c0,0.7,0,1.4,0,2c-0.7,0-1.3,0-2,0s-1.3,0-2,0c0-0.7,0-1.4,0-2
		c0-0.7,0-1.4,0-2c-0.7,0-1.4,0-2,0c-0.7,0-1.3,0-2,0c0,0.7,0,1.4,0,2c0,0.7,0,1.4,0,2c-0.7,0-1.4,0-2,0c-0.7,0-1.4,0-2,0
		c0-0.7,0-1.4,0-2c0-0.7,0-1.4,0-2c-0.7,0-1.4,0-2,0c-0.7,0-1.3,0-2,0c0,0.7,0,1.4,0,2c0,0.7,0,1.4,0,2c-0.7,0-1.4,0-2,0
		c-0.7,0-1.4,0-2,0c0-0.7,0-1.4,0-2c0-0.7,0-1.4,0-2c-0.7,0-1.4,0-2,0c-0.7,0-1.4,0-2,0c0,0.7,0,1.4,0,2c0,0.7,0,1.4,0,2
		c-0.7,0-1.4,0-2,0c-0.7,0-1.3,0-2,0c0-0.7,0-1.4,0-2c0-0.7,0-1.4,0-2c-0.7,0-1.3,0-2,0s-1.3,0-2,0c0,0.7,0,1.4,0,2c0,0.7,0,1.4,0,2
		c-0.7,0-1.4,0-2,0c-0.7,0-1.3,0-2,0c0-0.7,0-1.4,0-2c0-0.7,0-1.4,0-2c-0.7,0-1.4,0-2,0c-0.7,0-1.4,0-2,0c0,0.7,0,1.4,0,2
		c0,0.7,0,1.4,0,2c-0.7,0-1.4,0-2,0c-0.7,0-1.4,0-2,0c0-0.7,0-1.4,0-2c0-0.7,0-1.4,0-2c-0.7,0-1.3,0-2,0s-1.4,0-2,0c0,0.7,0,1.4,0,2
		c0,0.7,0,1.4,0,2c-0.7,0-1.3,0-2,0s-1.4,0-2,0c0-0.7,0-1.4,0-2c0-0.7,0-1.4,0-2c-0.7,0-1.4,0-2,0c0,0.7,0,1.4,0,2c0,0.7,0,1.4,0,2
		c0,0.7,0,1.4,0,2c0,0.7,0,1.4,0,2c0,0.7,0,1.4,0,2c0,0.7,0,1.4,0,2c0,0.7,0,1.4,0,2c0,0.7,0,1.4,0,2c0,0.7,0,1.4,0,2
		c0,0.7,0,1.4,0,2c0,0.7,0,1.4,0,2c0,0.7,0,1.4,0,2c0,0.7,0,1.4,0,2c0,0.7,0,1.4,0,2c0,0.7,0,1.4,0,2c0,0.7,0,1.4,0,2
		c0,0.7,0,1.4,0,2c0,0.7,0,1.4,0,2c0,0.7,0,1.4,0,2c0.7,0,1.4,0,2,0c0.7,0,1.4,0,2,0c0.7,0,1.4,0,2,0c0.7,0,1.4,0,2,0
		c0.7,0,1.3,0,2,0s1.4,0,2,0c0.7,0,1.4,0,2,0c0.7,0,1.4,0,2,0c0.7,0,1.3,0,2,0s1.3,0,2,0s1.4,0,2,0c0.7,0,1.4,0,2,0c0.7,0,1.4,0,2,0
		c0.7,0,1.4,0,2,0c0.7,0,1.4,0,2,0c0.7,0,1.4,0,2,0c0.7,0,1.4,0,2,0c0.7,0,1.4,0,2,0c0.7,0,1.4,0,2,0c0.7,0,1.3,0,2,0s1.4,0,2,0
		c0.7,0,1.4,0,2,0c0.7,0,1.4,0,2,0c0.7,0,1.4,0,2,0c0.7,0,1.3,0,2,0s1.4,0,2,0c0.7,0,1.3,0,2,0s1.3,0,2,0s1.3,0,2,0s1.4,0,2,0
		c0.7,0,1.4,0,2,0c0.7,0,1.4,0,2,0c0.7,0,1.4,0,2,0c0.7,0,1.4,0,2,0c0.7,0,1.4,0,2,0c0.7,0,1.4,0,2,0c0.7,0,1.4,0,2,0
		c0.7,0,1.4,0,2,0c0.7,0,1.3,0,2,0s1.3,0,2,0s1.4,0,2,0c0.7,0,1.4,0,2,0c0.7,0,1.4,0,2,0c0.7,0,1.4,0,2,0c0.7,0,1.4,0,2,0
		c0.7,0,1.4,0,2,0c0.7,0,1.4,0,2,0c0.7,0,1.4,0,2,0c0.7,0,1.3,0,2,0s1.4,0,2,0c0.7,0,1.4,0,2,0c0.7,0,1.4,0,2,0c0.7,0,1.3,0,2,0
		s1.4,0,2,0s1.3,0,2,0s1.4,0,2,0c0.7,0,1.3,0,2,0s1.3,0,2,0s215.2,0,215.8,0c0.7,0,1.4,0,2,0c0-0.7,0-1.4,0-2c0-0.7,0-1.4,0-2
		c0-0.7,0-1.4,0-2c0-0.7,0-1.4,0-2c0-0.7,0-1.4,0-2c0-0.7,0-1.4,0-2c0-0.7,0-1.4,0-2c0-0.7,0-1.4,0-2c0-0.7,0-1.4,0-2
		c0-0.7,0-1.4,0-2c0-0.7,0-1.4,0-2c0-0.7,0-1.4,0-2c0-0.7,0-1.4,0-2c0-0.7,0-1.4,0-2c0-0.7,0-1.4,0-2c0-0.7,0-1.4,0-2
		c0-0.7,0-1.4,0-2c-0.7,0-1.3,0-2,0c0-0.7,0-1.4,0-2c0-0.7,0-1.4,0-2c-0.7,0-215.2,0-215.8,0S179,24.3,178.3,24.3z"/>
	<path class="st0" d="M396.2,24.3c0.7,0,1.3,0,2,0c0-0.7,0-1.4,0-2c0-0.7,0-1.4,0-2c-0.7,0-2,1.4-2,2
		C396.2,23,396.2,23.7,396.2,24.3z"/>
</g>
<path class="st2" d="M174.3,28.4c0.7,0,1.4,0,2,0c0.7,0,1.4,0,2,0c0-0.7,0-1.4,0-2c0-0.7,0-1.4,0-2c-0.7,0-1.3,0-2,0s-1.4,0-2,0"/>
<path class="st2" d="M182.4,20.3c-0.7,0-1.3,0-2,0s-1.4,0-2,0c0,0.7,0,1.4,0,2c0,0.7,0,1.4,0,2c0.7,0,1.3,0,2,0s1.3,0,2,0
	c0-0.7,0-1.4,0-2C182.4,21.6,182.4,20.9,182.4,20.3z"/>
<path class="st2" d="M182.4,24.3c0,0.7,0,1.4,0,2c0,0.7,0,1.4,0,2c0.7,0,1.4,0,2,0c0.7,0,1.4,0,2,0c0-0.7,0-1.4,0-2c0-0.7,0-1.4,0-2
	c-0.7,0-1.4,0-2,0C183.7,24.3,183.1,24.3,182.4,24.3z"/>
<path class="st2" d="M190.5,20.3c-0.7,0-1.4,0-2,0c-0.7,0-1.4,0-2,0c0,0.7,0,1.4,0,2c0,0.7,0,1.4,0,2c0.7,0,1.4,0,2,0
	c0.7,0,1.3,0,2,0c0-0.7,0-1.4,0-2C190.5,21.6,190.5,20.9,190.5,20.3z"/>
<path class="st2" d="M190.5,24.3c0,0.7,0,1.4,0,2c0,0.7,0,1.4,0,2c0.7,0,1.3,0,2,0s1.4,0,2,0c0-0.7,0-1.4,0-2c0-0.7,0-1.4,0-2
	c-0.7,0-1.4,0-2,0C191.8,24.3,191.2,24.3,190.5,24.3z"/>
<path class="st2" d="M198.6,20.3c-0.7,0-1.3,0-2,0s-1.3,0-2,0c0,0.7,0,1.4,0,2c0,0.7,0,1.4,0,2c0.7,0,1.4,0,2,0c0.7,0,1.4,0,2,0
	c0-0.7,0-1.4,0-2C198.6,21.6,198.6,20.9,198.6,20.3z"/>
<path class="st2" d="M198.6,24.3c0,0.7,0,1.4,0,2c0,0.7,0,1.4,0,2c0.7,0,1.4,0,2,0c0.7,0,1.4,0,2,0c0-0.7,0-1.4,0-2c0-0.7,0-1.4,0-2
	c-0.7,0-1.4,0-2,0C199.9,24.3,199.3,24.3,198.6,24.3z"/>
<path class="st2" d="M206.7,20.3c-0.7,0-1.4,0-2,0c-0.7,0-1.4,0-2,0c0,0.7,0,1.4,0,2c0,0.7,0,1.4,0,2c0.7,0,1.4,0,2,0
	c0.7,0,1.4,0,2,0c0-0.7,0-1.4,0-2C206.7,21.6,206.7,20.9,206.7,20.3z"/>
<path class="st2" d="M206.7,24.3c0,0.7,0,1.4,0,2c0,0.7,0,1.4,0,2c0.7,0,1.4,0,2,0c0.7,0,1.3,0,2,0c0-0.7,0-1.4,0-2c0-0.7,0-1.4,0-2
	c-0.7,0-1.4,0-2,0C208.1,24.3,207.4,24.3,206.7,24.3z"/>
<path class="st2" d="M214.8,20.3c-0.7,0-1.4,0-2,0c-0.7,0-1.3,0-2,0c0,0.7,0,1.4,0,2c0,0.7,0,1.4,0,2c0.7,0,1.4,0,2,0
	c0.7,0,1.4,0,2,0c0-0.7,0-1.4,0-2C214.8,21.6,214.8,20.9,214.8,20.3z"/>
<path class="st2" d="M214.8,24.3c0,0.7,0,1.4,0,2c0,0.7,0,1.4,0,2c0.7,0,1.4,0,2,0c0.7,0,1.4,0,2,0c0-0.7,0-1.4,0-2c0-0.7,0-1.4,0-2
	c-0.7,0-1.4,0-2,0S215.5,24.3,214.8,24.3z"/>
<path class="st2" d="M222.9,20.3c-0.7,0-1.4,0-2,0c-0.7,0-1.3,0-2,0c0,0.7,0,1.4,0,2c0,0.7,0,1.4,0,2c0.7,0,1.4,0,2,0
	c0.7,0,1.3,0,2,0c0-0.7,0-1.4,0-2C222.9,21.6,222.9,20.9,222.9,20.3z"/>
<path class="st2" d="M222.9,24.3c0,0.7,0,1.4,0,2c0,0.7,0,1.4,0,2c0.7,0,1.4,0,2,0c0.7,0,1.3,0,2,0c0-0.7,0-1.4,0-2c0-0.7,0-1.4,0-2
	c-0.7,0-1.3,0-2,0C224.3,24.3,223.6,24.3,222.9,24.3z"/>
<path class="st2" d="M231,20.3c-0.7,0-1.4,0-2,0c-0.7,0-1.3,0-2,0c0,0.7,0,1.4,0,2c0,0.7,0,1.4,0,2c0.7,0,1.3,0,2,0s1.3,0,2,0
	c0-0.7,0-1.4,0-2C231,21.6,231,20.9,231,20.3z"/>
<path class="st2" d="M231,26.4c0,0.7,0,1.4,0,2c0.7,0,1.3,0,2,0c0-0.7,0-1.4,0-2c0-0.7,0-1.4,0-2c-0.7,0-1.3,0-2,0
	C231,25,231,25.7,231,26.4z"/>
<path class="st2" d="M235.1,20.3c-0.7,0-1.4,0-2,0c0,0.7,0,1.4,0,2c0,0.7,0,1.4,0,2c0.7,0,1.4,0,2,0c0-0.7,0-1.4,0-2
	C235.1,21.6,235.1,20.9,235.1,20.3z"/>
<path class="st2" d="M235.1,24.3c0,0.7,0,1.4,0,2c0,0.7,0,1.4,0,2c0.7,0,1.4,0,2,0c0.7,0,1.4,0,2,0c0-0.7,0-1.4,0-2c0-0.7,0-1.4,0-2
	c-0.7,0-1.3,0-2,0C236.4,24.3,235.8,24.3,235.1,24.3z"/>
<path class="st2" d="M243.2,20.3c-0.7,0-1.3,0-2,0s-1.3,0-2,0c0,0.7,0,1.4,0,2c0,0.7,0,1.4,0,2c0.7,0,1.4,0,2,0c0.7,0,1.4,0,2,0
	c0-0.7,0-1.4,0-2C243.2,21.6,243.2,20.9,243.2,20.3z"/>
<path class="st2" d="M243.2,24.3c0,0.7,0,1.4,0,2c0,0.7,0,1.4,0,2c0.7,0,1.4,0,2,0c0.7,0,1.4,0,2,0c0-0.7,0-1.4,0-2c0-0.7,0-1.4,0-2
	c-0.7,0-1.4,0-2,0C244.5,24.3,243.9,24.3,243.2,24.3z"/>
<path class="st2" d="M251.3,20.3c-0.7,0-1.3,0-2,0s-1.4,0-2,0c0,0.7,0,1.4,0,2c0,0.7,0,1.4,0,2c0.7,0,1.4,0,2,0c0.7,0,1.3,0,2,0
	c0-0.7,0-1.4,0-2C251.3,21.6,251.3,20.9,251.3,20.3z"/>
<path class="st2" d="M251.3,24.3c0,0.7,0,1.4,0,2c0,0.7,0,1.4,0,2c0.7,0,1.4,0,2,0c0.7,0,1.4,0,2,0c0-0.7,0-1.4,0-2c0-0.7,0-1.4,0-2
	c-0.7,0-1.4,0-2,0C252.6,24.3,252,24.3,251.3,24.3z"/>
<path class="st2" d="M259.4,20.3c-0.7,0-1.3,0-2,0s-1.4,0-2,0c0,0.7,0,1.4,0,2c0,0.7,0,1.4,0,2c0.7,0,1.4,0,2,0c0.7,0,1.4,0,2,0
	c0-0.7,0-1.4,0-2C259.4,21.6,259.4,20.9,259.4,20.3z"/>
<path class="st2" d="M259.4,24.3c0,0.7,0,1.4,0,2c0,0.7,0,1.4,0,2c0.7,0,1.3,0,2,0s1.4,0,2,0c0-0.7,0-1.4,0-2c0-0.7,0-1.4,0-2
	c-0.7,0-1.4,0-2,0C260.7,24.3,260.1,24.3,259.4,24.3z"/>
<path class="st2" d="M267.5,20.3c-0.7,0-1.4,0-2,0c-0.7,0-1.4,0-2,0c0,0.7,0,1.4,0,2c0,0.7,0,1.4,0,2c0.7,0,1.4,0,2,0
	c0.7,0,1.4,0,2,0c0-0.7,0-1.4,0-2C267.5,21.6,267.5,20.9,267.5,20.3z"/>
<path class="st2" d="M267.5,24.3c0,0.7,0,1.4,0,2c0,0.7,0,1.4,0,2c0.7,0,1.4,0,2,0c0.7,0,1.3,0,2,0c0-0.7,0-1.4,0-2c0-0.7,0-1.4,0-2
	c-0.7,0-1.4,0-2,0S268.2,24.3,267.5,24.3z"/>
<path class="st2" d="M275.6,20.3c-0.7,0-1.4,0-2,0c-0.7,0-1.3,0-2,0c0,0.7,0,1.4,0,2c0,0.7,0,1.4,0,2c0.7,0,1.4,0,2,0
	c0.7,0,1.4,0,2,0c0-0.7,0-1.4,0-2C275.6,21.6,275.6,20.9,275.6,20.3z"/>
<path class="st2" d="M275.6,24.3c0,0.7,0,1.4,0,2c0,0.7,0,1.4,0,2c0.7,0,1.4,0,2,0s1.3,0,2,0c0-0.7,0-1.4,0-2c0-0.7,0-1.4,0-2
	c-0.7,0-1.4,0-2,0S276.3,24.3,275.6,24.3z"/>
<path class="st2" d="M283.7,20.3c-0.7,0-1.4,0-2,0c-0.7,0-1.3,0-2,0c0,0.7,0,1.4,0,2c0,0.7,0,1.4,0,2c0.7,0,1.3,0,2,0s1.3,0,2,0
	c0-0.7,0-1.4,0-2C283.7,21.6,283.7,20.9,283.7,20.3z"/>
<path class="st2" d="M283.7,24.3c0,0.7,0,1.4,0,2c0,0.7,0,1.4,0,2c0.7,0,1.4,0,2,0s1.3,0,2,0c0-0.7,0-1.4,0-2c0-0.7,0-1.4,0-2
	c-0.7,0-1.3,0-2,0S284.4,24.3,283.7,24.3z"/>
<path class="st0" d="M174.3,24.3c0.7,0,1.4,0,2,0c0.7,0,1.4,0,2,0c0-0.7,0-1.4,0-2c0-0.7,0-1.4,0-2c-0.7,0-1.3,0-2,0s-1.4,0-2,0"/>
<path class="st0" d="M182.4,20.3c0-0.7,0-1.4,0-2c0-0.7,0-1.4,0-2c-0.7,0-1.3,0-2,0s-1.4,0-2,0c0,0.7,0,1.4,0,2c0,0.7,0,1.4,0,2
	c0.7,0,1.3,0,2,0C181,20.3,181.7,20.3,182.4,20.3z"/>
<path class="st0" d="M182.4,24.3c0.7,0,1.4,0,2,0c0.7,0,1.4,0,2,0c0-0.7,0-1.4,0-2c0-0.7,0-1.4,0-2c-0.7,0-1.4,0-2,0
	c-0.7,0-1.4,0-2,0c0,0.7,0,1.4,0,2C182.4,23,182.4,23.7,182.4,24.3z"/>
<path class="st0" d="M190.5,20.3c0-0.7,0-1.4,0-2c0-0.7,0-1.4,0-2c-0.7,0-1.4,0-2,0c-0.7,0-1.4,0-2,0c0,0.7,0,1.4,0,2s0,1.4,0,2
	c0.7,0,1.4,0,2,0S189.8,20.3,190.5,20.3z"/>
<path class="st0" d="M190.5,24.3c0.7,0,1.3,0,2,0s1.4,0,2,0c0-0.7,0-1.4,0-2c0-0.7,0-1.4,0-2c-0.7,0-1.4,0-2,0c-0.7,0-1.3,0-2,0
	c0,0.7,0,1.4,0,2C190.5,23,190.5,23.7,190.5,24.3z"/>
<path class="st0" d="M198.6,20.3c0-0.7,0-1.4,0-2c0-0.7,0-1.4,0-2c-0.7,0-1.3,0-2,0s-1.3,0-2,0c0,0.7,0,1.4,0,2s0,1.4,0,2
	c0.7,0,1.4,0,2,0C197.2,20.3,197.9,20.3,198.6,20.3z"/>
<path class="st0" d="M198.6,24.3c0.7,0,1.4,0,2,0c0.7,0,1.4,0,2,0c0-0.7,0-1.4,0-2c0-0.7,0-1.4,0-2c-0.7,0-1.4,0-2,0
	c-0.7,0-1.3,0-2,0c0,0.7,0,1.4,0,2C198.6,23,198.6,23.7,198.6,24.3z"/>
<path class="st0" d="M206.7,20.3c0-0.7,0-1.4,0-2s0-1.4,0-2c-0.7,0-1.4,0-2,0c-0.7,0-1.4,0-2,0c0,0.7,0,1.4,0,2s0,1.4,0,2
	c0.7,0,1.4,0,2,0C205.4,20.3,206,20.3,206.7,20.3z"/>
<path class="st0" d="M206.7,24.3c0.7,0,1.4,0,2,0c0.7,0,1.3,0,2,0c0-0.7,0-1.4,0-2c0-0.7,0-1.4,0-2c-0.7,0-1.4,0-2,0
	c-0.7,0-1.4,0-2,0c0,0.7,0,1.4,0,2C206.7,23,206.7,23.7,206.7,24.3z"/>
<path class="st0" d="M214.8,20.3c0-0.7,0-1.4,0-2s0-1.4,0-2c-0.7,0-1.4,0-2,0c-0.7,0-1.3,0-2,0c0,0.7,0,1.4,0,2c0,0.7,0,1.4,0,2
	c0.7,0,1.4,0,2,0C213.5,20.3,214.1,20.3,214.8,20.3z"/>
<path class="st0" d="M214.8,24.3c0.7,0,1.4,0,2,0c0.7,0,1.4,0,2,0c0-0.7,0-1.4,0-2c0-0.7,0-1.4,0-2c-0.7,0-1.4,0-2,0
	c-0.7,0-1.4,0-2,0c0,0.7,0,1.4,0,2C214.8,23,214.8,23.7,214.8,24.3z"/>
<path class="st0" d="M222.9,20.3c0-0.7,0-1.4,0-2s0-1.4,0-2c-0.7,0-1.4,0-2,0c-0.7,0-1.3,0-2,0c0,0.7,0,1.4,0,2c0,0.7,0,1.4,0,2
	c0.7,0,1.4,0,2,0C221.6,20.3,222.2,20.3,222.9,20.3z"/>
<path class="st0" d="M222.9,24.3c0.7,0,1.4,0,2,0c0.7,0,1.3,0,2,0c0-0.7,0-1.4,0-2c0-0.7,0-1.4,0-2c-0.7,0-1.3,0-2,0s-1.3,0-2,0
	c0,0.7,0,1.4,0,2C222.9,23,222.9,23.7,222.9,24.3z"/>
<path class="st0" d="M231,20.3c0-0.7,0-1.4,0-2c0-0.7,0-1.4,0-2c-0.7,0-1.4,0-2,0c-0.7,0-1.3,0-2,0c0,0.7,0,1.4,0,2c0,0.7,0,1.4,0,2
	c0.7,0,1.3,0,2,0S230.3,20.3,231,20.3z"/>
<path class="st0" d="M231,24.3c0.7,0,1.3,0,2,0c0-0.7,0-1.4,0-2c0-0.7,0-1.4,0-2c-0.7,0-1.3,0-2,0c0,0.7,0,1.4,0,2
	C231,23,231,23.7,231,24.3z"/>
<path class="st0" d="M235.1,18.2c0-0.7,0-1.4,0-2c-0.7,0-1.4,0-2,0c0,0.7,0,1.4,0,2c0,0.7,0,1.4,0,2c0.7,0,1.4,0,2,0
	C235.1,19.6,235.1,18.9,235.1,18.2z"/>
<path class="st0" d="M235.1,24.3c0.7,0,1.4,0,2,0c0.7,0,1.4,0,2,0c0-0.7,0-1.4,0-2c0-0.7,0-1.4,0-2c-0.7,0-1.3,0-2,0s-1.4,0-2,0
	c0,0.7,0,1.4,0,2C235.1,23,235.1,23.7,235.1,24.3z"/>
<path class="st0" d="M243.2,20.3c0-0.7,0-1.4,0-2c0-0.7,0-1.4,0-2c-0.7,0-1.3,0-2,0s-1.3,0-2,0c0,0.7,0,1.4,0,2s0,1.4,0,2
	c0.7,0,1.4,0,2,0S242.5,20.3,243.2,20.3z"/>
<path class="st0" d="M243.2,24.3c0.7,0,1.4,0,2,0c0.7,0,1.4,0,2,0c0-0.7,0-1.4,0-2c0-0.7,0-1.4,0-2c-0.7,0-1.4,0-2,0
	c-0.7,0-1.3,0-2,0c0,0.7,0,1.4,0,2C243.2,23,243.2,23.7,243.2,24.3z"/>
<path class="st0" d="M251.3,20.3c0-0.7,0-1.4,0-2c0-0.7,0-1.4,0-2c-0.7,0-1.3,0-2,0s-1.4,0-2,0c0,0.7,0,1.4,0,2s0,1.4,0,2
	c0.7,0,1.4,0,2,0C249.9,20.3,250.6,20.3,251.3,20.3z"/>
<path class="st0" d="M251.3,24.3c0.7,0,1.4,0,2,0c0.7,0,1.4,0,2,0c0-0.7,0-1.4,0-2c0-0.7,0-1.4,0-2c-0.7,0-1.4,0-2,0
	c-0.7,0-1.4,0-2,0c0,0.7,0,1.4,0,2C251.3,23,251.3,23.7,251.3,24.3z"/>
<path class="st0" d="M259.4,20.3c0-0.7,0-1.4,0-2c0-0.7,0-1.4,0-2c-0.7,0-1.3,0-2,0s-1.4,0-2,0c0,0.7,0,1.4,0,2s0,1.4,0,2
	c0.7,0,1.4,0,2,0S258.7,20.3,259.4,20.3z"/>
<path class="st0" d="M259.4,24.3c0.7,0,1.3,0,2,0s1.4,0,2,0c0-0.7,0-1.4,0-2c0-0.7,0-1.4,0-2c-0.7,0-1.4,0-2,0c-0.7,0-1.3,0-2,0
	c0,0.7,0,1.4,0,2C259.4,23,259.4,23.7,259.4,24.3z"/>
<path class="st0" d="M267.5,20.3c0-0.7,0-1.4,0-2s0-1.4,0-2c-0.7,0-1.4,0-2,0c-0.7,0-1.4,0-2,0c0,0.7,0,1.4,0,2s0,1.4,0,2
	c0.7,0,1.4,0,2,0S266.8,20.3,267.5,20.3z"/>
<path class="st0" d="M267.5,24.3c0.7,0,1.4,0,2,0c0.7,0,1.3,0,2,0c0-0.7,0-1.4,0-2c0-0.7,0-1.4,0-2c-0.7,0-1.4,0-2,0
	c-0.7,0-1.4,0-2,0c0,0.7,0,1.4,0,2C267.5,23,267.5,23.7,267.5,24.3z"/>
<path class="st0" d="M275.6,20.3c0-0.7,0-1.4,0-2s0-1.4,0-2c-0.7,0-1.4,0-2,0c-0.7,0-1.3,0-2,0c0,0.7,0,1.4,0,2c0,0.7,0,1.4,0,2
	c0.7,0,1.4,0,2,0C274.3,20.3,274.9,20.3,275.6,20.3z"/>
<path class="st0" d="M275.6,24.3c0.7,0,1.4,0,2,0s1.3,0,2,0c0-0.7,0-1.4,0-2c0-0.7,0-1.4,0-2c-0.7,0-1.4,0-2,0s-1.4,0-2,0
	c0,0.7,0,1.4,0,2C275.6,23,275.6,23.7,275.6,24.3z"/>
<path class="st0" d="M283.7,20.3c0-0.7,0-1.4,0-2s0-1.4,0-2c-0.7,0-1.4,0-2,0c-0.7,0-1.3,0-2,0c0,0.7,0,1.4,0,2c0,0.7,0,1.4,0,2
	c0.7,0,1.3,0,2,0C282.4,20.3,283,20.3,283.7,20.3z"/>
<path class="st0" d="M283.7,24.3c0.7,0,1.4,0,2,0s1.3,0,2,0c0-0.7,0-1.4,0-2c0-0.7,0-1.4,0-2c-0.7,0-1.3,0-2,0s-1.3,0-2,0
	c0,0.7,0,1.4,0,2C283.7,23,283.7,23.7,283.7,24.3z"/>
<path class="st2" d="M283.7,28.4c0.7,0,1.4,0,2,0c0.7,0,1.4,0,2,0c0-0.7,0-1.4,0-2c0-0.7,0-1.4,0-2c-0.7,0-1.3,0-2,0s-1.4,0-2,0"/>
<path class="st2" d="M291.8,20.3c-0.7,0-1.3,0-2,0s-1.4,0-2,0c0,0.7,0,1.4,0,2c0,0.7,0,1.4,0,2c0.7,0,1.3,0,2,0s1.3,0,2,0
	c0-0.7,0-1.4,0-2C291.8,21.6,291.8,20.9,291.8,20.3z"/>
<path class="st2" d="M291.8,24.3c0,0.7,0,1.4,0,2c0,0.7,0,1.4,0,2c0.7,0,1.4,0,2,0c0.7,0,1.4,0,2,0c0-0.7,0-1.4,0-2c0-0.7,0-1.4,0-2
	c-0.7,0-1.4,0-2,0C293.2,24.3,292.5,24.3,291.8,24.3z"/>
<path class="st2" d="M299.9,20.3c-0.7,0-1.4,0-2,0c-0.7,0-1.4,0-2,0c0,0.7,0,1.4,0,2c0,0.7,0,1.4,0,2c0.7,0,1.4,0,2,0
	c0.7,0,1.3,0,2,0c0-0.7,0-1.4,0-2C299.9,21.6,299.9,20.9,299.9,20.3z"/>
<path class="st2" d="M299.9,24.3c0,0.7,0,1.4,0,2c0,0.7,0,1.4,0,2c0.7,0,1.3,0,2,0s1.4,0,2,0c0-0.7,0-1.4,0-2c0-0.7,0-1.4,0-2
	c-0.7,0-1.4,0-2,0S300.6,24.3,299.9,24.3z"/>
<path class="st2" d="M308,20.3c-0.7,0-1.3,0-2,0s-1.3,0-2,0c0,0.7,0,1.4,0,2c0,0.7,0,1.4,0,2c0.7,0,1.4,0,2,0c0.7,0,1.4,0,2,0
	c0-0.7,0-1.4,0-2C308,21.6,308,20.9,308,20.3z"/>
<path class="st2" d="M308,24.3c0,0.7,0,1.4,0,2c0,0.7,0,1.4,0,2c0.7,0,1.4,0,2,0c0.7,0,1.4,0,2,0c0-0.7,0-1.4,0-2c0-0.7,0-1.4,0-2
	c-0.7,0-1.4,0-2,0S308.7,24.3,308,24.3z"/>
<path class="st2" d="M316.1,20.3c-0.7,0-1.4,0-2,0c-0.7,0-1.4,0-2,0c0,0.7,0,1.4,0,2c0,0.7,0,1.4,0,2c0.7,0,1.4,0,2,0
	c0.7,0,1.4,0,2,0c0-0.7,0-1.4,0-2C316.1,21.6,316.1,20.9,316.1,20.3z"/>
<path class="st2" d="M316.1,24.3c0,0.7,0,1.4,0,2c0,0.7,0,1.4,0,2c0.7,0,1.4,0,2,0c0.7,0,1.3,0,2,0c0-0.7,0-1.4,0-2c0-0.7,0-1.4,0-2
	c-0.7,0-1.4,0-2,0S316.8,24.3,316.1,24.3z"/>
<path class="st2" d="M324.2,20.3c-0.7,0-1.4,0-2,0c-0.7,0-1.3,0-2,0c0,0.7,0,1.4,0,2c0,0.7,0,1.4,0,2c0.7,0,1.4,0,2,0
	c0.7,0,1.4,0,2,0c0-0.7,0-1.4,0-2C324.2,21.6,324.2,20.9,324.2,20.3z"/>
<path class="st2" d="M324.2,24.3c0,0.7,0,1.4,0,2c0,0.7,0,1.4,0,2c0.7,0,1.4,0,2,0c0.7,0,1.4,0,2,0c0-0.7,0-1.4,0-2c0-0.7,0-1.4,0-2
	c-0.7,0-1.4,0-2,0S324.9,24.3,324.2,24.3z"/>
<path class="st2" d="M332.3,20.3c-0.7,0-1.4,0-2,0c-0.7,0-1.3,0-2,0c0,0.7,0,1.4,0,2c0,0.7,0,1.4,0,2c0.7,0,1.4,0,2,0
	c0.7,0,1.3,0,2,0c0-0.7,0-1.4,0-2C332.3,21.6,332.3,20.9,332.3,20.3z"/>
<path class="st2" d="M332.3,24.3c0,0.7,0,1.4,0,2c0,0.7,0,1.4,0,2c0.7,0,1.4,0,2,0c0.7,0,1.3,0,2,0c0-0.7,0-1.4,0-2c0-0.7,0-1.4,0-2
	c-0.7,0-1.3,0-2,0C333.7,24.3,333,24.3,332.3,24.3z"/>
<path class="st2" d="M340.5,20.3c-0.7,0-1.4,0-2,0c-0.7,0-1.3,0-2,0c0,0.7,0,1.4,0,2c0,0.7,0,1.4,0,2c0.7,0,1.3,0,2,0s1.3,0,2,0
	c0-0.7,0-1.4,0-2C340.5,21.6,340.5,20.9,340.5,20.3z"/>
<path class="st2" d="M340.4,26.4c0,0.7,0,1.4,0,2c0.7,0,1.3,0,2,0c0-0.7,0-1.4,0-2c0-0.7,0-1.4,0-2c-0.7,0-1.3,0-2,0
	C340.5,25,340.5,25.7,340.4,26.4z"/>
<path class="st2" d="M344.5,20.3c-0.7,0-1.4,0-2,0c0,0.7,0,1.4,0,2c0,0.7,0,1.4,0,2c0.7,0,1.4,0,2,0c0-0.7,0-1.4,0-2
	C344.5,21.6,344.5,20.9,344.5,20.3z"/>
<path class="st2" d="M344.5,24.3c0,0.7,0,1.4,0,2c0,0.7,0,1.4,0,2c0.7,0,1.4,0,2,0c0.7,0,1.4,0,2,0c0-0.7,0-1.4,0-2c0-0.7,0-1.4,0-2
	c-0.7,0-1.3,0-2,0C345.9,24.3,345.2,24.3,344.5,24.3z"/>
<path class="st2" d="M352.6,20.3c-0.7,0-1.3,0-2,0s-1.3,0-2,0c0,0.7,0,1.4,0,2c0,0.7,0,1.4,0,2c0.7,0,1.4,0,2,0c0.7,0,1.4,0,2,0
	c0-0.7,0-1.4,0-2C352.6,21.6,352.6,20.9,352.6,20.3z"/>
<path class="st2" d="M352.6,24.3c0,0.7,0,1.4,0,2c0,0.7,0,1.4,0,2c0.7,0,1.4,0,2,0c0.7,0,1.4,0,2,0c0-0.7,0-1.4,0-2c0-0.7,0-1.4,0-2
	c-0.7,0-1.4,0-2,0S353.3,24.3,352.6,24.3z"/>
<path class="st2" d="M360.7,20.3c-0.7,0-1.3,0-2,0s-1.4,0-2,0c0,0.7,0,1.4,0,2c0,0.7,0,1.4,0,2c0.7,0,1.4,0,2,0c0.7,0,1.3,0,2,0
	c0-0.7,0-1.4,0-2C360.7,21.6,360.7,20.9,360.7,20.3z"/>
<path class="st2" d="M360.7,24.3c0,0.7,0,1.4,0,2c0,0.7,0,1.4,0,2c0.7,0,1.4,0,2,0c0.7,0,1.4,0,2,0c0-0.7,0-1.4,0-2c0-0.7,0-1.4,0-2
	c-0.7,0-1.4,0-2,0S361.4,24.3,360.7,24.3z"/>
<path class="st2" d="M368.8,20.3c-0.7,0-1.3,0-2,0s-1.4,0-2,0c0,0.7,0,1.4,0,2c0,0.7,0,1.4,0,2c0.7,0,1.4,0,2,0c0.7,0,1.4,0,2,0
	c0-0.7,0-1.4,0-2C368.8,21.6,368.8,20.9,368.8,20.3z"/>
<path class="st2" d="M368.8,24.3c0,0.7,0,1.4,0,2c0,0.7,0,1.4,0,2c0.7,0,1.3,0,2,0s1.4,0,2,0c0-0.7,0-1.4,0-2c0-0.7,0-1.4,0-2
	c-0.7,0-1.4,0-2,0C370.2,24.3,369.5,24.3,368.8,24.3z"/>
<path class="st2" d="M376.9,20.3c-0.7,0-1.4,0-2,0c-0.7,0-1.4,0-2,0c0,0.7,0,1.4,0,2c0,0.7,0,1.4,0,2c0.7,0,1.4,0,2,0
	c0.7,0,1.4,0,2,0c0-0.7,0-1.4,0-2C376.9,21.6,376.9,20.9,376.9,20.3z"/>
<path class="st2" d="M376.9,24.3c0,0.7,0,1.4,0,2c0,0.7,0,1.4,0,2c0.7,0,1.4,0,2,0c0.7,0,1.3,0,2,0c0-0.7,0-1.4,0-2c0-0.7,0-1.4,0-2
	c-0.7,0-1.4,0-2,0S377.6,24.3,376.9,24.3z"/>
<path class="st2" d="M385,20.3c-0.7,0-1.4,0-2,0c-0.7,0-1.3,0-2,0c0,0.7,0,1.4,0,2c0,0.7,0,1.4,0,2c0.7,0,1.4,0,2,0c0.7,0,1.4,0,2,0
	c0-0.7,0-1.4,0-2C385,21.6,385,20.9,385,20.3z"/>
<path class="st2" d="M385,24.3c0,0.7,0,1.4,0,2c0,0.7,0,1.4,0,2c0.7,0,1.4,0,2,0c0.7,0,1.3,0,2,0c0-0.7,0-1.4,0-2c0-0.7,0-1.4,0-2
	c-0.7,0-1.4,0-2,0S385.7,24.3,385,24.3z"/>
<path class="st2" d="M393.1,20.3c-0.7,0-1.4,0-2,0s-1.3,0-2,0c0,0.7,0,1.4,0,2c0,0.7,0,1.4,0,2c0.7,0,1.3,0,2,0s1.3,0,2,0
	c0-0.7,0-1.4,0-2C393.1,21.6,393.1,20.9,393.1,20.3z"/>
<path class="st2" d="M393.1,24.3c0,0.7,0,1.4,0,2c0,0.7,0,1.4,0,2c0.7,0,1.4,0,2,0s1.3,0,2,0c0-0.7,0-1.4,0-2c0-0.7,0-1.4,0-2
	c-0.7,0-1.3,0-2,0S393.8,24.3,393.1,24.3z"/>
<path class="st0" d="M283.7,24.3c0.7,0,1.4,0,2,0c0.7,0,1.4,0,2,0c0-0.7,0-1.4,0-2c0-0.7,0-1.4,0-2c-0.7,0-1.3,0-2,0s-1.4,0-2,0"/>
<path class="st0" d="M291.8,20.3c0-0.7,0-1.4,0-2c0-0.7,0-1.4,0-2c-0.7,0-1.3,0-2,0s-1.4,0-2,0c0,0.7,0,1.4,0,2c0,0.7,0,1.4,0,2
	c0.7,0,1.3,0,2,0S291.1,20.3,291.8,20.3z"/>
<path class="st0" d="M291.8,24.3c0.7,0,1.4,0,2,0c0.7,0,1.4,0,2,0c0-0.7,0-1.4,0-2c0-0.7,0-1.4,0-2c-0.7,0-1.4,0-2,0
	c-0.7,0-1.4,0-2,0c0,0.7,0,1.4,0,2C291.8,23,291.8,23.7,291.8,24.3z"/>
<path class="st0" d="M299.9,20.3c0-0.7,0-1.4,0-2c0-0.7,0-1.4,0-2c-0.7,0-1.4,0-2,0c-0.7,0-1.4,0-2,0c0,0.7,0,1.4,0,2s0,1.4,0,2
	c0.7,0,1.4,0,2,0C298.6,20.3,299.2,20.3,299.9,20.3z"/>
<path class="st0" d="M299.9,24.3c0.7,0,1.3,0,2,0s1.4,0,2,0c0-0.7,0-1.4,0-2c0-0.7,0-1.4,0-2c-0.7,0-1.4,0-2,0c-0.7,0-1.3,0-2,0
	c0,0.7,0,1.4,0,2C299.9,23,299.9,23.7,299.9,24.3z"/>
<path class="st0" d="M308,20.3c0-0.7,0-1.4,0-2c0-0.7,0-1.4,0-2c-0.7,0-1.3,0-2,0s-1.3,0-2,0c0,0.7,0,1.4,0,2s0,1.4,0,2
	c0.7,0,1.4,0,2,0C306.7,20.3,307.4,20.3,308,20.3z"/>
<path class="st0" d="M308,24.3c0.7,0,1.4,0,2,0c0.7,0,1.4,0,2,0c0-0.7,0-1.4,0-2c0-0.7,0-1.4,0-2c-0.7,0-1.4,0-2,0c-0.7,0-1.3,0-2,0
	c0,0.7,0,1.4,0,2C308,23,308,23.7,308,24.3z"/>
<path class="st0" d="M316.1,20.3c0-0.7,0-1.4,0-2s0-1.4,0-2c-0.7,0-1.4,0-2,0c-0.7,0-1.4,0-2,0c0,0.7,0,1.4,0,2s0,1.4,0,2
	c0.7,0,1.4,0,2,0C314.8,20.3,315.5,20.3,316.1,20.3z"/>
<path class="st0" d="M316.1,24.3c0.7,0,1.4,0,2,0c0.7,0,1.3,0,2,0c0-0.7,0-1.4,0-2c0-0.7,0-1.4,0-2c-0.7,0-1.4,0-2,0
	c-0.7,0-1.4,0-2,0c0,0.7,0,1.4,0,2C316.1,23,316.1,23.7,316.1,24.3z"/>
<path class="st0" d="M324.2,20.3c0-0.7,0-1.4,0-2s0-1.4,0-2c-0.7,0-1.4,0-2,0c-0.7,0-1.3,0-2,0c0,0.7,0,1.4,0,2c0,0.7,0,1.4,0,2
	c0.7,0,1.4,0,2,0C322.9,20.3,323.6,20.3,324.2,20.3z"/>
<path class="st0" d="M324.2,24.3c0.7,0,1.4,0,2,0c0.7,0,1.4,0,2,0c0-0.7,0-1.4,0-2c0-0.7,0-1.4,0-2c-0.7,0-1.4,0-2,0
	c-0.7,0-1.4,0-2,0c0,0.7,0,1.4,0,2C324.2,23,324.2,23.7,324.2,24.3z"/>
<path class="st0" d="M332.3,20.3c0-0.7,0-1.4,0-2s0-1.4,0-2c-0.7,0-1.4,0-2,0c-0.7,0-1.3,0-2,0c0,0.7,0,1.4,0,2c0,0.7,0,1.4,0,2
	c0.7,0,1.4,0,2,0C331,20.3,331.7,20.3,332.3,20.3z"/>
<path class="st0" d="M332.3,24.3c0.7,0,1.4,0,2,0c0.7,0,1.3,0,2,0c0-0.7,0-1.4,0-2c0-0.7,0-1.4,0-2c-0.7,0-1.3,0-2,0s-1.3,0-2,0
	c0,0.7,0,1.4,0,2C332.3,23,332.3,23.7,332.3,24.3z"/>
<path class="st0" d="M340.5,20.3c0-0.7,0-1.4,0-2c0-0.7,0-1.4,0-2c-0.7,0-1.4,0-2,0c-0.7,0-1.3,0-2,0c0,0.7,0,1.4,0,2
	c0,0.7,0,1.4,0,2c0.7,0,1.3,0,2,0C339.1,20.3,339.8,20.3,340.5,20.3z"/>
<path class="st0" d="M340.5,24.3c0.7,0,1.3,0,2,0c0-0.7,0-1.4,0-2c0-0.7,0-1.4,0-2c-0.7,0-1.3,0-2,0c0,0.7,0,1.4,0,2
	C340.5,23,340.5,23.7,340.5,24.3z"/>
<path class="st0" d="M344.5,18.2c0-0.7,0-1.4,0-2c-0.7,0-1.4,0-2,0c0,0.7,0,1.4,0,2c0,0.7,0,1.4,0,2c0.7,0,1.4,0,2,0
	C344.5,19.6,344.5,18.9,344.5,18.2z"/>
<path class="st0" d="M344.5,24.3c0.7,0,1.4,0,2,0c0.7,0,1.4,0,2,0c0-0.7,0-1.4,0-2c0-0.7,0-1.4,0-2c-0.7,0-1.3,0-2,0s-1.4,0-2,0
	c0,0.7,0,1.4,0,2C344.5,23,344.5,23.7,344.5,24.3z"/>
<path class="st0" d="M352.6,20.3c0-0.7,0-1.4,0-2c0-0.7,0-1.4,0-2c-0.7,0-1.3,0-2,0s-1.3,0-2,0c0,0.7,0,1.4,0,2s0,1.4,0,2
	c0.7,0,1.4,0,2,0C351.3,20.3,351.9,20.3,352.6,20.3z"/>
<path class="st0" d="M352.6,24.3c0.7,0,1.4,0,2,0c0.7,0,1.4,0,2,0c0-0.7,0-1.4,0-2c0-0.7,0-1.4,0-2c-0.7,0-1.4,0-2,0
	c-0.7,0-1.3,0-2,0c0,0.7,0,1.4,0,2C352.6,23,352.6,23.7,352.6,24.3z"/>
<path class="st0" d="M360.7,20.3c0-0.7,0-1.4,0-2c0-0.7,0-1.4,0-2c-0.7,0-1.3,0-2,0s-1.4,0-2,0c0,0.7,0,1.4,0,2s0,1.4,0,2
	c0.7,0,1.4,0,2,0C359.4,20.3,360,20.3,360.7,20.3z"/>
<path class="st0" d="M360.7,24.3c0.7,0,1.4,0,2,0c0.7,0,1.4,0,2,0c0-0.7,0-1.4,0-2c0-0.7,0-1.4,0-2c-0.7,0-1.4,0-2,0
	c-0.7,0-1.4,0-2,0c0,0.7,0,1.4,0,2C360.7,23,360.7,23.7,360.7,24.3z"/>
<path class="st0" d="M368.8,20.3c0-0.7,0-1.4,0-2c0-0.7,0-1.4,0-2c-0.7,0-1.3,0-2,0s-1.4,0-2,0c0,0.7,0,1.4,0,2s0,1.4,0,2
	c0.7,0,1.4,0,2,0C367.5,20.3,368.1,20.3,368.8,20.3z"/>
<path class="st0" d="M368.8,24.3c0.7,0,1.3,0,2,0s1.4,0,2,0c0-0.7,0-1.4,0-2c0-0.7,0-1.4,0-2c-0.7,0-1.4,0-2,0c-0.7,0-1.3,0-2,0
	c0,0.7,0,1.4,0,2C368.8,23,368.8,23.7,368.8,24.3z"/>
<path class="st0" d="M376.9,20.3c0-0.7,0-1.4,0-2s0-1.4,0-2c-0.7,0-1.4,0-2,0c-0.7,0-1.4,0-2,0c0,0.7,0,1.4,0,2s0,1.4,0,2
	c0.7,0,1.4,0,2,0C375.6,20.3,376.3,20.3,376.9,20.3z"/>
<path class="st0" d="M376.9,24.3c0.7,0,1.4,0,2,0c0.7,0,1.3,0,2,0c0-0.7,0-1.4,0-2c0-0.7,0-1.4,0-2c-0.7,0-1.4,0-2,0
	c-0.7,0-1.4,0-2,0c0,0.7,0,1.4,0,2C376.9,23,376.9,23.7,376.9,24.3z"/>
<path class="st0" d="M385,20.3c0-0.7,0-1.4,0-2s0-1.4,0-2c-0.7,0-1.4,0-2,0c-0.7,0-1.3,0-2,0c0,0.7,0,1.4,0,2c0,0.7,0,1.4,0,2
	c0.7,0,1.4,0,2,0C383.7,20.3,384.4,20.3,385,20.3z"/>
<path class="st0" d="M385,24.3c0.7,0,1.4,0,2,0c0.7,0,1.3,0,2,0c0-0.7,0-1.4,0-2c0-0.7,0-1.4,0-2c-0.7,0-1.4,0-2,0c-0.7,0-1.4,0-2,0
	c0,0.7,0,1.4,0,2C385,23,385,23.7,385,24.3z"/>
<path class="st0" d="M393.1,20.3c0-0.7,0-1.4,0-2s0-1.4,0-2c-0.7,0-1.4,0-2,0s-1.3,0-2,0c0,0.7,0,1.4,0,2c0,0.7,0,1.4,0,2
	c0.7,0,1.3,0,2,0S392.5,20.3,393.1,20.3z"/>
<path class="st0" d="M393.1,24.3c0.7,0,1.4,0,2,0s1.3,0,2,0c0-0.7,0-1.4,0-2c0-0.7,0-1.4,0-2c-0.7,0-1.3,0-2,0s-1.3,0-2,0
	c0,0.7,0,1.4,0,2C393.1,23,393.1,23.7,393.1,24.3z"/>
</svg>
