<?xml version="1.0" encoding="utf-8"?>
<!-- Generator: Adobe Illustrator 27.8.1, SVG Export Plug-In . SVG Version: 6.00 Build 0)  -->
<svg version="1.1" id="分離模式" xmlns="http://www.w3.org/2000/svg" xmlns:xlink="http://www.w3.org/1999/xlink" x="0px"
	 y="0px" viewBox="0 0 396.7 125.7" style="enable-background:new 0 0 396.7 125.7;" xml:space="preserve">
<style type="text/css">
	.st0{fill:#21AD10;}
	.st1{fill:#1F1F1F;}
	.st2{fill:#B5DE31;}
</style>
<rect x="2.1" y="6.4" class="st0" width="391.4" height="113.7"/>
<g id="MeshGrid_34_">
	<g>
		<g>
			<path class="st1" d="M396.2,4c0-0.6,0-1.3,0-2c0-0.6,0-1.3,0-2c-0.7,0-1.4,0-2,0.1c-0.6,0-1.3,0-2,0c-0.6,0-1.3,0-2,0
				c-0.7,0-1.3,0-2,0c-0.7,0-1.3,0-2,0c-0.6,0-1.3,0-2,0c-0.6,0-1.3,0-2,0c-0.6,0-1.3,0-2,0c-0.6,0-1.3,0-2,0c-0.7,0-1.3,0-2,0
				c-0.6,0-1.3,0-2,0c-0.6,0-1.3,0-2,0c-0.7,0-1.4,0-2,0c-0.6,0-1.3,0-2,0c-0.6,0-1.3,0-2,0c-0.6,0-1.3,0-2,0c-0.6,0-1.3,0-2,0
				c-0.6,0-1.3,0-2,0c-0.6,0-1.3,0-2,0c-0.7,0-1.3,0-2,0c-0.6,0-1.3,0-2,0c-0.6,0-1.3,0-2,0c-0.6,0-1.3,0-2,0c-0.6,0-1.3,0-2,0
				c-0.6,0-1.3,0-2,0c-0.7,0-1.3,0-2,0c-0.6,0-1.3,0-2,0c-0.6,0-1.3,0-2,0c-0.7,0-1.3,0-2,0c0,0.6,0,1.3,0,2l0,0c0,0.6,0,1.3,0,2
				c-0.7,0-1.3,0-2,0c-0.6,0-1.3,0-2,0c-0.6,0-1.3,0-2,0c-0.7,0-1.3,0-2,0c-0.6,0-1.3,0-2,0c-0.7,0-1.3,0-2,0c-0.6,0-1.3,0-2,0
				c-0.6,0-1.3,0-2,0c-0.6,0-1.3,0-2,0c-0.6,0-1.3,0-2,0c-0.7,0-1.3,0-2,0c-0.6,0-1.3,0-2,0c-0.7,0-1.3,0-2,0c-0.7,0-1.3,0-2,0
				c-0.7,0-1.3,0-2,0c-0.6,0-1.3,0-2,0c-0.6,0-1.3,0-2,0c-0.6,0-1.3,0-2,0c-0.6,0-1.3,0-2,0c-0.6,0-1.3,0-2,0c-0.7,0-1.3,0-2,0
				c-0.7,0-1.3,0-2,0c-0.6,0-1.3,0-2,0c-0.7,0-1.4,0-2,0c-0.6,0-1.3,0-2,0c-0.6,0-1.3,0-2,0c-0.6,0-1.3,0-2,0c-0.7,0-1.3,0-2,0
				c-0.7,0-1.3,0-2,0c-0.6,0-1.3,0-2,0c-0.7,0-1.3,0-2,0c-0.6,0-1.3,0-2,0c-0.6,0-1.3,0-2,0c-0.7,0-1.3,0-2,0c-0.7,0-1.3,0-2,0
				c-0.7,0-1.3,0-2,0c-0.7,0-1.3,0-2,0c-0.6,0-1.3,0-2,0c-0.6,0-1.3,0-2,0c-0.7,0-1.3,0-2,0c-0.6,0-1.3,0-2,0c-0.6,0-1.3,0-2,0
				c-0.6,0-1.3,0-2,0s-1.3,0-2,0s-1.3,0-2,0c-0.6,0-1.3,0-2,0c-0.6,0-1.3,0-2,0c-0.6,0-1.3,0-2,0c-0.6,0-1.3,0-2,0c-0.6,0-1.3,0-2,0
				s-1.3,0-2,0c-0.6,0-1.3,0-2,0c-0.6,0-1.3,0-2,0s-1.3,0-2,0c-0.6,0-1.3,0-2,0s-1.3,0-2,0c-0.6,0-1.3,0-2,0s-1.3,0-2,0s-1.3,0-2,0
				c-0.6,0-215.1,0-215.8,0s-1.3,0-2,0c0,0.7,0,1.3,0,2c0,0.6,0,1.3,0,2c0.7,0,1.3,0,2,0c0.6,0,215.1,0,215.8,0c0.6,0,1.3,0,2,0
				s1.3,0,2,0c0.6,0,1.3,0,2,0s1.3,0,2,0s1.3,0,2,0c0.6,0,1.3,0,2,0c0.6,0,1.3,0,2,0c0.6,0,1.3,0,2,0c0.6,0,1.3,0,2,0s1.3,0,2,0
				c0.6,0,1.3,0,2,0c0.6,0,1.3,0,2,0c0.6,0,1.3,0,2,0c0.6,0,1.3,0,2,0s1.4,0,2,0s1.3,0,2,0c0.6,0,1.3,0,2,0c0.6,0,1.3,0,2,0
				c0.6,0,1.3,0,2,0c0.7,0,1.3,0,2,0c0.6,0,1.3,0,2,0c0.6,0,1.3,0,2,0c0.6,0,1.3,0,2,0c0.6,0,1.3,0,2,0c0.6,0,1.3,0,2,0
				c0.6,0,1.3,0,2,0c0.6,0,1.3,0,2,0c0.6,0,1.3,0,2,0c0.7,0,1.3,0,2,0c0.7,0,1.3,0,2,0c0.7,0,1.3,0,2,0c0.7,0,1.3,0,2,0
				c0.6,0,1.3,0,2,0c0.7,0,1.3,0,2,0c0.7,0,1.4,0,2,0c0.6,0,1.3,0,2,0c0.6,0,1.3,0,2,0c0.6,0,1.3,0,2,0c0.6,0,1.3,0,2,0
				c0.7,0,1.3,0,2,0c0.6,0,1.3,0,2,0c0.6,0,1.3,0,2,0c0.6,0,1.3,0,2,0c0.6,0,1.3,0,2,0c0.6,0,1.3,0,2,0c0.6,0,1.3,0,2,0
				c0.6,0,1.3,0,2,0c0.6,0,1.3,0,2,0c0.7,0,1.3,0,2,0c0.7,0,1.3,0,2,0c0.6,0,1.3,0,2,0c0.6,0,1.3,0,2,0c0.6,0,1.3,0,2,0
				c0.7,0,1.3,0,2,0c0.7,0,1.3,0,2,0c0.6,0,1.3,0,2,0c0.6,0,1.3,0,2,0c0.6,0,1.3,0,2,0c0,0.7,0,1.3,0,2c0,0.6,0,1.3,0,2
				c0,0.6,0,1.3,0,2c0,0.6,0,1.3,0,2c0,0.7,0,1.3,0,2c0,0.6,0,1.3,0,2c0,0.6,0,1.3,0,2c0,0.6,0,1.3,0,2c0,0.6,0,1.3,0,2
				c0,0.6,0,1.3,0,2c0,0.6,0,1.3,0,2c0,0.6,0,1.3,0,2c0,0.6,0,1.3,0,2c0,0.6,0,1.3,0,2c0,0.6,0,1.3,0,2c0,0.6,0,1.3,0,2
				c0,0.6,0,1.3,0,2c0,0.6,0,1.3,0,2c0,0.6,0,1.3,0,2c0,0.6,0,1.3,0,2c0,0.6,0,1.3,0,2c0,0.6,0,1.3,0,2c0,0.6,0,1.3,0,2
				c0,0.6,0,1.3,0,2c0,0.6,0,1.3,0,2c0,0.6,0,1.3,0,2c0,0.6,0,1.3,0,2c0,0.6,0,1.3,0,2c0,0.7,0,1.3,0,2c0,0.6,0,1.3,0,2
				c0,0.6,0,1.3,0,2c0,0.6,0,1.3,0,2c0,0.6,0,1.3,0,2c0,0.6,0,1.3,0,2s0,1.3,0,2c0,0.6,0,1.3,0,2c0,0.6,0,1.3,0,2c0,0.6,0,1.3,0,2
				c0,0.6,0,1.3,0,2c0,0.6,0,1.3,0,2c0,0.6,0,1.3,0,2c0,0.6,0,1.3,0,2c0,0.6,0,1.3,0,2c0,0.6,0,1.4,0,2s0,1.3,0,2c0,0.6,0,1.3,0,2
				c0,0.6,0,1.3,0,2c0,0.6,0,1.3,0,2c0,0.6,0,1.3,0,2c0,0.6,0,1.3,0,2c0,0.6,0,1.3,0,2c0,0.6,0,1.3,0,2c0,0.6,0,1.3,0,2
				c0,0.6,0,1.3,0,2c-0.6,0-1.3,0-2,0c-0.6,0-1.3,0-2,0c-0.7,0-1.3,0-2,0c-0.6,0-1.3,0-2,0c-0.7,0-1.3,0-2,0c-0.6,0-1.3,0-2,0
				c-0.6,0-1.3,0-2,0c-0.6,0-1.3,0-2,0c-0.6,0-1.3,0-2,0c-0.7,0-1.3,0-2,0c-0.6,0-1.3,0-2,0c-0.7,0-1.3,0-2,0c-0.7,0-1.3,0-2,0
				c-0.7,0-1.3,0-2,0c-0.6,0-1.3,0-2,0c-0.6,0-1.3,0-2,0c-0.6,0-1.3,0-2,0c-0.6,0-1.3,0-2,0c-0.6,0-1.3,0-2,0c-0.7,0-1.3,0-2,0
				c-0.6,0-1.3,0-2,0c-0.6,0-1.3,0-2,0c-0.6,0-1.3,0-2,0c-0.7,0-1.3,0-2,0c-0.6,0-1.3,0-2,0c-0.7,0-1.3,0-2,0c-0.7,0-1.3,0-2,0
				c-0.7,0-1.3,0-2,0c-0.6,0-1.3,0-2,0c-0.7,0-1.3,0-2,0c-0.6,0-1.3,0-2,0c-0.6,0-1.3,0-2,0c-0.7,0-1.3,0-2,0c-0.7,0-1.3,0-2,0
				c-0.7,0-1.3,0-2,0c-0.7,0-1.3,0-2,0c-0.6,0-1.3,0-2,0c-0.6,0-1.3,0-2,0c-0.7,0-1.3,0-2,0c-0.6,0-1.3,0-2,0c-0.6,0-1.3,0-2,0
				c-0.6,0-1.3,0-2,0s-1.3,0-2,0s-1.3,0-2,0c-0.6,0-1.3,0-2,0c-0.6,0-1.3,0-2,0c-0.6,0-1.3,0-2,0c-0.6,0-1.3,0-2,0c-0.6,0-1.3,0-2,0
				s-1.3,0-2,0c-0.6,0-1.3,0-2,0c-0.6,0-1.3,0-2,0c-0.6,0-1.3,0-2,0s-1.4,0-2,0s-1.3,0-2,0s-1.3,0-2,0s-1.3,0-2,0s-1.3,0-2,0
				c-0.6,0-215.1,0-215.8,0s-1.3,0-2,0c0,0.6,0,1.3,0,2c0,0.6,0,1.3,0,2c0.7,0,1.3,0,2,0c0.6,0,215.1,0,215.8,0c0.6,0,1.3,0,2,0
				s1.3,0,2,0c0.6,0,1.3,0,2,0s1.3,0,2,0s1.3,0,2,0s1.3,0,2,0c0.6,0,1.3,0,2,0c0.6,0,1.3,0,2,0c0.6,0,1.3,0,2,0s1.3,0,2,0
				c0.6,0,1.3,0,2,0c0.6,0,1.3,0,2,0c0.6,0,1.3,0,2,0c0.6,0,1.3,0,2,0s1.4,0,2,0s1.3,0,2,0c0.6,0,1.3,0,2,0c0.6,0,1.3,0,2,0
				c0.6,0,1.3,0,2,0c0.7,0,1.3,0,2,0c0.6,0,1.3,0,2,0c0.6,0,1.3,0,2,0c0.6,0,1.3,0,2,0c0.6,0,1.3,0,2,0c0.6,0,1.3,0,2,0
				c0.6,0,1.3,0,2,0c0.6,0,1.3,0,2,0c0.6,0,1.3,0,2,0c0.7,0,1.3,0,2,0c0.7,0,1.3,0,2,0c0.7,0,1.3,0,2,0c0.7,0,1.3,0,2,0
				c0.6,0,1.3,0,2,0c0.7,0,1.3,0,2,0c0.6,0,1.3,0,2,0c0.6,0,1.3,0,2,0c0.6,0,1.3,0,2,0c0.6,0,1.3,0,2,0c0.6,0,1.3,0,2,0
				c0.7,0,1.3,0,2,0c0.6,0,1.3,0,2,0c0.6,0,1.3,0,2,0c0.6,0,1.3,0,2,0c0.6,0,1.3,0,2,0c0.6,0,1.3,0,2,0c0.6,0,1.3,0,2,0
				c0.6,0,1.3,0,2,0c0.6,0,1.3,0,2,0c0.7,0,1.3,0,2,0c0.7,0,1.3,0,2,0c0.6,0,1.3,0,2,0c0.6,0,1.3,0,2,0c0.6,0,1.3,0,2,0
				c0.7,0,1.3,0,2,0c0.7,0,1.3,0,2,0c0.6,0,1.3,0,2,0c0.6,0,1.3,0,2,0c0.6,0,1.3,0,2,0c0.6,0,1.3,0,2,0c0,0.6,0,1.3,0,2
				c0,0.6,0,1.3,0,2c0.7,0,1.3,0,2,0s1.3,0,2,0s1.3,0,2,0c0.6,0,1.3,0,2,0s1.3,0,2,0s1.3,0,2,0c0.6,0,1.3,0,2,0c0.6,0,1.3,0,2,0
				s1.3,0,2,0c0.6,0,1.3,0,2,0s1.3,0,2,0c0.6,0,1.3,0,2,0c0.6,0,1.3,0,2,0c0.6,0,1.3,0,2,0c0.6,0,1.3,0,2,0s1.3,0,2,0s1.3,0,2,0
				c0.6,0,1.3,0,2,0c0.6,0,1.3,0,2,0s1.3,0,2,0s1.3,0,2,0c0.6,0,1.3,0,2,0c0.6,0,1.3,0,2,0s1.3,0,2,0s1.3,0,2,0s1.3,0,2,0
				c0.6,0,1.3,0,2,0c0.6,0,1.3,0,2,0c0.6,0,1.3,0,2,0c0-0.6,0-1.3,0-2c0-0.6,0-1.3,0-2c0-0.6,0-1.3,0-2c0-0.6,0-1.3,0-2
				c0-0.6,0-1.3,0-2c0-0.6,0-1.3,0-2c0-0.6,0-1.3,0-2c0-0.6,0-1.3,0-2c0-0.6,0-1.3,0-2c0-0.6,0-1.3,0-2c0-0.6,0-1.3,0-2
				c0-0.6,0-1.3,0-2c0-0.6,0-1.3,0-2c0-0.6,0-1.4,0-2s0-1.3,0-2c0-0.6,0-1.3,0-2c0-0.6,0-1.3,0-2c0-0.6,0-1.3,0-2c0-0.6,0-1.3,0-2
				c0-0.6,0-1.3,0-2c0-0.6,0-1.3,0-2c0-0.6,0-1.3,0-2c0-0.6,0-1.3,0-2c0-0.6,0-1.3,0-2c0-0.6,0-1.3,0-2c0-0.6,0-1.3,0-2s0-1.3,0-2
				s0-1.3,0-2l0,0c0-0.6,0-1.3,0-2s0-1.3,0-2c0-0.6,0-1.3,0-2c0-0.6,0-1.3,0-2c0-0.6,0-1.3,0-2c0-0.6,0-1.3,0-2c0-0.6,0-1.3,0-2
				c0-0.6,0-1.3,0-2c0-0.6,0-1.3,0-2c0-0.6,0-1.3,0-2c0-0.6,0-1.3,0-2c0-0.6,0-1.3,0-2c0-0.6,0-1.3,0-2c0-0.6,0-1.3,0-2
				c0-0.6,0-1.3,0-2c0-0.6,0-1.3,0-2c0-0.6,0-1.3,0-2c0-0.6,0-1.3,0-2c0-0.6,0-1.3,0-2c0-0.6,0-1.3,0-2c0-0.6,0-1.3,0-2
				c0-0.6,0-1.3,0-2c0-0.6,0-1.3,0-2c0-0.6,0-1.3,0-2c0-0.6,0-1.3,0-2c0-0.6,0-1.3,0-2c0-0.6,0-1.3,0-2c0-0.6,0-1.3,0-2
				c0-0.6,0-1.3,0-2c0-0.6,0-1.3,0-2l0,0c0-0.6,0-1.3,0-2S396.2,4.7,396.2,4z M341.5,4.1c0.7,0,1.3,0,2,0c0.6,0,1.3,0,2,0
				c0.7,0,1.3,0,2,0c0.7,0,1.3,0,2,0c0.6,0,1.3,0,2,0c0.6,0,1.3,0,2,0c0.7,0,1.3,0,2,0c0.6,0,1.3,0,2,0c0.7,0,1.3,0,2,0
				c0.6,0,1.3,0,2,0c0.6,0,1.3,0,2,0c0.6,0,1.3,0,2,0c0.6,0,1.3,0,2,0c0.7,0,1.3,0,2,0c0.7,0,1.3,0,2,0c0.6,0,1.3,0,2,0
				c0.6,0,1.3,0,2,0c0.7,0,1.3,0,2,0c0.7,0,1.3,0,2,0c0.6,0,1.3,0,2,0c0.6,0,1.3,0,2,0c0.7,0,1.3,0,2,0c0.7,0,1.3,0,2,0
				c0.7,0,1.3,0,2,0c0.6,0,1.3,0,2,0c0.6,0,1.3,0,2,0c0,0.6,0,1.3,0,2c0,0.6,0,1.3,0,2s0,1.3,0,2c0,0.6,0,1.3,0,2c0,0.6,0,1.3,0,2
				c0,0.6,0,1.3,0,2c0,0.6,0,1.3,0,2c0,0.6,0,1.3,0,2c0,0.6,0,1.3,0,2c0,0.6,0,1.3,0,2c0,0.6,0,1.3,0,2c0,0.6,0,1.3,0,2
				c0,0.6,0,1.3,0,2c0,0.6,0,1.3,0,2c0,0.6,0,1.3,0,2c0,0.6,0,1.3,0,2c0,0.6,0,1.3,0,2c0,0.6,0,1.3,0,2c0,0.6,0,1.3,0,2
				c0,0.6,0,1.3,0,2c0,0.6,0,1.3,0,2c0,0.6,0,1.3,0,2c0,0.6,0,1.3,0,2c0,0.6,0,1.3,0,2c0,0.6,0,1.3,0,2c0,0.6,0,1.3,0,2
				c0,0.6,0,1.3,0,2c0,0.6,0,1.3,0,2c0,0.6,0,1.3,0,2c0,0.6,0,1.3,0,2c0,0.6,0,1.3,0,2c0,0.6,0,1.3,0,2s0,1.3,0,2c0,0.6,0,1.3,0,2
				c0,0.6,0,1.3,0,2c0,0.6,0,1.3,0,2c0,0.6,0,1.3,0,2c0,0.6,0,1.3,0,2c0,0.6,0,1.3,0,2c0,0.6,0,1.3,0,2c0,0.6,0,1.3,0,2
				c0,0.6,0,1.3,0,2c0,0.6,0,1.3,0,2c0,0.6,0,1.3,0,2c0,0.6,0,1.3,0,2c0,0.6,0,1.4,0,2s0,1.3,0,2c0,0.6,0,1.3,0,2c0,0.6,0,1.3,0,2
				c0,0.6,0,1.3,0,2c0,0.6,0,1.3,0,2c0,0.6,0,1.3,0,2c0,0.6,0,1.3,0,2c0,0.6,0,1.3,0,2c0,0.6,0,1.3,0,2c0,0.6,0,1.3,0,2
				c0,0.6,0,1.3,0,2c0,0.6,0,1.3,0,2c-0.6,0-1.3,0-2,0c-0.7,0-1.3,0-2,0c-0.7,0-1.3,0-2,0c-0.7,0-1.3,0-2,0c-0.7,0-1.3,0-2,0
				c-0.6,0-1.3,0-2,0c-0.6,0-1.3,0-2,0c-0.6,0-1.3,0-2,0c-0.7,0-1.3,0-2,0c-0.6,0-1.3,0-2,0c-0.6,0-1.3,0-2,0c-0.7,0-1.3,0-2,0
				c-0.7,0-1.3,0-2,0c-0.6,0-1.3,0-2,0c-0.6,0-1.3,0-2,0c-0.6,0-1.3,0-2,0c-0.6,0-1.3,0-2,0c-0.7,0-1.3,0-2,0c-0.7,0-1.3,0-2,0
				c-0.6,0-1.3,0-2,0c-0.6,0-1.3,0-2,0c-0.6,0-1.3,0-2,0c-0.7,0-1.3,0-2,0c-0.6,0-1.3,0-2,0c-0.7,0-1.3,0-2,0c-0.7,0-1.3,0-2,0
				c0-0.6,0-1.3,0-2c0-0.6,0-1.3,0-2c0-0.6,0-1.3,0-2c0-0.6,0-1.3,0-2c0-0.6,0-1.3,0-2c0-0.6,0-1.3,0-2c0-0.6,0-1.3,0-2
				c0-0.6,0-1.3,0-2c0-0.6,0-1.3,0-2c0-0.6,0-1.3,0-2c0-0.6,0-1.3,0-2c0-0.6,0-1.3,0-2c0-0.6,0-1.3,0-2c0-0.6,0-1.3,0-2
				c0-0.6,0-1.3,0-2c0-0.6,0-1.3,0-2c0-0.6,0-1.3,0-2c0-0.6,0-1.3,0-2c0-0.6,0-1.3,0-2c0-0.6,0-1.3,0-2c0-0.6,0-1.3,0-2
				c0-0.6,0-1.3,0-2c0-0.6,0-1.3,0-2c0-0.6,0-1.3,0-2c0-0.6,0-1.3,0-2c0-0.6,0-1.3,0-2c0-0.6,0-1.3,0-2s0-1.3,0-2c0-0.7,0-1.3,0-2
				c0-0.6,0-1.3,0-2c0-0.6,0-1.3,0-2c0-0.6,0-1.3,0-2c0-0.6,0-1.3,0-2c0-0.6,0-1.3,0-2c0-0.6,0-1.3,0-2c0-0.6,0-1.3,0-2
				c0-0.6,0-1.3,0-2c0-0.6,0-1.3,0-2c0-0.6,0-1.3,0-2c0-0.6,0-1.3,0-2c0-0.6,0-1.3,0-2c0-0.6,0-1.3,0-2c0-0.6,0-1.3,0-2
				c0-0.6,0-1.3,0-2c0-0.6,0-1.3,0-2c0-0.6,0-1.3,0-2c0-0.6,0-1.3,0-2c0-0.6,0-1.3,0-2c0-0.6,0-1.3,0-2c0-0.6,0-1.3,0-2
				c0-0.6,0-1.3,0-2c0-0.6,0-1.3,0-2c0-0.6,0-1.3,0-2c0-0.6,0-1.3,0-2c0-0.6,0-1.3,0-2c0-0.6,0-1.3,0-2c0-0.6,0-1.3,0-2
				S341.5,4.7,341.5,4.1z"/>
			<path class="st1" d="M396.2,0c0,0.6,0,1.3,0,2l0,0c0,0.6,0,1.3,0,2c0,0.6,0,1.3,0,2c0,0.6,0,1.3,0,2s0,1.3,0,2c0,0.6,0,1.3,0,2
				c0,0.6,0,1.3,0,2c0,0.6,0,1.3,0,2c0,0.6,0,1.3,0,2c0,0.6,0,1.3,0,2c0,0.6,0,1.3,0,2c0,0.6,0,1.3,0,2c0,0.6,0,1.3,0,2
				c0,0.6,0,1.3,0,2c0,0.6,0,1.3,0,2c0,0.6,0,1.3,0,2c0,0.6,0,1.3,0,2c0,0.6,0,1.3,0,2c0,0.6,0,1.3,0,2c0,0.6,0,1.3,0,2
				c0,0.6,0,1.3,0,2c0,0.6,0,1.3,0,2c0,0.6,0,1.3,0,2c0,0.6,0,1.3,0,2c0,0.6,0,1.3,0,2c0,0.6,0,1.3,0,2c0,0.6,0,1.3,0,2
				c0,0.6,0,1.3,0,2c0,0.6,0,1.3,0,2c0,0.6,0,1.3,0,2c0,0.6,0,1.3,0,2c0,0.6,0,1.3,0,2c0,0.6,0,1.3,0,2c0,0.6,0,1.3,0,2s0,1.3,0,2
				c0,0.6,0,1.3,0,2c0,0.6,0,1.3,0,2c0,0.6,0,1.3,0,2c0,0.6,0,1.3,0,2c0,0.6,0,1.3,0,2c0,0.6,0,1.3,0,2c0,0.6,0,1.3,0,2
				c0,0.6,0,1.3,0,2c0,0.6,0,1.3,0,2c0,0.6,0,1.3,0,2c0,0.6,0,1.3,0,2c0,0.6,0,1.3,0,2c0,0.6,0,1.4,0,2s0,1.3,0,2c0,0.6,0,1.3,0,2
				c0,0.6,0,1.3,0,2c0,0.6,0,1.3,0,2c0,0.6,0,1.3,0,2c0,0.6,0,1.3,0,2c0,0.6,0,1.3,0,2c0,0.6,0,1.3,0,2c0,0.6,0,1.3,0,2
				c0,0.6,0,1.3,0,2c0,0.6,0,1.3,0,2c0,0.6,0,1.3,0,2c0,0.6,0,1.3,0,2c0,0.6,0,1.3,0,2c0.6,0,1.3,0,2,0c0-0.6,0-1.3,0-2
				c0-0.6,0-1.3,0-2c0-0.6,0-1.3,0-2c0-0.6,0-1.3,0-2c0-0.6,0-1.3,0-2c0-0.6,0-1.3,0-2c0-0.6,0-1.3,0-2c0-0.6,0-1.3,0-2
				c0-0.6,0-1.3,0-2c0-0.6,0-1.3,0-2c0-0.6,0-1.3,0-2c0-0.6,0-1.3,0-2c0-0.6,0-1.3,0-2c0-0.6,0-1.4,0-2s0-1.3,0-2c0-0.6,0-1.3,0-2
				c0-0.6,0-1.3,0-2c0-0.6,0-1.3,0-2c0-0.6,0-1.3,0-2c0-0.6,0-1.3,0-2c0-0.6,0-1.3,0-2c0-0.6,0-1.3,0-2c0-0.6,0-1.3,0-2
				c0-0.6,0-1.3,0-2c0-0.6,0-1.3,0-2c0-0.6,0-1.3,0-2s0-1.3,0-2c0-0.6,0-1.3,0-2c0-0.6,0-1.3,0-2s0-1.3,0-2c0-0.6,0-1.3,0-2
				c0-0.6,0-1.3,0-2c0-0.6,0-1.3,0-2c0-0.6,0-1.3,0-2c0-0.6,0-1.3,0-2c0-0.6,0-1.3,0-2c0-0.6,0-1.3,0-2c0-0.6,0-1.3,0-2
				c0-0.6,0-1.3,0-2c0-0.6,0-1.3,0-2c0-0.6,0-1.3,0-2c0-0.6,0-1.3,0-2c0-0.6,0-1.3,0-2c0-0.6,0-1.3,0-2c0-0.6,0-1.3,0-2
				c0-0.6,0-1.3,0-2c0-0.6,0-1.3,0-2c0-0.6,0-1.3,0-2c0-0.6,0-1.3,0-2c0-0.6,0-1.3,0-2c0-0.6,0-1.3,0-2c0-0.6,0-1.3,0-2
				c0-0.6,0-1.3,0-2c0-0.6,0-1.3,0-2c0-0.6,0-1.3,0-2c0-0.6,0-1.3,0-2c0-0.6,0-1.3,0-2c0-0.6,0-1.3,0-2c0-0.6,0-1.3,0-2s0-1.3,0-2
				c0-0.6,0-1.3,0-2c0-0.6,0-1.3,0-2C397.5,0,396.8,0,396.2,0z"/>
		</g>
		<g>
			<path class="st2" d="M394.1,4.1c-0.6,0-1.3,0-2,0c-0.7,0-1.3,0-2,0c0,0.6,0,1.3,0,2c0,0.6,0,1.3,0,2s0,1.3,0,2c0,0.6,0,1.3,0,2
				c0,0.6,0,1.3,0,2c0,0.6,0,1.3,0,2c0,0.6,0,1.3,0,2c0,0.6,0,1.3,0,2c0,0.6,0,1.3,0,2c0,0.6,0,1.3,0,2c0,0.6,0,1.3,0,2
				c0,0.6,0,1.3,0,2c0,0.6,0,1.3,0,2c0,0.6,0,1.3,0,2c0,0.6,0,1.3,0,2c0,0.6,0,1.3,0,2c0,0.6,0,1.3,0,2c0,0.6,0,1.3,0,2
				c0,0.6,0,1.3,0,2c0,0.6,0,1.3,0,2c0,0.6,0,1.3,0,2c0,0.6,0,1.3,0,2c0,0.6,0,1.3,0,2c0,0.6,0,1.3,0,2c0,0.6,0,1.3,0,2
				c0,0.6,0,1.3,0,2c0,0.6,0,1.3,0,2c0,0.6,0,1.3,0,2c0,0.6,0,1.3,0,2c0,0.6,0,1.3,0,2c0,0.6,0,1.3,0,2c0,0.6,0,1.3,0,2s0,1.3,0,2
				c0,0.6,0,1.3,0,2c0,0.6,0,1.3,0,2c0,0.6,0,1.3,0,2c-0.7,0-1.3,0-2,0c-0.7,0-1.3,0-2,0c-0.7,0-1.3,0-2,0c-0.6,0-1.3,0-2,0
				c-0.6,0-1.3,0-2,0c-0.6,0-1.3,0-2,0c-0.7,0-1.3,0-2,0c-0.6,0-1.3,0-2,0c-0.6,0-1.3,0-2,0c-0.7,0-1.3,0-2,0c-0.7,0-1.3,0-2,0
				c-0.6,0-1.3,0-2,0c-0.6,0-1.3,0-2,0c-0.6,0-1.3,0-2,0c-0.6,0-1.3,0-2,0c-0.7,0-1.3,0-2,0c-0.7,0-1.3,0-2,0c-0.6,0-1.3,0-2,0
				c-0.6,0-1.3,0-2,0c-0.6,0-1.3,0-2,0c-0.7,0-1.3,0-2,0c-0.6,0-1.3,0-2,0c-0.7,0-1.3,0-2,0c-0.7,0-1.3,0-2,0c0,0.6,0,1.3,0,2
				c0,0.6,0,1.3,0,2c0,0.6,0,1.3,0,2c0,0.6,0,1.3,0,2c0,0.6,0,1.3,0,2c0,0.6,0,1.3,0,2c0,0.6,0,1.3,0,2c0,0.6,0,1.3,0,2
				c0,0.6,0,1.3,0,2c0,0.6,0,1.3,0,2c0,0.6,0,1.3,0,2c0,0.6,0,1.3,0,2c0.7,0,1.3,0,2,0c0.6,0,1.3,0,2,0c0.6,0,1.3,0,2,0
				c0.6,0,1.3,0,2,0c0.7,0,1.3,0,2,0c0.6,0,1.3,0,2,0c0.6,0,1.3,0,2,0c0.6,0,1.3,0,2,0c0.7,0,1.3,0,2,0c0.6,0,1.3,0,2,0
				c0.6,0,1.3,0,2,0c0.6,0,1.3,0,2,0c0.6,0,1.3,0,2,0c0.7,0,1.3,0,2,0c0.7,0,1.3,0,2,0c0.6,0,1.3,0,2,0c0.6,0,1.3,0,2,0
				c0.7,0,1.3,0,2,0c0.7,0,1.3,0,2,0c0.6,0,1.3,0,2,0c0.6,0,1.3,0,2,0c0.7,0,1.3,0,2,0c0.7,0,1.3,0,2,0c0.7,0,1.3,0,2,0
				c0,0.6,0,1.3,0,2c0,0.6,0,1.3,0,2c0,0.6,0,1.3,0,2c0,0.6,0,1.3,0,2c0,0.6,0,1.3,0,2c0,0.6,0,1.3,0,2c0,0.6,0,1.3,0,2
				c0,0.6,0,1.3,0,2c0,0.6,0,1.3,0,2c0,0.6,0,1.3,0,2c0.6,0,1.3,0,2,0c0.6,0,1.3,0,2,0c0-0.6,0-1.3,0-2c0-0.6,0-1.3,0-2
				c0-0.6,0-1.3,0-2c0-0.6,0-1.3,0-2c0-0.6,0-1.3,0-2c0-0.6,0-1.3,0-2c0-0.6,0-1.3,0-2c0-0.6,0-1.3,0-2c0-0.6,0-1.3,0-2
				c0-0.6,0-1.3,0-2c0-0.6,0-1.3,0-2c0-0.6,0-1.4,0-2s0-1.3,0-2c0-0.6,0-1.3,0-2c0-0.6,0-1.3,0-2c0-0.6,0-1.3,0-2c0-0.6,0-1.3,0-2
				c0-0.6,0-1.3,0-2c0-0.6,0-1.3,0-2c0-0.6,0-1.3,0-2c0-0.6,0-1.3,0-2c0-0.6,0-1.3,0-2c0-0.6,0-1.3,0-2c0-0.6,0-1.3,0-2
				c0-0.6,0-1.3,0-2s0-1.3,0-2c0-0.6,0-1.3,0-2s0-1.3,0-2c0-0.6,0-1.3,0-2c0-0.6,0-1.3,0-2c0-0.6,0-1.3,0-2c0-0.6,0-1.3,0-2
				c0-0.6,0-1.3,0-2c0-0.6,0-1.3,0-2c0-0.6,0-1.3,0-2c0-0.6,0-1.3,0-2c0-0.6,0-1.3,0-2c0-0.6,0-1.3,0-2c0-0.6,0-1.3,0-2
				c0-0.6,0-1.3,0-2c0-0.6,0-1.3,0-2c0-0.6,0-1.3,0-2c0-0.6,0-1.3,0-2c0-0.6,0-1.3,0-2c0-0.6,0-1.3,0-2c0-0.6,0-1.3,0-2
				c0-0.6,0-1.3,0-2c0-0.6,0-1.3,0-2c0-0.6,0-1.3,0-2c0-0.6,0-1.3,0-2c0-0.6,0-1.3,0-2c0-0.6,0-1.3,0-2c0-0.6,0-1.3,0-2
				c0-0.6,0-1.3,0-2c0-0.6,0-1.3,0-2c0-0.6,0-1.3,0-2c0-0.6,0-1.3,0-2S394.1,4.7,394.1,4.1z"/>
			<path class="st2" d="M386,6.1c0-0.6,0-1.3,0-2c-0.7,0-1.3,0-2,0c-0.6,0-1.3,0-2,0c-0.6,0-1.3,0-2,0c-0.6,0-1.3,0-2,0
				c-0.7,0-1.3,0-2,0c-0.6,0-1.3,0-2,0c-0.6,0-1.3,0-2,0c-0.7,0-1.3,0-2,0c-0.7,0-1.3,0-2,0c-0.6,0-1.3,0-2,0c-0.6,0-1.3,0-2,0
				c-0.6,0-1.3,0-2,0c-0.6,0-1.3,0-2,0c-0.7,0-1.3,0-2,0c-0.7,0-1.3,0-2,0c-0.7,0-1.3,0-2,0c-0.6,0-1.3,0-2,0c-0.6,0-1.3,0-2,0
				c-0.6,0-1.3,0-2,0c-0.6,0-1.3,0-2,0c-0.6,0-1.3,0-2,0c-0.7,0-1.3,0-2,0c0,0.7,0,1.3,0,2c0,0.6,0,1.3,0,2c0,0.6,0,1.3,0,2
				c0,0.6,0,1.3,0,2c0.7,0,1.3,0,2,0c0.6,0,1.3,0,2,0c0,0.6,0,1.3,0,2c0,0.6,0,1.3,0,2c0.6,0,1.3,0,2,0c0.6,0,1.3,0,2,0
				c0-0.6,0-1.3,0-2c0-0.6,0-1.3,0-2c0.7,0,1.3,0,2,0c0.6,0,1.3,0,2,0c0,0.6,0,1.3,0,2c0,0.6,0,1.3,0,2c0.6,0,1.3,0,2,0
				c0.6,0,1.3,0,2,0c0-0.6,0-1.3,0-2c0-0.6,0-1.3,0-2c0.7,0,1.3,0,2,0c0.6,0,1.3,0,2,0c0,0.6,0,1.3,0,2c0,0.6,0,1.3,0,2
				c0.6,0,1.3,0,2,0c0.6,0,1.3,0,2,0c0-0.6,0-1.3,0-2c0-0.6,0-1.3,0-2c0.6,0,1.3,0,2,0c0.7,0,1.3,0,2,0c0,0.6,0,1.3,0,2
				c0,0.6,0,1.3,0,2c0.7,0,1.3,0,2,0c0.6,0,1.3,0,2,0c0-0.6,0-1.3,0-2c0-0.6,0-1.3,0-2c0.6,0,1.3,0,2,0c0.7,0,1.3,0,2,0
				c0,0.6,0,1.3,0,2c0,0.6,0,1.3,0,2c0.7,0,1.3,0,2,0c0.6,0,1.3,0,2,0c0-0.6,0-1.3,0-2c0-0.6,0-1.3,0-2c0.6,0,1.3,0,2,0
				c0.7,0,1.3,0,2,0c0-0.6,0-1.3,0-2c0-0.6,0-1.3,0-2C386,7.4,386,6.8,386,6.1z"/>
			<path class="st2" d="M382,18.2c0,0.6,0,1.3,0,2c0.6,0,1.3,0,2,0c0.7,0,1.3,0,2,0c0-0.6,0-1.3,0-2c0-0.6,0-1.3,0-2
				c-0.7,0-1.3,0-2,0c-0.6,0-1.3,0-2,0C382,16.9,382,17.6,382,18.2z"/>
			<path class="st2" d="M380,20.3c-0.6,0-1.3,0-2,0c0,0.6,0,1.3,0,2c0,0.6,0,1.3,0,2c0.7,0,1.3,0,2,0c0.6,0,1.3,0,2,0
				c0-0.6,0-1.3,0-2c0-0.6,0-1.3,0-2C381.3,20.3,380.6,20.3,380,20.3z"/>
			<path class="st2" d="M373.9,18.2c0,0.6,0,1.3,0,2c0.6,0,1.3,0,2,0c0.7,0,1.3,0,2,0c0-0.6,0-1.3,0-2c0-0.6,0-1.3,0-2
				c-0.7,0-1.3,0-2,0c-0.6,0-1.3,0-2,0C373.9,16.9,373.9,17.6,373.9,18.2z"/>
			<path class="st2" d="M371.9,20.3c-0.7,0-1.3,0-2,0c0,0.6,0,1.3,0,2c0,0.6,0,1.3,0,2c0.7,0,1.3,0,2,0c0.6,0,1.3,0,2,0
				c0-0.6,0-1.3,0-2c0-0.6,0-1.3,0-2C373.2,20.3,372.5,20.3,371.9,20.3z"/>
			<path class="st2" d="M365.8,18.2c0,0.6,0,1.3,0,2c0.6,0,1.3,0,2,0c0.7,0,1.3,0,2,0c0-0.6,0-1.3,0-2c0-0.6,0-1.3,0-2
				c-0.7,0-1.3,0-2,0c-0.6,0-1.3,0-2,0C365.8,16.9,365.8,17.6,365.8,18.2z"/>
			<path class="st2" d="M363.8,20.3c-0.6,0-1.3,0-2,0c0,0.6,0,1.3,0,2c0,0.6,0,1.3,0,2c0.6,0,1.3,0,2,0c0.6,0,1.3,0,2,0
				c0-0.6,0-1.3,0-2c0-0.6,0-1.3,0-2C365.1,20.3,364.4,20.3,363.8,20.3z"/>
			<path class="st2" d="M357.7,18.2c0,0.6,0,1.3,0,2c0.7,0,1.3,0,2,0c0.6,0,1.3,0,2,0c0-0.6,0-1.4,0-2s0-1.3,0-2c-0.6,0-1.3,0-2,0
				s-1.3,0-2,0C357.7,16.9,357.7,17.6,357.7,18.2z"/>
			<path class="st2" d="M355.7,20.3c-0.6,0-1.3,0-2,0c0,0.6,0,1.3,0,2c0,0.6,0,1.3,0,2c0.6,0,1.3,0,2,0c0.6,0,1.3,0,2,0
				c0-0.6,0-1.3,0-2c0-0.6,0-1.3,0-2C357,20.3,356.3,20.3,355.7,20.3z"/>
			<path class="st2" d="M349.6,18.2c0,0.6,0,1.3,0,2c0.7,0,1.3,0,2,0c0.6,0,1.3,0,2,0c0-0.6,0-1.4,0-2s0-1.3,0-2c-0.6,0-1.3,0-2,0
				c-0.6,0-1.3,0-2,0C349.6,16.9,349.6,17.6,349.6,18.2z"/>
			<path class="st2" d="M347.6,20.3c-0.6,0-1.3,0-2,0c0,0.6,0,1.3,0,2c0,0.6,0,1.3,0,2c0.6,0,1.3,0,2,0c0.6,0,1.3,0,2,0
				c0-0.6,0-1.3,0-2c0-0.6,0-1.3,0-2C348.9,20.3,348.2,20.3,347.6,20.3z"/>
			<path class="st2" d="M345.5,18.3c0-0.6,0-1.3,0-2c-0.7,0-1.3,0-2,0c-0.7,0-1.3,0-2,0c0,0.6,0,1.3,0,2c0,0.6,0,1.3,0,2
				c0.7,0,1.3,0,2,0c0.6,0,1.3,0,2,0C345.5,19.6,345.5,18.9,345.5,18.3z"/>
			<path class="st2" d="M341.5,68.9c0,0.6,0,1.3,0,2c0,0.6,0,1.3,0,2c0.7,0,1.3,0,2,0c0.6,0,1.3,0,2,0c0.6,0,1.3,0,2,0
				c0.6,0,1.3,0,2,0c0.7,0,1.3,0,2,0c0.6,0,1.3,0,2,0c0.6,0,1.3,0,2,0c0.6,0,1.3,0,2,0c0.7,0,1.3,0,2,0c0.6,0,1.3,0,2,0
				c0.6,0,1.3,0,2,0c0.6,0,1.3,0,2,0c0.6,0,1.3,0,2,0c0.7,0,1.3,0,2,0c0.7,0,1.3,0,2,0c0.6,0,1.3,0,2,0c0.6,0,1.3,0,2,0
				c0.7,0,1.3,0,2,0c0.7,0,1.3,0,2,0c0.6,0,1.3,0,2,0c0.6,0,1.3,0,2,0c0.7,0,1.3,0,2,0c0-0.6,0-1.3,0-2c0-0.6,0-1.3,0-2
				c0-0.6,0-1.3,0-2c0-0.6,0-1.3,0-2c-0.7,0-1.3,0-2,0c-0.6,0-1.3,0-2,0c-0.6,0-1.3,0-2,0c-0.6,0-1.3,0-2,0c-0.7,0-1.3,0-2,0
				c-0.6,0-1.3,0-2,0c-0.6,0-1.3,0-2,0c-0.7,0-1.3,0-2,0c-0.7,0-1.3,0-2,0c-0.6,0-1.3,0-2,0c-0.6,0-1.3,0-2,0c-0.6,0-1.3,0-2,0
				c-0.6,0-1.3,0-2,0c-0.7,0-1.3,0-2,0c-0.7,0-1.3,0-2,0c-0.7,0-1.3,0-2,0c-0.6,0-1.3,0-2,0c-0.6,0-1.3,0-2,0c-0.6,0-1.3,0-2,0
				c-0.6,0-1.3,0-2,0c-0.6,0-1.3,0-2,0c-0.7,0-1.3,0-2,0c0,0.7,0,1.3,0,2S341.5,68.3,341.5,68.9z"/>
			<path class="st2" d="M341.5,117.6c0,0.6,0,1.3,0,2c0,0.6,0,1.3,0,2c0.7,0,1.3,0,2,0c0.6,0,1.3,0,2,0c0.6,0,1.3,0,2,0
				c0.6,0,1.3,0,2,0c0.7,0,1.3,0,2,0c0.6,0,1.3,0,2,0c0.6,0,1.3,0,2,0c0.6,0,1.3,0,2,0c0.7,0,1.3,0,2,0c0.6,0,1.3,0,2,0
				c0.6,0,1.3,0,2,0c0.6,0,1.3,0,2,0c0.6,0,1.3,0,2,0c0.7,0,1.3,0,2,0c0.7,0,1.3,0,2,0c0.6,0,1.3,0,2,0c0.6,0,1.3,0,2,0
				c0.7,0,1.3,0,2,0c0.7,0,1.3,0,2,0c0.6,0,1.3,0,2,0c0.6,0,1.3,0,2,0c0.7,0,1.3,0,2,0c0-0.6,0-1.3,0-2c0-0.6,0-1.3,0-2
				c0-0.6,0-1.3,0-2c0-0.6,0-1.3,0-2c0-0.6,0-1.3,0-2c0-0.6,0-1.3,0-2c-0.7,0-1.3,0-2,0c-0.6,0-1.3,0-2,0c-0.6,0-1.3,0-2,0
				c-0.6,0-1.3,0-2,0c-0.7,0-1.3,0-2,0c-0.6,0-1.3,0-2,0c-0.6,0-1.3,0-2,0c-0.7,0-1.3,0-2,0c-0.7,0-1.3,0-2,0c-0.6,0-1.3,0-2,0
				c-0.6,0-1.3,0-2,0c-0.6,0-1.3,0-2,0c-0.6,0-1.3,0-2,0c-0.7,0-1.3,0-2,0c-0.7,0-1.3,0-2,0c-0.6,0-1.3,0-2,0c-0.6,0-1.3,0-2,0
				c-0.6,0-1.3,0-2,0c-0.7,0-1.3,0-2,0c-0.6,0-1.3,0-2,0c-0.7,0-1.3,0-2,0c-0.7,0-1.3,0-2,0c0,0.6,0,1.3,0,2c0,0.6,0,1.3,0,2
				c0,0.6,0,1.3,0,2C341.5,116.3,341.5,116.9,341.5,117.6z"/>
			<path class="st2" d="M335.4,64.9c0-0.6,0-1.3,0-2c-0.7,0-1.3,0-2,0c-0.7,0-1.3,0-2,0c-0.6,0-1.3,0-2,0c-0.6,0-1.3,0-2,0
				c-0.7,0-1.3,0-2,0c-0.6,0-1.3,0-2,0c-0.6,0-1.3,0-2,0c-0.6,0-1.3,0-2,0c-0.6,0-1.3,0-2,0c-0.7,0-1.3,0-2,0c-0.6,0-1.3,0-2,0
				c-0.7,0-1.3,0-2,0c-0.7,0-1.3,0-2,0c-0.7,0-1.3,0-2,0c-0.6,0-1.3,0-2,0c-0.6,0-1.3,0-2,0c-0.6,0-1.3,0-2,0c-0.6,0-1.3,0-2,0
				c-0.6,0-1.3,0-2,0c-0.7,0-1.3,0-2,0c-0.6,0-1.3,0-2,0c-0.6,0-1.3,0-2,0c-0.7,0-1.3,0-2,0c-0.6,0-1.3,0-2,0c-0.6,0-1.3,0-2,0
				c-0.7,0-1.3,0-2,0c-0.6,0-1.3,0-2,0c-0.7,0-1.3,0-2,0c-0.7,0-1.3,0-2,0c-0.6,0-1.3,0-2,0c-0.7,0-1.3,0-2,0c-0.7,0-1.3,0-2,0
				c-0.6,0-1.3,0-2,0c-0.7,0-1.3,0-2,0c-0.7,0-1.3,0-2,0c-0.7,0-1.3,0-2,0c-0.6,0-1.3,0-2,0c-0.6,0-1.3,0-2,0c-0.6,0-1.3,0-2,0
				c-0.6,0-1.3,0-2,0c-0.6,0-1.3,0-2,0c-0.6,0-1.3,0-2,0s-1.3,0-2,0s-1.3,0-2,0c-0.6,0-1.3,0-2,0c-0.6,0-1.3,0-2,0c-0.6,0-1.3,0-2,0
				c-0.6,0-1.3,0-2,0c-0.6,0-1.3,0-2,0s-1.3,0-2,0c-0.6,0-1.3,0-2,0c-0.6,0-1.3,0-2,0s-1.3,0-2,0c-0.6,0-1.4,0-2,0s-1.3,0-2,0
				s-1.3,0-2,0c-0.6,0-1.3,0-2,0s-1.3,0-2,0s-215.1,0-215.8,0s-1.3,0-2,0c0,0.6,0,1.3,0,2s0,1.3,0,2c0,0.6,0,1.3,0,2
				c0.7,0,1.3,0,2,0c0.6,0,215.1,0,215.8,0c0.6,0,1.3,0,2,0s1.3,0,2,0c0.6,0,1.3,0,2,0s1.3,0,2,0s1.3,0,2,0c0.6,0,1.3,0,2,0
				c0.6,0,1.3,0,2,0c0.6,0,1.3,0,2,0c0.6,0,1.3,0,2,0s1.3,0,2,0c0.6,0,1.3,0,2,0c0.6,0,1.3,0,2,0c0.6,0,1.3,0,2,0c0.6,0,1.3,0,2,0
				s1.4,0,2,0s1.3,0,2,0c0.6,0,1.3,0,2,0c0.6,0,1.3,0,2,0c0.6,0,1.3,0,2,0c0.7,0,1.3,0,2,0c0.6,0,1.3,0,2,0c0.6,0,1.3,0,2,0
				c0.6,0,1.3,0,2,0c0.6,0,1.3,0,2,0c0.6,0,1.3,0,2,0c0.6,0,1.3,0,2,0c0.6,0,1.3,0,2,0c0.6,0,1.3,0,2,0c0.7,0,1.3,0,2,0
				c0.7,0,1.3,0,2,0c0.7,0,1.3,0,2,0c0.7,0,1.3,0,2,0c0.6,0,1.3,0,2,0c0.7,0,1.3,0,2,0c0.7,0,1.4,0,2,0c0.6,0,1.3,0,2,0
				c0.6,0,1.3,0,2,0c0.6,0,1.3,0,2,0c0.6,0,1.3,0,2,0c0.7,0,1.3,0,2,0c0.6,0,1.3,0,2,0c0.6,0,1.3,0,2,0c0.6,0,1.3,0,2,0
				c0.6,0,1.3,0,2,0c0.6,0,1.3,0,2,0c0.6,0,1.3,0,2,0c0.6,0,1.3,0,2,0c0.6,0,1.3,0,2,0c0.7,0,1.3,0,2,0c0.7,0,1.3,0,2,0
				c0.6,0,1.3,0,2,0c0.6,0,1.3,0,2,0c0.6,0,1.3,0,2,0c0.7,0,1.3,0,2,0c0.7,0,1.3,0,2,0c0.6,0,1.3,0,2,0c0.6,0,1.3,0,2,0
				c0.6,0,1.3,0,2,0c0-0.6,0-1.3,0-2C335.4,66.2,335.4,65.6,335.4,64.9z"/>
			<path class="st2" d="M335.4,75c0-0.6,0-1.3,0-2c-0.6,0-1.3,0-2,0c-0.6,0-1.3,0-2,0c-0.7,0-1.3,0-2,0c-0.6,0-1.3,0-2,0
				c-0.7,0-1.3,0-2,0c-0.6,0-1.3,0-2,0c-0.6,0-1.3,0-2,0c-0.6,0-1.3,0-2,0c-0.6,0-1.3,0-2,0c-0.7,0-1.3,0-2,0c-0.6,0-1.3,0-2,0
				c-0.7,0-1.3,0-2,0c-0.7,0-1.3,0-2,0c-0.7,0-1.3,0-2,0c-0.6,0-1.3,0-2,0c-0.6,0-1.3,0-2,0c-0.6,0-1.3,0-2,0c-0.6,0-1.3,0-2,0
				c-0.6,0-1.3,0-2,0c-0.7,0-1.3,0-2,0c-0.6,0-1.3,0-2,0c-0.6,0-1.3,0-2,0c-0.6,0-1.3,0-2,0c-0.7,0-1.3,0-2,0c-0.6,0-1.3,0-2,0
				c-0.7,0-1.3,0-2,0c-0.7,0-1.3,0-2,0c-0.7,0-1.3,0-2,0c-0.6,0-1.3,0-2,0c-0.7,0-1.3,0-2,0c-0.6,0-1.3,0-2,0c-0.6,0-1.3,0-2,0
				c-0.7,0-1.3,0-2,0c-0.7,0-1.3,0-2,0c-0.7,0-1.3,0-2,0c-0.7,0-1.3,0-2,0c-0.6,0-1.3,0-2,0c-0.6,0-1.3,0-2,0c-0.7,0-1.3,0-2,0
				c-0.6,0-1.3,0-2,0c-0.6,0-1.3,0-2,0c-0.6,0-1.3,0-2,0s-1.3,0-2,0s-1.3,0-2,0c-0.6,0-1.3,0-2,0c-0.6,0-1.3,0-2,0c-0.6,0-1.3,0-2,0
				c-0.6,0-1.3,0-2,0c-0.6,0-1.3,0-2,0s-1.3,0-2,0c-0.6,0-1.3,0-2,0c-0.6,0-1.3,0-2,0c-0.6,0-1.3,0-2,0s-1.4,0-2,0s-1.3,0-2,0
				s-1.3,0-2,0s-1.3,0-2,0s-1.3,0-2,0c-0.6,0-215.1,0-215.8,0s-1.3,0-2,0c0,0.6,0,1.3,0,2c0,0.6,0,1.3,0,2s0,1.3,0,2
				c0,0.6,0,1.3,0,2c0,0.6,0,1.3,0,2c0,0.6,0,1.3,0,2c0,0.6,0,1.3,0,2c0,0.6,0,1.3,0,2c0,0.6,0,1.3,0,2c0,0.6,0,1.3,0,2
				c0.7,0,1.3,0,2,0c0.6,0,215.1,0,215.8,0c0.6,0,1.3,0,2,0s1.3,0,2,0c0.6,0,1.3,0,2,0s1.3,0,2,0s1.3,0,2,0s1.3,0,2,0
				c0.6,0,1.3,0,2,0c0.6,0,1.3,0,2,0c0.6,0,1.3,0,2,0s1.3,0,2,0c0.6,0,1.3,0,2,0c0.6,0,1.3,0,2,0c0.6,0,1.3,0,2,0c0.6,0,1.3,0,2,0
				s1.4,0,2,0s1.3,0,2,0c0.6,0,1.3,0,2,0c0.6,0,1.3,0,2,0c0.6,0,1.3,0,2,0c0.7,0,1.3,0,2,0c0.6,0,1.3,0,2,0c0.6,0,1.3,0,2,0
				c0.6,0,1.3,0,2,0c0.6,0,1.3,0,2,0c0.6,0,1.3,0,2,0c0.6,0,1.3,0,2,0c0.6,0,1.3,0,2,0c0.6,0,1.3,0,2,0c0.7,0,1.3,0,2,0
				c0.7,0,1.3,0,2,0c0.7,0,1.3,0,2,0c0.7,0,1.3,0,2,0c0.6,0,1.3,0,2,0c0.7,0,1.3,0,2,0c0.6,0,1.3,0,2,0c0.6,0,1.3,0,2,0
				c0.6,0,1.3,0,2,0c0.6,0,1.3,0,2,0c0.6,0,1.3,0,2,0c0.7,0,1.3,0,2,0c0.6,0,1.3,0,2,0c0.6,0,1.3,0,2,0c0.6,0,1.3,0,2,0
				c0.6,0,1.3,0,2,0c0.6,0,1.3,0,2,0c0.6,0,1.3,0,2,0c0.6,0,1.3,0,2,0c0.6,0,1.3,0,2,0c0.7,0,1.3,0,2,0c0.7,0,1.3,0,2,0
				c0.6,0,1.3,0,2,0c0.6,0,1.3,0,2,0c0.6,0,1.3,0,2,0c0.7,0,1.3,0,2,0c0.7,0,1.3,0,2,0c0.6,0,1.3,0,2,0c0.6,0,1.3,0,2,0
				c0.6,0,1.3,0,2,0c0-0.6,0-1.3,0-2c0-0.6,0-1.3,0-2c0-0.6,0-1.3,0-2c0-0.6,0-1.3,0-2c0-0.6,0-1.3,0-2c0-0.6,0-1.3,0-2
				c0-0.6,0-1.3,0-2c0-0.6,0-1.3,0-2C335.4,76.4,335.4,75.7,335.4,75z"/>
			<path class="st2" d="M335.4,103.4c0-0.6,0-1.3,0-2c-0.6,0-1.3,0-2,0c-0.6,0-1.3,0-2,0c-0.7,0-1.3,0-2,0c-0.6,0-1.3,0-2,0
				c-0.7,0-1.3,0-2,0c-0.6,0-1.3,0-2,0c-0.6,0-1.3,0-2,0c-0.6,0-1.3,0-2,0c-0.6,0-1.3,0-2,0c-0.7,0-1.3,0-2,0c-0.6,0-1.3,0-2,0
				c-0.7,0-1.3,0-2,0c-0.7,0-1.3,0-2,0c-0.7,0-1.3,0-2,0c-0.6,0-1.3,0-2,0c-0.6,0-1.3,0-2,0c-0.6,0-1.3,0-2,0c-0.6,0-1.3,0-2,0
				c-0.6,0-1.3,0-2,0c-0.7,0-1.3,0-2,0c-0.6,0-1.3,0-2,0c-0.6,0-1.3,0-2,0c-0.6,0-1.3,0-2,0c-0.7,0-1.3,0-2,0c-0.6,0-1.3,0-2,0
				c-0.7,0-1.3,0-2,0c-0.7,0-1.3,0-2,0c-0.7,0-1.3,0-2,0c-0.6,0-1.3,0-2,0c-0.7,0-1.3,0-2,0c-0.6,0-1.3,0-2,0c-0.6,0-1.3,0-2,0
				c-0.7,0-1.3,0-2,0c-0.7,0-1.3,0-2,0c-0.7,0-1.3,0-2,0c-0.7,0-1.3,0-2,0c-0.6,0-1.3,0-2,0c-0.6,0-1.3,0-2,0c-0.7,0-1.3,0-2,0
				c-0.6,0-1.3,0-2,0c-0.6,0-1.3,0-2,0c-0.6,0-1.3,0-2,0s-1.3,0-2,0s-1.3,0-2,0c-0.6,0-1.3,0-2,0c-0.6,0-1.3,0-2,0c-0.6,0-1.3,0-2,0
				c-0.6,0-1.3,0-2,0c-0.6,0-1.3,0-2,0s-1.3,0-2,0c-0.6,0-1.3,0-2,0c-0.6,0-1.3,0-2,0c-0.6,0-1.3,0-2,0s-1.4,0-2,0s-1.3,0-2,0
				s-1.3,0-2,0s-1.3,0-2,0s-1.3,0-2,0c-0.6,0-215.1,0-215.8,0s-1.3,0-2,0c0,0.6,0,1.3,0,2c0,0.6,0,1.3,0,2c0,0.6,0,1.3,0,2
				c0,0.6,0,1.3,0,2c0,0.6,0,1.3,0,2c0,0.6,0,1.3,0,2c0,0.6,0,1.3,0,2c0,0.6,0,1.3,0,2c0.7,0,1.3,0,2,0c0.6,0,215.1,0,215.8,0
				c0.6,0,1.3,0,2,0s1.3,0,2,0c0.6,0,1.3,0,2,0s1.3,0,2,0s1.3,0,2,0s1.3,0,2,0c0.6,0,1.3,0,2,0c0.6,0,1.3,0,2,0c0.6,0,1.3,0,2,0
				s1.3,0,2,0c0.6,0,1.3,0,2,0c0.6,0,1.3,0,2,0c0.6,0,1.3,0,2,0c0.6,0,1.3,0,2,0s1.4,0,2,0s1.3,0,2,0c0.6,0,1.3,0,2,0
				c0.6,0,1.3,0,2,0c0.6,0,1.3,0,2,0c0.7,0,1.3,0,2,0c0.6,0,1.3,0,2,0c0.6,0,1.3,0,2,0c0.6,0,1.3,0,2,0c0.6,0,1.3,0,2,0
				c0.6,0,1.3,0,2,0c0.6,0,1.3,0,2,0c0.6,0,1.3,0,2,0c0.6,0,1.3,0,2,0c0.7,0,1.3,0,2,0c0.7,0,1.3,0,2,0c0.7,0,1.3,0,2,0
				c0.7,0,1.3,0,2,0c0.6,0,1.3,0,2,0c0.7,0,1.3,0,2,0c0.6,0,1.3,0,2,0c0.6,0,1.3,0,2,0c0.6,0,1.3,0,2,0c0.6,0,1.3,0,2,0
				c0.6,0,1.3,0,2,0c0.7,0,1.3,0,2,0c0.6,0,1.3,0,2,0c0.6,0,1.3,0,2,0c0.6,0,1.3,0,2,0c0.6,0,1.3,0,2,0c0.6,0,1.3,0,2,0
				c0.6,0,1.3,0,2,0c0.6,0,1.3,0,2,0c0.6,0,1.3,0,2,0c0.7,0,1.3,0,2,0c0.7,0,1.3,0,2,0c0.6,0,1.3,0,2,0c0.6,0,1.3,0,2,0
				c0.6,0,1.3,0,2,0c0.7,0,1.3,0,2,0c0.7,0,1.3,0,2,0c0.6,0,1.3,0,2,0c0.6,0,1.3,0,2,0c0.6,0,1.3,0,2,0c0-0.6,0-1.3,0-2
				c0-0.6,0-1.3,0-2c0-0.6,0-1.3,0-2c0-0.6,0-1.3,0-2c0-0.6,0-1.3,0-2c0-0.6,0-1.3,0-2C335.4,104.8,335.4,104.1,335.4,103.4z"/>
			<path class="st2" d="M333.4,22.3c0,0.6,0,1.3,0,2c0.6,0,1.3,0,2,0c0-0.6,0-1.3,0-2c0-0.6,0-1.3,0-2c-0.6,0-1.3,0-2,0
				C333.4,20.9,333.4,21.6,333.4,22.3z"/>
			<path class="st2" d="M331.3,8.1c-0.7,0-1.3,0-2,0c-0.6,0-1.3,0-2,0c-0.7,0-1.3,0-2,0c-0.6,0-1.3,0-2,0c-0.6,0-1.3,0-2,0
				c-0.6,0-1.3,0-2,0c-0.6,0-1.3,0-2,0c-0.7,0-1.3,0-2,0c-0.6,0-1.3,0-2,0c-0.7,0-1.3,0-2,0c-0.7,0-1.3,0-2,0c-0.7,0-1.3,0-2,0
				c-0.6,0-1.3,0-2,0c-0.6,0-1.3,0-2,0c-0.6,0-1.3,0-2,0c-0.6,0-1.3,0-2,0c-0.6,0-1.3,0-2,0c-0.7,0-1.3,0-2,0c-0.7,0-1.3,0-2,0
				c-0.6,0-1.3,0-2,0c-0.7,0-1.4,0-2,0c-0.6,0-1.3,0-2,0c-0.6,0-1.3,0-2,0c-0.6,0-1.3,0-2,0c-0.7,0-1.3,0-2,0c-0.7,0-1.3,0-2,0
				c-0.6,0-1.3,0-2,0c-0.7,0-1.3,0-2,0c-0.6,0-1.3,0-2,0c-0.6,0-1.3,0-2,0c-0.7,0-1.3,0-2,0c-0.7,0-1.3,0-2,0c-0.7,0-1.3,0-2,0
				c-0.7,0-1.3,0-2,0c-0.6,0-1.3,0-2,0c-0.6,0-1.3,0-2,0c-0.7,0-1.3,0-2,0c-0.6,0-1.3,0-2,0c-0.6,0-1.3,0-2,0c-0.6,0-1.3,0-2,0
				s-1.3,0-2,0s-1.3,0-2,0c-0.6,0-1.3,0-2,0c-0.6,0-1.3,0-2,0c-0.6,0-1.3,0-2,0c-0.6,0-1.3,0-2,0c-0.6,0-1.3,0-2,0s-1.3,0-2,0
				c-0.6,0-1.3,0-2,0c-0.6,0-1.3,0-2,0s-1.3,0-2,0c-0.6,0-1.3,0-2,0s-1.3,0-2,0c-0.6,0-1.3,0-2,0s-1.3,0-2,0s-1.3,0-2,0
				c-0.6,0-215.1,0-215.8,0s-1.3,0-2,0c0,0.7,0,1.3,0,2c0,0.6,0,1.3,0,2c0,0.6,0,1.3,0,2c0,0.6,0,1.3,0,2c0,0.7,0,1.3,0,2
				c0,0.6,0,2.3,0,3c0.7,0,219.9-1.7,219.9-1c0.7,0,1.3,0,2,0c0.6,0,1.3,0,2,0c0-0.6,0-1.4,0-2s0-1.3,0-2c0.7,0,1.3,0,2,0s1.3,0,2,0
				c0,0.6,0,1.3,0,2c0,0.6,0,1.3,0,2c0.7,0,1.3,0,2,0c0.6,0,1.3,0,2,0c0-0.6,0-1.4,0-2s0-1.3,0-2c0.6,0,1.3,0,2,0c0.6,0,1.3,0,2,0
				c0,0.6,0,1.3,0,2c0,0.6,0,1.3,0,2c0.7,0,1.3,0,2,0c0.6,0,1.3,0,2,0c0-0.6,0-1.4,0-2s0-1.3,0-2c0.6,0,1.3,0,2,0c0.6,0,1.3,0,2,0
				c0,0.6,0,1.4,0,2s0,1.3,0,2c0.6,0,1.3,0,2,0s1.3,0,2,0c0-0.6,0-1.3,0-2c0-0.6,0-1.3,0-2c0.6,0,1.3,0,2,0c0.6,0,1.3,0,2,0
				c0,0.6,0,1.4,0,2s0,1.3,0,2c0.6,0,1.3,0,2,0c0.6,0,1.3,0,2,0c0-0.6,0-1.3,0-2c0-0.6,0-1.3,0-2c0.7,0,1.3,0,2,0c0.6,0,1.3,0,2,0
				c0,0.6,0,1.4,0,2s0,1.3,0,2c0.6,0,1.3,0,2,0c0.6,0,1.3,0,2,0c0-0.6,0-1.3,0-2c0-0.6,0-1.3,0-2c0.6,0,1.3,0,2,0c0.6,0,1.3,0,2,0
				c0,0.6,0,1.4,0,2s0,1.3,0,2c0.6,0,1.3,0,2,0c0.6,0,1.3,0,2,0c0-0.6,0-1.3,0-2c0-0.6,0-1.3,0-2c0.6,0,1.3,0,2,0c0,0.7,0,1.3,0,2
				c0,0.6,0,1.3,0,2c0.7,0,1.3,0,2,0c0-0.6,0-1.3,0-2c0-0.6,0-1.3,0-2c0.7,0,1.3,0,2,0c0.7,0,1.3,0,2,0c0,0.6,0,1.3,0,2
				c0,0.6,0,1.3,0,2c0.7,0,1.3,0,2,0c0.6,0,1.3,0,2,0c0-0.6,0-1.4,0-2s0-1.3,0-2c0.7,0,1.3,0,2,0c0.6,0,1.3,0,2,0c0,0.6,0,1.3,0,2
				c0,0.6,0,1.3,0,2c0.6,0,1.3,0,2,0c0.6,0,1.3,0,2,0c0-0.6,0-1.4,0-2s0-1.3,0-2c0.6,0,1.3,0,2,0c0.6,0,1.3,0,2,0c0,0.6,0,1.3,0,2
				c0,0.6,0,1.3,0,2c0.7,0,1.3,0,2,0c0.6,0,1.3,0,2,0c0-0.6,0-1.4,0-2s0-1.3,0-2c0.6,0,1.3,0,2,0c0.6,0,1.3,0,2,0c0,0.6,0,1.4,0,2
				s0,1.3,0,2c0.6,0,1.3,0,2,0c0.6,0,1.3,0,2,0c0-0.6,0-1.3,0-2c0-0.6,0-1.3,0-2c0.6,0,1.3,0,2,0c0.6,0,1.3,0,2,0c0,0.6,0,1.4,0,2
				s0,1.3,0,2c0.6,0,1.3,0,2,0c0.7,0,1.3,0,2,0c0-0.6,0-1.3,0-2c0-0.6,0-1.3,0-2c0.7,0,1.3,0,2,0c0.6,0,1.3,0,2,0c0,0.6,0,1.4,0,2
				s0,1.3,0,2c0.6,0,1.3,0,2,0c0.6,0,1.3,0,2,0c0-0.6,0-1.3,0-2c0-0.6,0-1.3,0-2c0.7,0,1.3,0,2,0c0.7,0,1.3,0,2,0c0,0.6,0,1.3,0,2
				c0,0.6,0,1.3,0,2c0.6,0,1.3,0,2,0c0.6,0,1.3,0,2,0c0-0.6,0-1.3,0-2c0-0.6,0-1.3,0-2c0.6,0,1.3,0,2,0c0-0.6,0-1.3,0-2
				c0-0.6,0-1.3,0-2c0-0.6,0-1.3,0-2c0-0.6,0-1.3,0-2c-0.6,0-1.3,0-2,0C332.7,8.1,332,8.1,331.3,8.1z"/>
			<path class="st2" d="M331.4,24.3c-0.7,0-1.3,0-2,0c0,0.6,0,1.3,0,2c0,0.6,0,1.3,0,2c0.6,0,1.3,0,2,0c0.6,0,1.3,0,2,0
				c0-0.6,0-1.3,0-2c0-0.6,0-1.3,0-2C332.7,24.3,332,24.3,331.4,24.3z"/>
			<path class="st2" d="M325.2,22.3c0,0.6,0,1.3,0,2c0.7,0,1.3,0,2,0c0.7,0,1.3,0,2,0c0-0.6,0-1.3,0-2c0-0.6,0-1.3,0-2
				c-0.6,0-1.3,0-2,0c-0.7,0-1.3,0-2,0C325.2,20.9,325.2,21.6,325.2,22.3z"/>
			<path class="st2" d="M323.2,24.3c-0.6,0-1.3,0-2,0c0,0.6,0,1.3,0,2c0,0.6,0,1.3,0,2c0.6,0,1.3,0,2,0c0.6,0,1.3,0,2,0
				c0-0.6,0-1.3,0-2c0-0.6,0-1.3,0-2C324.6,24.3,323.9,24.3,323.2,24.3z"/>
			<path class="st2" d="M317.1,22.3c0,0.6,0,1.3,0,2c0.7,0,1.3,0,2,0c0.6,0,1.3,0,2,0c0-0.6,0-1.3,0-2c0-0.6,0-1.3,0-2
				c-0.6,0-1.3,0-2,0c-0.6,0-1.3,0-2,0C317.1,20.9,317.1,21.6,317.1,22.3z"/>
			<path class="st2" d="M315.1,24.3c-0.6,0-1.3,0-2,0c0,0.6,0,1.3,0,2c0,0.6,0,1.3,0,2c0.6,0,1.3,0,2,0c0.7,0,1.3,0,2,0
				c0-0.6,0-1.3,0-2c0-0.6,0-1.3,0-2C316.5,24.3,315.8,24.3,315.1,24.3z"/>
			<path class="st2" d="M309,22.3c0,0.6,0,1.3,0,2c0.6,0,1.3,0,2,0c0.6,0,1.3,0,2,0c0-0.6,0-1.3,0-2c0-0.6,0-1.3,0-2
				c-0.7,0-1.3,0-2,0c-0.7,0-1.3,0-2,0C309,20.9,309,21.6,309,22.3z"/>
			<path class="st2" d="M307,24.3c-0.6,0-1.3,0-2,0c0,0.6,0,1.3,0,2c0,0.6,0,1.3,0,2c0.6,0,1.3,0,2,0c0.6,0,1.3,0,2,0
				c0-0.6,0-1.3,0-2c0-0.6,0-1.3,0-2C308.4,24.3,307.7,24.3,307,24.3z"/>
			<path class="st2" d="M300.9,22.3c0,0.6,0,1.3,0,2c0.6,0,1.3,0,2,0c0.6,0,1.3,0,2,0c0-0.6,0-1.3,0-2c0-0.6,0-1.3,0-2
				c-0.6,0-1.3,0-2,0c-0.6,0-1.3,0-2,0C300.9,20.9,300.9,21.6,300.9,22.3z"/>
			<path class="st2" d="M298.9,24.3c-0.6,0-1.3,0-2,0c0,0.6,0,1.3,0,2c0,0.6,0,1.3,0,2c0.7,0,1.3,0,2,0c0.6,0,1.3,0,2,0
				c0-0.6,0-1.3,0-2c0-0.6,0-1.3,0-2C300.2,24.3,299.6,24.3,298.9,24.3z"/>
			<path class="st2" d="M292.8,22.3c0,0.6,0,1.3,0,2c0.6,0,1.3,0,2,0c0.6,0,1.3,0,2,0c0-0.6,0-1.3,0-2c0-0.6,0-1.3,0-2
				c-0.7,0-1.3,0-2,0c-0.6,0-1.3,0-2,0C292.8,20.9,292.8,21.6,292.8,22.3z"/>
			<path class="st2" d="M290.8,24.3c-0.6,0-1.3,0-2,0c0,0.6,0,1.3,0,2c0,0.6,0,1.3,0,2c0.6,0,1.3,0,2,0c0.6,0,1.3,0,2,0
				c0-0.6,0-1.3,0-2c0-0.6,0-1.3,0-2C292.1,24.3,291.5,24.3,290.8,24.3z"/>
			<path class="st2" d="M284.7,22.3c0,0.6,0,1.3,0,2c0.7,0,1.3,0,2,0c0.6,0,1.3,0,2,0c0-0.6,0-1.3,0-2c0-0.6,0-1.3,0-2
				c-0.7,0-1.3,0-2,0c-0.6,0-1.3,0-2,0C284.7,20.9,284.7,21.6,284.7,22.3z"/>
			<path class="st2" d="M282.7,24.3c-0.7,0-1.3,0-2,0c0,0.6,0,1.3,0,2c0,0.6,0,1.3,0,2c0.7,0,1.3,0,2,0c0.6,0,1.3,0,2,0
				c0-0.6,0-1.3,0-2c0-0.6,0-1.3,0-2C284,24.3,283.4,24.3,282.7,24.3z"/>
			<path class="st2" d="M276.6,22.3c0,0.6,0,1.3,0,2c0.7,0,1.3,0,2,0c0.7,0,1.3,0,2,0c0-0.6,0-1.3,0-2c0-0.6,0-1.3,0-2
				c-0.7,0-1.3,0-2,0c-0.6,0-1.3,0-2,0C276.6,20.9,276.6,21.6,276.6,22.3z"/>
			<path class="st2" d="M276.6,24.4c-0.7,0-1.3,0-2,0c0,0.6,0,1.3,0,2c0,0.6,0,1.3,0,2c0.7,0,1.3,0,2,0c0-0.6,0-1.3,0-2
				C276.6,25.7,276.6,25,276.6,24.4z"/>
			<path class="st2" d="M272.6,22.3c0,0.6,0,1.3,0,2c0.6,0,1.3,0,2,0c0-0.6,0-1.3,0-2c0-0.6,0-1.3,0-2c-0.6,0-1.3,0-2,0
				C272.6,20.9,272.6,21.6,272.6,22.3z"/>
			<path class="st2" d="M270.6,24.3c-0.7,0-1.3,0-2,0c0,0.6,0,1.3,0,2c0,0.6,0,1.3,0,2c0.6,0,1.3,0,2,0c0.6,0,1.3,0,2,0
				c0-0.6,0-1.3,0-2c0-0.6,0-1.3,0-2C271.9,24.3,271.2,24.3,270.6,24.3z"/>
			<path class="st2" d="M264.5,22.3c0,0.6,0,1.3,0,2c0.6,0,1.3,0,2,0c0.6,0,1.3,0,2,0c0-0.6,0-1.3,0-2c0-0.6,0-1.3,0-2
				c-0.7,0-1.3,0-2,0c-0.7,0-1.3,0-2,0C264.5,20.9,264.5,21.6,264.5,22.3z"/>
			<path class="st2" d="M262.5,24.3c-0.6,0-1.3,0-2,0c0,0.6,0,1.3,0,2c0,0.6,0,1.3,0,2c0.6,0,1.3,0,2,0c0.6,0,1.3,0,2,0
				c0-0.6,0-1.3,0-2c0-0.6,0-1.3,0-2C263.8,24.3,263.1,24.3,262.5,24.3z"/>
			<path class="st2" d="M256.3,22.3c0,0.6,0,1.3,0,2c0.7,0,1.3,0,2,0c0.6,0,1.3,0,2,0c0-0.6,0-1.3,0-2c0-0.6,0-1.3,0-2
				c-0.6,0-1.3,0-2,0c-0.7,0-1.3,0-2,0C256.3,20.9,256.3,21.6,256.3,22.3z"/>
			<path class="st2" d="M254.3,24.3c-0.6,0-1.3,0-2,0c0,0.6,0,1.3,0,2c0,0.6,0,1.3,0,2c0.6,0,1.3,0,2,0c0.6,0,1.3,0,2,0
				c0-0.6,0-1.3,0-2c0-0.6,0-1.3,0-2C255.7,24.3,255,24.3,254.3,24.3z"/>
			<path class="st2" d="M248.2,22.3c0,0.6,0,1.3,0,2c0.6,0,1.3,0,2,0c0.6,0,1.3,0,2,0c0-0.6,0-1.3,0-2c0-0.6,0-1.3,0-2
				c-0.6,0-1.3,0-2,0s-1.3,0-2,0C248.2,20.9,248.2,21.6,248.2,22.3z"/>
			<path class="st2" d="M246.2,24.3c-0.6,0-1.3,0-2,0c0,0.6,0,1.3,0,2c0,0.6,0,1.3,0,2c0.6,0,1.3,0,2,0s1.3,0,2,0c0-0.6,0-1.3,0-2
				c0-0.6,0-1.3,0-2C247.6,24.3,246.9,24.3,246.2,24.3z"/>
			<path class="st2" d="M240.1,22.3c0,0.6,0,1.3,0,2c0.6,0,1.3,0,2,0c0.6,0,1.3,0,2,0c0-0.6,0-1.3,0-2c0-0.6,0-1.3,0-2
				c-0.6,0-1.3,0-2,0c-0.6,0-1.3,0-2,0C240.1,20.9,240.1,21.6,240.1,22.3z"/>
			<path class="st2" d="M238.1,24.3c-0.6,0-1.3,0-2,0c0,0.6,0,1.3,0,2c0,0.6,0,1.3,0,2c0.7,0,1.3,0,2,0c0.6,0,1.3,0,2,0
				c0-0.6,0-1.3,0-2c0-0.6,0-1.3,0-2C239.5,24.3,238.8,24.3,238.1,24.3z"/>
			<path class="st2" d="M232,22.3c0,0.6,0,1.3,0,2c0.6,0,1.3,0,2,0c0.6,0,1.3,0,2,0c0-0.6,0-1.3,0-2c0-0.6,0-1.3,0-2
				c-0.7,0-1.3,0-2,0c-0.6,0-1.3,0-2,0C232,20.9,232,21.6,232,22.3z"/>
			<path class="st2" d="M230,24.3c-0.6,0-1.3,0-2,0c0,0.6,0,1.3,0,2c0,0.6,0,1.3,0,2c0.7,0,1.3,0,2,0c0.6,0,1.3,0,2,0
				c0-0.6,0-1.3,0-2c0-0.6,0-1.3,0-2C231.3,24.3,230.7,24.3,230,24.3z"/>
			<path class="st2" d="M223.9,22.3c0,0.6,0,1.3,0,2c0.7,0,1.3,0,2,0s1.3,0,2,0c0-0.6,0-1.3,0-2c0-0.6,0-1.3,0-2c-0.7,0-1.4,0-2,0
				s-1.3,0-2,0C223.9,20.9,223.9,21.6,223.9,22.3z"/>
			<path class="st2" d="M221.9,24.3c-0.7,0-1.3,0-2,0c0,0.6,0,1.3,0,2c0,0.6,0,1.3,0,2c0.7,0,1.3,0,2,0c0.6,0,1.3,0,2,0
				c0-0.6,0-1.3,0-2c0-0.6,0-1.3,0-2C223.2,24.3,222.6,24.3,221.9,24.3z"/>
			<path class="st2" d="M2,26.4c0-0.6,0-1.3,0-2c-0.7,0-1.3,0-2,0c0,0.6,0,1.3,0,2c0,0.6,0,1.3,0,2c0.7,0,1.3,0,2,0
				C2,27.7,2,27,2,26.4z"/>
		</g>
	</g>
	<path class="st0" d="M390.1,4.1c-0.7,0-1.3,0-2,0c-0.7,0-1.3,0-2,0c0,0.6,0,1.3,0,2c0,0.6,0,1.3,0,2s0,1.3,0,2c0,0.6,0,1.3,0,2
		c-0.7,0-1.3,0-2,0c-0.6,0-1.3,0-2,0c0,0.6,0,1.3,0,2c0,0.6,0,1.3,0,2c0.6,0,1.3,0,2,0c0.7,0,1.3,0,2,0c0,0.6,0,1.3,0,2
		c0,0.6,0,1.3,0,2c-0.7,0-1.3,0-2,0c-0.6,0-1.3,0-2,0c0,0.6,0,1.3,0,2c0,0.6,0,1.3,0,2c-0.6,0-1.3,0-2,0c-0.6,0-1.3,0-2,0
		c0-0.6,0-1.3,0-2c0-0.6,0-1.3,0-2c-0.7,0-1.3,0-2,0c-0.6,0-1.3,0-2,0c0,0.6,0,1.3,0,2c0,0.6,0,1.3,0,2c-0.6,0-1.3,0-2,0
		c-0.7,0-1.3,0-2,0c0-0.6,0-1.3,0-2c0-0.6,0-1.3,0-2c-0.7,0-1.3,0-2,0c-0.6,0-1.3,0-2,0c0,0.6,0,1.3,0,2c0,0.6,0,1.3,0,2
		c-0.6,0-1.3,0-2,0c-0.6,0-1.3,0-2,0c0-0.6,0-1.3,0-2c0-0.6,0-1.3,0-2c-0.6,0-1.3,0-2,0c-0.7,0-1.3,0-2,0c0,0.6,0,1.3,0,2
		c0,0.6,0,1.3,0,2c-0.7,0-1.3,0-2,0c-0.6,0-1.3,0-2,0c0-0.6,0-1.3,0-2c0-0.6,0-1.3,0-2c-0.6,0-1.3,0-2,0c-0.6,0-1.3,0-2,0
		c0,0.6,0,1.3,0,2c0,0.6,0,1.3,0,2c-0.7,0-1.3,0-2,0c-0.6,0-1.3,0-2,0c0-0.6,0-1.3,0-2c0-0.6,0-1.3,0-2c-0.7,0-1.3,0-2,0
		c-0.7,0-1.3,0-2,0c0,0.6,0,1.3,0,2c0,0.6,0,1.3,0,2c0,0.6,0,1.3,0,2c0,0.6,0,1.3,0,2c0,0.6,0,1.3,0,2c0,0.6,0,1.3,0,2
		c0,0.6,0,1.3,0,2c0,0.6,0,1.3,0,2c0,0.6,0,1.3,0,2c0,0.6,0,1.3,0,2c0,0.6,0,1.3,0,2c0,0.6,0,1.3,0,2c0,0.6,0,1.3,0,2
		c0,0.6,0,1.3,0,2c0,0.6,0,1.3,0,2c0,0.6,0,1.3,0,2c0,0.6,0,1.3,0,2c0,0.6,0,1.3,0,2c0,0.6,0,1.3,0,2c0,0.6,0,1.3,0,2
		c0,0.6,0,1.3,0,2c0,0.6,0,1.3,0,2c0.7,0,1.3,0,2,0c0.6,0,1.3,0,2,0c0.7,0,1.3,0,2,0c0.7,0,1.3,0,2,0c0.6,0,1.3,0,2,0
		c0.6,0,1.3,0,2,0c0.7,0,1.3,0,2,0c0.6,0,1.3,0,2,0c0.7,0,1.3,0,2,0c0.6,0,1.3,0,2,0c0.6,0,1.3,0,2,0c0.6,0,1.3,0,2,0
		c0.6,0,1.3,0,2,0c0.7,0,1.3,0,2,0c0.7,0,1.3,0,2,0c0.6,0,1.3,0,2,0c0.6,0,1.3,0,2,0c0.7,0,1.3,0,2,0c0.7,0,1.3,0,2,0
		c0.6,0,1.3,0,2,0c0.6,0,1.3,0,2,0c0.7,0,1.3,0,2,0c0,0.6,0,1.3,0,2c0,0.6,0,1.3,0,2c0,0.6,0,1.3,0,2c0,0.6,0,1.3,0,2
		c-0.7,0-1.3,0-2,0c-0.6,0-1.3,0-2,0c-0.6,0-1.3,0-2,0c-0.6,0-1.3,0-2,0c-0.7,0-1.3,0-2,0c-0.6,0-1.3,0-2,0c-0.6,0-1.3,0-2,0
		c-0.7,0-1.3,0-2,0c-0.7,0-1.3,0-2,0c-0.6,0-1.3,0-2,0c-0.6,0-1.3,0-2,0c-0.6,0-1.3,0-2,0c-0.6,0-1.3,0-2,0c-0.7,0-1.3,0-2,0
		c-0.7,0-1.3,0-2,0c-0.6,0-1.3,0-2,0c-0.6,0-1.3,0-2,0c-0.6,0-1.3,0-2,0c-0.7,0-1.3,0-2,0c-0.6,0-1.3,0-2,0c-0.7,0-1.3,0-2,0
		c-0.7,0-1.3,0-2,0c0,0.6,0,1.3,0,2c0,0.6,0,1.3,0,2c0.7,0,1.3,0,2,0c0.6,0,1.3,0,2,0c0.6,0,1.3,0,2,0c0.6,0,1.3,0,2,0
		c0.7,0,1.3,0,2,0c0.6,0,1.3,0,2,0c0.6,0,1.3,0,2,0c0.6,0,1.3,0,2,0c0.7,0,1.3,0,2,0c0.6,0,1.3,0,2,0c0.6,0,1.3,0,2,0
		c0.6,0,1.3,0,2,0c0.6,0,1.3,0,2,0c0.7,0,1.3,0,2,0c0.7,0,1.3,0,2,0c0.6,0,1.3,0,2,0c0.6,0,1.3,0,2,0c0.7,0,1.3,0,2,0
		c0.7,0,1.3,0,2,0c0.6,0,1.3,0,2,0c0.6,0,1.3,0,2,0c0.7,0,1.3,0,2,0c0.7,0,1.3,0,2,0c0.7,0,1.3,0,2,0c0-0.6,0-1.3,0-2
		c0-0.6,0-1.3,0-2c0-0.6,0-1.3,0-2s0-1.3,0-2c0-0.6,0-1.3,0-2c0-0.6,0-1.3,0-2c0-0.6,0-1.3,0-2c0-0.6,0-1.3,0-2c0-0.6,0-1.3,0-2
		c0-0.6,0-1.3,0-2c0-0.6,0-1.3,0-2c0-0.6,0-1.3,0-2c0-0.6,0-1.3,0-2c0-0.6,0-1.3,0-2c0-0.6,0-1.3,0-2c0-0.6,0-1.3,0-2
		c0-0.6,0-1.3,0-2c0-0.6,0-1.3,0-2c0-0.6,0-1.3,0-2c0-0.6,0-1.3,0-2c0-0.6,0-1.3,0-2c0-0.6,0-1.3,0-2c0-0.6,0-1.3,0-2
		c0-0.6,0-1.3,0-2c0-0.6,0-1.3,0-2c0-0.6,0-1.3,0-2c0-0.6,0-1.3,0-2c0-0.6,0-1.3,0-2c0-0.6,0-1.3,0-2c0-0.6,0-1.3,0-2
		c0-0.6,0-1.3,0-2c0-0.6,0-1.3,0-2c0-0.6,0-1.3,0-2s0-1.3,0-2c0-0.6,0-1.3,0-2S390.1,4.7,390.1,4.1z"/>
	<path class="st0" d="M382,18.3c0-0.6,0-1.3,0-2c-0.6,0-1.3,0-2,0c-0.6,0-1.3,0-2,0c0,0.6,0,1.3,0,2c0,0.6,0,1.3,0,2
		c0.7,0,1.3,0,2,0c0.6,0,1.3,0,2,0C382,19.6,382,18.9,382,18.3z"/>
	<path class="st0" d="M375.9,16.2c0.7,0,1.3,0,2,0c0-0.6,0-1.3,0-2c0-0.6,0-1.3,0-2c-0.7,0-1.3,0-2,0c-0.6,0-1.3,0-2,0
		c0,0.6,0,1.3,0,2c0,0.6,0,1.3,0,2C374.6,16.2,375.2,16.2,375.9,16.2z"/>
	<path class="st0" d="M373.9,18.3c0-0.6,0-1.3,0-2c-0.6,0-1.3,0-2,0c-0.7,0-1.3,0-2,0c0,0.6,0,1.3,0,2c0,0.6,0,1.3,0,2
		c0.7,0,1.3,0,2,0c0.6,0,1.3,0,2,0C373.9,19.6,373.9,18.9,373.9,18.3z"/>
	<path class="st0" d="M367.8,16.2c0.7,0,1.3,0,2,0c0-0.6,0-1.3,0-2c0-0.6,0-1.3,0-2c-0.7,0-1.3,0-2,0c-0.6,0-1.3,0-2,0
		c0,0.6,0,1.3,0,2c0,0.6,0,1.3,0,2C366.4,16.2,367.1,16.2,367.8,16.2z"/>
	<path class="st0" d="M365.8,18.3c0-0.6,0-1.3,0-2c-0.6,0-1.3,0-2,0c-0.6,0-1.3,0-2,0c0,0.6,0,1.4,0,2s0,1.3,0,2c0.6,0,1.3,0,2,0
		c0.6,0,1.3,0,2,0C365.8,19.6,365.8,18.9,365.8,18.3z"/>
	<path class="st0" d="M359.7,16.2c0.6,0,1.3,0,2,0c0-0.6,0-1.3,0-2c0-0.6,0-1.3,0-2c-0.6,0-1.3,0-2,0s-1.3,0-2,0c0,0.6,0,1.3,0,2
		c0,0.6,0,1.3,0,2C358.3,16.2,359,16.2,359.7,16.2z"/>
	<path class="st0" d="M357.7,18.3c0-0.6,0-1.3,0-2c-0.7,0-1.3,0-2,0c-0.6,0-1.3,0-2,0c0,0.6,0,1.4,0,2s0,1.3,0,2c0.6,0,1.3,0,2,0
		c0.6,0,1.3,0,2,0C357.7,19.6,357.7,18.9,357.7,18.3z"/>
	<path class="st0" d="M351.6,16.2c0.6,0,1.3,0,2,0c0-0.6,0-1.3,0-2c0-0.6,0-1.3,0-2c-0.6,0-1.3,0-2,0c-0.6,0-1.3,0-2,0
		c0,0.6,0,1.3,0,2c0,0.6,0,1.3,0,2C350.2,16.2,350.9,16.2,351.6,16.2z"/>
	<path class="st0" d="M349.6,18.3c0-0.6,0-1.3,0-2c-0.7,0-1.3,0-2,0c-0.6,0-1.3,0-2,0c0,0.6,0,1.4,0,2s0,1.3,0,2c0.6,0,1.3,0,2,0
		c0.6,0,1.3,0,2,0C349.6,19.6,349.6,18.9,349.6,18.3z"/>
	<path class="st0" d="M343.5,16.2c0.6,0,1.3,0,2,0c0-0.6,0-1.3,0-2c0-0.6,0-1.3,0-2c-0.7,0-1.3,0-2,0c-0.7,0-1.3,0-2,0
		c0,0.6,0,1.3,0,2c0,0.6,0,1.3,0,2C342.1,16.2,342.8,16.2,343.5,16.2z"/>
	<path class="st0" d="M341.5,101.4c0,0.6,0,1.3,0,2c0,0.6,0,1.3,0,2c0,0.6,0,1.3,0,2c0,0.6,0,1.3,0,2c0.7,0,1.3,0,2,0
		c0.6,0,1.3,0,2,0c0.6,0,1.3,0,2,0c0.6,0,1.3,0,2,0c0.7,0,1.3,0,2,0c0.6,0,1.3,0,2,0c0.6,0,1.3,0,2,0c0.6,0,1.3,0,2,0
		c0.7,0,1.3,0,2,0c0.6,0,1.3,0,2,0c0.6,0,1.3,0,2,0c0.6,0,1.3,0,2,0c0.6,0,1.3,0,2,0c0.7,0,1.3,0,2,0c0.7,0,1.3,0,2,0
		c0.6,0,1.3,0,2,0c0.6,0,1.3,0,2,0c0.7,0,1.3,0,2,0c0.7,0,1.3,0,2,0c0.6,0,1.3,0,2,0c0.6,0,1.3,0,2,0c0.7,0,1.3,0,2,0
		c0,0.6,0,1.3,0,2c0,0.6,0,1.3,0,2c0,0.6,0,1.3,0,2c0,0.6,0,1.3,0,2c0,0.6,0,1.3,0,2c0,0.6,0,1.3,0,2c0.7,0,1.3,0,2,0
		c0.7,0,1.3,0,2,0c0-0.6,0-1.3,0-2c0-0.6,0-1.3,0-2c0-0.6,0-1.3,0-2c0-0.6,0-1.3,0-2c0-0.6,0-1.3,0-2c0-0.6,0-1.3,0-2
		c0-0.6,0-1.3,0-2c0-0.6,0-1.3,0-2c0-0.6,0-1.3,0-2c0-0.6,0-1.3,0-2c-0.7,0-1.3,0-2,0c-0.7,0-1.3,0-2,0c-0.7,0-1.3,0-2,0
		c-0.6,0-1.3,0-2,0c-0.6,0-1.3,0-2,0c-0.6,0-1.3,0-2,0c-0.7,0-1.3,0-2,0c-0.6,0-1.3,0-2,0c-0.6,0-1.3,0-2,0c-0.7,0-1.3,0-2,0
		c-0.7,0-1.3,0-2,0c-0.6,0-1.3,0-2,0c-0.6,0-1.3,0-2,0c-0.6,0-1.3,0-2,0c-0.6,0-1.3,0-2,0c-0.7,0-1.3,0-2,0c-0.7,0-1.3,0-2,0
		c-0.6,0-1.3,0-2,0c-0.6,0-1.3,0-2,0c-0.6,0-1.3,0-2,0c-0.7,0-1.3,0-2,0c-0.6,0-1.3,0-2,0c-0.7,0-1.3,0-2,0
		C342.8,101.4,342.1,101.4,341.5,101.4z"/>
	<path class="st0" d="M335.4,95.3c0-0.6,0-1.3,0-2c-0.6,0-1.3,0-2,0c-0.6,0-1.3,0-2,0c-0.7,0-1.3,0-2,0c-0.6,0-1.3,0-2,0
		c-0.7,0-1.3,0-2,0c-0.6,0-1.3,0-2,0c-0.6,0-1.3,0-2,0c-0.6,0-1.3,0-2,0c-0.6,0-1.3,0-2,0c-0.7,0-1.3,0-2,0c-0.6,0-1.3,0-2,0
		c-0.7,0-1.3,0-2,0c-0.7,0-1.3,0-2,0c-0.7,0-1.3,0-2,0c-0.6,0-1.3,0-2,0c-0.6,0-1.3,0-2,0c-0.6,0-1.3,0-2,0c-0.6,0-1.3,0-2,0
		c-0.6,0-1.3,0-2,0c-0.7,0-1.3,0-2,0c-0.6,0-1.3,0-2,0c-0.6,0-1.3,0-2,0c-0.6,0-1.3,0-2,0c-0.7,0-1.3,0-2,0c-0.6,0-1.3,0-2,0
		c-0.7,0-1.3,0-2,0c-0.7,0-1.3,0-2,0c-0.7,0-1.3,0-2,0c-0.6,0-1.3,0-2,0c-0.7,0-1.3,0-2,0c-0.6,0-1.3,0-2,0c-0.6,0-1.3,0-2,0
		c-0.7,0-1.3,0-2,0c-0.7,0-1.3,0-2,0c-0.7,0-1.3,0-2,0c-0.7,0-1.3,0-2,0c-0.6,0-1.3,0-2,0c-0.6,0-1.3,0-2,0c-0.7,0-1.3,0-2,0
		c-0.6,0-1.3,0-2,0c-0.6,0-1.3,0-2,0c-0.6,0-1.3,0-2,0s-1.3,0-2,0s-1.3,0-2,0c-0.6,0-1.3,0-2,0c-0.6,0-1.3,0-2,0c-0.6,0-1.3,0-2,0
		c-0.6,0-1.3,0-2,0c-0.6,0-1.3,0-2,0s-1.3,0-2,0c-0.6,0-1.3,0-2,0c-0.6,0-1.3,0-2,0c-0.6,0-1.3,0-2,0s-1.4,0-2,0s-1.3,0-2,0
		s-1.3,0-2,0s-1.3,0-2,0s-1.3,0-2,0c-0.6,0-215.1,0-215.8,0s-1.3,0-2,0c0,0.6,0,1.3,0,2c0,0.6,0,1.4,0,2s0,1.3,0,2c0,0.6,0,1.3,0,2
		c0.7,0,1.3,0,2,0c0.6,0,215.1,0,215.8,0c0.6,0,1.3,0,2,0s1.3,0,2,0c0.6,0,1.3,0,2,0s1.3,0,2,0s1.3,0,2,0s1.3,0,2,0c0.6,0,1.3,0,2,0
		c0.6,0,1.3,0,2,0c0.6,0,1.3,0,2,0s1.3,0,2,0c0.6,0,1.3,0,2,0c0.6,0,1.3,0,2,0c0.6,0,1.3,0,2,0c0.6,0,1.3,0,2,0s1.4,0,2,0s1.3,0,2,0
		c0.6,0,1.3,0,2,0c0.6,0,1.3,0,2,0c0.6,0,1.3,0,2,0c0.7,0,1.3,0,2,0c0.6,0,1.3,0,2,0c0.6,0,1.3,0,2,0c0.6,0,1.3,0,2,0
		c0.6,0,1.3,0,2,0c0.6,0,1.3,0,2,0c0.6,0,1.3,0,2,0c0.6,0,1.3,0,2,0c0.6,0,1.3,0,2,0c0.7,0,1.3,0,2,0c0.7,0,1.3,0,2,0
		c0.7,0,1.3,0,2,0c0.7,0,1.3,0,2,0c0.6,0,1.3,0,2,0c0.7,0,1.3,0,2,0c0.6,0,1.3,0,2,0c0.6,0,1.3,0,2,0c0.6,0,1.3,0,2,0
		c0.6,0,1.3,0,2,0c0.6,0,1.3,0,2,0c0.7,0,1.3,0,2,0c0.6,0,1.3,0,2,0c0.6,0,1.3,0,2,0c0.6,0,1.3,0,2,0c0.6,0,1.3,0,2,0
		c0.6,0,1.3,0,2,0c0.6,0,1.3,0,2,0c0.6,0,1.3,0,2,0c0.6,0,1.3,0,2,0c0.7,0,1.3,0,2,0c0.7,0,1.3,0,2,0c0.6,0,1.3,0,2,0
		c0.6,0,1.3,0,2,0c0.6,0,1.3,0,2,0c0.7,0,1.3,0,2,0c0.7,0,1.3,0,2,0c0.6,0,1.3,0,2,0c0.6,0,1.3,0,2,0c0.6,0,1.3,0,2,0
		c0-0.6,0-1.3,0-2c0-0.6,0-1.3,0-2C335.4,96.7,335.4,96,335.4,95.3z"/>
	<path class="st0" d="M331.4,68.9c-0.7,0-1.3,0-2,0c-0.6,0-1.3,0-2,0c-0.7,0-1.3,0-2,0c-0.6,0-1.3,0-2,0c-0.6,0-1.3,0-2,0
		c-0.6,0-1.3,0-2,0c-0.6,0-1.3,0-2,0c-0.7,0-1.3,0-2,0c-0.6,0-1.3,0-2,0c-0.7,0-1.3,0-2,0c-0.7,0-1.3,0-2,0c-0.7,0-1.3,0-2,0
		c-0.6,0-1.3,0-2,0c-0.6,0-1.3,0-2,0c-0.6,0-1.3,0-2,0c-0.6,0-1.3,0-2,0c-0.6,0-1.3,0-2,0c-0.7,0-1.3,0-2,0c-0.7,0-1.3,0-2,0
		c-0.6,0-1.3,0-2,0c-0.7,0-1.4,0-2,0c-0.6,0-1.3,0-2,0c-0.6,0-1.3,0-2,0c-0.6,0-1.3,0-2,0c-0.7,0-1.3,0-2,0c-0.7,0-1.3,0-2,0
		c-0.6,0-1.3,0-2,0c-0.7,0-1.3,0-2,0c-0.6,0-1.3,0-2,0c-0.6,0-1.3,0-2,0c-0.7,0-1.3,0-2,0c-0.7,0-1.3,0-2,0c-0.7,0-1.3,0-2,0
		c-0.7,0-1.3,0-2,0c-0.6,0-1.3,0-2,0c-0.6,0-1.3,0-2,0c-0.7,0-1.3,0-2,0c-0.6,0-1.3,0-2,0c-0.6,0-1.3,0-2,0c-0.6,0-1.3,0-2,0
		s-1.3,0-2,0s-1.3,0-2,0c-0.6,0-1.3,0-2,0c-0.6,0-1.3,0-2,0c-0.6,0-1.3,0-2,0c-0.6,0-1.3,0-2,0c-0.6,0-1.3,0-2,0s-1.3,0-2,0
		c-0.6,0-1.3,0-2,0c-0.6,0-1.3,0-2,0s-1.3,0-2,0c-0.6,0-1.3,0-2,0s-1.3,0-2,0c-0.6,0-1.3,0-2,0s-1.3,0-2,0s-1.3,0-2,0
		c-0.6,0-215.1,0-215.8,0s-1.3,0-2,0c0,0.6,0,1.3,0,2c0,0.6,0,1.3,0,2c0.7,0,1.3,0,2,0c0.6,0,215.1,0,215.8,0c0.6,0,1.3,0,2,0
		s1.3,0,2,0c0.6,0,1.3,0,2,0s1.3,0,2,0s1.3,0,2,0s1.3,0,2,0c0.6,0,1.3,0,2,0c0.6,0,1.3,0,2,0c0.6,0,1.3,0,2,0s1.3,0,2,0
		c0.6,0,1.3,0,2,0c0.6,0,1.3,0,2,0c0.6,0,1.3,0,2,0c0.6,0,1.3,0,2,0s1.4,0,2,0s1.3,0,2,0c0.6,0,1.3,0,2,0c0.6,0,1.3,0,2,0
		c0.6,0,1.3,0,2,0c0.7,0,1.3,0,2,0c0.6,0,1.3,0,2,0c0.6,0,1.3,0,2,0c0.6,0,1.3,0,2,0c0.6,0,1.3,0,2,0c0.6,0,1.3,0,2,0
		c0.6,0,1.3,0,2,0c0.6,0,1.3,0,2,0c0.6,0,1.3,0,2,0c0.7,0,1.3,0,2,0c0.7,0,1.3,0,2,0c0.7,0,1.3,0,2,0c0.7,0,1.3,0,2,0
		c0.6,0,1.3,0,2,0c0.7,0,1.3,0,2,0c0.6,0,1.3,0,2,0c0.6,0,1.3,0,2,0c0.6,0,1.3,0,2,0c0.6,0,1.3,0,2,0c0.6,0,1.3,0,2,0
		c0.7,0,1.3,0,2,0c0.6,0,1.3,0,2,0c0.6,0,1.3,0,2,0c0.6,0,1.3,0,2,0c0.6,0,1.3,0,2,0c0.6,0,1.3,0,2,0c0.6,0,1.3,0,2,0
		c0.6,0,1.3,0,2,0c0.6,0,1.3,0,2,0c0.7,0,1.3,0,2,0c0.7,0,1.3,0,2,0c0.6,0,1.3,0,2,0c0.6,0,1.3,0,2,0c0.6,0,1.3,0,2,0
		c0.7,0,1.3,0,2,0c0.7,0,1.3,0,2,0c0.6,0,1.3,0,2,0c0.6,0,1.3,0,2,0c0.6,0,1.3,0,2,0c0-0.7,0-1.3,0-2c0-0.6,0-1.3,0-2
		c-0.6,0-1.3,0-2,0C332.7,68.9,332,68.9,331.4,68.9z"/>
	<path class="st0" d="M335.4,18.3c0-0.6,0-1.3,0-2c-0.6,0-1.3,0-2,0c0,0.6,0,1.3,0,2c0,0.6,0,1.3,0,2c0.6,0,1.3,0,2,0
		C335.4,19.6,335.4,18.9,335.4,18.3z"/>
	<path class="st0" d="M333.4,22.3c0-0.6,0-1.3,0-2c-0.6,0-1.3,0-2,0c-0.7,0-1.3,0-2,0c0,0.6,0,1.3,0,2c0,0.6,0,1.3,0,2
		c0.6,0,1.3,0,2,0c0.6,0,1.3,0,2,0C333.4,23.7,333.4,23,333.4,22.3z"/>
	<path class="st0" d="M327.2,20.3c0.7,0,1.3,0,2,0c0-0.6,0-1.3,0-2c0-0.6,0-1.3,0-2c-0.6,0-1.3,0-2,0c-0.7,0-1.3,0-2,0
		c0,0.6,0,1.3,0,2c0,0.6,0,1.3,0,2C325.9,20.3,326.6,20.3,327.2,20.3z"/>
	<path class="st0" d="M325.2,22.3c0-0.6,0-1.3,0-2c-0.6,0-1.3,0-2,0c-0.6,0-1.3,0-2,0c0,0.6,0,1.3,0,2c0,0.6,0,1.3,0,2
		c0.6,0,1.3,0,2,0c0.6,0,1.3,0,2,0C325.2,23.7,325.2,23,325.2,22.3z"/>
	<path class="st0" d="M319.1,20.3c0.6,0,1.3,0,2,0c0-0.6,0-1.4,0-2s0-1.3,0-2c-0.6,0-1.3,0-2,0c-0.6,0-1.3,0-2,0c0,0.6,0,1.3,0,2
		c0,0.6,0,1.3,0,2C317.8,20.3,318.5,20.3,319.1,20.3z"/>
	<path class="st0" d="M317.1,22.3c0-0.6,0-1.3,0-2c-0.7,0-1.3,0-2,0c-0.6,0-1.3,0-2,0c0,0.6,0,1.3,0,2c0,0.6,0,1.3,0,2
		c0.6,0,1.3,0,2,0c0.7,0,1.3,0,2,0C317.1,23.7,317.1,23,317.1,22.3z"/>
	<path class="st0" d="M311,20.3c0.6,0,1.3,0,2,0c0-0.6,0-1.4,0-2s0-1.3,0-2c-0.7,0-1.3,0-2,0c-0.7,0-1.3,0-2,0c0,0.6,0,1.3,0,2
		c0,0.6,0,1.3,0,2C309.7,20.3,310.4,20.3,311,20.3z"/>
	<path class="st0" d="M309,22.3c0-0.6,0-1.3,0-2c-0.7,0-1.3,0-2,0c-0.6,0-1.3,0-2,0c0,0.6,0,1.3,0,2c0,0.6,0,1.3,0,2
		c0.6,0,1.3,0,2,0c0.6,0,1.3,0,2,0C309,23.7,309,23,309,22.3z"/>
	<path class="st0" d="M302.9,20.3c0.6,0,1.3,0,2,0c0-0.6,0-1.4,0-2s0-1.3,0-2c-0.6,0-1.3,0-2,0c-0.6,0-1.3,0-2,0c0,0.6,0,1.4,0,2
		s0,1.3,0,2C301.6,20.3,302.3,20.3,302.9,20.3z"/>
	<path class="st0" d="M300.9,22.3c0-0.6,0-1.3,0-2c-0.6,0-1.3,0-2,0c-0.6,0-1.3,0-2,0c0,0.6,0,1.3,0,2c0,0.6,0,1.3,0,2
		c0.7,0,1.3,0,2,0c0.6,0,1.3,0,2,0C300.9,23.7,300.9,23,300.9,22.3z"/>
	<path class="st0" d="M294.8,20.3c0.6,0,1.3,0,2,0c0-0.6,0-1.3,0-2c0-0.6,0-1.3,0-2c-0.7,0-1.3,0-2,0c-0.6,0-1.3,0-2,0
		c0,0.6,0,1.4,0,2s0,1.3,0,2C293.5,20.3,294.2,20.3,294.8,20.3z"/>
	<path class="st0" d="M292.8,22.3c0-0.6,0-1.3,0-2c-0.6,0-1.3,0-2,0c-0.6,0-1.3,0-2,0c0,0.6,0,1.3,0,2c0,0.6,0,1.3,0,2
		c0.6,0,1.3,0,2,0c0.6,0,1.3,0,2,0C292.8,23.7,292.8,23,292.8,22.3z"/>
	<path class="st0" d="M286.7,20.3c0.6,0,1.3,0,2,0c0-0.6,0-1.3,0-2c0-0.6,0-1.3,0-2c-0.7,0-1.3,0-2,0c-0.6,0-1.3,0-2,0
		c0,0.6,0,1.4,0,2s0,1.3,0,2C285.4,20.3,286.1,20.3,286.7,20.3z"/>
	<path class="st0" d="M284.7,22.3c0-0.6,0-1.3,0-2c-0.7,0-1.3,0-2,0c-0.7,0-1.3,0-2,0c0,0.6,0,1.3,0,2c0,0.6,0,1.3,0,2
		c0.7,0,1.3,0,2,0c0.6,0,1.3,0,2,0C284.7,23.7,284.7,23,284.7,22.3z"/>
	<path class="st0" d="M278.6,20.3c0.7,0,1.3,0,2,0c0-0.6,0-1.3,0-2c0-0.6,0-1.3,0-2c-0.7,0-1.3,0-2,0c-0.6,0-1.3,0-2,0
		c0,0.6,0,1.3,0,2c0,0.6,0,1.3,0,2C277.3,20.3,278,20.3,278.6,20.3z"/>
	<path class="st0" d="M276.6,22.3c0-0.6,0-1.3,0-2c-0.7,0-1.3,0-2,0c0,0.6,0,1.3,0,2c0,0.6,0,1.3,0,2c0.7,0,1.3,0,2,0
		C276.6,23.7,276.6,23,276.6,22.3z"/>
	<path class="st0" d="M272.6,20.2c0.6,0,1.3,0,2,0c0-0.6,0-1.3,0-2c0-0.6,0-1.3,0-2c-0.6,0-1.3,0-2,0c0,0.6,0,1.3,0,2
		C272.6,18.9,272.6,19.6,272.6,20.2z"/>
	<path class="st0" d="M272.6,22.3c0-0.6,0-1.3,0-2c-0.6,0-1.3,0-2,0c-0.7,0-1.3,0-2,0c0,0.6,0,1.3,0,2c0,0.6,0,1.3,0,2
		c0.6,0,1.3,0,2,0c0.6,0,1.3,0,2,0C272.6,23.7,272.6,23,272.6,22.3z"/>
	<path class="st0" d="M266.5,20.3c0.6,0,1.3,0,2,0c0-0.6,0-1.4,0-2s0-1.3,0-2c-0.7,0-1.3,0-2,0c-0.7,0-1.3,0-2,0c0,0.6,0,1.3,0,2
		c0,0.6,0,1.3,0,2C265.1,20.3,265.8,20.3,266.5,20.3z"/>
	<path class="st0" d="M264.5,22.3c0-0.6,0-1.3,0-2c-0.7,0-1.3,0-2,0c-0.6,0-1.3,0-2,0c0,0.6,0,1.3,0,2c0,0.6,0,1.3,0,2
		c0.6,0,1.3,0,2,0c0.6,0,1.3,0,2,0C264.5,23.7,264.5,23,264.5,22.3z"/>
	<path class="st0" d="M258.3,20.3c0.6,0,1.3,0,2,0c0-0.6,0-1.4,0-2s0-1.3,0-2c-0.6,0-1.3,0-2,0c-0.7,0-1.3,0-2,0c0,0.6,0,1.3,0,2
		c0,0.6,0,1.3,0,2C257,20.3,257.7,20.3,258.3,20.3z"/>
	<path class="st0" d="M256.3,22.3c0-0.6,0-1.3,0-2c-0.6,0-1.3,0-2,0c-0.6,0-1.3,0-2,0c0,0.6,0,1.3,0,2c0,0.6,0,1.3,0,2
		c0.6,0,1.3,0,2,0c0.6,0,1.3,0,2,0C256.3,23.7,256.3,23,256.3,22.3z"/>
	<path class="st0" d="M250.2,20.3c0.6,0,1.3,0,2,0c0-0.6,0-1.4,0-2s0-1.3,0-2c-0.6,0-1.3,0-2,0s-1.3,0-2,0c0,0.6,0,1.3,0,2
		c0,0.6,0,1.3,0,2C248.9,20.3,249.6,20.3,250.2,20.3z"/>
	<path class="st0" d="M248.2,22.3c0-0.6,0-1.3,0-2c-0.7,0-1.3,0-2,0c-0.6,0-1.3,0-2,0c0,0.6,0,1.3,0,2c0,0.6,0,1.3,0,2
		c0.6,0,1.3,0,2,0s1.3,0,2,0C248.2,23.7,248.2,23,248.2,22.3z"/>
	<path class="st0" d="M242.1,20.3c0.6,0,1.3,0,2,0c0-0.6,0-1.4,0-2s0-1.3,0-2c-0.6,0-1.3,0-2,0c-0.6,0-1.3,0-2,0c0,0.6,0,1.4,0,2
		s0,1.3,0,2C240.8,20.3,241.5,20.3,242.1,20.3z"/>
	<path class="st0" d="M240.1,22.3c0-0.6,0-1.3,0-2c-0.6,0-1.3,0-2,0c-0.6,0-1.3,0-2,0c0,0.6,0,1.3,0,2c0,0.6,0,1.3,0,2
		c0.7,0,1.3,0,2,0c0.6,0,1.3,0,2,0C240.1,23.7,240.1,23,240.1,22.3z"/>
	<path class="st0" d="M234,20.3c0.6,0,1.3,0,2,0c0-0.6,0-1.3,0-2c0-0.6,0-1.3,0-2c-0.7,0-1.3,0-2,0c-0.6,0-1.3,0-2,0
		c0,0.6,0,1.4,0,2s0,1.3,0,2C232.7,20.3,233.4,20.3,234,20.3z"/>
	<path class="st0" d="M232,22.3c0-0.6,0-1.3,0-2c-0.6,0-1.3,0-2,0c-0.6,0-1.3,0-2,0c0,0.6,0,1.3,0,2c0,0.6,0,1.3,0,2
		c0.7,0,1.3,0,2,0c0.6,0,1.3,0,2,0C232,23.7,232,23,232,22.3z"/>
	<path class="st0" d="M225.9,20.3c0.7,0,1.3,0,2,0c0-0.6,0-1.3,0-2c0-0.6,0-1.3,0-2c-0.7,0-1.4,0-2,0s-1.3,0-2,0c0,0.6,0,1.4,0,2
		s0,1.3,0,2C224.6,20.3,225.2,20.3,225.9,20.3z"/>
	<path class="st0" d="M223.9,22.3c0-0.6,0-1.3,0-2c-0.7,0-1.3,0-2,0s-1.3,0-2,0c0,0.6,0,1.3,0,2c0,0.6,0,1.3,0,2c0.7,0,1.3,0,2,0
		c0.6,0,1.3,0,2,0C223.9,23.7,223.9,23,223.9,22.3z"/>
	<path class="st0" d="M217.9,24.3c-0.6,0-215.1,0-215.8,0c0,0.6,0,1.3,0,2c0,0.6,0,1.3,0,2c-0.7,0-1.3,0-2,0c0,0.6,0,1.3,0,2
		c0,0.6,0,1.3,0,2c0,0.6,0,1.3,0,2c0,0.6,0,1.3,0,2c0,0.6,0,1.3,0,2c0,0.6,0,1.3,0,2c0,0.6,0,1.3,0,2c0,0.6,0,1.3,0,2
		c0,0.6,0,1.3,0,2c0,0.6,0,1.3,0,2c0,0.6,0,1.3,0,2c0,0.6,0,1.3,0,2c0,0.6,0,1.3,0,2c0,0.6,0,1.3,0,2c0,0.6,0,1.3,0,2
		c0,0.6,0,1.3,0,2c0,0.6,0,1.3,0,2c0.6,0,1.3,0,2,0c0.6,0,215.1,0,215.8,0s1.3,0,2,0s1.3,0,2,0c0.6,0,1.3,0,2,0s1.4,0,2,0s1.3,0,2,0
		s1.3,0,2,0c0.6,0,1.3,0,2,0c0.6,0,1.3,0,2,0c0.6,0,1.3,0,2,0s1.3,0,2,0c0.6,0,1.3,0,2,0c0.6,0,1.3,0,2,0c0.6,0,1.3,0,2,0
		c0.6,0,1.3,0,2,0c0.6,0,1.3,0,2,0c0.6,0,1.3,0,2,0c0.6,0,1.3,0,2,0c0.6,0,1.3,0,2,0s1.3,0,2,0s1.3,0,2,0c0.6,0,1.3,0,2,0
		c0.6,0,1.3,0,2,0c0.6,0,1.3,0,2,0c0.6,0,1.3,0,2,0c0.6,0,1.3,0,2,0c0.6,0,1.3,0,2,0c0.6,0,1.3,0,2,0c0.6,0,1.3,0,2,0
		c0.6,0,1.3,0,2,0c0.7,0,1.3,0,2,0c0.7,0,1.3,0,2,0c0.7,0,1.3,0,2,0c0.6,0,1.3,0,2,0c0.7,0,1.3,0,2,0c0.6,0,1.3,0,2,0
		c0.6,0,1.3,0,2,0c0.6,0,1.3,0,2,0c0.6,0,1.3,0,2,0c0.7,0,1.3,0,2,0c0.6,0,1.3,0,2,0c0.6,0,1.3,0,2,0c0.6,0,1.3,0,2,0
		c0.6,0,1.3,0,2,0c0.6,0,1.3,0,2,0c0.6,0,1.3,0,2,0c0.6,0,1.3,0,2,0c0.6,0,1.3,0,2,0c0.6,0,1.3,0,2,0c0.7,0,1.3,0,2,0
		c0.7,0,1.3,0,2,0c0.6,0,1.3,0,2,0c0.6,0,1.3,0,2,0c0.6,0,1.3,0,2,0c0.7,0,1.3,0,2,0c0.6,0,1.3,0,2,0c0.6,0,1.3,0,2,0
		c0.6,0,1.3,0,2,0c0.6,0,1.3,0,2,0c0-0.6,0-1.3,0-2c0-0.6,0-1.3,0-2c0-0.6,0-1.3,0-2c0-0.6,0-1.3,0-2c0-0.6,0-1.3,0-2
		c0-0.6,0-1.3,0-2c0-0.6,0-1.3,0-2c0-0.6,0-1.3,0-2c0-0.6,0-1.3,0-2c0-0.6,0-1.3,0-2c0-0.6,0-1.3,0-2c0-0.6,0-1.3,0-2
		c0-0.6,0-1.3,0-2c0-0.6,0-1.3,0-2c0-0.6,0-1.3,0-2c0-0.6,0-1.3,0-2c0-0.6,0-1.3,0-2c0-0.6,0-1.3,0-2c0-0.6,0-1.3,0-2
		c-0.6,0-1.3,0-2,0c0,0.6,0,1.3,0,2c0,0.6,0,1.3,0,2c-0.6,0-1.3,0-2,0c-0.7,0-1.3,0-2,0c0-0.6,0-1.3,0-2c0-0.6,0-1.3,0-2
		c-0.6,0-1.3,0-2,0c-0.7,0-1.3,0-2,0c0,0.6,0,1.3,0,2c0,0.6,0,1.3,0,2c-0.6,0-1.3,0-2,0c-0.6,0-1.3,0-2,0c0-0.6,0-1.3,0-2
		c0-0.6,0-1.3,0-2c-0.6,0-1.3,0-2,0c-0.6,0-1.3,0-2,0c0,0.6,0,1.3,0,2c0,0.6,0,1.3,0,2c-0.7,0-1.3,0-2,0c-0.6,0-1.3,0-2,0
		c0-0.6,0-1.3,0-2c0-0.6,0-1.3,0-2c-0.7,0-1.3,0-2,0c-0.7,0-1.3,0-2,0c0,0.6,0,1.3,0,2c0,0.6,0,1.3,0,2c-0.7,0-1.3,0-2,0
		c-0.6,0-1.3,0-2,0c0-0.6,0-1.3,0-2c0-0.6,0-1.3,0-2c-0.6,0-1.3,0-2,0c-0.6,0-1.3,0-2,0c0,0.6,0,1.3,0,2c0,0.6,0,1.3,0,2
		c-0.6,0-1.3,0-2,0c-0.6,0-1.3,0-2,0c0-0.6,0-1.3,0-2c0-0.6,0-1.3,0-2c-0.7,0-1.3,0-2,0c-0.6,0-1.3,0-2,0c0,0.6,0,1.3,0,2
		c0,0.6,0,1.3,0,2c-0.6,0-1.3,0-2,0c-0.6,0-1.3,0-2,0c0-0.6,0-1.3,0-2c0-0.6,0-1.3,0-2c-0.7,0-1.3,0-2,0c-0.6,0-1.3,0-2,0
		c0,0.6,0,1.3,0,2c0,0.6,0,1.3,0,2c-0.7,0-1.3,0-2,0c-0.7,0-1.3,0-2,0c0-0.6,0-1.3,0-2c0-0.6,0-1.3,0-2c-0.7,0-1.3,0-2,0
		c-0.6,0-1.3,0-2,0c0,0.6,0,1.3,0,2c0,0.6,0,1.3,0,2c-0.7,0-1.3,0-2,0c0-0.6,0-1.3,0-2c0-0.6,0-1.3,0-2c-0.6,0-1.3,0-2,0
		c0,0.6,0,1.3,0,2c0,0.6,0,1.3,0,2c-0.6,0-1.3,0-2,0c-0.7,0-1.3,0-2,0c0-0.6,0-1.3,0-2c0-0.6,0-1.3,0-2c-0.7,0-1.3,0-2,0
		c-0.7,0-1.3,0-2,0c0,0.6,0,1.3,0,2c0,0.6,0,1.3,0,2c-0.7,0-1.3,0-2,0c-0.6,0-1.3,0-2,0c0-0.6,0-1.3,0-2c0-0.6,0-1.3,0-2
		c-0.6,0-1.3,0-2,0c-0.7,0-1.3,0-2,0c0,0.6,0,1.3,0,2c0,0.6,0,1.3,0,2c-0.6,0-1.3,0-2,0c-0.6,0-1.3,0-2,0c0-0.6,0-1.3,0-2
		c0-0.6,0-1.3,0-2c-0.6,0-1.3,0-2,0s-1.3,0-2,0c0,0.6,0,1.3,0,2c0,0.6,0,1.3,0,2c-0.7,0-1.3,0-2,0c-0.6,0-1.3,0-2,0c0-0.6,0-1.3,0-2
		c0-0.6,0-1.3,0-2c-0.6,0-1.3,0-2,0c-0.6,0-1.3,0-2,0c0,0.6,0,1.3,0,2c0,0.6,0,1.3,0,2c-0.6,0-1.3,0-2,0c-0.6,0-1.3,0-2,0
		c0-0.6,0-1.3,0-2c0-0.6,0-1.3,0-2c-0.7,0-1.3,0-2,0c-0.6,0-1.3,0-2,0c0,0.6,0,1.3,0,2c0,0.6,0,1.3,0,2c-0.6,0-1.3,0-2,0
		c-0.6,0-1.3,0-2,0c0-0.6,0-1.3,0-2c0-0.6,0-1.3,0-2c-0.7,0-1.4,0-2,0s-1.3,0-2,0c0,0.6,0,1.3,0,2c0,0.6,0,1.3,0,2c-0.7,0-1.3,0-2,0
		s-1.3,0-2,0c0-0.6,0-1.3,0-2c0-0.6,0-1.3,0-2C219.2,24.3,218.5,24.3,217.9,24.3z"/>
	<path class="st0" d="M2,22.3c0-0.6-1.3-2-2-2c0,0.6,0,1.3,0,2c0,0.6,0,1.3,0,2c0.7,0,1.3,0,2,0C2,23.7,2,23,2,22.3z"/>
</g>
<path class="st2" d="M223.9,24.4c-0.6,0-1.3,0-2,0s-1.3,0-2,0c0,0.6,0,1.3,0,2c0,0.6,0,1.3,0,2c0.6,0,1.3,0,2,0c0.6,0,1.3,0,2,0"/>
<path class="st2" d="M215.8,22.3c0,0.6,0,1.3,0,2c0.7,0,1.3,0,2,0s1.3,0,2,0c0-0.6,0-1.3,0-2c0-0.6,0-1.3,0-2c-0.6,0-1.3,0-2,0
	s-1.3,0-2,0C215.8,20.9,215.8,21.6,215.8,22.3z"/>
<path class="st2" d="M213.8,24.3c-0.6,0-1.3,0-2,0c0,0.6,0,1.3,0,2c0,0.6,0,1.3,0,2c0.6,0,1.3,0,2,0c0.6,0,1.3,0,2,0
	c0-0.6,0-1.3,0-2c0-0.6,0-1.3,0-2C215.1,24.3,214.5,24.3,213.8,24.3z"/>
<path class="st2" d="M207.7,22.3c0,0.6,0,1.3,0,2c0.7,0,1.3,0,2,0c0.6,0,1.3,0,2,0c0-0.6,0-1.3,0-2c0-0.6,0-1.3,0-2
	c-0.6,0-1.3,0-2,0c-0.6,0-1.3,0-2,0C207.7,20.9,207.7,21.6,207.7,22.3z"/>
<path class="st2" d="M205.7,24.3c-0.6,0-1.3,0-2,0c0,0.6,0,1.3,0,2c0,0.6,0,1.3,0,2c0.6,0,1.3,0,2,0s1.3,0,2,0c0-0.6,0-1.3,0-2
	c0-0.6,0-1.3,0-2C207,24.3,206.4,24.3,205.7,24.3z"/>
<path class="st2" d="M199.6,22.3c0,0.6,0,1.3,0,2c0.6,0,1.3,0,2,0c0.6,0,1.3,0,2,0c0-0.6,0-1.3,0-2c0-0.6,0-1.3,0-2
	c-0.7,0-1.3,0-2,0s-1.3,0-2,0C199.6,20.9,199.6,21.6,199.6,22.3z"/>
<path class="st2" d="M197.6,24.3c-0.6,0-1.3,0-2,0c0,0.6,0,1.3,0,2c0,0.6,0,1.3,0,2c0.6,0,1.3,0,2,0c0.6,0,1.3,0,2,0
	c0-0.6,0-1.3,0-2c0-0.6,0-1.3,0-2C198.9,24.3,198.3,24.3,197.6,24.3z"/>
<path class="st2" d="M191.5,22.3c0,0.6,0,1.3,0,2c0.6,0,1.3,0,2,0c0.6,0,1.3,0,2,0c0-0.6,0-1.3,0-2c0-0.6,0-1.3,0-2
	c-0.6,0-1.3,0-2,0c-0.6,0-1.3,0-2,0C191.5,20.9,191.5,21.6,191.5,22.3z"/>
<path class="st2" d="M189.5,24.3c-0.6,0-1.3,0-2,0c0,0.6,0,1.3,0,2c0,0.6,0,1.3,0,2c0.7,0,1.3,0,2,0c0.6,0,1.3,0,2,0
	c0-0.6,0-1.3,0-2c0-0.6,0-1.3,0-2C190.8,24.3,190.1,24.3,189.5,24.3z"/>
<path class="st2" d="M183.4,22.3c0,0.6,0,1.3,0,2c0.6,0,1.3,0,2,0c0.6,0,1.3,0,2,0c0-0.6,0-1.3,0-2c0-0.6,0-1.3,0-2
	c-0.7,0-1.3,0-2,0c-0.6,0-1.3,0-2,0C183.4,20.9,183.4,21.6,183.4,22.3z"/>
<path class="st2" d="M181.4,24.3c-0.6,0-1.3,0-2,0c0,0.6,0,1.3,0,2c0,0.6,0,1.3,0,2c0.6,0,1.3,0,2,0c0.6,0,1.3,0,2,0
	c0-0.6,0-1.3,0-2c0-0.6,0-1.3,0-2C182.7,24.3,182,24.3,181.4,24.3z"/>
<path class="st2" d="M175.3,22.3c0,0.6,0,1.3,0,2c0.7,0,1.3,0,2,0c0.6,0,1.3,0,2,0c0-0.6,0-1.3,0-2c0-0.6,0-1.3,0-2
	c-0.7,0-1.3,0-2,0c-0.6,0-1.3,0-2,0C175.3,20.9,175.3,21.6,175.3,22.3z"/>
<path class="st2" d="M173.3,24.3c-0.7,0-1.3,0-2,0c0,0.6,0,1.3,0,2c0,0.6,0,1.3,0,2c0.7,0,1.3,0,2,0c0.6,0,1.3,0,2,0
	c0-0.6,0-1.3,0-2c0-0.6,0-1.3,0-2C174.6,24.3,173.9,24.3,173.3,24.3z"/>
<path class="st2" d="M167.2,22.3c0,0.6,0,1.3,0,2c0.7,0,1.3,0,2,0s1.3,0,2,0c0-0.6,0-1.3,0-2c0-0.6,0-1.3,0-2c-0.7,0-1.3,0-2,0
	c-0.6,0-1.3,0-2,0C167.2,20.9,167.2,21.6,167.2,22.3z"/>
<path class="st2" d="M167.2,24.4c-0.7,0-1.3,0-2,0c0,0.6,0,1.3,0,2c0,0.6,0,1.3,0,2c0.7,0,1.3,0,2,0c0-0.6,0-1.3,0-2
	C167.2,25.7,167.2,25,167.2,24.4z"/>
<path class="st2" d="M163.1,22.3c0,0.6,0,1.3,0,2c0.6,0,1.3,0,2,0c0-0.6,0-1.3,0-2c0-0.6,0-1.3,0-2c-0.6,0-1.3,0-2,0
	C163.1,20.9,163.1,21.6,163.1,22.3z"/>
<path class="st2" d="M161.1,24.3c-0.7,0-1.3,0-2,0c0,0.6,0,1.3,0,2c0,0.6,0,1.3,0,2c0.6,0,1.3,0,2,0c0.6,0,1.3,0,2,0
	c0-0.6,0-1.3,0-2c0-0.6,0-1.3,0-2C162.4,24.3,161.8,24.3,161.1,24.3z"/>
<path class="st2" d="M155,22.3c0,0.6,0,1.3,0,2c0.6,0,1.3,0,2,0c0.6,0,1.3,0,2,0c0-0.6,0-1.3,0-2c0-0.6,0-1.3,0-2c-0.7,0-1.3,0-2,0
	s-1.3,0-2,0C155,20.9,155,21.6,155,22.3z"/>
<path class="st2" d="M153,24.3c-0.6,0-1.3,0-2,0c0,0.6,0,1.3,0,2c0,0.6,0,1.3,0,2c0.6,0,1.3,0,2,0c0.6,0,1.3,0,2,0c0-0.6,0-1.3,0-2
	c0-0.6,0-1.3,0-2C154.3,24.3,153.7,24.3,153,24.3z"/>
<path class="st2" d="M146.9,22.3c0,0.6,0,1.3,0,2c0.7,0,1.3,0,2,0c0.6,0,1.3,0,2,0c0-0.6,0-1.3,0-2c0-0.6,0-1.3,0-2
	c-0.6,0-1.3,0-2,0s-1.3,0-2,0C146.9,20.9,146.9,21.6,146.9,22.3z"/>
<path class="st2" d="M144.9,24.3c-0.6,0-1.3,0-2,0c0,0.6,0,1.3,0,2c0,0.6,0,1.3,0,2c0.6,0,1.3,0,2,0c0.6,0,1.3,0,2,0
	c0-0.6,0-1.3,0-2c0-0.6,0-1.3,0-2C146.2,24.3,145.6,24.3,144.9,24.3z"/>
<path class="st2" d="M138.8,22.3c0,0.6,0,1.3,0,2c0.6,0,1.3,0,2,0c0.6,0,1.3,0,2,0c0-0.6,0-1.3,0-2c0-0.6,0-1.3,0-2
	c-0.6,0-1.3,0-2,0s-1.3,0-2,0C138.8,20.9,138.8,21.6,138.8,22.3z"/>
<path class="st2" d="M136.8,24.3c-0.6,0-1.3,0-2,0c0,0.6,0,1.3,0,2c0,0.6,0,1.3,0,2c0.6,0,1.3,0,2,0s1.3,0,2,0c0-0.6,0-1.3,0-2
	c0-0.6,0-1.3,0-2C138.1,24.3,137.5,24.3,136.8,24.3z"/>
<path class="st2" d="M130.7,22.3c0,0.6,0,1.3,0,2c0.6,0,1.3,0,2,0c0.6,0,1.3,0,2,0c0-0.6,0-1.3,0-2c0-0.6,0-1.3,0-2
	c-0.6,0-1.3,0-2,0c-0.6,0-1.3,0-2,0C130.7,20.9,130.7,21.6,130.7,22.3z"/>
<path class="st2" d="M128.7,24.3c-0.6,0-1.3,0-2,0c0,0.6,0,1.3,0,2c0,0.6,0,1.3,0,2c0.7,0,1.3,0,2,0c0.6,0,1.3,0,2,0
	c0-0.6,0-1.3,0-2c0-0.6,0-1.3,0-2C130,24.3,129.3,24.3,128.7,24.3z"/>
<path class="st2" d="M122.6,22.3c0,0.6,0,1.3,0,2c0.6,0,1.3,0,2,0c0.6,0,1.3,0,2,0c0-0.6,0-1.3,0-2c0-0.6,0-1.3,0-2
	c-0.7,0-1.3,0-2,0c-0.6,0-1.3,0-2,0C122.6,20.9,122.6,21.6,122.6,22.3z"/>
<path class="st2" d="M120.6,24.3c-0.6,0-1.3,0-2,0c0,0.6,0,1.3,0,2c0,0.6,0,1.3,0,2c0.7,0,1.4,0,2,0s1.3,0,2,0c0-0.6,0-1.3,0-2
	c0-0.6,0-1.3,0-2C121.9,24.3,121.2,24.3,120.6,24.3z"/>
<path class="st2" d="M114.5,22.3c0,0.6,0,1.3,0,2c0.7,0,1.3,0,2,0s1.3,0,2,0c0-0.6,0-1.3,0-2c0-0.6,0-1.3,0-2c-0.7,0-1.3,0-2,0
	c-0.6,0-1.3,0-2,0C114.5,20.9,114.5,21.6,114.5,22.3z"/>
<path class="st2" d="M112.5,24.3c-0.7,0-1.3,0-2,0c0,0.6,0,1.3,0,2c0,0.6,0,1.3,0,2c0.7,0,1.4,0,2,0s1.3,0,2,0c0-0.6,0-1.3,0-2
	c0-0.6,0-1.3,0-2C113.8,24.3,113.2,24.3,112.5,24.3z"/>
<path class="st0" d="M223.9,20.3c-0.6,0-1.3,0-2,0s-1.3,0-2,0c0,0.6,0,1.3,0,2c0,0.6,0,1.3,0,2c0.6,0,1.3,0,2,0c0.6,0,1.3,0,2,0"/>
<path class="st0" d="M217.8,20.3c0.7,0,1.3,0,2,0c0-0.6,0-1.3,0-2c0-0.6,0-1.3,0-2c-0.6,0-1.3,0-2,0s-1.3,0-2,0c0,0.6,0,1.3,0,2
	c0,0.6,0,1.3,0,2C216.5,20.3,217.2,20.3,217.8,20.3z"/>
<path class="st0" d="M215.8,22.3c0-0.6,0-1.3,0-2c-0.6,0-1.3,0-2,0c-0.6,0-1.3,0-2,0c0,0.6,0,1.3,0,2c0,0.6,0,1.3,0,2
	c0.6,0,1.3,0,2,0c0.6,0,1.3,0,2,0C215.8,23.7,215.8,23,215.8,22.3z"/>
<path class="st0" d="M209.7,20.3c0.6,0,1.3,0,2,0c0-0.6,0-1.4,0-2s0-1.3,0-2c-0.6,0-1.3,0-2,0c-0.6,0-1.3,0-2,0c0,0.6,0,1.3,0,2
	c0,0.6,0,1.3,0,2C208.4,20.3,209.1,20.3,209.7,20.3z"/>
<path class="st0" d="M207.7,22.3c0-0.6,0-1.3,0-2c-0.7,0-1.3,0-2,0c-0.6,0-1.3,0-2,0c0,0.6,0,1.3,0,2c0,0.6,0,1.3,0,2
	c0.6,0,1.3,0,2,0s1.3,0,2,0C207.7,23.7,207.7,23,207.7,22.3z"/>
<path class="st0" d="M201.6,20.3c0.6,0,1.3,0,2,0c0-0.6,0-1.4,0-2s0-1.3,0-2c-0.7,0-1.3,0-2,0s-1.3,0-2,0c0,0.6,0,1.3,0,2
	c0,0.6,0,1.3,0,2C200.3,20.3,201,20.3,201.6,20.3z"/>
<path class="st0" d="M199.6,22.3c0-0.6,0-1.3,0-2c-0.7,0-1.3,0-2,0c-0.6,0-1.3,0-2,0c0,0.6,0,1.3,0,2c0,0.6,0,1.3,0,2
	c0.6,0,1.3,0,2,0c0.6,0,1.3,0,2,0C199.6,23.7,199.6,23,199.6,22.3z"/>
<path class="st0" d="M193.5,20.3c0.6,0,1.3,0,2,0c0-0.6,0-1.4,0-2s0-1.3,0-2c-0.6,0-1.3,0-2,0c-0.6,0-1.3,0-2,0c0,0.6,0,1.4,0,2
	s0,1.3,0,2C192.2,20.3,192.8,20.3,193.5,20.3z"/>
<path class="st0" d="M191.5,22.3c0-0.6,0-1.3,0-2c-0.6,0-1.3,0-2,0c-0.6,0-1.3,0-2,0c0,0.6,0,1.3,0,2c0,0.6,0,1.3,0,2
	c0.7,0,1.3,0,2,0c0.6,0,1.3,0,2,0C191.5,23.7,191.5,23,191.5,22.3z"/>
<path class="st0" d="M185.4,20.3c0.6,0,1.3,0,2,0c0-0.6,0-1.3,0-2c0-0.6,0-1.3,0-2c-0.7,0-1.3,0-2,0c-0.6,0-1.3,0-2,0
	c0,0.6,0,1.4,0,2s0,1.3,0,2C184.1,20.3,184.7,20.3,185.4,20.3z"/>
<path class="st0" d="M183.4,22.3c0-0.6,0-1.3,0-2c-0.6,0-1.3,0-2,0c-0.6,0-1.3,0-2,0c0,0.6,0,1.3,0,2c0,0.6,0,1.3,0,2
	c0.6,0,1.3,0,2,0c0.6,0,1.3,0,2,0C183.4,23.7,183.4,23,183.4,22.3z"/>
<path class="st0" d="M177.3,20.3c0.6,0,1.3,0,2,0c0-0.6,0-1.3,0-2c0-0.6,0-1.3,0-2c-0.7,0-1.3,0-2,0c-0.6,0-1.3,0-2,0
	c0,0.6,0,1.4,0,2s0,1.3,0,2C176,20.3,176.6,20.3,177.3,20.3z"/>
<path class="st0" d="M175.3,22.3c0-0.6,0-1.3,0-2c-0.7,0-1.3,0-2,0s-1.3,0-2,0c0,0.6,0,1.3,0,2c0,0.6,0,1.3,0,2c0.7,0,1.3,0,2,0
	c0.6,0,1.3,0,2,0C175.3,23.7,175.3,23,175.3,22.3z"/>
<path class="st0" d="M169.2,20.3c0.7,0,1.3,0,2,0c0-0.6,0-1.3,0-2c0-0.6,0-1.3,0-2c-0.7,0-1.3,0-2,0c-0.6,0-1.3,0-2,0
	c0,0.6,0,1.3,0,2c0,0.6,0,1.3,0,2C167.9,20.3,168.5,20.3,169.2,20.3z"/>
<path class="st0" d="M167.2,22.3c0-0.6,0-1.3,0-2c-0.7,0-1.3,0-2,0c0,0.6,0,1.3,0,2c0,0.6,0,1.3,0,2c0.7,0,1.3,0,2,0
	C167.2,23.7,167.2,23,167.2,22.3z"/>
<path class="st0" d="M163.1,20.2c0.6,0,1.3,0,2,0c0-0.6,0-1.3,0-2c0-0.6,0-1.3,0-2c-0.6,0-1.3,0-2,0c0,0.6,0,1.3,0,2
	C163.1,18.9,163.1,19.6,163.1,20.2z"/>
<path class="st0" d="M163.1,22.3c0-0.6,0-1.3,0-2c-0.6,0-1.3,0-2,0s-1.3,0-2,0c0,0.6,0,1.3,0,2c0,0.6,0,1.3,0,2c0.6,0,1.3,0,2,0
	c0.6,0,1.3,0,2,0C163.1,23.7,163.1,23,163.1,22.3z"/>
<path class="st0" d="M157,20.3c0.6,0,1.3,0,2,0c0-0.6,0-1.4,0-2s0-1.3,0-2c-0.7,0-1.3,0-2,0s-1.3,0-2,0c0,0.6,0,1.3,0,2
	c0,0.6,0,1.3,0,2C155.7,20.3,156.4,20.3,157,20.3z"/>
<path class="st0" d="M155,22.3c0-0.6,0-1.3,0-2c-0.7,0-1.3,0-2,0c-0.6,0-1.3,0-2,0c0,0.6,0,1.3,0,2c0,0.6,0,1.3,0,2c0.6,0,1.3,0,2,0
	c0.6,0,1.3,0,2,0C155,23.7,155,23,155,22.3z"/>
<path class="st0" d="M148.9,20.3c0.6,0,1.3,0,2,0c0-0.6,0-1.4,0-2s0-1.3,0-2c-0.6,0-1.3,0-2,0s-1.3,0-2,0c0,0.6,0,1.3,0,2
	c0,0.6,0,1.3,0,2C147.6,20.3,148.3,20.3,148.9,20.3z"/>
<path class="st0" d="M146.9,22.3c0-0.6,0-1.3,0-2c-0.6,0-1.3,0-2,0c-0.6,0-1.3,0-2,0c0,0.6,0,1.3,0,2c0,0.6,0,1.3,0,2
	c0.6,0,1.3,0,2,0c0.6,0,1.3,0,2,0C146.9,23.7,146.9,23,146.9,22.3z"/>
<path class="st0" d="M140.8,20.3c0.6,0,1.3,0,2,0c0-0.6,0-1.4,0-2s0-1.3,0-2c-0.6,0-1.3,0-2,0s-1.3,0-2,0c0,0.6,0,1.3,0,2
	c0,0.6,0,1.3,0,2C139.5,20.3,140.2,20.3,140.8,20.3z"/>
<path class="st0" d="M138.8,22.3c0-0.6,0-1.3,0-2c-0.7,0-1.3,0-2,0c-0.6,0-1.3,0-2,0c0,0.6,0,1.3,0,2c0,0.6,0,1.3,0,2
	c0.6,0,1.3,0,2,0s1.3,0,2,0C138.8,23.7,138.8,23,138.8,22.3z"/>
<path class="st0" d="M132.7,20.3c0.6,0,1.3,0,2,0c0-0.6,0-1.4,0-2s0-1.3,0-2c-0.6,0-1.3,0-2,0c-0.6,0-1.3,0-2,0c0,0.6,0,1.4,0,2
	s0,1.3,0,2C131.4,20.3,132.1,20.3,132.7,20.3z"/>
<path class="st0" d="M130.7,22.3c0-0.6,0-1.3,0-2c-0.6,0-1.3,0-2,0c-0.6,0-1.3,0-2,0c0,0.6,0,1.3,0,2c0,0.6,0,1.3,0,2
	c0.7,0,1.3,0,2,0c0.6,0,1.3,0,2,0C130.7,23.7,130.7,23,130.7,22.3z"/>
<path class="st0" d="M124.6,20.3c0.6,0,1.3,0,2,0c0-0.6,0-1.3,0-2c0-0.6,0-1.3,0-2c-0.7,0-1.3,0-2,0c-0.6,0-1.3,0-2,0
	c0,0.6,0,1.4,0,2s0,1.3,0,2C123.3,20.3,123.9,20.3,124.6,20.3z"/>
<path class="st0" d="M122.6,22.3c0-0.6,0-1.3,0-2c-0.6,0-1.4,0-2,0s-1.3,0-2,0c0,0.6,0,1.3,0,2c0,0.6,0,1.3,0,2c0.7,0,1.4,0,2,0
	s1.3,0,2,0C122.6,23.7,122.6,23,122.6,22.3z"/>
<path class="st0" d="M116.5,20.3c0.7,0,1.3,0,2,0c0-0.6,0-1.3,0-2c0-0.6,0-1.3,0-2c-0.7,0-1.3,0-2,0c-0.6,0-1.3,0-2,0
	c0,0.6,0,1.4,0,2s0,1.3,0,2C115.2,20.3,115.8,20.3,116.5,20.3z"/>
<path class="st0" d="M114.5,22.3c0-0.6,0-1.3,0-2c-0.7,0-1.3,0-2,0s-1.3,0-2,0c0,0.6,0,1.3,0,2c0,0.6,0,1.3,0,2c0.7,0,1.4,0,2,0
	s1.3,0,2,0C114.5,23.7,114.5,23,114.5,22.3z"/>
<path class="st2" d="M114.5,24.4c-0.6,0-1.3,0-2,0s-1.3,0-2,0c0,0.6,0,1.3,0,2c0,0.6,0,1.3,0,2c0.6,0,1.3,0,2,0c0.6,0,1.3,0,2,0"/>
<path class="st2" d="M106.4,22.3c0,0.6,0,1.3,0,2c0.7,0,1.3,0,2,0s1.3,0,2,0c0-0.6,0-1.3,0-2c0-0.6,0-1.3,0-2c-0.6,0-1.3,0-2,0
	s-1.3,0-2,0C106.4,20.9,106.4,21.6,106.4,22.3z"/>
<path class="st2" d="M104.4,24.3c-0.6,0-1.3,0-2,0c0,0.6,0,1.3,0,2c0,0.6,0,1.3,0,2c0.6,0,1.3,0,2,0c0.6,0,1.3,0,2,0
	c0-0.6,0-1.3,0-2c0-0.6,0-1.3,0-2C105.7,24.3,105,24.3,104.4,24.3z"/>
<path class="st2" d="M98.3,22.3c0,0.6,0,1.3,0,2c0.7,0,1.3,0,2,0c0.6,0,1.3,0,2,0c0-0.6,0-1.3,0-2c0-0.6,0-1.3,0-2c-0.6,0-1.3,0-2,0
	c-0.6,0-1.3,0-2,0C98.3,20.9,98.3,21.6,98.3,22.3z"/>
<path class="st2" d="M96.3,24.3c-0.6,0-1.3,0-2,0c0,0.6,0,1.3,0,2c0,0.6,0,1.3,0,2c0.6,0,1.3,0,2,0s1.3,0,2,0c0-0.6,0-1.3,0-2
	c0-0.6,0-1.3,0-2C97.6,24.3,96.9,24.3,96.3,24.3z"/>
<path class="st2" d="M90.2,22.3c0,0.6,0,1.3,0,2c0.6,0,1.3,0,2,0c0.6,0,1.3,0,2,0c0-0.6,0-1.3,0-2c0-0.6,0-1.3,0-2c-0.7,0-1.3,0-2,0
	s-1.3,0-2,0C90.2,20.9,90.2,21.6,90.2,22.3z"/>
<path class="st2" d="M88.2,24.3c-0.6,0-1.3,0-2,0c0,0.6,0,1.3,0,2c0,0.6,0,1.3,0,2c0.6,0,1.3,0,2,0c0.6,0,1.3,0,2,0c0-0.6,0-1.3,0-2
	c0-0.6,0-1.3,0-2C89.5,24.3,88.8,24.3,88.2,24.3z"/>
<path class="st2" d="M82.1,22.3c0,0.6,0,1.3,0,2c0.6,0,1.3,0,2,0c0.6,0,1.3,0,2,0c0-0.6,0-1.3,0-2c0-0.6,0-1.3,0-2c-0.6,0-1.3,0-2,0
	c-0.6,0-1.3,0-2,0C82.1,20.9,82.1,21.6,82.1,22.3z"/>
<path class="st2" d="M80.1,24.3c-0.6,0-1.3,0-2,0c0,0.6,0,1.3,0,2c0,0.6,0,1.3,0,2c0.7,0,1.3,0,2,0c0.6,0,1.3,0,2,0c0-0.6,0-1.3,0-2
	c0-0.6,0-1.3,0-2C81.4,24.3,80.7,24.3,80.1,24.3z"/>
<path class="st2" d="M74,22.3c0,0.6,0,1.3,0,2c0.6,0,1.3,0,2,0c0.6,0,1.3,0,2,0c0-0.6,0-1.3,0-2c0-0.6,0-1.3,0-2c-0.7,0-1.3,0-2,0
	c-0.6,0-1.3,0-2,0C74,20.9,74,21.6,74,22.3z"/>
<path class="st2" d="M72,24.3c-0.6,0-1.3,0-2,0c0,0.6,0,1.3,0,2c0,0.6,0,1.3,0,2c0.6,0,1.3,0,2,0c0.6,0,1.3,0,2,0c0-0.6,0-1.3,0-2
	c0-0.6,0-1.3,0-2C73.3,24.3,72.6,24.3,72,24.3z"/>
<path class="st2" d="M65.9,22.3c0,0.6,0,1.3,0,2c0.7,0,1.3,0,2,0c0.6,0,1.3,0,2,0c0-0.6,0-1.3,0-2c0-0.6,0-1.3,0-2c-0.7,0-1.3,0-2,0
	c-0.6,0-1.3,0-2,0C65.9,20.9,65.9,21.6,65.9,22.3z"/>
<path class="st2" d="M63.9,24.3c-0.7,0-1.3,0-2,0c0,0.6,0,1.3,0,2c0,0.6,0,1.3,0,2c0.7,0,1.3,0,2,0c0.6,0,1.3,0,2,0c0-0.6,0-1.3,0-2
	c0-0.6,0-1.3,0-2C65.2,24.3,64.5,24.3,63.9,24.3z"/>
<path class="st2" d="M57.7,22.3c0,0.6,0,1.3,0,2c0.7,0,1.3,0,2,0s1.3,0,2,0c0-0.6,0-1.3,0-2c0-0.6,0-1.3,0-2c-0.7,0-1.3,0-2,0
	c-0.6,0-1.3,0-2,0C57.7,20.9,57.7,21.6,57.7,22.3z"/>
<path class="st2" d="M57.8,24.4c-0.7,0-1.3,0-2,0c0,0.6,0,1.3,0,2c0,0.6,0,1.3,0,2c0.7,0,1.3,0,2,0c0-0.6,0-1.3,0-2
	C57.7,25.7,57.7,25,57.8,24.4z"/>
<path class="st2" d="M53.7,22.3c0,0.6,0,1.3,0,2c0.6,0,1.3,0,2,0c0-0.6,0-1.3,0-2c0-0.6,0-1.3,0-2c-0.6,0-1.3,0-2,0
	C53.7,20.9,53.7,21.6,53.7,22.3z"/>
<path class="st2" d="M51.7,24.3c-0.7,0-1.3,0-2,0c0,0.6,0,1.3,0,2c0,0.6,0,1.3,0,2c0.6,0,1.3,0,2,0c0.6,0,1.3,0,2,0c0-0.6,0-1.3,0-2
	c0-0.6,0-1.3,0-2C53,24.3,52.3,24.3,51.7,24.3z"/>
<path class="st2" d="M45.6,22.3c0,0.6,0,1.3,0,2c0.6,0,1.3,0,2,0c0.6,0,1.3,0,2,0c0-0.6,0-1.3,0-2c0-0.6,0-1.3,0-2c-0.7,0-1.3,0-2,0
	s-1.3,0-2,0C45.6,20.9,45.6,21.6,45.6,22.3z"/>
<path class="st2" d="M43.6,24.3c-0.6,0-1.3,0-2,0c0,0.6,0,1.3,0,2c0,0.6,0,1.3,0,2c0.6,0,1.3,0,2,0c0.6,0,1.3,0,2,0c0-0.6,0-1.3,0-2
	c0-0.6,0-1.3,0-2C44.9,24.3,44.2,24.3,43.6,24.3z"/>
<path class="st2" d="M37.5,22.3c0,0.6,0,1.3,0,2c0.7,0,1.3,0,2,0c0.6,0,1.3,0,2,0c0-0.6,0-1.3,0-2c0-0.6,0-1.3,0-2c-0.6,0-1.3,0-2,0
	s-1.3,0-2,0C37.5,20.9,37.5,21.6,37.5,22.3z"/>
<path class="st2" d="M35.5,24.3c-0.6,0-1.3,0-2,0c0,0.6,0,1.3,0,2c0,0.6,0,1.3,0,2c0.6,0,1.3,0,2,0c0.6,0,1.3,0,2,0c0-0.6,0-1.3,0-2
	c0-0.6,0-1.3,0-2C36.8,24.3,36.1,24.3,35.5,24.3z"/>
<path class="st2" d="M29.4,22.3c0,0.6,0,1.3,0,2c0.6,0,1.3,0,2,0c0.6,0,1.3,0,2,0c0-0.6,0-1.3,0-2c0-0.6,0-1.3,0-2c-0.6,0-1.3,0-2,0
	s-1.3,0-2,0C29.4,20.9,29.4,21.6,29.4,22.3z"/>
<path class="st2" d="M27.4,24.3c-0.6,0-1.3,0-2,0c0,0.6,0,1.3,0,2c0,0.6,0,1.3,0,2c0.6,0,1.3,0,2,0s1.3,0,2,0c0-0.6,0-1.3,0-2
	c0-0.6,0-1.3,0-2C28.7,24.3,28,24.3,27.4,24.3z"/>
<path class="st2" d="M21.3,22.3c0,0.6,0,1.3,0,2c0.6,0,1.3,0,2,0c0.6,0,1.3,0,2,0c0-0.6,0-1.3,0-2c0-0.6,0-1.3,0-2c-0.6,0-1.3,0-2,0
	c-0.6,0-1.3,0-2,0C21.3,20.9,21.3,21.6,21.3,22.3z"/>
<path class="st2" d="M19.3,24.3c-0.6,0-1.3,0-2,0c0,0.6,0,1.3,0,2c0,0.6,0,1.3,0,2c0.7,0,1.3,0,2,0c0.6,0,1.3,0,2,0c0-0.6,0-1.3,0-2
	c0-0.6,0-1.3,0-2C20.6,24.3,19.9,24.3,19.3,24.3z"/>
<path class="st2" d="M13.2,22.3c0,0.6,0,1.3,0,2c0.6,0,1.3,0,2,0c0.6,0,1.3,0,2,0c0-0.6,0-1.3,0-2c0-0.6,0-1.3,0-2c-0.7,0-1.3,0-2,0
	c-0.6,0-1.3,0-2,0C13.2,20.9,13.2,21.6,13.2,22.3z"/>
<path class="st2" d="M11.2,24.3c-0.6,0-1.3,0-2,0c0,0.6,0,1.3,0,2c0,0.6,0,1.3,0,2c0.7,0,1.3,0,2,0c0.6,0,1.3,0,2,0c0-0.6,0-1.3,0-2
	c0-0.6,0-1.3,0-2C12.5,24.3,11.8,24.3,11.2,24.3z"/>
<path class="st2" d="M5.1,22.3c0,0.6,0,1.3,0,2c0.7,0,1.3,0,2,0s1.3,0,2,0c0-0.6,0-1.3,0-2c0-0.6,0-1.3,0-2c-0.7,0-1.4,0-2,0
	s-1.3,0-2,0C5.1,20.9,5.1,21.6,5.1,22.3z"/>
<path class="st2" d="M3.1,24.3c-0.7,0-1.3,0-2,0c0,0.6,0,1.3,0,2c0,0.6,0,1.3,0,2c0.7,0,1.4,0,2,0s1.3,0,2,0c0-0.6,0-1.3,0-2
	c0-0.6,0-1.3,0-2C4.4,24.3,3.8,24.3,3.1,24.3z"/>
<path class="st0" d="M114.5,20.3c-0.6,0-1.3,0-2,0s-1.3,0-2,0c0,0.6,0,1.3,0,2c0,0.6,0,1.3,0,2c0.6,0,1.3,0,2,0c0.6,0,1.3,0,2,0"/>
<path class="st0" d="M108.4,20.3c0.7,0,1.3,0,2,0c0-0.6,0-1.3,0-2c0-0.6,0-1.3,0-2c-0.6,0-1.3,0-2,0s-1.3,0-2,0c0,0.6,0,1.3,0,2
	c0,0.6,0,1.3,0,2C107.1,20.3,107.7,20.3,108.4,20.3z"/>
<path class="st0" d="M106.4,22.3c0-0.6,0-1.3,0-2c-0.6,0-1.3,0-2,0c-0.6,0-1.3,0-2,0c0,0.6,0,1.3,0,2c0,0.6,0,1.3,0,2
	c0.6,0,1.3,0,2,0c0.6,0,1.3,0,2,0C106.4,23.7,106.4,23,106.4,22.3z"/>
<path class="st0" d="M100.3,20.3c0.6,0,1.3,0,2,0c0-0.6,0-1.4,0-2s0-1.3,0-2c-0.6,0-1.3,0-2,0c-0.6,0-1.3,0-2,0c0,0.6,0,1.3,0,2
	c0,0.6,0,1.3,0,2C99,20.3,99.6,20.3,100.3,20.3z"/>
<path class="st0" d="M98.3,22.3c0-0.6,0-1.3,0-2c-0.7,0-1.3,0-2,0c-0.6,0-1.3,0-2,0c0,0.6,0,1.3,0,2c0,0.6,0,1.3,0,2
	c0.6,0,1.3,0,2,0s1.3,0,2,0C98.3,23.7,98.3,23,98.3,22.3z"/>
<path class="st0" d="M92.2,20.3c0.6,0,1.3,0,2,0c0-0.6,0-1.4,0-2s0-1.3,0-2c-0.7,0-1.3,0-2,0s-1.3,0-2,0c0,0.6,0,1.3,0,2
	c0,0.6,0,1.3,0,2C90.8,20.3,91.5,20.3,92.2,20.3z"/>
<path class="st0" d="M90.2,22.3c0-0.6,0-1.3,0-2c-0.7,0-1.3,0-2,0c-0.6,0-1.3,0-2,0c0,0.6,0,1.3,0,2c0,0.6,0,1.3,0,2
	c0.6,0,1.3,0,2,0c0.6,0,1.3,0,2,0C90.2,23.7,90.2,23,90.2,22.3z"/>
<path class="st0" d="M84.1,20.3c0.6,0,1.3,0,2,0c0-0.6,0-1.4,0-2s0-1.3,0-2c-0.6,0-1.3,0-2,0c-0.6,0-1.3,0-2,0c0,0.6,0,1.4,0,2
	s0,1.3,0,2C82.7,20.3,83.4,20.3,84.1,20.3z"/>
<path class="st0" d="M82.1,22.3c0-0.6,0-1.3,0-2c-0.6,0-1.3,0-2,0c-0.6,0-1.3,0-2,0c0,0.6,0,1.3,0,2c0,0.6,0,1.3,0,2
	c0.7,0,1.3,0,2,0c0.6,0,1.3,0,2,0C82.1,23.7,82.1,23,82.1,22.3z"/>
<path class="st0" d="M76,20.3c0.6,0,1.3,0,2,0c0-0.6,0-1.3,0-2c0-0.6,0-1.3,0-2c-0.7,0-1.3,0-2,0c-0.6,0-1.3,0-2,0c0,0.6,0,1.4,0,2
	s0,1.3,0,2C74.6,20.3,75.3,20.3,76,20.3z"/>
<path class="st0" d="M74,22.3c0-0.6,0-1.3,0-2c-0.6,0-1.3,0-2,0c-0.6,0-1.3,0-2,0c0,0.6,0,1.3,0,2c0,0.6,0,1.3,0,2c0.6,0,1.3,0,2,0
	c0.6,0,1.3,0,2,0C74,23.7,74,23,74,22.3z"/>
<path class="st0" d="M67.9,20.3c0.6,0,1.3,0,2,0c0-0.6,0-1.3,0-2c0-0.6,0-1.3,0-2c-0.7,0-1.3,0-2,0c-0.6,0-1.3,0-2,0
	c0,0.6,0,1.4,0,2s0,1.3,0,2C66.5,20.3,67.2,20.3,67.9,20.3z"/>
<path class="st0" d="M65.9,22.3c0-0.6,0-1.3,0-2c-0.7,0-1.3,0-2,0s-1.3,0-2,0c0,0.6,0,1.3,0,2c0,0.6,0,1.3,0,2c0.7,0,1.3,0,2,0
	c0.6,0,1.3,0,2,0C65.9,23.7,65.9,23,65.9,22.3z"/>
<path class="st0" d="M59.7,20.3c0.7,0,1.3,0,2,0c0-0.6,0-1.3,0-2c0-0.6,0-1.3,0-2c-0.7,0-1.3,0-2,0c-0.6,0-1.3,0-2,0
	c0,0.6,0,1.3,0,2c0,0.6,0,1.3,0,2C58.4,20.3,59.1,20.3,59.7,20.3z"/>
<path class="st0" d="M57.7,22.3c0-0.6,0-1.3,0-2c-0.7,0-1.3,0-2,0c0,0.6,0,1.3,0,2c0,0.6,0,1.3,0,2c0.7,0,1.3,0,2,0
	C57.7,23.7,57.7,23,57.7,22.3z"/>
<path class="st0" d="M53.7,20.2c0.6,0,1.3,0,2,0c0-0.6,0-1.3,0-2c0-0.6,0-1.3,0-2c-0.6,0-1.3,0-2,0c0,0.6,0,1.3,0,2
	C53.7,18.9,53.7,19.6,53.7,20.2z"/>
<path class="st0" d="M53.7,22.3c0-0.6,0-1.3,0-2c-0.6,0-1.3,0-2,0s-1.3,0-2,0c0,0.6,0,1.3,0,2c0,0.6,0,1.3,0,2c0.6,0,1.3,0,2,0
	c0.6,0,1.3,0,2,0C53.7,23.7,53.7,23,53.7,22.3z"/>
<path class="st0" d="M47.6,20.3c0.6,0,1.3,0,2,0c0-0.6,0-1.4,0-2s0-1.3,0-2c-0.7,0-1.3,0-2,0s-1.3,0-2,0c0,0.6,0,1.3,0,2
	c0,0.6,0,1.3,0,2C46.3,20.3,46.9,20.3,47.6,20.3z"/>
<path class="st0" d="M45.6,22.3c0-0.6,0-1.3,0-2c-0.7,0-1.3,0-2,0c-0.6,0-1.3,0-2,0c0,0.6,0,1.3,0,2c0,0.6,0,1.3,0,2
	c0.6,0,1.3,0,2,0c0.6,0,1.3,0,2,0C45.6,23.7,45.6,23,45.6,22.3z"/>
<path class="st0" d="M39.5,20.3c0.6,0,1.3,0,2,0c0-0.6,0-1.4,0-2s0-1.3,0-2c-0.6,0-1.3,0-2,0s-1.3,0-2,0c0,0.6,0,1.3,0,2
	c0,0.6,0,1.3,0,2C38.2,20.3,38.8,20.3,39.5,20.3z"/>
<path class="st0" d="M37.5,22.3c0-0.6,0-1.3,0-2c-0.6,0-1.3,0-2,0c-0.6,0-1.3,0-2,0c0,0.6,0,1.3,0,2c0,0.6,0,1.3,0,2
	c0.6,0,1.3,0,2,0c0.6,0,1.3,0,2,0C37.5,23.7,37.5,23,37.5,22.3z"/>
<path class="st0" d="M31.4,20.3c0.6,0,1.3,0,2,0c0-0.6,0-1.4,0-2s0-1.3,0-2c-0.6,0-1.3,0-2,0s-1.3,0-2,0c0,0.6,0,1.3,0,2
	c0,0.6,0,1.3,0,2C30.1,20.3,30.7,20.3,31.4,20.3z"/>
<path class="st0" d="M29.4,22.3c0-0.6,0-1.3,0-2c-0.7,0-1.3,0-2,0c-0.6,0-1.3,0-2,0c0,0.6,0,1.3,0,2c0,0.6,0,1.3,0,2
	c0.6,0,1.3,0,2,0s1.3,0,2,0C29.4,23.7,29.4,23,29.4,22.3z"/>
<path class="st0" d="M23.3,20.3c0.6,0,1.3,0,2,0c0-0.6,0-1.4,0-2s0-1.3,0-2c-0.6,0-1.3,0-2,0c-0.6,0-1.3,0-2,0c0,0.6,0,1.4,0,2
	s0,1.3,0,2C21.9,20.3,22.6,20.3,23.3,20.3z"/>
<path class="st0" d="M21.3,22.3c0-0.6,0-1.3,0-2c-0.6,0-1.3,0-2,0c-0.6,0-1.3,0-2,0c0,0.6,0,1.3,0,2c0,0.6,0,1.3,0,2
	c0.7,0,1.3,0,2,0c0.6,0,1.3,0,2,0C21.3,23.7,21.3,23,21.3,22.3z"/>
<path class="st0" d="M15.2,20.3c0.6,0,1.3,0,2,0c0-0.6,0-1.3,0-2c0-0.6,0-1.3,0-2c-0.7,0-1.3,0-2,0c-0.6,0-1.3,0-2,0
	c0,0.6,0,1.4,0,2s0,1.3,0,2C13.8,20.3,14.5,20.3,15.2,20.3z"/>
<path class="st0" d="M13.2,22.3c0-0.6,0-1.3,0-2c-0.6,0-1.3,0-2,0c-0.6,0-1.3,0-2,0c0,0.6,0,1.3,0,2c0,0.6,0,1.3,0,2
	c0.7,0,1.3,0,2,0c0.6,0,1.3,0,2,0C13.2,23.7,13.2,23,13.2,22.3z"/>
<path class="st0" d="M7.1,20.3c0.7,0,1.3,0,2,0c0-0.6,0-1.3,0-2c0-0.6,0-1.3,0-2c-0.7,0-1.4,0-2,0s-1.3,0-2,0c0,0.6,0,1.4,0,2
	s0,1.3,0,2C5.7,20.3,6.4,20.3,7.1,20.3z"/>
<path class="st0" d="M5.1,22.3c0-0.6,0-1.3,0-2c-0.7,0-1.3,0-2,0s-1.3,0-2,0c0,0.6,0,1.3,0,2c0,0.6,0,1.3,0,2c0.7,0,1.4,0,2,0
	s1.3,0,2,0C5.1,23.7,5.1,23,5.1,22.3z"/>
</svg>
